<svg clip-rule="evenodd" fill-rule="evenodd" stroke-linejoin="round" stroke-miterlimit="2" viewBox="0 0 799 934" xmlns="http://www.w3.org/2000/svg" xmlns:xlink="http://www.w3.org/1999/xlink"><linearGradient id="a"><stop offset="0" stop-color="#fff" stop-opacity="0"/><stop offset="1" stop-color="#cfe3ff"/></linearGradient><linearGradient id="b" gradientTransform="matrix(0 629.897 -629.897 0 5191.36 7666.2)" gradientUnits="userSpaceOnUse" x1="0" x2="1" xlink:href="#a" y1="0" y2="0"/><linearGradient id="c" gradientTransform="matrix(132.247 0 0 129.105 2796.72 8048.53)" gradientUnits="userSpaceOnUse" x1="0" x2="1" y1="0" y2="0"><stop offset="0" stop-color="#0067ff" stop-opacity="0"/><stop offset="1" stop-color="#003e99" stop-opacity=".18"/></linearGradient><linearGradient id="d" gradientTransform="matrix(0 598.781 -598.781 0 5191.36 7666.2)" gradientUnits="userSpaceOnUse" x1="0" x2="1" xlink:href="#a" y1="0" y2="0"/><linearGradient id="e" gradientTransform="matrix(0 417.503 -725.812 0 2967.4 8948.15)" gradientUnits="userSpaceOnUse" x1="0" x2="1" y1="0" y2="0"><stop offset="0" stop-color="#abcdff"/><stop offset="1" stop-color="#003e99"/></linearGradient><linearGradient id="f" gradientTransform="matrix(0 161 -161 0 3044 9221)" gradientUnits="userSpaceOnUse" x1="0" x2="1" y1="0" y2="0"><stop offset="0" stop-color="#abcdff"/><stop offset="1" stop-color="#abcdff" stop-opacity="0"/></linearGradient><linearGradient id="g" gradientTransform="matrix(0 -173 173 0 2950.57 9365)" gradientUnits="userSpaceOnUse" x1="0" x2="1" y1="0" y2="0"><stop offset="0" stop-color="#abcdff" stop-opacity="0"/><stop offset="1" stop-color="#abcdff"/></linearGradient><g transform="matrix(.738818 0 0 .863889 .91 .79)"><path d="m0 0h1080v1080h-1080z" fill="none"/><circle cx="5170.39" cy="8039.98" fill="url(#b)" r="298.983" transform="matrix(1.23307 0 0 1.05456 -5827.86 -8140.28)"/><path d="m2735 8002.88h214v81.961h-214z" fill="url(#c)" transform="matrix(0 1.67209 -4.53881 0 37057.2 -4507.07)"/><circle cx="5170.39" cy="8039.98" fill="url(#d)" r="298.983" transform="matrix(-1.23307 0 0 -1.05456 6923.1 9217.3)"/><path d="m3115 8986.89c0-10.98-15.49-19.89-34.58-19.89h-211.84c-19.09 0-34.58 8.91-34.58 19.89v176.22c0 10.98 15.49 19.89 34.58 19.89h211.84c19.09 0 34.58-8.91 34.58-19.89z" fill="url(#e)" transform="matrix(1.32386 0 0 1.96828 -3390.2 -17323.6)"/><path d="m5040 5882h162v14h-162z" fill="#213140" transform="matrix(.826217 0 0 .884554 -3756 -4818)"/><path d="m5040 5882h162v14h-162z" fill="#213140" transform="matrix(.311346 0 0 .884554 -1010.44 -4818)"/><g fill="#fff"><path d="m5040 5882h162v14h-162z" transform="matrix(.527592 0 0 .884554 -2250.92 -4792.34)"/><path d="m5040 5882h162v14h-162z" transform="matrix(.331941 0 0 .884554 -1264.84 -4768.16)"/><path d="m5040 5882h162v14h-162z" transform="matrix(1.19692 0 0 .884554 -5558.09 -4768.16)"/><path d="m5040 5882h162v14h-162z" transform="matrix(.960084 0 0 .884554 -4430.68 -4746.88)"/></g><path d="m5202 5882.58c0-.32-3.17-.58-7.09-.58-26.71 0-121.11 0-147.82 0-3.92 0-7.09.26-7.09.58v12.84c0 .32 3.17.58 7.09.58h147.82c3.92 0 7.09-.26 7.09-.58 0-2.28 0-10.56 0-12.84z" fill="#8bb1e9" transform="matrix(.485299 0 0 5.06266 -2038.62 -29291.6)"/><path d="m5202 5882.58c0-.32-3.17-.58-7.09-.58-26.71 0-121.11 0-147.82 0-3.92 0-7.09.26-7.09.58v12.84c0 .32 3.17.58 7.09.58h147.82c3.92 0 7.09-.26 7.09-.58 0-2.28 0-10.56 0-12.84z" fill="#6e98d7" transform="matrix(.485299 0 0 5.06266 -1949.76 -29291.6)"/><path d="m5192 5807.34c0-5.15-2.97-9.34-6.62-9.34h-147.76c-3.65 0-6.62 4.19-6.62 9.34v33.32c0 5.15 2.97 9.34 6.62 9.34h147.76c3.65 0 6.62-4.19 6.62-9.34z" fill="#f7b437" transform="matrix(1.8457 0 0 1.11778 -8886.7 -5820.12)"/><path d="m3060.32 9306.65v-74.65c0-1.79 1.45-3.25 3.25-3.25 1.79 0 3.25 1.46 3.25 3.25v77.35l-33 33v81.65c0 1.79-1.46 3.25-3.25 3.25-1.8 0-3.25-1.46-3.25-3.25v-84.35z" fill="url(#f)" transform="matrix(1.66818 0 0 1.42667 -4414.39 -12408.5)"/><path d="m2931.75 9302.35-26-26v-43.6c0-1.79 1.46-3.25 3.25-3.25s3.25 1.46 3.25 3.25v40.9l26 26v90.35c0 1.79-1.46 3.25-3.25 3.25s-3.25-1.46-3.25-3.25z" fill="url(#g)" transform="matrix(1.66818 0 0 1.42667 -4453.7 -12408.5)"/><path d="m5202 5889c0-3.86-2.21-7-4.94-7h-152.12c-2.73 0-4.94 3.14-4.94 7s2.21 7 4.94 7h152.12c2.73 0 4.94-3.14 4.94-7z" fill="#fff" transform="matrix(.918309 0 0 .553824 -4155.04 -2571.65)"/></g></svg>