<svg xmlns="http://www.w3.org/2000/svg" width="256" height="148" viewBox="0 0 256 148">
  <defs>
    <linearGradient id="backup-upgrade-promo-a" x1="50%" x2="50%" y1="100%" y2="0%">
      <stop offset="0%" stop-color="#000B2D"/>
      <stop offset="100%" stop-color="#102B54"/>
    </linearGradient>
    <linearGradient id="backup-upgrade-promo-b" x1="12.851%" x2="91.597%" y1="-.697%" y2="117.995%">
      <stop offset="0%" stop-color="#FFF"/>
      <stop offset="100%" stop-color="#DDECFF"/>
    </linearGradient>
    <linearGradient id="backup-upgrade-promo-c" x1="66.155%" x2="12.86%" y1="77.893%" y2="-2.181%">
      <stop offset="0%" stop-color="#FFF"/>
      <stop offset="100%" stop-color="#E2EFFE"/>
    </linearGradient>
  </defs>
  <g fill="none" fill-rule="evenodd">
    <rect width="256" height="148" fill="url(#backup-upgrade-promo-a)"/>
    <g transform="translate(20.644 10)">
      <rect width="213" height="249" x=".356"/>
      <ellipse cx="87.505" cy="86.951" fill="url(#backup-upgrade-promo-b)" stroke="#CCE1FF" stroke-width=".5" rx="87.386" ry="86.952" transform="translate(19.356 38)"/>
      <ellipse cx="52.99" cy="52.917" fill="url(#backup-upgrade-promo-c)" stroke="#CCE1FF" stroke-width=".5" rx="52.918" ry="52.918" transform="translate(54.356 72)"/>
      <path fill="#DBE5FF" d="M77.3082454,3.25824621 C77.3082454,1.45843095 75.850505,0 74.0516987,0 C61.4385806,0 15.8696648,0 3.25654668,0 C1.45774044,0 0,1.45843095 0,3.25824621 C0,17.5534241 0,74.6435641 0,88.938742 C0,90.7385573 1.45774044,92.1969882 3.25654668,92.1969882 C15.8696648,92.1969882 61.4385806,92.1969882 74.0516987,92.1969882 C75.850505,92.1969882 77.3082454,90.7385573 77.3082454,88.938742 C77.3082454,74.6435641 77.3082454,17.5534241 77.3082454,3.25824621 Z" transform="translate(70.356 85)"/>
      <path fill="#C2D3FF" d="M86.1223237,3.23667828 C86.1223237,1.44958704 84.6728794,0 82.8857004,0 C69.2862538,0 16.83607,0 3.23662328,0 C1.44944434,0 0,1.44958704 0,3.23667828 C0,18.6028181 0,84.0721688 0,99.4370155 C0,101.224107 1.44944434,102.673694 3.23662328,102.673694 C16.83607,102.673694 69.2862538,102.673694 82.8857004,102.673694 C84.6728794,102.673694 86.1223237,101.224107 86.1223237,99.4370155 C86.1223237,84.0721688 86.1223237,18.6028181 86.1223237,3.23667828 Z" transform="translate(66.356 93)"/>
      <g transform="translate(59.356 101)">
        <path fill="#FFF" stroke="#B6D5EB" stroke-width=".5" d="M99.1659516,3.23550872 C99.1659516,2.3767544 98.8240559,1.55443207 98.2164214,0.947232044 C97.6087869,0.341766873 96.7840243,0 95.9252342,0 C80.9158517,0 18.2500999,0 3.24071737,0 C2.38192727,0 1.5571647,0.341766873 0.94953019,0.947232044 C0.341895683,1.55443207 0,2.3767544 0,3.23550872 L0,134.512155 C0,135.370909 0.341895683,136.193231 0.94953019,136.800432 C1.5571647,137.405897 2.38192727,137.747664 3.24071737,137.747664 C18.2500999,137.747664 80.9158517,137.747664 95.9252342,137.747664 C96.7840243,137.747664 97.6087869,137.405897 98.2164214,136.800432 C98.8240559,136.193231 99.1659516,135.370909 99.1659516,134.512155 C99.1659516,115.829477 99.1659516,21.9181862 99.1659516,3.23550872 Z" transform="translate(.068 .216)"/>
        <path fill="#0067FF" d="M42.406373,2.15505646 C42.406373,0.966775862 41.4397184,0 40.2465453,0 L2.1598277,0 C0.96665459,0 0,0.966775862 0,2.15505646 L0,9.84311653 C0,11.0313971 0.96665459,11.998173 2.1598277,11.998173 L40.2465453,11.998173 C41.4397184,11.998173 42.406373,11.0313971 42.406373,9.84311653 L42.406373,2.15505646 Z" transform="translate(6.371 6.617)"/>
        <path fill="#FFF" stroke="#B6D5EB" stroke-width=".5" d="M42.406373,2.15505646 C42.406373,0.966775862 41.4397184,0 40.2465453,0 L2.1598277,0 C0.96665459,0 0,0.966775862 0,2.15505646 L0,9.84311653 C0,11.0313971 0.96665459,11.998173 2.1598277,11.998173 L40.2465453,11.998173 C41.4397184,11.998173 42.406373,11.0313971 42.406373,9.84311653 L42.406373,2.15505646 Z" transform="translate(52.012 6.617)"/>
        <rect width="35.23" height="2.307" fill="#213140" transform="translate(7.464 27.905)"/>
        <ellipse cx="2.283" cy="2.423" fill="#FFF" stroke="#B6D5EB" stroke-width=".5" rx="2.283" ry="2.423" transform="translate(39.21 35.522)"/>
        <ellipse cx="2.283" cy="2.423" fill="#FFF" stroke="#B6D5EB" stroke-width=".5" rx="2.283" ry="2.423" transform="translate(63.688 35.522)"/>
        <g transform="translate(7.318 35.337)">
          <ellipse cx="2.283" cy="2.423" fill="#FFF" stroke="#B6D5EB" stroke-width=".5" rx="2.283" ry="2.423" transform="translate(.141 .185)"/>
          <ellipse cx="1.414" cy="1.5" fill="#0067FF" rx="1.414" ry="1.5" transform="translate(1.014 1.103)"/>
        </g>
      </g>
      <g transform="translate(50.356 22)">
        <path fill="#E4EBFF" d="M29.4068654,1.66833286 C29.4068654,0.748520652 28.6495735,0 27.71532,0 L1.69154535,0 C0.757291842,0 0,0.748520652 0,1.66833286 L0,35.7928966 C0,36.7150553 0.757291842,37.4612295 1.69154535,37.4612295 L27.71532,37.4612295 C28.6495735,37.4612295 29.4068654,36.7150553 29.4068654,35.7928966 L29.4068654,1.66833286 Z" transform="translate(.06 .219)"/>
        <path fill="#D1DCFC" d="M17.0474249,0.61206055 C17.0474249,0.274303594 16.7698385,0 16.4273814,0 L0.620043506,0 C0.277586387,0 0,0.274303594 0,0.61206055 L0,1.49842469 C0,1.83631384 0.277586387,2.11048524 0.620043506,2.11048524 L16.4273814,2.11048524 C16.7698385,2.11048524 17.0474249,1.83631384 17.0474249,1.49842469 L17.0474249,0.61206055 Z" transform="translate(2.195 5.49)"/>
        <path fill="#D1DCFC" d="M25.1294585,0.61206055 C25.1294585,0.274303594 24.8514777,0 24.5090055,0 L0.620453001,0 C0.277980735,0 0,0.274303594 0,0.61206055 L0,1.49842469 C0,1.83631384 0.277980735,2.11048524 0.620453001,2.11048524 L24.5090055,2.11048524 C24.8514777,2.11048524 25.1294585,1.83631384 25.1294585,1.49842469 L25.1294585,0.61206055 Z" transform="translate(2.196 8.986)"/>
      </g>
      <g transform="translate(92.356 35)">
        <path fill="#FFBC62" d="M29.4068654,1.66833286 C29.4068654,0.748520652 28.6495735,0 27.71532,0 L1.69154535,0 C0.757291842,0 0,0.748520652 0,1.66833286 L0,35.7928966 C0,36.7150553 0.757291842,37.4612295 1.69154535,37.4612295 L27.71532,37.4612295 C28.6495735,37.4612295 29.4068654,36.7150553 29.4068654,35.7928966 L29.4068654,1.66833286 Z" transform="translate(.172 .219)"/>
        <path fill="#475170" d="M17.0474249,0.61206055 C17.0474249,0.274303594 16.7698385,0 16.4273814,0 L0.620043506,0 C0.277586387,0 0,0.274303594 0,0.61206055 L0,1.49842469 C0,1.83631384 0.277586387,2.11048524 0.620043506,2.11048524 L16.4273814,2.11048524 C16.7698385,2.11048524 17.0474249,1.83631384 17.0474249,1.49842469 L17.0474249,0.61206055 Z" transform="translate(2.31 5.49)"/>
        <path fill="#475170" d="M25.1294585,0.61206055 C25.1294585,0.274303594 24.8514777,0 24.5090055,0 L0.620453001,0 C0.277980735,0 0,0.274303594 0,0.61206055 L0,1.49842469 C0,1.83631384 0.277980735,2.11048524 0.620453001,2.11048524 L24.5090055,2.11048524 C24.8514777,2.11048524 25.1294585,1.83631384 25.1294585,1.49842469 L25.1294585,0.61206055 Z" transform="translate(2.31 8.986)"/>
      </g>
      <line x1=".251" x2=".251" y1=".207" y2="20.996" stroke="#FFBC62" stroke-dasharray=".441 1.322 0 0" stroke-width=".5" transform="translate(107.356 76)"/>
      <polygon fill="#FFF" stroke="#FFBC62" stroke-width=".5" points="2.381 0 4.762 3.509 0 3.509" transform="rotate(180 54.678 50)"/>
      <ellipse cx="1.649" cy="1.649" fill="#FFF" stroke="#FFBC62" stroke-width=".5" rx="1.649" ry="1.649" transform="translate(105.356 71)"/>
      <g transform="translate(134.356 22)">
        <path fill="#E4EBFF" d="M29.4068654,1.66833286 C29.4068654,0.748520652 28.6495735,0 27.71532,0 L1.69154535,0 C0.757291842,0 0,0.748520652 0,1.66833286 L0,35.7928966 C0,36.7150553 0.757291842,37.4612295 1.69154535,37.4612295 L27.71532,37.4612295 C28.6495735,37.4612295 29.4068654,36.7150553 29.4068654,35.7928966 L29.4068654,1.66833286 Z" transform="translate(.172 .219)"/>
        <path fill="#D1DCFC" d="M17.0474249,0.61206055 C17.0474249,0.274303594 16.7698385,0 16.4273814,0 L0.620043506,0 C0.277586387,0 0,0.274303594 0,0.61206055 L0,1.49842469 C0,1.83631384 0.277586387,2.11048524 0.620043506,2.11048524 L16.4273814,2.11048524 C16.7698385,2.11048524 17.0474249,1.83631384 17.0474249,1.49842469 L17.0474249,0.61206055 Z" transform="translate(2.31 5.49)"/>
        <path fill="#D1DCFC" d="M25.1294585,0.61206055 C25.1294585,0.274303594 24.8514777,0 24.5090055,0 L0.620453001,0 C0.277980735,0 0,0.274303594 0,0.61206055 L0,1.49842469 C0,1.83631384 0.277980735,2.11048524 0.620453001,2.11048524 L24.5090055,2.11048524 C24.8514777,2.11048524 25.1294585,1.83631384 25.1294585,1.49842469 L25.1294585,0.61206055 Z" transform="translate(2.31 8.986)"/>
      </g>
      <g fill-opacity=".59" transform="translate(174.356 9)">
        <path fill="#E4EBFF" d="M29.4068654,1.66833286 C29.4068654,0.748520652 28.6495735,0 27.71532,0 L1.69154535,0 C0.757291842,0 0,0.748520652 0,1.66833286 L0,35.7928966 C0,36.7150553 0.757291842,37.4612295 1.69154535,37.4612295 L27.71532,37.4612295 C28.6495735,37.4612295 29.4068654,36.7150553 29.4068654,35.7928966 L29.4068654,1.66833286 Z" transform="translate(.172 .219)"/>
        <path fill="#D1DCFC" d="M17.0474249,0.61206055 C17.0474249,0.274303594 16.7698385,0 16.4273814,0 L0.620043506,0 C0.277586387,0 0,0.274303594 0,0.61206055 L0,1.49842469 C0,1.83631384 0.277586387,2.11048524 0.620043506,2.11048524 L16.4273814,2.11048524 C16.7698385,2.11048524 17.0474249,1.83631384 17.0474249,1.49842469 L17.0474249,0.61206055 Z" transform="translate(2.31 5.49)"/>
        <path fill="#D1DCFC" d="M25.1294585,0.61206055 C25.1294585,0.274303594 24.8514777,0 24.5090055,0 L0.620453001,0 C0.277980735,0 0,0.274303594 0,0.61206055 L0,1.49842469 C0,1.83631384 0.277980735,2.11048524 0.620453001,2.11048524 L24.5090055,2.11048524 C24.8514777,2.11048524 25.1294585,1.83631384 25.1294585,1.49842469 L25.1294585,0.61206055 Z" transform="translate(2.31 8.986)"/>
      </g>
      <g fill-opacity=".59" transform="translate(9.356 9)">
        <path fill="#E4EBFF" d="M29.4068654,1.66833286 C29.4068654,0.748520652 28.6495735,0 27.71532,0 L1.69154535,0 C0.757291842,0 0,0.748520652 0,1.66833286 L0,35.7928966 C0,36.7150553 0.757291842,37.4612295 1.69154535,37.4612295 L27.71532,37.4612295 C28.6495735,37.4612295 29.4068654,36.7150553 29.4068654,35.7928966 L29.4068654,1.66833286 Z" transform="translate(.172 .219)"/>
        <path fill="#D1DCFC" d="M17.0474249,0.61206055 C17.0474249,0.274303594 16.7698385,0 16.4273814,0 L0.620043506,0 C0.277586387,0 0,0.274303594 0,0.61206055 L0,1.49842469 C0,1.83631384 0.277586387,2.11048524 0.620043506,2.11048524 L16.4273814,2.11048524 C16.7698385,2.11048524 17.0474249,1.83631384 17.0474249,1.49842469 L17.0474249,0.61206055 Z" transform="translate(2.31 5.49)"/>
        <path fill="#D1DCFC" d="M25.1294585,0.61206055 C25.1294585,0.274303594 24.8514777,0 24.5090055,0 L0.620453001,0 C0.277980735,0 0,0.274303594 0,0.61206055 L0,1.49842469 C0,1.83631384 0.277980735,2.11048524 0.620453001,2.11048524 L24.5090055,2.11048524 C24.8514777,2.11048524 25.1294585,1.83631384 25.1294585,1.49842469 L25.1294585,0.61206055 Z" transform="translate(2.31 8.986)"/>
      </g>
    </g>
  </g>
</svg>
