<?xml version="1.0" encoding="UTF-8" standalone="no"?>
<!DOCTYPE svg PUBLIC "-//W3C//DTD SVG 1.1//EN" "http://www.w3.org/Graphics/SVG/1.1/DTD/svg11.dtd">
<svg width="100%" height="100%" viewBox="0 0 798 933" version="1.1" xmlns="http://www.w3.org/2000/svg" xmlns:xlink="http://www.w3.org/1999/xlink" xml:space="preserve" xmlns:serif="http://www.serif.com/" style="fill-rule:evenodd;clip-rule:evenodd;stroke-linecap:round;stroke-linejoin:round;stroke-miterlimit:1.5;">
    <g transform="matrix(1,0,0,1,-4715,-7536.38)">
        <g id="backup-empty-state" serif:id="increment backup" transform="matrix(0.738818,0,0,0.863889,4715,7536.38)">
            <rect x="0" y="0" width="1080" height="1080" style="fill:none;"/>
            <g transform="matrix(1.48035,0,0,1.26603,-7113.97,-9638.84)">
                <circle cx="5170.39" cy="8039.98" r="298.983" style="fill:url(#_Linear1);stroke:rgb(204,225,255);stroke-width:0.91px;"/>
            </g>
            <g transform="matrix(0.901749,0,0,0.771197,-4122.4,-5660.41)">
                <circle cx="5170.39" cy="8039.98" r="298.983" style="fill:url(#_Linear2);stroke:rgb(204,225,255);stroke-width:1.5px;"/>
            </g>
            <g transform="matrix(0.63902,0,0,0.502072,-2704.22,-2417.18)">
                <path d="M5396,5577.06C5396,5561.56 5384.46,5549 5370.22,5549C5270.37,5549 4909.63,5549 4809.78,5549C4795.54,5549 4784,5561.56 4784,5577.06C4784,5700.17 4784,6191.83 4784,6314.94C4784,6330.44 4795.54,6343 4809.78,6343C4909.63,6343 5270.37,6343 5370.22,6343C5384.46,6343 5396,6330.44 5396,6314.94C5396,6191.83 5396,5700.17 5396,5577.06Z" style="fill:rgb(219,229,255);"/>
            </g>
            <g transform="matrix(0.716299,0,0,0.56279,-3097.57,-2720.93)">
                <path d="M5396,5574.03C5396,5560.21 5385.7,5549 5373,5549C5276.36,5549 4903.64,5549 4807,5549C4794.3,5549 4784,5560.21 4784,5574.03C4784,5692.86 4784,6199.15 4784,6317.97C4784,6331.79 4794.3,6343 4807,6343C4903.64,6343 5276.36,6343 5373,6343C5385.7,6343 5396,6331.79 5396,6317.97C5396,6199.15 5396,5692.86 5396,5574.03Z" style="fill:rgb(194,211,255);"/>
            </g>
            <g transform="matrix(0.929533,0,0,0.987988,23.6698,164.41)">
                <g transform="matrix(0.886039,0,0,0.764668,-3945.44,-3966.19)">
                    <path d="M5396,5567.65C5396,5562.7 5393.89,5557.96 5390.14,5554.46C5386.39,5550.97 5381.3,5549 5376,5549C5283.37,5549 4896.63,5549 4804,5549C4798.7,5549 4793.61,5550.97 4789.86,5554.46C4786.11,5557.96 4784,5562.7 4784,5567.65L4784,6324.35C4784,6329.3 4786.11,6334.04 4789.86,6337.54C4793.61,6341.03 4798.7,6343 4804,6343C4896.63,6343 5283.37,6343 5376,6343C5381.3,6343 5386.39,6341.03 5390.14,6337.54C5393.89,6334.04 5396,6329.3 5396,6324.35C5396,6216.66 5396,5675.34 5396,5567.65Z" style="fill:white;stroke:rgb(182,213,235);stroke-width:1.58px;"/>
                </g>
                <g transform="matrix(2.93966,0,0,1.017,-14461.6,-5089.74)">
                    <path d="M5192,5807.34C5192,5802.19 5190.2,5798 5187.98,5798L5035.02,5798C5032.8,5798 5031,5802.19 5031,5807.34L5031,5840.66C5031,5845.81 5032.8,5850 5035.02,5850L5187.98,5850C5190.2,5850 5192,5845.81 5192,5840.66L5192,5807.34Z" style="fill:rgb(0,103,255);"/>
                </g>
                <g transform="matrix(0.694291,0,0,0.112167,-2984.37,179.986)">
                    <path d="M5192,5824C5192,5809.65 5189.66,5798 5186.78,5798L5036.22,5798C5033.34,5798 5031,5809.65 5031,5824C5031,5838.35 5033.34,5850 5036.22,5850L5186.78,5850C5189.66,5850 5192,5838.35 5192,5824Z" style="fill:white;"/>
                </g>
                <g transform="matrix(1.44028,0,0,1.017,-6918.21,-5591.4)">
                    <path d="M5192,5807.34C5192,5802.19 5188.33,5798 5183.8,5798L5039.2,5798C5034.67,5798 5031,5802.19 5031,5807.34L5031,5840.66C5031,5845.81 5034.67,5850 5039.2,5850L5183.8,5850C5188.33,5850 5192,5845.81 5192,5840.66L5192,5807.34Z" style="fill:rgb(0,103,255);"/>
                </g>
                <g transform="matrix(1.44028,0,0,1.017,-6668.64,-5591.4)">
                    <path d="M5192,5807.34C5192,5802.19 5188.33,5798 5183.8,5798L5039.2,5798C5034.67,5798 5031,5802.19 5031,5807.34L5031,5840.66C5031,5845.81 5034.67,5850 5039.2,5850L5183.8,5850C5188.33,5850 5192,5845.81 5192,5840.66L5192,5807.34Z" style="fill:white;stroke:rgb(182,213,235);stroke-width:1.07px;"/>
                </g>
                <g transform="matrix(2.93405,0,0,0.600159,-14432.9,-2954.62)">
                    <path d="M5192,5807.34C5192,5802.19 5190.94,5798 5189.62,5798L5033.38,5798C5032.06,5798 5031,5802.19 5031,5807.34L5031,5840.66C5031,5845.81 5032.06,5850 5033.38,5850L5189.62,5850C5190.94,5850 5192,5845.81 5192,5840.66L5192,5807.34Z" style="fill:white;stroke:rgb(182,213,235);stroke-width:0.68px;"/>
                </g>
                <g transform="matrix(2.93405,0,0,0.600159,-14432.9,-2870.7)">
                    <path d="M5192,5807.34C5192,5802.19 5190.94,5798 5189.62,5798L5033.38,5798C5032.06,5798 5031,5802.19 5031,5807.34L5031,5840.66C5031,5845.81 5032.06,5850 5033.38,5850L5189.62,5850C5190.94,5850 5192,5845.81 5192,5840.66L5192,5807.34Z" style="fill:white;stroke:rgb(182,213,235);stroke-width:0.68px;"/>
                </g>
                <g transform="matrix(1.30453,0,0,0.600159,-6234.78,-2790.02)">
                    <path d="M5192,5807.34C5192,5802.19 5189.61,5798 5186.66,5798L5036.34,5798C5033.39,5798 5031,5802.19 5031,5807.34L5031,5840.66C5031,5845.81 5033.39,5850 5036.34,5850L5186.66,5850C5189.61,5850 5192,5845.81 5192,5840.66L5192,5807.34Z" style="fill:white;stroke:rgb(182,213,235);stroke-width:1.37px;"/>
                </g>
                <g transform="matrix(0.878571,0,0,0.878571,-52.6764,15.2096)">
                    <g transform="matrix(3.33956,0,0,0.12767,-16367.7,102.47)">
                        <path d="M5192,5824C5192,5809.65 5191.45,5798 5190.77,5798L5032.23,5798C5031.55,5798 5031,5809.65 5031,5824C5031,5838.35 5031.55,5850 5032.23,5850L5190.77,5850C5191.45,5850 5192,5838.35 5192,5824Z" style="fill:rgb(182,213,235);"/>
                    </g>
                    <g transform="matrix(2.16579,0,0,0.12767,-10462.4,102.47)">
                        <path d="M5192,5824C5192,5809.65 5191.15,5798 5190.1,5798L5032.9,5798C5031.85,5798 5031,5809.65 5031,5824C5031,5838.35 5031.85,5850 5032.9,5850L5190.1,5850C5191.15,5850 5192,5838.35 5192,5824Z" style="fill:rgb(0,103,255);"/>
                    </g>
                    <g transform="matrix(0.837889,0,0,0.716582,-3449.43,-3400.09)">
                        <circle cx="5050.5" cy="5925.5" r="10.5" style="fill:rgb(0,103,255);"/>
                    </g>
                </g>
                <g transform="matrix(1.18916,0,0,0.726426,-5659.55,-3873.84)">
                    <rect x="5040" y="5882" width="162" height="14" style="fill:rgb(33,49,64);"/>
                </g>
                <g transform="matrix(0.748729,0,0,0.726426,-3439.79,-3766.71)">
                    <rect x="5040" y="5882" width="162" height="14" style="fill:rgb(33,49,64);"/>
                </g>
                <g transform="matrix(0.976284,0,0,0.726426,-4586.67,-3682.79)">
                    <rect x="5040" y="5882" width="162" height="14" style="fill:rgb(33,49,64);"/>
                </g>
                <g transform="matrix(0.477131,0,0,0.726426,-2070.94,-3605.36)">
                    <rect x="5040" y="5882" width="162" height="14" style="fill:rgb(33,49,64);"/>
                </g>
                <g transform="matrix(0.741388,0,0,0.496575,-3368.31,-2481.1)">
                    <rect x="5040" y="5882" width="162" height="14" style="fill:rgb(216,234,246);"/>
                </g>
                <g transform="matrix(0.878571,0,0,0.878571,-13.4342,-5.77346)">
                    <g transform="matrix(0.57648,0,0,0.565207,-2273.63,-2817.44)">
                        <rect x="5040" y="5882" width="162" height="14" style="fill:rgb(216,234,246);"/>
                    </g>
                    <g transform="matrix(1.35351,0,0,1.15756,-6228.86,-6348.04)">
                        <circle cx="5050.5" cy="5925.5" r="10.5" style="fill:white;stroke:rgb(182,213,235);stroke-width:1.19px;"/>
                    </g>
                </g>
                <g transform="matrix(0.878571,0,0,0.878571,120.411,-5.77346)">
                    <g transform="matrix(0.57648,0,0,0.565207,-2273.63,-2817.44)">
                        <rect x="5040" y="5882" width="162" height="14" style="fill:rgb(216,234,246);"/>
                    </g>
                    <g transform="matrix(1.35351,0,0,1.15756,-6228.86,-6348.04)">
                        <circle cx="5050.5" cy="5925.5" r="10.5" style="fill:white;stroke:rgb(182,213,235);stroke-width:1.19px;"/>
                    </g>
                </g>
                <g transform="matrix(0.878571,0,0,0.878571,-52.6764,-5.77346)">
                    <g transform="matrix(1.35351,0,0,1.15756,-6381.81,-6348.04)">
                        <circle cx="5050.5" cy="5925.5" r="10.5" style="fill:white;stroke:rgb(182,213,235);stroke-width:1.19px;"/>
                    </g>
                    <g transform="matrix(0.837889,0,0,0.716582,-3777.65,-3735.05)">
                        <circle cx="5050.5" cy="5925.5" r="10.5" style="fill:rgb(0,103,255);"/>
                    </g>
                </g>
            </g>
            <g transform="matrix(1,0,0,1,121.413,-46.3023)">
                <g transform="matrix(1.31758,0,0,1.02956,-6373.59,-7696.08)">
                    <path d="M5050,7620.11C5050,7616.19 5047.09,7613 5043.5,7613L4943.5,7613C4939.91,7613 4937,7616.19 4937,7620.11L4937,7765.54C4937,7769.47 4939.91,7772.65 4943.5,7772.65L5043.5,7772.65C5047.09,7772.65 5050,7769.47 5050,7765.54L5050,7620.11Z" style="fill:rgb(228,235,255);"/>
                </g>
                <g transform="matrix(0.763813,0,0,0.0580032,-3628.83,-276.488)">
                    <path d="M5050,7659.3C5050,7633.75 5048.16,7613 5045.89,7613L4941.11,7613C4938.84,7613 4937,7633.75 4937,7659.3L4937,7726.35C4937,7751.91 4938.84,7772.65 4941.11,7772.65L5045.89,7772.65C5048.16,7772.65 5050,7751.91 5050,7726.35L5050,7659.3Z" style="fill:rgb(209,220,252);"/>
                </g>
                <g transform="matrix(1.12593,0,0,0.0580032,-5416.6,-261.15)">
                    <path d="M5050,7659.3C5050,7633.75 5048.75,7613 5047.21,7613L4939.79,7613C4938.25,7613 4937,7633.75 4937,7659.3L4937,7726.35C4937,7751.91 4938.25,7772.65 4939.79,7772.65L5047.21,7772.65C5048.75,7772.65 5050,7751.91 5050,7726.35L5050,7659.3Z" style="fill:rgb(209,220,252);"/>
                </g>
            </g>
            <g transform="matrix(1,0,0,1,122.687,8.10289)">
                <g transform="matrix(1.31758,0,0,1.02956,-6162.02,-7696.08)">
                    <path d="M5050,7620.11C5050,7616.19 5047.09,7613 5043.5,7613L4943.5,7613C4939.91,7613 4937,7616.19 4937,7620.11L4937,7765.54C4937,7769.47 4939.91,7772.65 4943.5,7772.65L5043.5,7772.65C5047.09,7772.65 5050,7769.47 5050,7765.54L5050,7620.11Z" style="fill:rgb(255,188,98);"/>
                </g>
                <g transform="matrix(0.763813,0,0,0.0580032,-3417.25,-276.488)">
                    <path d="M5050,7659.3C5050,7633.75 5048.16,7613 5045.89,7613L4941.11,7613C4938.84,7613 4937,7633.75 4937,7659.3L4937,7726.35C4937,7751.91 4938.84,7772.65 4941.11,7772.65L5045.89,7772.65C5048.16,7772.65 5050,7751.91 5050,7726.35L5050,7659.3Z" style="fill:rgb(71,81,112);"/>
                </g>
                <g transform="matrix(1.12593,0,0,0.0580032,-5205.02,-261.15)">
                    <path d="M5050,7659.3C5050,7633.75 5048.75,7613 5047.21,7613L4939.79,7613C4938.25,7613 4937,7633.75 4937,7659.3L4937,7726.35C4937,7751.91 4938.25,7772.65 4939.79,7772.65L5047.21,7772.65C5048.75,7772.65 5050,7751.91 5050,7726.35L5050,7659.3Z" style="fill:rgb(71,81,112);"/>
                </g>
            </g>
            <g transform="matrix(1.35351,0,0,1.2827,-6387.28,-9702.26)">
                <path d="M5118,7821.71L5118,7893" style="fill:none;stroke:rgb(255,188,98);stroke-width:3.32px;stroke-dasharray:3.32,9.95,0,0;"/>
            </g>
            <g transform="matrix(-1.35351,1.4176e-16,-1.65757e-16,-1.15756,7390.8,9572.55)">
                <path d="M5061.5,7895L5071,7909L5052,7909L5061.5,7895Z" style="fill:white;stroke:rgb(255,188,98);stroke-width:3.5px;"/>
            </g>
            <g transform="matrix(1.35351,0,0,1.15756,-6381.29,-8736.03)">
                <circle cx="5113.58" cy="7818.58" r="6.579" style="fill:white;stroke:rgb(255,188,98);stroke-width:3.5px;"/>
            </g>
            <g transform="matrix(1,0,0,1,335.54,-46.3023)">
                <g transform="matrix(1.31758,0,0,1.02956,-6162.02,-7696.08)">
                    <path d="M5050,7620.11C5050,7616.19 5047.09,7613 5043.5,7613L4943.5,7613C4939.91,7613 4937,7616.19 4937,7620.11L4937,7765.54C4937,7769.47 4939.91,7772.65 4943.5,7772.65L5043.5,7772.65C5047.09,7772.65 5050,7769.47 5050,7765.54L5050,7620.11Z" style="fill:rgb(228,235,255);"/>
                </g>
                <g transform="matrix(0.763813,0,0,0.0580032,-3417.25,-276.488)">
                    <path d="M5050,7659.3C5050,7633.75 5048.16,7613 5045.89,7613L4941.11,7613C4938.84,7613 4937,7633.75 4937,7659.3L4937,7726.35C4937,7751.91 4938.84,7772.65 4941.11,7772.65L5045.89,7772.65C5048.16,7772.65 5050,7751.91 5050,7726.35L5050,7659.3Z" style="fill:rgb(209,220,252);"/>
                </g>
                <g transform="matrix(1.12593,0,0,0.0580032,-5205.02,-261.15)">
                    <path d="M5050,7659.3C5050,7633.75 5048.75,7613 5047.21,7613L4939.79,7613C4938.25,7613 4937,7633.75 4937,7659.3L4937,7726.35C4937,7751.91 4938.25,7772.65 4939.79,7772.65L5047.21,7772.65C5048.75,7772.65 5050,7751.91 5050,7726.35L5050,7659.3Z" style="fill:rgb(209,220,252);"/>
                </g>
            </g>
            <g transform="matrix(1,0,0,1,538.949,-104.18)">
                <g transform="matrix(1.31758,0,0,1.02956,-6162.02,-7696.08)">
                    <path d="M5050,7620.11C5050,7616.19 5047.09,7613 5043.5,7613L4943.5,7613C4939.91,7613 4937,7616.19 4937,7620.11L4937,7765.54C4937,7769.47 4939.91,7772.65 4943.5,7772.65L5043.5,7772.65C5047.09,7772.65 5050,7769.47 5050,7765.54L5050,7620.11Z" style="fill:rgb(228,235,255);fill-opacity:0.59;"/>
                </g>
                <g transform="matrix(0.763813,0,0,0.0580032,-3417.25,-276.488)">
                    <path d="M5050,7659.3C5050,7633.75 5048.16,7613 5045.89,7613L4941.11,7613C4938.84,7613 4937,7633.75 4937,7659.3L4937,7726.35C4937,7751.91 4938.84,7772.65 4941.11,7772.65L5045.89,7772.65C5048.16,7772.65 5050,7751.91 5050,7726.35L5050,7659.3Z" style="fill:rgb(209,220,252);fill-opacity:0.59;"/>
                </g>
                <g transform="matrix(1.12593,0,0,0.0580032,-5205.02,-261.15)">
                    <path d="M5050,7659.3C5050,7633.75 5048.75,7613 5047.21,7613L4939.79,7613C4938.25,7613 4937,7633.75 4937,7659.3L4937,7726.35C4937,7751.91 4938.25,7772.65 4939.79,7772.65L5047.21,7772.65C5048.75,7772.65 5050,7751.91 5050,7726.35L5050,7659.3Z" style="fill:rgb(209,220,252);fill-opacity:0.59;"/>
                </g>
            </g>
            <g transform="matrix(1,0,0,1,-299.81,-104.18)">
                <g transform="matrix(1.31758,0,0,1.02956,-6162.02,-7696.08)">
                    <path d="M5050,7620.11C5050,7616.19 5047.09,7613 5043.5,7613L4943.5,7613C4939.91,7613 4937,7616.19 4937,7620.11L4937,7765.54C4937,7769.47 4939.91,7772.65 4943.5,7772.65L5043.5,7772.65C5047.09,7772.65 5050,7769.47 5050,7765.54L5050,7620.11Z" style="fill:rgb(228,235,255);fill-opacity:0.59;"/>
                </g>
                <g transform="matrix(0.763813,0,0,0.0580032,-3417.25,-276.488)">
                    <path d="M5050,7659.3C5050,7633.75 5048.16,7613 5045.89,7613L4941.11,7613C4938.84,7613 4937,7633.75 4937,7659.3L4937,7726.35C4937,7751.91 4938.84,7772.65 4941.11,7772.65L5045.89,7772.65C5048.16,7772.65 5050,7751.91 5050,7726.35L5050,7659.3Z" style="fill:rgb(209,220,252);fill-opacity:0.59;"/>
                </g>
                <g transform="matrix(1.12593,0,0,0.0580032,-5205.02,-261.15)">
                    <path d="M5050,7659.3C5050,7633.75 5048.75,7613 5047.21,7613L4939.79,7613C4938.25,7613 4937,7633.75 4937,7659.3L4937,7726.35C4937,7751.91 4938.25,7772.65 4939.79,7772.65L5047.21,7772.65C5048.75,7772.65 5050,7751.91 5050,7726.35L5050,7659.3Z" style="fill:rgb(209,220,252);fill-opacity:0.59;"/>
                </g>
            </g>
        </g>
        <g id="Layer-1" serif:id="Layer 1">
        </g>
    </g>
    <defs>
        <linearGradient id="_Linear1" x1="0" y1="0" x2="1" y2="0" gradientUnits="userSpaceOnUse" gradientTransform="matrix(470.876,716.828,-716.828,470.876,4948.25,7733.8)"><stop offset="0" style="stop-color:white;stop-opacity:1"/><stop offset="1" style="stop-color:rgb(221,236,255);stop-opacity:1"/></linearGradient>
        <linearGradient id="_Linear2" x1="0" y1="0" x2="1" y2="0" gradientUnits="userSpaceOnUse" gradientTransform="matrix(-318.684,-478.814,478.814,-318.684,5266.99,8206.77)"><stop offset="0" style="stop-color:white;stop-opacity:1"/><stop offset="1" style="stop-color:rgb(226,239,254);stop-opacity:1"/></linearGradient>
    </defs>
</svg>
