<?xml version="1.0" encoding="UTF-8" standalone="no"?>
<!DOCTYPE svg PUBLIC "-//W3C//DTD SVG 1.1//EN" "http://www.w3.org/Graphics/SVG/1.1/DTD/svg11.dtd">
<svg width="100%" height="100%" viewBox="0 0 979 618" version="1.1" xmlns="http://www.w3.org/2000/svg" xmlns:xlink="http://www.w3.org/1999/xlink" xml:space="preserve" xmlns:serif="http://www.serif.com/" style="fill-rule:evenodd;clip-rule:evenodd;stroke-linejoin:round;stroke-miterlimit:2;">
    <g transform="matrix(1,0,0,1,-3052,-7613)">
        <g id="planet-surface" serif:id="planet surface">
        </g>
        <g id="braintree" transform="matrix(0.706859,0,0,0.845417,894.666,1176.84)">
            <rect x="3052" y="7613" width="1385" height="731" style="fill:none;"/>
            <g transform="matrix(1.41471,0,0,1.18285,-1265.69,-1392.02)">
                <path d="M3076.07,7774.85C3074.65,7772.85 3073.81,7770.4 3073.81,7767.76L3073.81,7669.83C3073.81,7663.08 3079.29,7657.59 3086.05,7657.59L3559.76,7657.59C3562.46,7657.59 3564.96,7658.47 3566.99,7659.96L3566.99,7659.96L3959,7840L3226,8151.4L3076.07,7774.85L3076.07,7774.85Z" style="fill:url(#_Linear1);"/>
            </g>
            <g transform="matrix(3.95914,0,0,3.95914,-8982.99,-22546.9)">
                <g id="Fill-15" transform="matrix(0.879685,0,0,0.735511,3031.32,7624.29)">
                    <path d="M30,44.1L30,41L32.5,41L32.5,26.4L30,26.4L30,23.4L39.9,23.4C44.4,23.4 47.2,25.4 47.2,29C47.2,31.3 45.8,32.7 44,33.4C46.6,34.1 48.4,35.8 48.4,38.2C48.4,42 45.4,44.1 40.4,44.1L30,44.1ZM35.9,26.4L35.9,32L39.6,32C42.4,32 43.8,31 43.8,29.2C43.8,27.3 42.3,26.4 39.5,26.4L35.9,26.4ZM35.9,41L40.1,41C43.4,41 45,40 45,38C45,36 43.3,35 39.9,35L35.9,35L35.9,41Z" style="fill:white;fill-rule:nonzero;"/>
                </g>
                <g id="Fill-16" transform="matrix(0.879685,0,0,0.735511,3031.32,7624.29)">
                    <path d="M66.4,33.3C66,32.1 65.1,31.4 63.9,31.4C61.1,31.4 58.4,33.4 58.4,37.1L58.4,41L63.9,41L63.9,44L51.6,44L51.6,41L55.1,41L55.1,31.9L52.4,31.9L52.4,28.9L58.4,28.9L58.4,31.5C59.4,29.7 61.4,28.4 64.1,28.4C67.1,28.4 69,30.1 69.6,32.5L66.4,33.3" style="fill:white;fill-rule:nonzero;"/>
                </g>
                <g id="Fill-17" transform="matrix(0.879685,0,0,0.735511,3031.32,7624.29)">
                    <path d="M83,35.2L83,34.3C83,32.2 81.2,31.3 79.3,31.3C77.5,31.3 75.9,32 74.7,33.1L72.6,30.9C74.1,29.6 76.2,28.4 79.4,28.4C83.4,28.4 86.4,30.4 86.4,34.3L86.4,41L88.7,41L88.7,44L83,44L83,42.4C82.1,43.7 79.9,44.5 77.6,44.5C74.3,44.5 71.5,42.9 71.5,39.7C71.5,36 75.3,34.5 78.8,34.5C80.5,34.6 81.9,34.9 83,35.2M83,37.9C82,37.5 80.4,37.3 79,37.3C76.9,37.3 74.9,37.9 74.9,39.8C74.9,41.2 76.2,41.8 77.9,41.8C80.3,41.8 83,40.6 83,38.4L83,37.9" style="fill:white;fill-rule:nonzero;"/>
                </g>
                <g id="Fill-18" transform="matrix(0.879685,0,0,0.735511,3031.32,7624.29)">
                    <path d="M108.4,41L108.4,44L92.5,44L92.5,41L99.1,41L99.1,31.9L94.1,31.9L94.1,28.9L102.4,28.9L102.4,41L108.4,41ZM98.7,21.2L102.4,21.2L102.4,25.8L98.7,25.8L98.7,21.2Z" style="fill:white;fill-rule:nonzero;"/>
                </g>
                <g id="Fill-19" transform="matrix(0.879685,0,0,0.735511,3031.32,7624.29)">
                    <path d="M112.3,41L114.7,41L114.7,31.9L112.4,31.9L112.4,28.9L117.9,28.9L117.9,30.9C118.9,29.4 120.9,28.4 123.3,28.4C126.8,28.4 129.3,30.5 129.3,34L129.3,41L131.7,41L131.7,44L123.5,44L123.5,41L126,41L126,34.8C126,32.2 124.3,31.4 122.8,31.4C120.3,31.4 117.8,33.2 117.8,35.9L117.8,41L120.3,41L120.3,44L112.1,44L112.1,41" style="fill:white;fill-rule:nonzero;"/>
                </g>
                <g id="Fill-20" transform="matrix(0.879685,0,0,0.735511,3031.32,7624.29)">
                    <path d="M136.2,31.9L132.1,31.9L132.1,28.9L136.2,28.9L136.2,23.4L139.5,23.4L139.5,28.9L147.2,28.9L147.2,31.9L139.5,31.9L139.5,38.3C139.5,40.7 141.2,41.6 143.2,41.6C145,41.6 146.6,40.6 147.7,39.5L149.9,41.7C148.5,43.2 146.2,44.6 143.2,44.6C139.2,44.6 136.3,42.5 136.3,38.4L136.3,31.9" style="fill:white;fill-rule:nonzero;"/>
                </g>
                <g id="Fill-21" transform="matrix(0.879685,0,0,0.735511,3031.32,7624.29)">
                    <path d="M167.6,33.3C167.2,32.1 166.3,31.4 165.1,31.4C162.3,31.4 159.6,33.4 159.6,37.1L159.6,41L165.1,41L165.1,44L152.9,44L152.9,41L156.4,41L156.4,31.9L153.7,31.9L153.7,28.9L159.7,28.9L159.7,31.5C160.7,29.7 162.7,28.4 165.4,28.4C168.4,28.4 170.3,30.1 170.9,32.5L167.6,33.3" style="fill:white;fill-rule:nonzero;"/>
                </g>
                <g id="Fill-22" transform="matrix(0.879685,0,0,0.735511,3031.32,7624.29)">
                    <path d="M189.5,41.7C187.9,43.3 185,44.5 181.8,44.5C176.5,44.5 172.8,41.1 172.8,36.4C172.8,31.7 176.4,28.3 181.4,28.3C186.4,28.3 189.8,32 189.8,37L189.8,37.5L176.2,37.5C176.8,40 178.9,41.6 181.8,41.6C184.2,41.6 186.2,40.7 187.3,39.5L189.5,41.7ZM176.4,34.9L186.1,34.9C185.6,32.7 183.6,31.3 181.4,31.3C178.8,31.2 176.9,32.7 176.4,34.9Z" style="fill:white;fill-rule:nonzero;"/>
                </g>
                <g id="Fill-23" transform="matrix(0.879685,0,0,0.735511,3031.32,7624.29)">
                    <path d="M209.7,41.7C208.1,43.3 205.2,44.5 202,44.5C196.7,44.5 193,41.1 193,36.4C193,31.7 196.6,28.3 201.6,28.3C206.6,28.3 210,32 210,37L210,37.5L196.4,37.5C197,40 199.1,41.6 202,41.6C204.4,41.6 206.4,40.7 207.5,39.5L209.7,41.7ZM196.6,34.9L206.3,34.9C205.8,32.7 203.8,31.3 201.6,31.3C199.1,31.2 197.1,32.7 196.6,34.9Z" style="fill:white;fill-rule:nonzero;"/>
                </g>
            </g>
            <g transform="matrix(1.48957,0,0,1.18285,-1569.55,-1392.02)">
                <path d="M3986,7874.6C3986,7855.5 3971.28,7840 3953.14,7840L3300.73,7840C3282.59,7840 3267.87,7855.5 3267.87,7874.6L3267.87,8151.4C3267.87,8170.5 3282.59,8186 3300.73,8186L3953.14,8186C3971.28,8186 3986,8170.5 3986,8151.4L3986,7874.6Z" style="fill:rgb(138,79,255);"/>
            </g>
            <g transform="matrix(1.41471,0,0,1.18285,3393.18,7790.43)">
                <path d="M640,261.6C640,216.1 618,180.2 575.8,180.2C533.6,180.2 507.9,216.1 507.9,261.3C507.9,314.8 538.2,339.5 581.4,339.5C602.6,339.5 618.5,334.7 630.6,328L630.6,294.6C618.5,300.7 604.6,304.4 587,304.4C569.7,304.4 554.5,298.3 552.5,277.5L639.4,277.5C639.6,275.2 640,265.9 640,261.6M552.1,244.8C552.1,224.8 564.4,216.4 575.5,216.4C586.4,216.4 598,224.8 598,244.8L552.1,244.8ZM439.2,180.2C421.8,180.2 410.6,188.4 404.4,194.1L402.1,183.1L363,183.1L363,387.9L407.4,378.5L407.5,328.3C413.9,333 423.4,339.5 438.9,339.5C470.7,339.5 499.7,316.3 499.7,259.9C499.8,208.3 470.4,180.2 439.2,180.2M428.6,302.7C418.2,302.7 412,298.9 407.7,294.3L407.4,228.3C412,223.2 418.4,219.5 428.6,219.5C444.8,219.5 456,237.7 456,260.9C456.1,284.8 445.1,302.7 428.6,302.7M346.4,124L346.4,160.2L301.8,169.7L301.8,133.5L346.4,124M301.9,183.2L346.5,183.2L346.5,336.4L301.9,336.4L301.9,183.2ZM254.1,196.3C264.5,177.2 285.2,181.1 291.2,183.2L291.2,224C285.5,222.2 267.8,219.5 257.3,233.3L257.3,336.4L213,336.4L213,183.2L251.4,183.2L254.1,196.3M165.1,183.2L198.8,183.2L198.8,221L165.1,221L165.1,284.2C165.1,310.4 193.1,302.2 198.8,299.9L198.8,333.7C192.9,336.9 182.2,339.6 167.6,339.6C141.3,339.6 121.5,322.6 121.5,296.3L121.7,153.9L165,144.7L165.1,183.2ZM44.9,228.3C44.9,248.3 112.8,238.8 112.8,291.7C112.8,323.7 87.4,339.5 50.5,339.5C35.2,339.5 18.5,336.5 2,329.4L2,289.4C16.9,297.5 35.9,303.6 50.6,303.6C60.5,303.6 67.6,300.9 67.6,292.7C67.6,271.5 0.1,279.5 0.1,230.3C0.1,198.9 24.1,180.1 60.1,180.1C74.8,180.1 89.5,182.4 104.2,188.2L104.2,230C90.7,222.7 73.5,218.6 60,218.6C50.7,218.7 44.9,221.4 44.9,228.3" style="fill:white;fill-rule:nonzero;"/>
            </g>
        </g>
        <g transform="matrix(0.170937,0.0308651,-0.0576354,0.113205,8591.98,3001.36)">
            <g id="Tablet">
            </g>
        </g>
        <g transform="matrix(0.999821,-0.0189424,0.0189424,0.999821,479.15,6504.39)">
            <g transform="matrix(0.786096,0,0,0.786096,155.695,51.0858)">
                <g transform="matrix(1.31329,0,0,1.31329,6.39991,-17.0936)">
                    <g id="Arm_R_2_">
                    </g>
                </g>
                <g transform="matrix(-1.31329,0,0,1.31329,1555.18,-16.1769)">
                    <g id="Arm_R_2_1" serif:id="Arm_R_2_">
                    </g>
                </g>
            </g>
        </g>
        <g transform="matrix(1,0,0,1,1848.09,2909.02)">
            <g transform="matrix(0.786096,0,0,0.786096,155.695,51.0858)">
                <g transform="matrix(1.31329,0,0,1.31329,6.39991,-17.0936)">
                    <g id="Arm_R_2_2" serif:id="Arm_R_2_">
                    </g>
                </g>
                <g transform="matrix(-1.31329,0,0,1.31329,1555.18,-16.1769)">
                    <g id="Arm_R_2_3" serif:id="Arm_R_2_">
                    </g>
                </g>
            </g>
        </g>
        <g transform="matrix(0.589109,0,0,0.589109,1648.35,1930.73)">
            <g transform="matrix(1,0,0,1,2331,8.17483)">
                <g id="Flashes">
                </g>
            </g>
            <g id="Astronaut" transform="matrix(1,0,0,1,2331,8.17483)">
                <g id="Arm_R">
                </g>
                <g id="Head">
                </g>
                <g id="Body">
                </g>
                <g id="Helm">
                </g>
                <g>
                    <g id="_x3C_Clip_Group_x3E_">
                    </g>
                </g>
            </g>
            <g id="Cameraman">
            </g>
            <g id="Arm_A">
            </g>
            <g id="Arm_B">
            </g>
            <g id="Arm_C">
            </g>
        </g>
        <g transform="matrix(1.79785,0,0,1.79785,-1265.81,-1492.23)">
            <g transform="matrix(0.589109,0,0,0.589109,2304.8,1407.85)">
                <g id="Astronaut1" serif:id="Astronaut">
                    <g id="Arm_R1" serif:id="Arm_R">
                    </g>
                    <g id="Head1" serif:id="Head">
                    </g>
                    <g id="Body1" serif:id="Body">
                    </g>
                    <g id="Helm1" serif:id="Helm">
                    </g>
                    <g>
                        <g id="_x3C_Clip_Group_x3E_1" serif:id="_x3C_Clip_Group_x3E_">
                        </g>
                    </g>
                </g>
            </g>
        </g>
        <g transform="matrix(1.93405,0,0,1.93405,260.801,6035.5)">
            <g transform="matrix(1.31329,0,0,1.31329,6.39991,-17.0936)">
                <g id="Arm_R_2_4" serif:id="Arm_R_2_">
                </g>
            </g>
            <g transform="matrix(-1.31329,0,0,1.31329,1555.18,-16.1769)">
                <g id="Arm_R_2_5" serif:id="Arm_R_2_">
                </g>
            </g>
        </g>
        <g id="_x34__2_">
        </g>
        <g id="_x33__2_">
        </g>
        <g id="_x32__2_">
        </g>
        <g id="_x31__2_">
        </g>
    </g>
    <defs>
        <linearGradient id="_Linear1" x1="0" y1="0" x2="1" y2="0" gradientUnits="userSpaceOnUse" gradientTransform="matrix(493.193,585,-585,493.193,3073.81,7449)"><stop offset="0" style="stop-color:rgb(138,79,255);stop-opacity:1"/><stop offset="1" style="stop-color:rgb(0,157,216);stop-opacity:1"/></linearGradient>
    </defs>
</svg>
