<?xml version="1.0" encoding="utf-8"?>
<!-- Generator: Adobe Illustrator 23.0.2, SVG Export Plug-In . SVG Version: 6.00 Build 0)  -->
<svg version="1.1" id="_x35_03" xmlns="http://www.w3.org/2000/svg" xmlns:xlink="http://www.w3.org/1999/xlink" x="0px" y="0px"
	 viewBox="0 0 508.6 390.5" style="enable-background:new 0 0 508.6 390.5;" xml:space="preserve">
<style type="text/css">
	.st0{clip-path:url(#XMLID_2_);}
	.st1{fill:none;stroke:#AE9554;stroke-width:2.1659;stroke-miterlimit:10;}
	.st2{fill:none;stroke:#AE9554;stroke-width:1.3855;stroke-miterlimit:10;}
	.st3{fill:none;stroke:#AE9554;stroke-width:1.6629;stroke-miterlimit:10;}
	.st4{fill:none;stroke:#AE9554;stroke-width:1.8411;stroke-miterlimit:10;}
	.st5{fill:#99AABF;}
	.st6{fill:#C0CDDD;}
	.st7{fill:#204666;}
	.st8{fill:none;stroke:#C0CDDD;stroke-width:2.1145;stroke-miterlimit:10;}
	.st9{opacity:0.7;fill:none;stroke:#C0CDDD;stroke-width:1.0573;stroke-miterlimit:10;}
	.st10{fill:none;stroke:#ACBCCC;stroke-width:5;stroke-linecap:round;stroke-linejoin:round;stroke-miterlimit:10;}
	.st11{clip-path:url(#XMLID_3_);fill:#C0CDDD;}
	.st12{clip-path:url(#XMLID_3_);fill:#ACBCCC;}
	.st13{opacity:0.49;fill:none;stroke:#99AABF;stroke-width:2.1145;stroke-miterlimit:10;}
	.st14{clip-path:url(#XMLID_4_);fill:#C0CDDD;}
	.st15{clip-path:url(#XMLID_4_);}
	.st16{clip-path:url(#XMLID_5_);fill:#366687;}
	.st17{clip-path:url(#XMLID_6_);fill:none;stroke:#99AABF;stroke-width:2.1145;stroke-miterlimit:10;}
	.st18{fill:none;stroke:#C0CDDD;stroke-width:1.0573;stroke-miterlimit:10;}
	.st19{fill:#516D84;}
	.st20{fill:none;stroke:#ACBCCC;stroke-width:0.7929;stroke-miterlimit:10;}
	.st21{fill:none;stroke:#D14B72;stroke-miterlimit:10;}
	.st22{fill:none;stroke:#F9BF3B;stroke-miterlimit:10;}
	.st23{fill:#7D8EB4;}
	.st24{clip-path:url(#XMLID_7_);fill:none;stroke:#DCE0E5;stroke-width:0.393;stroke-miterlimit:10;stroke-dasharray:0.5502;}
	.st25{clip-path:url(#XMLID_7_);fill:none;stroke:#AEB9D1;stroke-width:1.2466;stroke-miterlimit:10;}
	.st26{clip-path:url(#XMLID_8_);fill:none;stroke:#DCE0E5;stroke-width:0.4199;stroke-miterlimit:10;stroke-dasharray:0.5879;}
	.st27{clip-path:url(#XMLID_8_);fill:none;stroke:#AEB9D1;stroke-width:1.3319;stroke-miterlimit:10;}
	.st28{fill:#C5D2ED;}
	.st29{fill:url(#SVGID_1_);}
	.st30{fill:#D6C2BF;}
	.st31{fill:#6F798C;}
	.st32{clip-path:url(#XMLID_9_);fill:url(#SVGID_2_);}
	
		.st33{clip-path:url(#XMLID_9_);fill:none;stroke:url(#SVGID_3_);stroke-width:0.393;stroke-miterlimit:10;stroke-dasharray:0.5502;}
	.st34{clip-path:url(#XMLID_9_);fill:none;stroke:#AEB9D1;stroke-width:0.6233;stroke-miterlimit:10;}
	.st35{clip-path:url(#XMLID_9_);fill:#F9D285;}
	.st36{clip-path:url(#XMLID_10_);fill:none;stroke:#DCE0E5;stroke-width:0.393;stroke-miterlimit:10;stroke-dasharray:0.5502;}
	.st37{clip-path:url(#XMLID_10_);fill:none;stroke:#AEB9D1;stroke-width:1.2466;stroke-miterlimit:10;}
	.st38{fill:#F5F7FA;}
	.st39{clip-path:url(#SVGID_5_);fill:none;stroke:#DCE0E5;stroke-width:0.347;stroke-miterlimit:10;stroke-dasharray:0.347;}
	.st40{clip-path:url(#SVGID_7_);fill:none;stroke:#DCE0E5;stroke-width:0.2776;stroke-miterlimit:10;stroke-dasharray:0.347;}
	.st41{fill:#7B8FA3;}
	.st42{fill:#ACBCCC;}
</style>
<g>
	<defs>
		<path id="XMLID_23_" d="M43.6,8.1L471.7,0c20.3,0,36.9,16.6,36.9,36.9L488.2,344c0,20.3-16.6,36.9-36.9,36.9l-400.2,9.6
			c-26.8,0-51.1-23.7-51.1-62L6.8,45C6.8,24.7,23.3,8.1,43.6,8.1z"/>
	</defs>
	<use xlink:href="#XMLID_23_"  style="overflow:visible;fill:#22313F;"/>
	<clipPath id="XMLID_2_">
		<use xlink:href="#XMLID_23_"  style="overflow:visible;"/>
	</clipPath>
	<g id="Stars_8_" class="st0">
		<g>
			<path class="st1" d="M163.3,358.1c-0.7,3-0.9,6.2-0.5,9.2"/>
			<path class="st1" d="M159.4,362.1c2.5,0.2,5.1,0.2,7.6,0"/>
			<path class="st1" d="M165.2,359c-1.9,2.1-3.7,4.3-5.6,6.4"/>
		</g>
		<g>
			<path class="st2" d="M427.4,168.3c0.3,1.6,0.7,3.2,1.2,4.8"/>
			<path class="st2" d="M425.3,171c1.8-0.2,3.6-0.4,5.4-0.5"/>
			<path class="st2" d="M429.3,168.8c-1.1,1.4-2.1,2.8-3.2,4.2"/>
		</g>
		<g>
			<path class="st3" d="M91.6,301.9c0.8,1.9,1.7,3.9,2.5,5.8"/>
			<path class="st3" d="M89.3,305.3c2.1-0.2,4.1-0.7,6-1.5"/>
			<path class="st3" d="M93.4,302.2c-0.6,1.9-1.3,3.8-2.2,5.6"/>
		</g>
		<path class="st1" d="M402.3,147.4c0.3,0.6,0.6,1.2,0.9,1.8"/>
		<g>
			<path class="st1" d="M485.9,32.9c-0.7,0.8-1,1.8-0.9,2.8"/>
			<path class="st1" d="M483,33.2c1.8,0.8,1.8,0.8,3.7,1.6"/>
		</g>
		<path class="st1" d="M288.8,295c1.1,0.6,2.2,1.2,3.4,1.8"/>
		<path class="st1" d="M261.3,75.7c-0.7,0.5-1.3,1.2-1.5,2.1"/>
		<path class="st1" d="M369.4,39.6c-1.1,0.6-2.2,1.1-3.2,1.7"/>
		<path class="st1" d="M456.5,114.2c0.7,0.8,1.3,1.5,2,2.3"/>
		<path class="st1" d="M331.6,381.2c0.7,0.7,1.5,1.2,2.4,1.5"/>
		<g>
			<path class="st4" d="M486.6,173c1.7,0.6,3.4,1.3,5,1.9"/>
			<path class="st4" d="M489.6,171c-0.6,1.7-1.2,3.4-1.9,5"/>
			<path class="st4" d="M491.3,172.8c-1.1,0.4-2.3,0.6-3.5,0.4"/>
		</g>
		<g>
			<path class="st4" d="M223.3,349.5c0.8,1.2,2,2,3.4,2.4"/>
			<path class="st4" d="M226.1,349.7c-0.5,1.1-1.3,2-2.3,2.7"/>
		</g>
		<g>
			<path class="st4" d="M369.5,348.8c1.1,0.8,2.3,1.6,3.4,2.4"/>
			<path class="st4" d="M370,351.6c0.8-1.4,1.9-2.7,3.2-3.7"/>
			<path class="st4" d="M370.8,347.4c0.7,1.3,1.1,2.7,1.2,4.1"/>
		</g>
		<g>
			<path class="st4" d="M386.6,188.1c0.2,1.5,0.4,3,0.6,4.5"/>
			<path class="st4" d="M390.1,190.1c-1.9-0.3-4-0.2-5.9,0.4"/>
			<path class="st4" d="M388.9,187.9c-0.9,1.1-1.8,2.2-2.7,3.3c-0.2,0.3-0.4,0.7-0.1,0.8"/>
		</g>
		<g>
			<path class="st2" d="M162.3,123.8c-0.9-1.4-1.9-2.7-3-4"/>
			<path class="st2" d="M163.2,120.5c-1.6,0.8-3.2,1.7-4.8,2.5"/>
			<path class="st2" d="M160.3,124.1c0.5-1.7,0.9-3.4,1.4-5.1"/>
		</g>
		<g>
			<path class="st3" d="M416.6,18.7c-1.5-1.5-3-2.9-4.5-4.4"/>
			<path class="st3" d="M417.4,14.7c-1.8,1-3.5,2.2-5,3.7"/>
			<path class="st3" d="M414.8,19.2c-0.2-2-0.2-4-0.1-6"/>
		</g>
		<path class="st1" d="M71.9,279.7c-0.5-0.5-1-0.9-1.6-1.4"/>
		<g>
			<path class="st1" d="M42.3,160.6c0.3-1,0.2-2.1-0.3-2.9"/>
			<path class="st1" d="M44.9,159.2c-2-0.1-2-0.1-4-0.1"/>
		</g>
		<path class="st1" d="M220.4,69c-1.3-0.1-2.5-0.3-3.8-0.4"/>
		<path class="st1" d="M90.7,35.6c0.5-0.7,0.7-1.6,0.6-2.5"/>
		<path class="st1" d="M487.9,60.4c-1-0.3-2-0.3-3-0.1"/>
		<path class="st1" d="M133.6,299.8c-0.9-0.5-1.8-0.9-2.7-1.4"/>
		<path class="st1" d="M221.8,11.4c-0.9-0.4-1.9-0.5-2.8-0.5"/>
		<g>
			<path class="st4" d="M247.9,212.3c-1.8,0.1-3.6,0.1-5.4,0.2"/>
			<path class="st4" d="M245.8,215.3c-0.1-1.8-0.1-3.6-0.2-5.4"/>
			<path class="st4" d="M243.6,214.3c0.9-0.8,1.9-1.4,3.1-1.7"/>
		</g>
		<g>
			<path class="st4" d="M296.2,19.3c-1.3-0.3-2.7-0.6-4-0.9"/>
			<path class="st4" d="M294.7,16.9c-0.2,1.6-0.7,3.2-1.5,4.6"/>
			<path class="st4" d="M295.6,21.1c-1.1-0.9-2-2.1-2.7-3.3"/>
		</g>
		<g>
			<path class="st4" d="M69.8,94c-0.7-1.3-1.5-2.6-2.2-3.9"/>
			<path class="st4" d="M65.8,93.5c1.9-0.4,3.7-1.3,5.3-2.6"/>
			<path class="st4" d="M67.8,95.1c0.4-1.4,0.9-2.7,1.3-4.1c0.1-0.3,0.1-0.8-0.3-0.8"/>
		</g>
	</g>
	<g class="st0">
		<path class="st5" d="M356.9,231.8l-127.8-99.1c-0.3-0.2-0.5-0.6-0.6-0.9l-0.9-2.8c-0.4-1.3,0.5-2.6,1.9-2.6l79.2-3
			c1.3-0.1,2.7,0.3,3.8,1.1l143.2,100.9c2.6,1.8,1.3,5.8-1.8,5.9l-93.4,1.7C359.1,232.9,357.9,232.5,356.9,231.8z"/>
		<path class="st6" d="M357.5,228.3L228.7,127.9c-0.7-0.5-0.3-1.6,0.5-1.6l79.4-3.1c1.3-0.1,2.7,0.3,3.8,1.1L455.1,225
			c1.2,0.8,0.6,2.7-0.8,2.7l-93.4,1.7C359.7,229.4,358.5,229,357.5,228.3z"/>
		<path class="st7" d="M359.3,225.8l-122.4-95.4c-0.7-0.5-0.3-1.7,0.5-1.7l71.2-2.8c0.9,0,1.7,0.2,2.5,0.7l137.7,97.1
			c0.7,0.5,0.4,1.7-0.5,1.7l-85.4,1.5C361.6,227,360.3,226.6,359.3,225.8z"/>
		<line class="st8" x1="292.2" y1="175" x2="372.4" y2="168.7"/>
		<line class="st9" x1="280" y1="125.2" x2="413.3" y2="226.9"/>
		<line class="st9" x1="296.5" y1="124.8" x2="432.3" y2="226.1"/>
		<line class="st9" x1="266.1" y1="125.8" x2="394.5" y2="226.9"/>
		<line class="st9" x1="250.3" y1="126.6" x2="378.8" y2="227.6"/>
		<line class="st9" x1="406.9" y1="194.2" x2="324" y2="200.3"/>
		<line class="st9" x1="339.2" y1="144" x2="259.3" y2="149.9"/>
	</g>
	<g class="st0">
		<line class="st10" x1="344.7" y1="200.3" x2="274" y2="220"/>
		<line class="st10" x1="287.8" y1="154.2" x2="217" y2="173.9"/>
		<g>
			<defs>
				<path id="XMLID_27_" d="M311.2,269.8l0-79.4c0.1-1.7-0.8-3.4-2.3-4.2L243.6,153c-0.3-0.2-2.4-0.7-4-0.2
					c-10.3,2.9-51.4,12.7-60.7,16c-1.6,0.6-2.4,2.1-2.4,2.5L176,243c0,1.4,0.6,2.8,1.8,3.6l57.5,46.9c0.4,0.3,2.3,2.9,7,1.5
					c14.5-4.5,50.7-15.7,65.7-21C311.4,272.7,311.2,272.5,311.2,269.8z"/>
			</defs>
			<use xlink:href="#XMLID_27_"  style="overflow:visible;fill:#99AABF;"/>
			<clipPath id="XMLID_3_">
				<use xlink:href="#XMLID_27_"  style="overflow:visible;"/>
			</clipPath>
			<path class="st11" d="M240.9,304.3v-96.6c1.5-0.8,4.1-1.6,6.4-2.1l68.9-18.9l0.6,96.2L240.9,304.3z"/>
			<polygon class="st12" points="240.9,208.9 172.8,168.1 239.8,150 318.3,186.3 			"/>
		</g>
		<path class="st13" d="M247.7,219.3c0,8.3,0,54.9,0,59.7c0,4.8,1.8,5.5,6.6,4.2c4.8-1.2,45.1-13.6,47.9-14.5c2.9-1,3.8-2.5,3.8-7.2
			s0-54.6,0-57.6s-1.9-5.7-4.9-5.2c-3,0.5-43.4,12-46.9,13S247.7,215.3,247.7,219.3z"/>
		<g>
			<defs>
				<path id="XMLID_28_" d="M343.5,254.9l0-21.3c0.1-1.2-0.6-2.3-1.6-2.9l-42.3-23.7c-0.2-0.1-1.7-0.5-2.7-0.2
					c-7.1,2-34,8.5-40.4,10.8c-1.1,0.4-1.7,1.4-1.7,1.7l-0.4,49.5c0,1,0.4,1.9,1.2,2.5l39.4,0.8c1.9,0,3.3-0.2,5.1-0.7
					c0,0,30.8-10,41.2-13.6C343.6,256.9,343.5,256.7,343.5,254.9z"/>
			</defs>
			<use xlink:href="#XMLID_28_"  style="overflow:visible;fill:#99AABF;"/>
			<clipPath id="XMLID_4_">
				<use xlink:href="#XMLID_28_"  style="overflow:visible;"/>
			</clipPath>
			<path class="st14" d="M299.1,278.4v-33.2c1-1.3,2.8-1.9,3.1-1.8l44.6-12.4l0.4,32.9L299.1,278.4z"/>
			<g class="st15">
				<defs>
					<path id="XMLID_29_" d="M304.4,261.4v-10.6c0-0.9,0.6-1.7,1.4-2c5.8-2,22.2-6.5,29.8-8.6c1.4-0.4,2.7,0.6,2.7,2l0.2,10.3
						c0,1-0.6,1.8-1.5,2.1l-29.8,8.8C305.8,263.9,304.4,262.9,304.4,261.4z"/>
				</defs>
				<use xlink:href="#XMLID_29_"  style="overflow:visible;fill:#204666;"/>
				<clipPath id="XMLID_5_">
					<use xlink:href="#XMLID_29_"  style="overflow:visible;"/>
				</clipPath>
				<path class="st16" d="M303.3,260.3v-10.6c0-0.9,0.6-1.7,1.4-2c5.8-2,23.5-7,31.1-9.1c1.4-0.4,1.3,1.1,1.4,2.5l0.2,10.3
					c0,1-0.6,1.8-1.5,2.1l-29.8,8.8C304.6,262.8,303.3,261.8,303.3,260.3z"/>
			</g>
			<g class="st15">
				<defs>
					<polygon id="XMLID_30_" points="299.1,245.3 252.2,217.1 295.6,205.3 348.3,230.7 					"/>
				</defs>
				<use xlink:href="#XMLID_30_"  style="overflow:visible;fill:#ACBCCC;"/>
				<clipPath id="XMLID_6_">
					<use xlink:href="#XMLID_30_"  style="overflow:visible;"/>
				</clipPath>
				<line class="st17" x1="287.8" y1="227.2" x2="313.5" y2="242.5"/>
				<line class="st17" x1="299.1" y1="224" x2="324.8" y2="239.3"/>
				<line class="st17" x1="309.5" y1="220.5" x2="335.1" y2="235.8"/>
			</g>
		</g>
		<path class="st18" d="M176.5,188.2l28.4,17.3c4.6,3.2,4.5,8.1,4.6,11.6c0.1,5.7,1.5,6.8,8.3,11.8l23.1,15.7"/>
		<path class="st18" d="M176.5,182.5l32.2,20.1c4.6,3.2,4.5,8.1,4.6,11.6c0.1,5.7,1.5,6.8,8.3,11.8l19.3,12.9"/>
		<path class="st19" d="M187.6,229.4l13.3,9.4c0.2,0.1,0.3,0.4,0.3,0.6v15.1c0,0.6-0.7,0.9-1.2,0.6l-13.3-10.2
			c-0.2-0.1-0.3-0.3-0.3-0.6V230C186.5,229.4,187.1,229.1,187.6,229.4z"/>
		<path class="st20" d="M185.5,225.1l17.7,12.5c0.3,0.2,0.4,0.5,0.4,0.8v20.2c0,0.8-0.9,1.3-1.6,0.8l-17.7-13.6
			c-0.2-0.2-0.4-0.5-0.4-0.8v-19C184,225.1,184.9,224.7,185.5,225.1z"/>
		<path class="st19" d="M210.7,246.4l13.3,9.4c0.2,0.1,0.3,0.4,0.3,0.6v15.1c0,0.6-0.7,0.9-1.2,0.6l-13.3-10.2
			c-0.2-0.1-0.3-0.3-0.3-0.6V247C209.6,246.4,210.3,246,210.7,246.4z"/>
		<path class="st20" d="M208.6,242.1l17.7,12.5c0.3,0.2,0.4,0.5,0.4,0.8v20.2c0,0.8-0.9,1.3-1.6,0.8l-17.7-13.6
			c-0.2-0.2-0.4-0.5-0.4-0.8v-19C207.1,242.1,208,241.7,208.6,242.1z"/>
		<polygon class="st6" points="198.2,240.3 207.6,246 207.6,249.1 195.1,241.3 		"/>
		<path class="st21" d="M223.2,260.1c-4.8,3-10.2,9.3-9.9,15.4c0.1,2.1,0.4,4.1,0.9,6.2"/>
		<path class="st21" d="M217.3,257.5c-2.4,3.3-6.2,5-8.1,8.7c-1.8,3.5-2.6,8.5-7.1,9.7c-1,0.3-2.1,0.3-3.2,0.3c-1.1,0-2.2,0-3.3-0.4
			c-1-0.3-1.5-0.9-2.3-1.6"/>
		<path class="st22" d="M218.5,258.7c-1.4,3.2-2.4,4.9-5.1,7c-1.5,1.2-3.6,1.4-5.4,1.9c-1.5,0.4-3.3,1-4.1,2.5
			c-0.8,1.6-0.1,3.4-0.2,5.1c-0.1,3-2,8.4-5.9,7.8c-0.5-0.1-2-0.6-1.6-1.3"/>
	</g>
	<g id="Astronaut" class="st0">
		<path class="st23" d="M200.5,236.5c-1.9-1.3-4.4-2-6.6-1.5c-2,0.4-4.5,1.2-5.1,3.3c-0.3,1.3-0.1,2.7,0.5,3.9
			c0.2,0.5,0.6,1.3,1.1,1.7c0.6,0.5,1.8,0.5,2.5,0.6c1.1,0.1,2.1,0.3,3.1,0.7c0.9,0.3,1.8,0.6,2.6,0.3c0.4-0.1,0.7-0.8,0.6-1.1
			c-0.1-0.2-0.3-0.4-0.4-0.5c-0.5-0.3-2-0.5-2.3-1c-0.1-0.3-0.1-0.6,0.1-0.8c0.1-0.1,0.5-0.8,2.4-0.8c1,0,1.6,0.1,2.5,0.4
			c0.4,0.1,0.9,0.2,1.2-0.2c0.2-0.3,0.1-0.8-0.1-1.2C202.2,239.6,201.8,237.5,200.5,236.5z"/>
		<g id="Arm_L_3_">
			<defs>
				<path id="XMLID_26_" d="M147.5,237.1c-0.3,2.3,0.8,4.4,2.6,5.8c2,1.5,4.5,2.1,7,2.6c9.5,1.9,13.7,1.6,19.6,1.2
					c7.6-0.4,11.7-1.7,14.3-2.5c1.3-0.4,2.2-2.1,2.1-3.6c0-2-1.1-3.5-2.4-3.9c-2.4-0.8-14.5,0.9-17.7,0.9c-3.5,0-17.6-4.7-20.3-4.3
					C149.9,233.9,147.8,234.4,147.5,237.1z"/>
			</defs>
			<use xlink:href="#XMLID_26_"  style="overflow:visible;fill:#F5F7FA;"/>
			<clipPath id="XMLID_7_">
				<use xlink:href="#XMLID_26_"  style="overflow:visible;"/>
			</clipPath>
			<path class="st24" d="M194.1,242.5c-4.7,0.6-15.1,1.9-20.2,2.2c-9.5-0.3-14.6-0.9-17.1-2.8"/>
			<path class="st25" d="M189.5,245.2c1.4-0.9,2.3-2.4,2.3-4.5c0-2.8-2.5-4.7-4.1-5.2"/>
		</g>
		<g id="Arm_L_2_">
			<defs>
				<path id="XMLID_31_" d="M132.7,262.5c-0.8-1.7-2.5-2.9-4.2-3.2c-2.2-0.4-3.6,1-5.3,2.4c-4.3,3.3-7.7,7.1-12.9,7.8
					c-5.6,0.7-10.4,0-16,0.2c-2.6,0.1-4.9,1.7-4.8,5.2c0.1,2.5,1.5,4.6,3.6,5.7c2.9,1.5,5.2,1.2,8.4,1.3c3.6,0.1,7.2,0.1,10.9-0.3
					c5.9-0.7,14-4.7,18.3-9C132.8,270.1,134.4,266.1,132.7,262.5z"/>
			</defs>
			<use xlink:href="#XMLID_31_"  style="overflow:visible;fill:#F5F7FA;"/>
			<clipPath id="XMLID_8_">
				<use xlink:href="#XMLID_31_"  style="overflow:visible;"/>
			</clipPath>
			<path class="st26" d="M136.4,264.8c-4,2.9-13.2,9.4-18,11.5c-9.6,3.4-20.8,3.2-26.6,1.9"/>
			<path class="st27" d="M131.5,268.7c0.9-1.6,1.1-3.6,0.1-5.7c-1.3-2.8-4.5-3.5-6-3.2"/>
		</g>
		<path class="st28" d="M174.5,212.2c-4.2-3.9-10.4-6.2-16.1-4.7c-7.3,1.9-11.6,8.3-11.8,15.6c-0.1,5.2,1.8,10,5.5,13.6
			c1.8,1.8,4.1,3.2,6.4,4.3c2.6,1.2,5.6,0.6,8.2-0.2c4.1-1.2,6.5-2.1,9.1-5.5c2.3-3,3.7-8.8,3.3-12.5
			C178.7,218.8,177.8,215.3,174.5,212.2z"/>
		
			<radialGradient id="SVGID_1_" cx="6428.3145" cy="168.2374" r="26.5807" gradientTransform="matrix(0.9814 -0.192 0.192 0.9814 -6188.4727 1292.9834)" gradientUnits="userSpaceOnUse">
			<stop  offset="0" style="stop-color:#697AA0;stop-opacity:0.6"/>
			<stop  offset="1" style="stop-color:#7D8EB4;stop-opacity:0"/>
		</radialGradient>
		<path class="st29" d="M174.5,212.2c-4.2-3.9-10.4-6.2-16.1-4.7c-7.3,1.9-11.6,8.3-11.8,15.6c-0.1,5.2,1.8,10,5.5,13.6
			c1.8,1.8,4.1,3.2,6.4,4.3c2.6,1.2,5.6,0.6,8.2-0.2c4.1-1.2,6.5-2.1,9.1-5.5c2.3-3,3.7-8.8,3.3-12.5
			C178.7,218.8,177.8,215.3,174.5,212.2z"/>
		<path class="st30" d="M172.9,221.4c0-1.7-0.7-3.3-2.1-4.4c-1.4-1.1-3.3-1.6-5.1-1.8c-2.1-0.2-4.2,0-6.2,0.5
			c-0.6,0.1-1.1,0.3-1.6,0.5c-1.7,0.8-3.2,2.2-4,3.9s-1.1,3.7-0.9,5.5c0.1,1,0.5,2,0.8,3c0.9,2.6,1.7,5.2,2.5,7.7
			c0,0.1,0.1,0.3,0.2,0.4c0.2,0.1,0.3,0.2,0.5,0.3c2.1,0.6,4.2,1.3,6.3,1.9c0.2,0.1,0.4,0.1,0.6,0.1c0.6-0.1,1.4-2.1,1.7-2.6
			c0.1-0.2,0.3-0.4,0.4-0.6c0.4-0.3,0.9-0.3,1.4-0.4c0.7-0.1,1-0.1,1.6-0.4c0.4-0.2,0.7-0.4,1-0.7c0.9-1.1,0.2-3.1,1.1-4
			c0.6-0.6,2.2-0.7,2.5-1.6C173.4,226.9,172.9,223.6,172.9,221.4z"/>
		<path class="st31" d="M156.9,230.9c-1.7,1.1-3.3,1.2-4.6-0.7c-1.4-1.9-1-4.2-0.8-6.4c0.3-2.7,1.4-5.3,3.2-7.3
			c3.5-4,8.9-5.3,13.8-3.3c0.7,0.3,1.4,0.7,2.1,0.7c1.1,0.1,2.5-0.2,2.9,0.8c0,0.5-0.9,0.5-1.2,0.9c-0.8,1.3,1.7,0.7,2,0.6
			c0.2,0,0.4-0.1,0.6,0c0.3,0.1,0.4,0.5,0.3,0.8c-0.1,0.4-0.4,0.8-0.9,1.1c-0.5,0.3-2.1,0.3-2.2,0.9c-0.1,0.2,0,0.5,0.3,0.6
			c0.2,0.1,0.4,0.1,0.6,0c0.3,0,0.5-0.1,0.8-0.1c0.1,0,0.1,0,0.2,0c0.1,0,0.1,0.1,0.1,0.2c0,0.5-0.4,0.8-0.9,1
			c-1.7,0.7-3.5,0.2-4.7,2.1c-0.7,1.1-0.9,2.6-2.1,3.1c-0.3-0.5-0.7-1.1-1.2-1.4c-0.6-0.3-1.3-0.4-1.8,0c-0.7,0.6-0.6,1.6-0.3,2.4
			c0.4,0.8,1,1.5,1.1,2.4c0.1,0.9-0.5,2-1.3,1.8c-0.3-0.1-0.5-0.2-0.8-0.4C160.6,229.8,158.4,229.9,156.9,230.9z"/>
		<path class="st23" d="M198.4,254.2c0-0.9-1.8-6-4.5-5.9c-2.8,0.1-5.2,0.8-6.1,1.5c-1,0.7-1.7,1.2-2.1,2.4
			c-0.4,1.3-0.2,2.7,0.3,3.9c0.2,0.5,0.5,1.4,1,1.8c0.5,0.4,1.4,0.5,2,0.6c2,0.4,3.3-0.1,5.2-0.7c1.1-0.4,1.9,0.5,2.7,0
			C197.5,257.4,198.3,255.6,198.4,254.2z"/>
		<g id="Body_4_">
			<defs>
				<path id="XMLID_25_" d="M124.4,287.2c2.4-2.9,3.4-5.4,5.1-9.1c0.7-1.6,1.9-3.2,1.3-5.1c-0.4-1.6-2.5-2.5-3.5-3.6
					c-2.1-2.4-2.7-4.3-2.4-7.5c0.2-2.7,1.8-6.1,3.3-8.2c2.4-3.5,9.6-14.1,10.7-15.8c1.3-1.9,3.1-3.5,5.7-3.5c-0.4,0-1-1.3-1.2-1.6
					c-3.1-6.8-2.8-12.4-0.1-18c3.2-6,9.5-9.4,15.1-9.5c5.3-0.1,11.7,2.6,11.7,3.9c0,0,5,9.1,2.2,19c-3.2,11.3-10.6,11.4-9.2,13
					c1,1.2,0.3,2.7-0.8,3.7c-0.4,0.4-1,0.6-1.4,1c-0.5,0.6-0.8,1.6-1.2,2.3c-1.6,3.4-2.9,6.9-4.7,10.2c-2.4,4.6-4.3,9.3-6.9,13.7
					c-2.9,5-6.7,15.8-11.9,21.7c-6.5,7.4-11.7,8.9-19.4,12c-3.1,1.2-6.9-0.7-8.2-3.4c-1.4-2.9-0.4-5.7,2.6-7.7
					C116.6,291.4,120.5,292.1,124.4,287.2z"/>
			</defs>
			<use xlink:href="#XMLID_25_"  style="overflow:visible;fill:#F5F7FA;"/>
			<clipPath id="XMLID_9_">
				<use xlink:href="#XMLID_25_"  style="overflow:visible;"/>
			</clipPath>
			
				<radialGradient id="SVGID_2_" cx="2506.0908" cy="-6493.1899" r="16.5598" gradientTransform="matrix(0.1654 0.9862 -2.1221 0.3559 -14054.209 100.9859)" gradientUnits="userSpaceOnUse">
				<stop  offset="0" style="stop-color:#C4CEE1"/>
				<stop  offset="1" style="stop-color:#FFFFFF;stop-opacity:0"/>
			</radialGradient>
			<path class="st32" d="M138.2,277c-2.1-0.7-3.9-2-5.7-3.2c-2.9-2-5.6-4.4-7.4-7.5c-2-3.4-1.3-7.4,1-10.3c1.7-2.1,4.4-3.4,6.7-4.8
				c1.4-0.8,2.9-2,4.4-2.6c2.9-1.1,5.7-2,8.7-2.8c3-0.7,8-2.4,10.4,0.4c1.3,1.5,1.5,3.8,1.6,5.7c0,2.3-0.5,3.5-1.8,5.4
				c-0.8,1.3-1.6,2.6-2.5,3.8c-0.7,1.1-1.3,1.8-1.6,3.1c-0.3,1.3-0.6,2.5-0.9,3.8c-0.4,2.5-0.9,5-2.6,7
				C146.1,277.7,141.4,278.2,138.2,277z"/>
			
				<linearGradient id="SVGID_3_" gradientUnits="userSpaceOnUse" x1="6412.0684" y1="192.9245" x2="6381.918" y2="244.9342" gradientTransform="matrix(0.9814 -0.192 0.192 0.9814 -6188.4727 1292.9834)">
				<stop  offset="0" style="stop-color:#C8CCD1"/>
				<stop  offset="1" style="stop-color:#DCE0E5"/>
			</linearGradient>
			<path class="st33" d="M110.8,303.7c7-0.1,17.7-5.2,23.7-12c6.1-6.9,7.9-12.8,10.4-21.8c0.7-2.4,1.7-5.3,2.9-7.4
				c1.4-2.3,2.8-4.5,4.2-6.8"/>
			<path class="st34" d="M164.3,244.4c-7.5-1.8-16.6-5.3-23.3-9"/>
			<path class="st34" d="M164.5,242.8c-5.7-1.2-16.4-4.9-21.9-8.3"/>
			<path class="st34" d="M164.3,241c-7.3-1.2-16.8-5.5-21.7-8.2"/>
			<path class="st35" d="M158.5,251.3c0,2.3-1.5,5.1-2.7,7.4c-1.5,3-2.2,4.3-3.7,7.4c-0.4-0.3-1.2-0.9-1.4-1.3
				c-0.8-1.4,0.5-3.1,1.2-4.2c1.1-1.9,2.1-3.8,3.3-5.7c0.4-0.6,0.8-1.5,1.3-2.1C157,252,157.7,251.3,158.5,251.3z"/>
		</g>
		<path class="st23" d="M105.3,314.8c0,0.3,0.1,0.6,0.3,0.9c0.2,0.3,0.6,0.5,1,0.7c1.6,0.7,2.8,1.5,4.3,0.6c1.4-0.9,2.4-2.8,3-4.3
			c1.3-3.2,1.3-7,0.4-10.3c-0.4-1.5-1.2-2.9-2.4-3.8c-1.2-0.9-3-1.3-4.4-0.6c-1.3,0.6-2.1,2-2.5,3.4c-0.7,2.8-0.2,6-0.1,8.9
			C105,311.7,105.1,313.3,105.3,314.8z"/>
		<path class="st23" d="M78.6,280.3c0.4,1.7,0.5,3.2,2.1,3.8c1.6,0.6,3.7,0.3,5.2-0.1c3.4-0.9,6.4-3.1,8.5-5.8
			c0.9-1.2,1.6-2.7,1.6-4.2c0-1.5-1.2-3.6-2.6-4.4c-1.3-0.7-2.8-0.5-4.2,0C86.7,270.8,78.5,279.9,78.6,280.3z"/>
		<g id="Arm_R_1_">
			<defs>
				<path id="XMLID_24_" d="M147.8,243c-1.4,1.9-1.6,4.4-0.7,6.6c1,2.4,3,4.2,4.9,5.9c7.6,6.7,16.6,11,22.7,10.4
					c7.8-0.8,13.3-5.8,15.3-7.8c1-1,0.9-3,0.1-4.3c-1-1.8-2.8-2.5-4.2-2.2c-2.6,0.5-3.9,1.4-6.7,3.1c-1.5,1-4.1,1.2-7.2-0.1
					c-3.3-1.3-6.4-3.9-9-6.3c-2.2-2-4.4-3.3-6.9-5c-0.5-0.3-1.1-0.7-1.8-0.9C151.6,241.3,149.5,240.7,147.8,243z"/>
			</defs>
			<use xlink:href="#XMLID_24_"  style="overflow:visible;fill:#F5F7FA;"/>
			<clipPath id="XMLID_10_">
				<use xlink:href="#XMLID_24_"  style="overflow:visible;"/>
			</clipPath>
			<path class="st36" d="M191.4,253.2c-2.8,1.5-8.4,5.6-10.1,6.6c-3.5,1.9-7.7,1.7-11.5,0.6c-2.5-0.2-13.5-7.6-14.7-10.7
				c-1.2-3,0.1-7.8-0.2-9.1"/>
			<path class="st37" d="M189.2,259.6c0.8-1.5,0.9-3.4-0.2-5.3c-1.5-2.5-4.7-3-6.3-2.6"/>
		</g>
		<g>
			<path class="st38" d="M134,236.2c-2,1.2-3.3,3.3-4.9,4.8c-2.6,2.5-5,5.1-7.3,7.8c-1,1.2-1.3,2.5-1.1,4.1c0.3,1.9,2.1,5.6,3.1,7.3
				c0.6,0.9,1.4,1.6,2.2,2.2c1.4,1.1,2.9,2,4.4,3c2.4,1.5,6.3,4.6,9.2,2.1c2.3-2,4.2-4.7,6-7.2c2.1-2.9,4-5.9,5.8-9
				c1.1-1.9,2.2-3.3,1.6-5.6c-0.5-1.9-2-3.3-3.7-4.2c-2.8-1.5-5.5-3.1-8.4-4.4c-1.7-0.8-3.3-1.7-5-1.6
				C135.3,235.5,134.7,235.7,134,236.2z"/>
			<g>
				<g>
					<defs>
						<path id="SVGID_4_" d="M134,236.2c-2,1.2-3.3,3.3-4.9,4.8c-2.6,2.5-5,5.1-7.3,7.8c-1,1.2-1.3,2.5-1.1,4.1
							c0.3,1.9,2.1,5.6,3.1,7.3c0.6,0.9,1.4,1.6,2.2,2.2c1.4,1.1,2.9,2,4.4,3c2.4,1.5,6.3,4.6,9.2,2.1c2.3-2,4.2-4.7,6-7.2
							c2.1-2.9,4-5.9,5.8-9c1.1-1.9,2.2-3.3,1.6-5.6c-0.5-1.9-2-3.3-3.7-4.2c-2.8-1.5-5.5-3.1-8.4-4.4c-1.7-0.8-3.3-1.7-5-1.6
							C135.3,235.5,134.7,235.7,134,236.2z"/>
					</defs>
					<clipPath id="SVGID_5_">
						<use xlink:href="#SVGID_4_"  style="overflow:visible;"/>
					</clipPath>
					<path class="st39" d="M151.4,242.3c0.6,1.4,0,3.2-0.6,4.2c-1.3,2-3,3.8-4.4,5.7c-1.4,1.9-2.7,3.9-4.2,5.7
						c-1.8,2.4-4.5,5.5-7.9,4.9c-1.2-0.2-2.3-0.8-3.4-1.3c-2.3-1.2-4.6-2.4-6.8-3.9c-1.5-1.1-2.8-2.4-3.3-3.1"/>
				</g>
			</g>
			<g>
				<g>
					<defs>
						<path id="SVGID_6_" d="M134,236.2c-2,1.2-3.3,3.3-4.9,4.8c-2.6,2.5-5,5.1-7.3,7.8c-1,1.2-1.3,2.5-1.1,4.1
							c0.3,1.9,2.1,5.6,3.1,7.3c0.6,0.9,1.4,1.6,2.2,2.2c1.4,1.1,2.9,2,4.4,3c2.4,1.5,6.3,4.6,9.2,2.1c2.3-2,4.2-4.7,6-7.2
							c2.1-2.9,4-5.9,5.8-9c1.1-1.9,2.2-3.3,1.6-5.6c-0.5-1.9-2-3.3-3.7-4.2c-2.8-1.5-5.5-3.1-8.4-4.4c-1.7-0.8-3.3-1.7-5-1.6
							C135.3,235.5,134.7,235.7,134,236.2z"/>
					</defs>
					<clipPath id="SVGID_7_">
						<use xlink:href="#SVGID_6_"  style="overflow:visible;"/>
					</clipPath>
					<path class="st40" d="M127.2,242.2c2.5,1.7,15.6,9,17.3,9.8c0.3,0.1,0.7,0.3,1,0.3c0.6,0,1.2-0.6,1.6-1"/>
				</g>
			</g>
		</g>
	</g>
	<g class="st0">
		<g>
			<polyline class="st10" points="131.3,100.6 149.7,123.3 138.4,152.6 188.9,157.9 206,168.7 			"/>
			
				<rect x="143.1" y="122.5" transform="matrix(0.9491 0.3151 -0.3151 0.9491 47.6945 -40.0357)" class="st41" width="9.2" height="10.1"/>
			
				<rect x="134.7" y="147.6" transform="matrix(0.1616 -0.9869 0.9869 0.1616 -33.7773 265.4631)" class="st41" width="9.2" height="10.1"/>
			
				<rect x="189.3" y="156.9" transform="matrix(0.6696 -0.7427 0.7427 0.6696 -56.2239 197.527)" class="st41" width="9.2" height="10.1"/>
		</g>
		<g>
			<path class="st5" d="M138.1,104.4l-24.5-12.8c-0.1,0-0.1-0.1-0.2-0.2l-0.3-18.4c-0.1-0.3,0-0.6,0.3-0.7l18.5-4
				c0.3-0.1,0.6,0,0.9,0.1L161,80.9c0.7,0.3,0.6,19.1-0.2,19.3l-21.9,4.3C138.6,104.6,138.3,104.5,138.1,104.4z"/>
			<path class="st6" d="M138.1,104.4l1-0.5c-0.1,0-0.1-0.1-0.2-0.2l-0.3-18.4c-0.1-0.3,0-0.6,0.3-0.7l18.5-4c0.3-0.1,0.6,0,0.9,0.1
				l2.7,0.3c0.7,0.3,0.6,19.1-0.2,19.3l-21.9,4.3C138.6,104.6,138.3,104.5,138.1,104.4z"/>
			<path class="st42" d="M138,85.7l-24.8-13.1c-0.2-0.1-0.1-0.4,0.1-0.4l18.6-4c0.3-0.1,0.6,0,0.9,0.1l28,12.6
				c0.3,0.1,0.3,0.6-0.1,0.7l-21.9,4.3C138.6,85.9,138.3,85.9,138,85.7z"/>
		</g>
	</g>
	<g class="st0">
		<path class="st5" d="M88.4,198.5l-6.4-9.9c-0.1,0-0.1-0.1-0.1-0.1l-0.2-11.7c-0.1-0.2,0-0.4,0.2-0.4l21.5-4.6c0.2,0,0.4,0,0.6,0.1
			l8.8,9.8c0.4,0.2,0.4,12.1-0.1,12.2L89,198.6C88.8,198.7,88.6,198.6,88.4,198.5z"/>
		<path class="st6" d="M88.4,198.5l0.3-0.2c-0.1,0-0.1-0.1-0.1-0.1l-0.2-11.7c-0.1-0.2,0-0.4,0.2-0.4l21.5-4.6c0.2,0,0.4,0,0.6,0.1
			l2.1,0.1c0.4,0.2,0.4,12.1-0.1,12.2L89,198.6C88.8,198.7,88.6,198.6,88.4,198.5z"/>
		<path class="st42" d="M88.4,186.7l-6.6-10.1c-0.1-0.1-0.1-0.2,0-0.2l21.5-4.7c0.2,0,0.4,0,0.6,0.1l8.7,9.8
			c0.2,0.1,0.2,0.4-0.1,0.4L89,186.8C88.8,186.8,88.6,186.8,88.4,186.7z"/>
	</g>
</g>
</svg>
