<?xml version="1.0" encoding="utf-8"?>
<!-- Generator: Adobe Illustrator 23.0.2, SVG Export Plug-In . SVG Version: 6.00 Build 0)  -->
<svg version="1.1" id="_x35_00" xmlns="http://www.w3.org/2000/svg" xmlns:xlink="http://www.w3.org/1999/xlink" x="0px" y="0px"
	 viewBox="0 0 508.6 390.5" style="enable-background:new 0 0 508.6 390.5;" xml:space="preserve">
<style type="text/css">
	.st0{clip-path:url(#XMLID_2_);}
	.st1{fill:none;stroke:#AE9554;stroke-width:2.1659;stroke-miterlimit:10;}
	.st2{fill:none;stroke:#AE9554;stroke-width:1.3855;stroke-miterlimit:10;}
	.st3{fill:none;stroke:#AE9554;stroke-width:1.6629;stroke-miterlimit:10;}
	.st4{fill:none;stroke:#AE9554;stroke-width:1.8411;stroke-miterlimit:10;}
	.st5{fill:#92A4B7;}
	.st6{fill:#ACB9CC;}
	.st7{fill:none;stroke:#5E7284;stroke-miterlimit:10;}
	.st8{fill:#C5D2ED;}
	.st9{fill:url(#SVGID_1_);}
	.st10{fill:#D6C2BF;}
	.st11{fill:#6F798C;}
	.st12{fill:#7D8EB4;}
	.st13{clip-path:url(#XMLID_3_);fill:url(#SVGID_2_);}
	.st14{clip-path:url(#XMLID_3_);fill:url(#SVGID_3_);}
	
		.st15{clip-path:url(#XMLID_3_);fill:none;stroke:url(#SVGID_4_);stroke-width:0.8;stroke-miterlimit:10;stroke-dasharray:1.0038,1.0038;}
	.st16{clip-path:url(#XMLID_3_);fill:none;stroke:#AEB9D1;stroke-width:2;stroke-miterlimit:10;}
	.st17{clip-path:url(#XMLID_3_);fill:#F9D285;}
	.st18{clip-path:url(#XMLID_4_);fill:none;stroke:#DCE0E5;stroke-width:0.8;stroke-miterlimit:10;stroke-dasharray:1;}
	.st19{clip-path:url(#XMLID_4_);fill:none;stroke:#AEB9D1;stroke-width:1.5;stroke-miterlimit:10;}
	.st20{fill:url(#SVGID_5_);}
	.st21{fill:none;stroke:#D34A82;stroke-width:2.7165;stroke-miterlimit:10;}
	.st22{fill:none;stroke:#ACB9CC;stroke-linecap:round;stroke-miterlimit:10;}
	.st23{fill:none;stroke:#ACB9CC;stroke-width:0.85;stroke-linecap:round;stroke-miterlimit:10;}
	.st24{fill:none;stroke:#ACB9CC;stroke-width:0.7;stroke-linecap:round;stroke-miterlimit:10;}
	.st25{fill:none;stroke:#92A4B7;stroke-width:4;stroke-miterlimit:10;}
	.st26{fill:none;stroke:#92A4B7;stroke-width:2;stroke-miterlimit:10;}
	.st27{clip-path:url(#XMLID_5_);fill:none;stroke:#204666;stroke-width:4;stroke-miterlimit:10;}
	.st28{opacity:0.42;clip-path:url(#XMLID_5_);fill:none;stroke:#204666;stroke-width:2;stroke-miterlimit:10;}
	.st29{fill:#99AABF;}
	.st30{clip-path:url(#XMLID_6_);}
	.st31{clip-path:url(#XMLID_7_);fill:none;stroke:#204666;stroke-width:2;stroke-miterlimit:10;}
	.st32{fill:#C0CDDD;}
	.st33{clip-path:url(#XMLID_8_);fill:none;stroke:#778DA0;stroke-miterlimit:10;}
	.st34{clip-path:url(#XMLID_8_);fill:#5E7284;}
	.st35{clip-path:url(#XMLID_8_);fill:#778DA0;}
	.st36{clip-path:url(#XMLID_8_);fill:none;stroke:#5E7284;stroke-miterlimit:10;}
	.st37{fill:#306182;}
	.st38{fill:#204666;}
	.st39{fill:none;stroke:#ACB9CC;stroke-width:0.8462;stroke-miterlimit:10;}
	.st40{fill:none;stroke:#ACB9CC;stroke-miterlimit:10;}
	.st41{display:none;fill:none;stroke:#ACB9CC;stroke-width:0.8462;stroke-miterlimit:10;}
</style>
<g>
	<defs>
		<path id="XMLID_10_" d="M43.6,382.4l428.1,8.1c20.3,0,36.9-16.6,36.9-36.9L488.2,46.5c0-20.3-16.6-36.9-36.9-36.9L51.1,0
			C24.3,0,0,23.7,0,62l6.8,283.5C6.8,365.8,23.3,382.4,43.6,382.4z"/>
	</defs>
	<use xlink:href="#XMLID_10_"  style="overflow:visible;fill:#22313F;"/>
	<clipPath id="XMLID_2_">
		<use xlink:href="#XMLID_10_"  style="overflow:visible;"/>
	</clipPath>
	<g id="Stars_5_" class="st0">
		<g>
			<path class="st1" d="M163.3,358.1c-0.7,3-0.9,6.2-0.5,9.2"/>
			<path class="st1" d="M159.4,362.1c2.5,0.2,5.1,0.2,7.6,0"/>
			<path class="st1" d="M165.2,359c-1.9,2.1-3.7,4.3-5.6,6.4"/>
		</g>
		<g>
			<path class="st2" d="M427.4,168.3c0.3,1.6,0.7,3.2,1.2,4.8"/>
			<path class="st2" d="M425.3,171c1.8-0.2,3.6-0.4,5.4-0.5"/>
			<path class="st2" d="M429.3,168.8c-1.1,1.4-2.1,2.8-3.2,4.2"/>
		</g>
		<g>
			<path class="st3" d="M91.6,301.9c0.8,1.9,1.7,3.9,2.5,5.8"/>
			<path class="st3" d="M89.3,305.3c2.1-0.2,4.1-0.7,6-1.5"/>
			<path class="st3" d="M93.4,302.2c-0.6,1.9-1.3,3.8-2.2,5.6"/>
		</g>
		<path class="st1" d="M402.3,147.4c0.3,0.6,0.6,1.2,0.9,1.8"/>
		<g>
			<path class="st1" d="M485.9,32.9c-0.7,0.8-1,1.8-0.9,2.8"/>
			<path class="st1" d="M483,33.2c1.8,0.8,1.8,0.8,3.7,1.6"/>
		</g>
		<path class="st1" d="M288.8,295c1.1,0.6,2.2,1.2,3.4,1.8"/>
		<path class="st1" d="M261.3,75.7c-0.7,0.5-1.3,1.2-1.5,2.1"/>
		<path class="st1" d="M369.4,39.6c-1.1,0.6-2.2,1.1-3.2,1.7"/>
		<path class="st1" d="M456.5,114.2c0.7,0.8,1.3,1.5,2,2.3"/>
		<path class="st1" d="M331.6,381.2c0.7,0.7,1.5,1.2,2.4,1.5"/>
		<g>
			<path class="st4" d="M486.6,173c1.7,0.6,3.4,1.3,5,1.9"/>
			<path class="st4" d="M489.6,171c-0.6,1.7-1.2,3.4-1.9,5"/>
			<path class="st4" d="M491.3,172.8c-1.1,0.4-2.3,0.6-3.5,0.4"/>
		</g>
		<g>
			<path class="st4" d="M223.3,349.5c0.8,1.2,2,2,3.4,2.4"/>
			<path class="st4" d="M226.1,349.7c-0.5,1.1-1.3,2-2.3,2.7"/>
		</g>
		<g>
			<path class="st4" d="M369.5,348.8c1.1,0.8,2.3,1.6,3.4,2.4"/>
			<path class="st4" d="M370,351.6c0.8-1.4,1.9-2.7,3.2-3.7"/>
			<path class="st4" d="M370.8,347.4c0.7,1.3,1.1,2.7,1.2,4.1"/>
		</g>
		<g>
			<path class="st4" d="M386.6,188.1c0.2,1.5,0.4,3,0.6,4.5"/>
			<path class="st4" d="M390.1,190.1c-1.9-0.3-4-0.2-5.9,0.4"/>
			<path class="st4" d="M388.9,187.9c-0.9,1.1-1.8,2.2-2.7,3.3c-0.2,0.3-0.4,0.7-0.1,0.8"/>
		</g>
		<g>
			<path class="st2" d="M162.3,123.8c-0.9-1.4-1.9-2.7-3-4"/>
			<path class="st2" d="M163.2,120.5c-1.6,0.8-3.2,1.7-4.8,2.5"/>
			<path class="st2" d="M160.3,124.1c0.5-1.7,0.9-3.4,1.4-5.1"/>
		</g>
		<g>
			<path class="st3" d="M416.6,18.7c-1.5-1.5-3-2.9-4.5-4.4"/>
			<path class="st3" d="M417.4,14.7c-1.8,1-3.5,2.2-5,3.7"/>
			<path class="st3" d="M414.8,19.2c-0.2-2-0.2-4-0.1-6"/>
		</g>
		<path class="st1" d="M71.9,279.7c-0.5-0.5-1-0.9-1.6-1.4"/>
		<g>
			<path class="st1" d="M42.3,160.6c0.3-1,0.2-2.1-0.3-2.9"/>
			<path class="st1" d="M44.9,159.2c-2-0.1-2-0.1-4-0.1"/>
		</g>
		<path class="st1" d="M220.4,69c-1.3-0.1-2.5-0.3-3.8-0.4"/>
		<path class="st1" d="M90.7,35.6c0.5-0.7,0.7-1.6,0.6-2.5"/>
		<path class="st1" d="M487.9,60.4c-1-0.3-2-0.3-3-0.1"/>
		<path class="st1" d="M133.6,299.8c-0.9-0.5-1.8-0.9-2.7-1.4"/>
		<path class="st1" d="M221.8,11.4c-0.9-0.4-1.9-0.5-2.8-0.5"/>
		<g>
			<path class="st4" d="M247.9,212.3c-1.8,0.1-3.6,0.1-5.4,0.2"/>
			<path class="st4" d="M245.8,215.3c-0.1-1.8-0.1-3.6-0.2-5.4"/>
			<path class="st4" d="M243.6,214.3c0.9-0.8,1.9-1.4,3.1-1.7"/>
		</g>
		<g>
			<path class="st4" d="M296.2,19.3c-1.3-0.3-2.7-0.6-4-0.9"/>
			<path class="st4" d="M294.7,16.9c-0.2,1.6-0.7,3.2-1.5,4.6"/>
			<path class="st4" d="M295.6,21.1c-1.1-0.9-2-2.1-2.7-3.3"/>
		</g>
		<g>
			<path class="st4" d="M69.8,94c-0.7-1.3-1.5-2.6-2.2-3.9"/>
			<path class="st4" d="M65.8,93.5c1.9-0.4,3.7-1.3,5.3-2.6"/>
			<path class="st4" d="M67.8,95.1c0.4-1.4,0.9-2.7,1.3-4.1c0.1-0.3,0.1-0.8-0.3-0.8"/>
		</g>
	</g>
	<g id="Device" class="st0">
		<path class="st5" d="M134.4,332.1c0,0-4.2-19.1-4.9-21.2c-0.3-0.8-0.5-1.9-1.2-2.5c-1-0.8-5.2-1.1-6.6-0.5
			c-0.5,0.2-6.1,3.4-7.2,3.9c-2.2,1-3.8,3.2-3.2,5.1c0.6,1.9,4,18.3,4.7,20.2C116.7,339.1,134.8,333.7,134.4,332.1z"/>
		<path class="st6" d="M135.4,332.6c0,0-4.2-19.1-4.9-21.2c-0.6-2-1.9-4.2-5.3-2.6c-0.5,0.2-8,4.2-9.1,4.7c-2.2,1-2.2,2.8-1.6,4.7
			c0.6,1.9,4.2,18.8,4.8,20.7C120,340.9,135.8,334.2,135.4,332.6z"/>
		<line class="st7" x1="119.8" y1="319.4" x2="128.4" y2="315.5"/>
		<line class="st7" x1="120.5" y1="322.4" x2="129" y2="318.6"/>
	</g>
	<g id="Astronaut_x5F_A_1_" class="st0">
		<path class="st8" d="M62.1,254.2c-15.6-8.7-35.5-10.9-51.6-2.2C-9.9,262.7-18.1,285-13.3,307c3.4,15.5,12.7,28.7,26.4,36.7
			c6.8,4.1,14.5,6.7,22.3,8.2c8.5,1.7,17.1-2.4,24.4-6.6c11.5-6.6,17.8-11.1,23.1-23.1c4.7-10.5,4.6-29,0.8-39.8
			C79.4,271,74.2,261.1,62.1,254.2z"/>
		
			<radialGradient id="SVGID_1_" cx="6688.7671" cy="386.0358" r="81.7726" gradientTransform="matrix(0.9084 -0.4181 0.4181 0.9084 -6232.3838 2751.1338)" gradientUnits="userSpaceOnUse">
			<stop  offset="0" style="stop-color:#697AA0;stop-opacity:0.6"/>
			<stop  offset="1" style="stop-color:#7D8EB4;stop-opacity:0"/>
		</radialGradient>
		<path class="st9" d="M62.1,254.2c-15.6-8.7-35.5-10.9-51.6-2.2C-9.9,262.7-18.1,285-13.3,307c3.4,15.5,12.7,28.7,26.4,36.7
			c6.8,4.1,14.5,6.7,22.3,8.2c8.5,1.7,17.1-2.4,24.4-6.6c11.5-6.6,17.8-11.1,23.1-23.1c4.7-10.5,4.6-29,0.8-39.8
			C79.4,271,74.2,261.1,62.1,254.2z"/>
		<path class="st10" d="M60.1,277.8c-1.9-5-5.7-8.6-10.9-10.2c-5.4-1.6-11.1-1-16.5,0.4c-6.1,1.7-12.1,4.5-17.3,8.2
			c-1.5,1-2.8,2.1-4.1,3.4c-4.1,4.1-6.6,9.8-7.3,15.6s0.8,11.8,3.6,16.8c1.5,2.8,3.5,5.2,5.5,7.7c5.3,6.5,10.5,13,15.8,19.4
			c0.2,0.3,0.6,0.7,0.9,0.9c0.6,0.2,1.2,0.2,1.8,0.2c6.7-0.5,13.5-0.9,20.2-1.4c0.6,0,1.2-0.1,1.7-0.4c1.7-1.1,1.6-7.6,2-9.5
			c0.1-0.7,0.3-1.5,0.6-2.1c0.8-1.3,2.3-2,3.7-2.8c1.9-1.1,2.7-1.2,4.3-2.9c0.9-0.9,1.7-2,2.2-3.1c1.5-4.2-2.8-9.2-1.3-12.8
			c1-2.4,5.5-4.4,5.3-7.4C67.4,293.2,62.4,284.1,60.1,277.8z"/>
		<path class="st11" d="M26.6,320.8c-3.9,4.8-8.3,6.6-14.1,2.3c-5.9-4.4-7.1-11.3-8.5-17.9c-1.8-8.1-1-16.9,2.2-24.6
			c6.4-15,20.8-24,37.1-23c2.3,0.2,4.7,0.6,6.9,0.1c3.2-0.8,7.1-3.1,9.3-0.6c0.5,1.6-2.2,2.2-2.5,3.8c-1,4.4,5.7,0.5,6.5-0.1
			c0.5-0.3,1.1-0.6,1.7-0.5c1,0,1.5,1,1.6,2c0.1,1.4-0.5,2.8-1.4,4c-1.1,1.2-5.7,3-5.6,4.7c0,0.6,0.6,1.4,1.3,1.4
			c0.6,0.1,1.2-0.2,1.7-0.5c0.8-0.4,1.5-0.7,2.3-1.1c0.2-0.1,0.4-0.2,0.6-0.1s0.3,0.3,0.4,0.5c0.6,1.4-0.5,2.8-1.6,3.7
			c-4.4,3.8-10.2,4-11.8,10.6c-0.9,3.9-0.1,8.4-2.9,11.1c-1.4-1.3-3-2.6-4.9-3c-2-0.4-4.2,0.1-5.2,1.7c-1.5,2.3-0.2,5.4,1.6,7.4
			c1.8,2,4.3,3.5,5.5,5.9c1.3,2.4,0.5,6.2-2.1,6.6c-0.8,0.1-1.7-0.1-2.6-0.3C36.5,313.9,30.1,316.3,26.6,320.8z"/>
		<path class="st12" d="M143.3,327.7c-2.2-1.7-6.6-4.1-9.4-2.9c0,0-3,6.3-4.9,8.6c-1.4,1.6-2.6,2.7-4.6,2c-3.2-1.1-5.2-4-8.8-4.2
			c-2.3-0.1-4.8,1.1-5.4,3.3c-0.5,2,0.7,3.9,1.6,5.6c1.6,3,3.5,7.3,3.4,10.8c0,3.7,0,6.2,2.4,9.4c2.5,3.3,6.3,5.2,10.2,6
			c1.7,0.4,4.3,1,6,0.6c1.8-0.5,3.5-2.6,4.8-3.9c4.3-4.3,7.9-9.8,9.6-15.7C150.4,340,149.5,332.3,143.3,327.7z"/>
		<g id="Body_2_">
			<defs>
				<path id="XMLID_19_" d="M47.4,248c0,0,17.6,8,16.9,51.2c-0.8,48.3-20.1,45.7-14.6,49.7c3.9,2.8,3,7.9,0.4,11.7
					c-0.9,1.5-2.7,2.6-3.5,4.1c-1.2,2.2-1.3,5.2-1.9,7.7c-2.3,11.3-3.8,22.7-6.5,33.8c-4.6,18.6-3.5,40.9-18.8,55.1
					c-16.3,15.2-40.4,9.8-56.7-1.9c-7.9-5.6-14.7-14.2-16.1-24c-1.3-8.3,3.6-16.2,6.4-23.7c4.5-12.2,9.6-24.1,15.2-35.8
					c2.7-5.6,5.8-11.1,8-16.9c2.5-6.7,5.3-15.1,13.1-16.9c-1.1,0.3-4-3.2-4.7-3.9c-14.1-18.2-17.4-34.9-13.3-53.8
					C-23.4,263.9-7,249.4,9.6,245C25.2,240.8,46.3,244.3,47.4,248z"/>
			</defs>
			<use xlink:href="#XMLID_19_"  style="overflow:visible;fill:#F5F7FA;"/>
			<clipPath id="XMLID_3_">
				<use xlink:href="#XMLID_19_"  style="overflow:visible;"/>
			</clipPath>
			
				<radialGradient id="SVGID_2_" cx="2789.1777" cy="-6598.7959" r="50.9445" gradientTransform="matrix(0.3934 0.9193 -1.9782 0.8466 -14157.2832 3448.7217)" gradientUnits="userSpaceOnUse">
				<stop  offset="0" style="stop-color:#C4CEE1"/>
				<stop  offset="1" style="stop-color:#FFFFFF;stop-opacity:0"/>
			</radialGradient>
			<path class="st13" d="M0.8,474.2c-6.7-0.7-13.1-3-19.3-5.4c-10.2-3.9-19.9-9.1-27.5-17c-8.4-8.6-9.3-21.1-4.6-31.6
				c3.4-7.6,10.8-13.5,16.6-19.2c3.6-3.5,7.1-8,11.3-10.9c7.8-5.3,15.7-10.3,24-14.6c8.4-4.4,22.1-12.9,31.3-6.4
				c5.1,3.6,7.4,10.3,8.8,16c1.7,6.9,0.9,10.9-1.5,17.5c-1.6,4.4-3,8.9-4.7,13.2c-1.4,3.7-2.6,6.4-2.6,10.3s-0.1,7.9,0.1,11.9
				c0.5,7.8,0.9,15.6-2.8,22.8C24.7,470.5,11.2,475.5,0.8,474.2z"/>
			<linearGradient id="SVGID_3_" gradientUnits="userSpaceOnUse" x1="-24.7952" y1="371.6084" x2="85.6564" y2="497.5439">
				<stop  offset="0" style="stop-color:#BAC4D7;stop-opacity:0.7"/>
				<stop  offset="1" style="stop-color:#FFFFFF;stop-opacity:0"/>
			</linearGradient>
			<path class="st14" d="M39.4,402.2c2.5-6.6,3.3-10.6,1.5-17.5c-5.5-21.8-34.9-32.8-55.7-33.2c-3-0.1-6.1,0.1-9,1
				c-3.4,1.1-6.3,3.2-9.1,5.4c-5.6,4.4-11.2,9.1-14.6,15.4c-6.5,11.7-4.5,26.6,1.7,38.4c6.2,11.8,16.2,21.2,26,30.2
				c10.7,9.9,26.3,21.6,36.8,5.3c3.5-5.3,6.7-10.7,9.8-16.3c2.8-5.1,5.9-10,8-15.4C36.3,411,37.8,406.6,39.4,402.2z"/>
			
				<linearGradient id="SVGID_4_" gradientUnits="userSpaceOnUse" x1="6665.4102" y1="478.9834" x2="6639.8359" y2="523.0984" gradientTransform="matrix(0.9084 -0.4181 0.4181 0.9084 -6232.3838 2751.1338)">
				<stop  offset="0" style="stop-color:#C8CCD1"/>
				<stop  offset="1" style="stop-color:#DCE0E5"/>
			</linearGradient>
			<path class="st15" d="M15.2,449.2c-1.3-3.8-0.9-8-0.1-12.1c3-13.8,8.2-26.2,11.6-36.9"/>
			<path class="st16" d="M55,357.6c-23.7,0.2-53.4-3.7-76.2-10"/>
			<path class="st16" d="M54.5,352.9c-18,0.6-52.6-2.8-71.6-9"/>
			<path class="st16" d="M52.5,347.5c-22.8,1.7-54.1-4.3-70.7-8.7"/>
			<path class="st17" d="M42.8,382.6c1.5,6.8-0.8,16.4-2.8,24.1c-2.5,9.9-3.4,14.5-5.8,24.8c-1.4-0.4-4.2-1.7-5.3-2.8
				c-3.5-3.6-0.6-9.5,0.6-13.6c1.9-6.5,3.5-13,5.6-19.3c0.7-2.1,1.4-4.9,2.4-7.4C38.7,385.7,40.3,383.3,42.8,382.6z"/>
		</g>
		<g id="Arm_L_1_">
			<defs>
				<path id="XMLID_18_" d="M4.6,365.5c-2.9,6.8-1.7,14.3,2.7,20.2c4.8,6.4,12.1,10.4,19.1,14.1c27.5,14.4,57.7,20.9,75.4,14.6
					c22.8-8.1,32-44.1,34.1-52.5c1.1-4.3-1.5-9.9-5.7-12.2c-5.5-3-10.6-2.1-13.4,1.3c-4.9,5.9-7.1,12.4-11.8,20.2
					c-5.4,8.8-9.3,12.8-19.5,11.3c-11-1.6-22-6.9-31.6-12.2c-8.1-4.4-15.5-6.8-24.3-9.9c-1.8-0.6-3.9-1.2-5.9-1.4
					C14.9,357.6,8.1,357.4,4.6,365.5z"/>
			</defs>
			<use xlink:href="#XMLID_18_"  style="overflow:visible;fill:#F5F7FA;"/>
			<clipPath id="XMLID_4_">
				<use xlink:href="#XMLID_18_"  style="overflow:visible;"/>
			</clipPath>
			<path class="st18" d="M130.1,345.3c-1.8,6.1-4.8,11.3-7.6,16.9c-2.7,5.3-5.5,10.4-8.5,15.5c-6.2,10.4-20.7,18.3-32.9,17.8
				c-9.4-0.3-18.8-1.5-28.1-3.5c-7.8-1.6-18.3-3.4-21.5-11.9c-0.4-0.9-0.7-1.9-0.7-3c-0.3-4.6,2.1-8.8,2.9-13.2
				c0.8-4.1-0.1-7.8-1.7-11.4"/>
			<path class="st19" d="M136.1,367.2c-0.2-5.3-3.1-13-8.6-15c-8.4-3-12.2,0.6-15.8,4.2"/>
		</g>
		<linearGradient id="SVGID_5_" gradientUnits="userSpaceOnUse" x1="-6.3098" y1="356.103" x2="65.9483" y2="402.0384">
			<stop  offset="0" style="stop-color:#C4CEE1"/>
			<stop  offset="1" style="stop-color:#FFFFFF;stop-opacity:0"/>
		</linearGradient>
		<path class="st20" d="M52,371.6c-9.8-10.8-26.8-15.1-40.6-17.3c-3.2-0.5-6.6-1-9.8-0.3c-3.2,0.7-6.3,2.7-7.4,5.8
			c-1.2,3.5,0.3,7.2,2,10.5c7,13.5,16.8,22,30,29.3c4.1,2.3,7.4,3.4,12,3.6c4.6,0.2,9.2-0.6,13.4-2.4c2.9-1.2,5.5-2.9,6.9-5.6
			C62.6,387.2,57.7,377.8,52,371.6z"/>
	</g>
	<g class="st0">
		<line class="st21" x1="148.2" y1="256.9" x2="164.5" y2="273.2"/>
		<line class="st21" x1="148.2" y1="273.2" x2="164.5" y2="256.9"/>
	</g>
	<g class="st0">
		<path id="XMLID_21_" class="st22" d="M167.8,207.4c-8.4,10.1-8.6,33.8,3.3,48.1c14.1,17.1,30.3,21.1,40.6,19.8"/>
		<path id="XMLID_20_" class="st23" d="M176.1,212c-4.8,8.7-5,27.5,4.3,38.5c10,11.9,23.4,16.1,31.8,16.7"/>
		<path id="XMLID_22_" class="st24" d="M186.8,221.1c-2.4,7.1-1.6,15,3.8,21.7c4.5,5.6,9.9,9.2,16.1,11.1"/>
	</g>
	<g id="Satellite" class="st0">
		<line class="st25" x1="277.4" y1="124.1" x2="343.4" y2="206.5"/>
		<g>
			<polyline class="st26" points="343.4,244.9 331.4,251.8 319,236.3 330.3,228.8 			"/>
			<polyline class="st26" points="370.9,196 381.9,188.9 395.3,205.3 384,212.8 			"/>
			<polyline class="st26" points="379.5,224.6 389.7,236.3 365.1,254.7 355.9,242.9 			"/>
			<polyline class="st26" points="275.7,81.7 287,71.7 300.2,88 288.9,97.1 			"/>
			<polyline class="st26" points="251.6,130.5 239.4,138.2 226,122.3 237.9,115.7 			"/>
			<polyline class="st26" points="240.4,102.9 232.1,92.1 255.3,71.7 263.7,82 			"/>
		</g>
		<g>
			<defs>
				<path id="XMLID_11_" d="M297.2,170.3c-16.5-22.5-9.7-44.5-1.9-51.9c7.7-7.4,42.9-25.1,50.2-26.8c9.5-2.2,30.8-1.5,45.1,25.6
					c14.3,27.1,6,39.5,0.2,45c-5.8,5.5-39.3,28.9-45.5,33.2C339,199.7,316.1,196.2,297.2,170.3z"/>
			</defs>
			<use xlink:href="#XMLID_11_"  style="overflow:visible;fill:#C0CDDD;"/>
			<clipPath id="XMLID_5_">
				<use xlink:href="#XMLID_11_"  style="overflow:visible;"/>
			</clipPath>
			<path class="st27" d="M299.4,110.4c13.4-3.4,39.1-6.2,57.2,23c18.1,29.2,4.7,57.3,4.7,57.3"/>
			<path class="st28" d="M308.5,102.8c13.4-3.4,39.1-6.2,57.2,23c18.1,29.2,4.7,57.3,4.7,57.3"/>
		</g>
		<path class="st29" d="M297.2,170.3c-16.5-22.5-9.8-44.7-1.9-51.9c9-8.3,33.3-8.3,51.1,20.6s9.1,50.6-1.2,56.4
			C338.6,199.1,316.1,196.2,297.2,170.3z"/>
		<g>
			<defs>
				<path id="XMLID_12_" d="M245.2,172.8c17.5-11.1,55.2-40.8,63.5-40.8c8.3,0,16.9,4.1,24.1,16.3c7.2,12.1,8.4,17.8,7.4,24.5
					c-1,6.7-69.2,43.4-69.2,43.4L245.2,172.8z"/>
			</defs>
			<use xlink:href="#XMLID_12_"  style="overflow:visible;fill:#204666;"/>
			<clipPath id="XMLID_6_">
				<use xlink:href="#XMLID_12_"  style="overflow:visible;"/>
			</clipPath>
			<g class="st30">
				<defs>
					<path id="XMLID_13_" d="M265.6,151.6c14.2,1.7,22.9,5.1,31.2,16.5s8.1,31.3,5.2,37.3c15.5-9.1,22.6-13.2,22.6-13.2
						s7.6-18.3-7.1-37.7s-34.9-14.1-34.9-14.1L265.6,151.6z"/>
				</defs>
				<use xlink:href="#XMLID_13_"  style="overflow:visible;fill:#306182;"/>
				<clipPath id="XMLID_7_">
					<use xlink:href="#XMLID_13_"  style="overflow:visible;"/>
				</clipPath>
				<line class="st31" x1="278" y1="156.9" x2="301.6" y2="140.2"/>
				<line class="st31" x1="288.2" y1="164.3" x2="311.8" y2="147.7"/>
				<line class="st31" x1="296.5" y1="173.6" x2="320.1" y2="157"/>
				<line class="st31" x1="300.7" y1="184.8" x2="324.3" y2="168.2"/>
				<line class="st31" x1="300.3" y1="197.6" x2="324.7" y2="182.1"/>
			</g>
		</g>
		<path id="XMLID_17_" class="st32" d="M228.4,214.7c14.3,19.9,35.7,21.9,43.1,18.2c0.8-0.4,2.5-1.9,3.1-2.8
			c5.8-7.7,4.9-31.5-6.6-46.8c-10.5-14-23.4-22.5-34.4-20.8c-2.4,0.4-5.9,1.9-7.9,3.2C214.5,173.2,217.5,199.6,228.4,214.7z"/>
		<g id="Dish">
			<defs>
				<path id="XMLID_14_" d="M228.3,214.8c14.3,19.9,33.7,22.8,41,19s9.3-32.5-3.5-49.5c-12.8-17-30.6-24.8-41.8-17.4
					C212.8,174.1,217.4,199.7,228.3,214.8z"/>
			</defs>
			<use xlink:href="#XMLID_14_"  style="overflow:visible;fill:#99AABF;"/>
			<clipPath id="XMLID_8_">
				<use xlink:href="#XMLID_14_"  style="overflow:visible;"/>
			</clipPath>
			<path class="st33" d="M222.7,180.8c20.4,1.8,41.8,11.7,52.4,31.1"/>
			<path class="st33" d="M237.4,164.3c13.3,12.8,24.6,25.2,24.5,65.3"/>
			<path class="st33" d="M236,213c10.2-7.6,24.1-23.6,26.8-28.8"/>
			<path class="st34" d="M234.2,207.5l-4.1,2.7c-0.7,0.4-1.6,0.2-2.1-0.4l0,0c-0.4-0.7-0.2-1.6,0.4-2.1l4.1-2.7
				c0.7-0.4,1.6-0.2,2.1,0.4l0,0C235.1,206.2,234.9,207.1,234.2,207.5z"/>
			
				<ellipse transform="matrix(0.8614 -0.508 0.508 0.8614 -62.0738 157.0388)" class="st35" cx="256.7" cy="192.2" rx="3.4" ry="6.3"/>
			<path class="st36" d="M256.9,187.9c-4.4,3.4-22.4,17.5-24,18.6"/>
			<path class="st36" d="M236.9,183.4c-1.2,3.8-5,24.2-5,24.2s18.9,6.8,29.6,8.6"/>
		</g>
		<path class="st37" d="M280.8,175.9c11.2,15.5,8.7,30.1,3.4,33c0,0,1.3,1.6,4.1,0.8s4.9-1,5.7-3.4c0.8-2.3,4.8-20.1-5.4-34.1
			s-23.2-15.2-26.1-14.3c-2.8,0.9-5.4,3.2-5.7,4c-0.3,0.8,0,3,0,3S269.9,161,280.8,175.9z"/>
		<path class="st38" d="M314.7,154c12,16.5,9.3,32.1,3.6,35.3c0,0,1.4,1.7,4.4,0.8c3-0.8,18.4-10.7,19.2-13.2
			c1.5-4.7,2.1-17.9-8.8-32.8c-10.9-14.9-26-16.6-29-15.6c-3,1-14.8,9.8-15.1,10.6c-0.3,0.8,0,3.2,0,3.2S303.1,138,314.7,154z"/>
		<g>
			<path class="st5" d="M397.4,216.9l-26-32.4c-0.7-0.9-0.1-3.7,0.9-4.3l22.7-13.9c0.8-0.5,1.8-0.3,2.4,0.4l26,32.4
				c0.7,0.9,0.1,3.7-0.9,4.3l-22.7,13.9C399,217.8,398,217.6,397.4,216.9z"/>
			<path class="st32" d="M397.8,215.3l-26-32.4c-0.7-0.9-0.5-2.1,0.5-2.7l22.7-13.9c0.8-0.5,1.8-0.3,2.4,0.4l26,32.4
				c0.7,0.9,0.5,2.1-0.5,2.7l-22.7,13.9C399.4,216.2,398.4,216.1,397.8,215.3z"/>
			<path class="st38" d="M398.3,211.5l-22.4-27.9c-0.6-0.7-0.4-1.8,0.3-2.3l18.6-11.2c0.6-0.4,1.5-0.2,2,0.4l22.4,27.9
				c0.6,0.7,0.4,1.8-0.3,2.3l-18.6,11.2C399.6,212.3,398.8,212.1,398.3,211.5z"/>
			<line class="st39" x1="388.9" y1="172.2" x2="414.9" y2="205.2"/>
			<line class="st39" x1="381.7" y1="177.1" x2="407.7" y2="210.1"/>
		</g>
		<g>
			<path class="st5" d="M318.3,273.9l-25.1-33.2c-0.7-0.9,0-3.9,0.9-4.5l20.2-11.1c0.8-0.4,1.8-0.2,2.3,0.5l25.1,33.2
				c0.7,0.9,0,3.9-0.9,4.5l-20.2,11.1C319.8,274.8,318.8,274.6,318.3,273.9z"/>
			<path class="st32" d="M318.6,272.1l-25.1-33.2c-0.7-0.9-0.4-2.2,0.6-2.7l20.2-11.1c0.8-0.4,1.8-0.2,2.3,0.5l25.1,33.2
				c0.7,0.9,0.4,2.2-0.6,2.7L321,272.6C320.2,273,319.2,272.8,318.6,272.1z"/>
			<path class="st38" d="M319.5,268.1l-21.6-28.6c-0.6-0.8-0.4-1.8,0.3-2.2l15.6-8.2c0.6-0.3,1.4-0.1,1.9,0.5l21.6,28.6
				c0.6,0.8,0.4,1.8-0.3,2.2l-15.6,8.2C320.8,268.9,320,268.7,319.5,268.1z"/>
			<line class="st39" x1="308.7" y1="229.8" x2="333.3" y2="263.9"/>
			<line class="st39" x1="302" y1="233" x2="326.5" y2="267.1"/>
		</g>
		<g>
			<path class="st5" d="M345.5,258.1l-26.1-32.3c-0.6-0.8-0.5-3.6,0.3-4.3l46.1-37c0.8-0.6,1.9-0.5,2.6,0.3l26.1,32.5
				c0.6,0.8,0.5,3.7-0.3,4.3l-46.1,36.9C347.3,259,346.1,258.9,345.5,258.1z"/>
			<path class="st6" d="M345.5,256.5l-26.1-32.5c-0.6-0.8-0.5-1.9,0.3-2.6l46.1-37c0.8-0.6,1.9-0.5,2.6,0.3l26.1,32.5
				c0.6,0.8,0.5,1.9-0.3,2.6l-46.1,37C347.3,257.4,346.1,257.3,345.5,256.5z"/>
			<path class="st38" d="M345.8,251.9L324,224.8c-0.7-0.9-0.6-2.2,0.3-3l40.8-32.8c0.9-0.7,2.2-0.6,3,0.3l21.8,27.1
				c0.7,0.9,0.6,2.2-0.3,3l-40.8,32.8C347.9,253,346.6,252.8,345.8,251.9z"/>
			<line class="st40" x1="327.5" y1="230.3" x2="373.6" y2="193.9"/>
			<line class="st40" x1="333.5" y1="238.8" x2="379.6" y2="202.5"/>
			<line class="st40" x1="340.7" y1="247" x2="386.8" y2="210.6"/>
			<line class="st41" x1="352.4" y1="197.3" x2="378.5" y2="230.3"/>
			<line class="st41" x1="360.1" y1="192.6" x2="386.1" y2="225.6"/>
			<line class="st41" x1="344" y1="203.4" x2="370" y2="236.4"/>
			<line class="st41" x1="335.7" y1="210.5" x2="361.8" y2="243.5"/>
			<line class="st41" x1="328.9" y1="217.3" x2="354.9" y2="250.3"/>
		</g>
		<g>
			<path class="st5" d="M377.3,296.4l-26.1-32.5c-0.6-0.8-0.7-3.4,0.1-4l46.1-37c0.8-0.6,1.9-0.5,2.6,0.3l26.1,32.5
				c0.6,0.8,0.7,3.4-0.1,4l-46.1,37C379,297.3,377.9,297.2,377.3,296.4z"/>
			<path class="st6" d="M377.1,294.9L351,262.5c-0.6-0.8-0.5-1.9,0.3-2.6l46.1-37c0.8-0.6,1.9-0.5,2.6,0.3l26.1,32.5
				c0.6,0.8,0.5,1.9-0.3,2.6l-46.1,37C378.8,295.8,377.7,295.7,377.1,294.9z"/>
			<path class="st38" d="M377.7,290.7l-22.4-27.9c-0.6-0.7-0.4-1.7,0.2-2.3l41.6-33.4c0.7-0.6,1.7-0.4,2.3,0.2l22.4,27.9
				c0.6,0.7,0.4,1.7-0.2,2.3l-41.6,33.4C379.2,291.5,378.2,291.4,377.7,290.7z"/>
			<line class="st39" x1="384.1" y1="236.3" x2="410.1" y2="269.2"/>
			<line class="st39" x1="391.7" y1="231.6" x2="417.8" y2="264.6"/>
			<line class="st39" x1="375.6" y1="242.4" x2="401.7" y2="275.4"/>
			<line class="st39" x1="367.4" y1="249.5" x2="393.4" y2="282.4"/>
			<line class="st39" x1="360.5" y1="256.3" x2="386.6" y2="289.3"/>
		</g>
		<g>
			<path class="st5" d="M253.7,144.4l-27.4-31.3c-0.7-0.8-0.4-3.9,0.3-4.5l44.5-38.9c0.8-0.7,1.9-0.6,2.6,0.2l26.9,31.8
				c0.6,0.8,0.4,3.9-0.3,4.5l-44,38.5C255.5,145.2,254.4,145.2,253.7,144.4z"/>
			<path class="st6" d="M253.8,142.4l-27.4-31.3c-0.7-0.8-0.6-1.9,0.2-2.6l44.5-38.9c0.8-0.7,1.9-0.6,2.6,0.2l26.9,31.8
				c0.6,0.8,0.6,1.9-0.2,2.5l-44,38.5C255.6,143.3,254.5,143.2,253.8,142.4z"/>
			<path class="st38" d="M254,138l-23.2-26.5c-0.7-0.8-0.6-2,0.2-2.6l39.7-34.8c0.8-0.7,2-0.6,2.6,0.2l23.2,26.5
				c0.7,0.8,0.6,2-0.2,2.6l-39.7,34.8C255.9,138.9,254.7,138.8,254,138z"/>
			<line class="st40" x1="234.7" y1="117" x2="279.1" y2="78.7"/>
			<line class="st40" x1="241.1" y1="125.3" x2="285.5" y2="87"/>
			<line class="st40" x1="248.6" y1="133.2" x2="293" y2="94.8"/>
			<line class="st41" x1="257.4" y1="82.8" x2="285.6" y2="114"/>
			<line class="st41" x1="264.7" y1="77.6" x2="292.9" y2="108.8"/>
			<line class="st41" x1="249.4" y1="89.5" x2="277.5" y2="120.7"/>
			<line class="st41" x1="241.6" y1="97.1" x2="269.8" y2="128.3"/>
			<line class="st41" x1="235.2" y1="104.3" x2="263.4" y2="135.5"/>
		</g>
		<g>
			<path class="st5" d="M222.2,107.1l-23.1-30.1c-0.6-0.8-0.1-3.9,0.6-4.5l42.9-38.7c0.8-0.7,2-0.6,2.6,0.2l24,30.5
				c0.6,0.8,0.1,3.9-0.6,4.5l-43.9,38.3C224.1,108.1,222.9,108,222.2,107.1z"/>
			<path class="st32" d="M222.6,105.1L199.6,75c-0.6-0.8-0.5-1.8,0.2-2.5l42.9-38.7c0.8-0.7,2-0.6,2.6,0.2l24,30.5
				c0.6,0.8,0.5,1.9-0.2,2.5l-43.9,38.3C224.5,106,223.3,105.9,222.6,105.1z"/>
			<path class="st38" d="M223.4,100.8l-19.6-25.7c-0.5-0.6-0.4-1.6,0.2-2.1l38.3-34.5c0.7-0.6,1.8-0.6,2.3,0.1l20.4,26
				c0.5,0.6,0.4,1.6-0.3,2.2L225.7,101C225,101.6,223.9,101.5,223.4,100.8z"/>
			<line class="st39" x1="231.4" y1="48.5" x2="254" y2="77.8"/>
			<line class="st39" x1="237.6" y1="41.9" x2="261.7" y2="73.2"/>
			<line class="st39" x1="222.9" y1="54.5" x2="245.5" y2="83.8"/>
			<line class="st39" x1="214.5" y1="61.4" x2="237.9" y2="92.1"/>
			<line class="st39" x1="207.6" y1="68.2" x2="231" y2="98.9"/>
		</g>
		<g>
			<path class="st5" d="M276.7,64l14.6-16.6c0.7-0.8,2-0.8,2.8,0l27.1,32.2c0.6,0.7,0.6,3.7-0.1,4.4l-15.3,16.3
				c-0.7,0.8-2,0.8-2.7-0.1l-26.5-31.9C276.1,67.6,276.1,64.6,276.7,64z"/>
			<path class="st6" d="M276.7,64l14.6-16.6c0.7-0.8,2-0.8,2.8,0l27.1,32.2c0.6,0.7,0.6,1.7-0.1,2.4l-15.3,16.3
				c-0.7,0.8-2,0.8-2.7-0.1l-26.5-31.9C276.1,65.6,276.1,64.6,276.7,64z"/>
			<path class="st38" d="M280.1,64.7l11.6-13.4c0.6-0.7,1.8-0.7,2.4,0l23.6,28c0.5,0.6,0.5,1.5-0.1,2.1l-12.2,13.1
				c-0.7,0.7-1.8,0.7-2.4-0.1l-23-27.8C279.6,66.1,279.6,65.3,280.1,64.7z"/>
			<line class="st39" x1="288" y1="54.8" x2="315.2" y2="86.8"/>
			<line class="st39" x1="281.8" y1="58.8" x2="309" y2="90.8"/>
		</g>
		<g>
			<path class="st5" d="M250.3,144.2l-26.7-31.5c-0.6-0.7-1.6-0.8-2.4-0.4l-20.3,13.2c-0.9,0.6-1.5,3.9-0.8,4.8l24.7,30.8
				c0.6,0.7,1.5,0.9,2.3,0.4l22.3-12.5C250.4,148.5,251.1,145,250.3,144.2z"/>
			<path class="st32" d="M250.3,144.2l-26.7-31.5c-0.6-0.7-1.6-0.8-2.4-0.4l-20.3,13.2c-0.9,0.6-1.1,1.8-0.4,2.7l24.7,30.8
				c0.6,0.7,1.5,0.9,2.3,0.4l22.3-12.5C250.8,146.4,251.1,145,250.3,144.2z"/>
			<path class="st38" d="M246,143.4l-22.6-26.7c-0.5-0.6-1.4-0.7-2-0.3l-16.2,10.7c-0.8,0.5-0.9,1.5-0.4,2.3l21,26.2
				c0.5,0.6,1.3,0.7,2,0.4l17.8-10.2C246.4,145.3,246.7,144.1,246,143.4z"/>
			<line class="st39" x1="215.1" y1="117.7" x2="241.7" y2="150.3"/>
			<line class="st39" x1="208.6" y1="121.3" x2="235.1" y2="153.9"/>
		</g>
	</g>
</g>
</svg>
