<svg clip-rule="evenodd" fill-rule="evenodd" stroke-linecap="round" stroke-linejoin="round" stroke-miterlimit="1.5" viewBox="0 0 799 795" xmlns="http://www.w3.org/2000/svg" xmlns:xlink="http://www.w3.org/1999/xlink"><linearGradient id="a" gradientTransform="matrix(470.876 716.828 -716.828 470.876 4948.25 7733.8)" gradientUnits="userSpaceOnUse" x1="0" x2="1" y1="0" y2="0"><stop offset="0" stop-color="#fff"/><stop offset="1" stop-color="#ddecff"/></linearGradient><linearGradient id="b" gradientTransform="matrix(-318.684 -478.814 478.814 -318.684 5266.99 8206.77)" gradientUnits="userSpaceOnUse" x1="0" x2="1" y1="0" y2="0"><stop offset="0" stop-color="#fff"/><stop offset="1" stop-color="#e2effe"/></linearGradient><linearGradient id="c" gradientTransform="matrix(-328.173 251.862 -188.584 -438.29 548.618 531)" gradientUnits="userSpaceOnUse" x1="0" x2="1" y1="0" y2="0"><stop offset="0" stop-color="#dfebff"/><stop offset="1" stop-color="#bed8ff"/></linearGradient><linearGradient id="d" gradientTransform="matrix(132.247 0 0 129.105 2796.72 8048.53)" gradientUnits="userSpaceOnUse" x1="0" x2="1" y1="0" y2="0"><stop offset="0" stop-color="#0067ff" stop-opacity="0"/><stop offset="1" stop-color="#003e99" stop-opacity=".49"/></linearGradient><g transform="matrix(.738818 0 0 .735185 .91 .38)"><path d="m0 0h1080v1080h-1080z" fill="none"/><circle cx="5170.39" cy="8039.98" fill="url(#a)" r="298.983" stroke="#cce1ff" stroke-width=".91" transform="matrix(1.48035 0 0 1.48766121 -7113.97 -11429.59033)"/><circle cx="5170.39" cy="8039.98" fill="url(#b)" r="298.983" stroke="#cce1ff" stroke-width="1.5" transform="matrix(.901749 0 0 .90620275 -4122.4 -6754.696375)"/><path d="m807 577.779c0-25.835-15.682-46.779-35.026-46.779-101.704 0-396.244 0-497.948 0-19.344 0-35.026 20.944-35.026 46.779v114.442c0 25.835 15.682 46.779 35.026 46.779h497.948c19.344 0 35.026-20.944 35.026-46.779z" fill="url(#c)" transform="matrix(.72963916 0 0 .54902413 155.692345 381.11957)"/><path d="m572 370c0-4.415-1.986-8-4.432-8h-405.136c-2.446 0-4.432 3.585-4.432 8v16c0 4.415 1.986 8 4.432 8h405.136c2.446 0 4.432-3.585 4.432-8z" fill="#8aaddb" transform="matrix(.72963916 0 0 .40624269 237.241977 576.189918)"/><circle cx="624" cy="384.461" fill="#0d2447" r="16" transform="matrix(.72963916 0 0 .73324493 246.89702 447.844942)"/><path d="m807 577.779c0-25.835-15.682-46.779-35.026-46.779-101.704 0-396.244 0-497.948 0-19.344 0-35.026 20.944-35.026 46.779v114.442c0 25.835 15.682 46.779 35.026 46.779h497.948c19.344 0 35.026-20.944 35.026-46.779 0-34.161 0-80.281 0-114.442z" fill="url(#c)" transform="matrix(.72963916 0 0 .54902413 155.692345 -35.105352)"/><path d="m572 370c0-4.415-1.986-8-4.432-8h-405.136c-2.446 0-4.432 3.585-4.432 8v16c0 4.415 1.986 8 4.432 8h405.136c2.446 0 4.432-3.585 4.432-8z" fill="#8aaddb" transform="matrix(.72963916 0 0 .40624269 237.241977 159.965078)"/><circle cx="624" cy="384.461" fill="#0d2447" r="16" transform="matrix(.72963916 0 0 .73324493 246.89702 31.62042)"/><path d="m2735 8002.88h214v81.961h-214z" fill="url(#d)" transform="matrix(1.77728 0 0 1.39331 -4753.8 -10622)"/><path d="m807 577.779c0-25.835-15.682-46.779-35.026-46.779-101.704 0-396.244 0-497.948 0-19.344 0-35.026 20.944-35.026 46.779v114.442c0 25.835 15.682 46.779 35.026 46.779h497.948c19.344 0 35.026-20.944 35.026-46.779 0-34.161 0-80.281 0-114.442z" fill="url(#c)" transform="matrix(.72963916 0 0 .54902413 155.692345 99.039748)"/><path d="m572 370c0-4.415-1.986-8-4.432-8h-405.136c-2.446 0-4.432 3.585-4.432 8v16c0 4.415 1.986 8 4.432 8h405.136c2.446 0 4.432-3.585 4.432-8z" fill="#8aaddb" transform="matrix(.72963916 0 0 .40624269 237.241977 294.110178)"/><circle cx="624" cy="384.461" fill="#0d2447" r="16" transform="matrix(.72963916 0 0 .73324493 246.89702 165.76552)"/><path d="m807 577.779c0-25.835-15.682-46.779-35.026-46.779-101.704 0-396.244 0-497.948 0-19.344 0-35.026 20.944-35.026 46.779v114.442c0 25.835 15.682 46.779 35.026 46.779h497.948c19.344 0 35.026-20.944 35.026-46.779 0-34.161 0-80.281 0-114.442z" fill="#ffbc62" transform="matrix(.72963916 0 0 .54902264 254.498745 236.913362)"/><path d="m572 370c0-4.415-1.986-8-4.432-8h-405.136c-2.446 0-4.432 3.585-4.432 8v16c0 4.415 1.986 8 4.432 8h405.136c2.446 0 4.432-3.585 4.432-8z" fill="#0d2447" transform="matrix(.72963916 0 0 .40624158 336.048377 431.98326)"/><path d="m19 3h-14c-1.097 0-2 .903-2 2v14c0 1.097.903 2 2 2h14c1.1 0 2-.9 2-2v-14c0-1.1-.9-2-2-2zm-3 10h-3v3c0 .55-.45 1-1 1s-1-.45-1-1v-3h-3c-.55 0-1-.45-1-1s.45-1 1-1h3v-3c0-.55.45-1 1-1s1 .45 1 1v3h3c.55 0 1 .45 1 1s-.45 1-1 1z" fill="#fff" transform="matrix(2.12426 0 0 2.134755 773.0294 559.925219)"/><path d="m16 4.979c-.01-.438-.304-.82-.726-.94l-14-4c-.345-.1-.724-.003-.981.254s-.355.632-.255.982l4 14c.121.421.502.715.941.725.456.023.832-.268.97-.684l1.489-4.465 4.855 4.856c.195.195.451.293.707.293s.512-.098.707-.293l2-2c.391-.391.391-1.023 0-1.414l-4.855-4.856 4.465-1.488c.415-.139.693-.532.683-.97z" fill-rule="nonzero" transform="matrix(3.12989 0 0 3.14536 799.927 622.322)"/></g></svg>