<svg clip-rule="evenodd" fill-rule="evenodd" stroke-linejoin="round" stroke-miterlimit="2" viewBox="0 0 799 934" xmlns="http://www.w3.org/2000/svg" xmlns:xlink="http://www.w3.org/1999/xlink"><linearGradient id="a" gradientTransform="matrix(0 598.781 -598.781 0 5191.36 7666.2)" gradientUnits="userSpaceOnUse" x1="0" x2="1" y1="0" y2="0"><stop offset="0" stop-color="#fff" stop-opacity="0"/><stop offset="1" stop-color="#cfe3ff"/></linearGradient><linearGradient id="b" gradientTransform="matrix(0 709.369 -709.369 0 5191.36 7741.73)" gradientUnits="userSpaceOnUse" x1="0" x2="1" y1="0" y2="0"><stop offset="0" stop-color="#fff" stop-opacity="0"/><stop offset="1" stop-color="#0067ff"/></linearGradient><linearGradient id="c" gradientTransform="matrix(0 709.369 -709.369 0 5191.36 7741.73)" gradientUnits="userSpaceOnUse" x1="0" x2="1" y1="0" y2="0"><stop offset="0" stop-color="#fff" stop-opacity="0"/><stop offset="1" stop-color="#9dc5ff"/></linearGradient><g transform="matrix(.738818 0 0 .863889 .17 .79)"><path d="m0 0h1080v1080h-1080z" fill="none"/><circle cx="5170.39" cy="8039.98" fill="url(#a)" r="298.983" transform="matrix(-1.58619 0 0 -1.35654 8757.21 11464.9)"/><circle cx="5170.39" cy="8039.98" fill="url(#a)" r="298.983" transform="matrix(-.875725 0 0 -.748941 5083.85 6437.73)"/><circle cx="5170.39" cy="8039.98" fill="url(#b)" r="298.983" transform="matrix(-.59454 0 0 -.508465 3630.02 4788.24)"/><circle cx="5170.39" cy="8039.98" fill="url(#c)" r="298.983" transform="matrix(-.372273 0 0 -.318377 2689.43 3206.98)"/><circle cx="5170.39" cy="8039.98" fill="url(#c)" r="298.983" transform="matrix(-.372273 0 0 -.318377 2267.71 3206.98)"/><circle cx="3868.05" cy="9022.05" fill="#f7b437" r="76.047" transform="matrix(1.2797 0 0 1.09443 -4393.94 -9414.36)"/><g fill="#93b1dd"><circle cx="3868.05" cy="9022.05" r="76.047" transform="matrix(.80129 0 0 .685282 -2334.79 -5686.01)"/><circle cx="3868.05" cy="9022.05" r="76.047" transform="matrix(.80129 0 0 .685282 -2756.52 -5686.01)"/></g></g></svg>