<?xml version="1.0" encoding="UTF-8"?>
<svg width="131px" height="126px" viewBox="0 0 131 126" version="1.1" xmlns="http://www.w3.org/2000/svg" xmlns:xlink="http://www.w3.org/1999/xlink">
    <!-- Generator: Sketch 48.2 (47327) - http://www.bohemiancoding.com/sketch -->
    <title>add-server-image</title>
    <desc>Created with Sketch.</desc>
    <defs></defs>
    <g id="v6" stroke="none" stroke-width="1" fill="none" fill-rule="evenodd" transform="translate(-279.000000, -245.000000)">
        <g id="Group-8" transform="translate(235.000000, 194.000000)">
            <g id="add-server-image" transform="translate(45.000000, 51.000000)">
                <ellipse id="Oval" fill="#268FF4" fill-rule="nonzero" cx="65.5" cy="99.5" rx="47.5" ry="7.5"></ellipse>
                <g id="bg">
                    <path d="M49.848,72.737 C48.966,70.312 50.031,68.087 52.388,67.227 C54.746,66.37 57.372,67.64 58.254,70.064 C59.136,72.488 57.859,74.926 55.684,76.278" id="Shape" stroke="#363C50" stroke-width="2" stroke-linecap="round"></path>
                    <path d="M50.26,84.475 L70.086,99.587 L61.864,102.58 L49.584,98.45 C47.492,97.747 46.389,95.49 47.124,93.4 L50.26,84.475 Z" id="Shape" fill="#0082FF" fill-rule="nonzero"></path>
                    <g id="Group" transform="translate(83.000000, 67.000000)" stroke="#0D84F5" stroke-linecap="round" stroke-width="2">
                        <path d="M0.644,3.27 C1.527,0.846 3.774,-0.174 6.131,0.684 C8.489,1.542 9.684,4.204 8.801,6.626 C7.921,9.05 5.375,10.096 2.838,9.734" id="Shape"></path>
                    </g>
                    <g id="Group">
                        <ellipse id="Oval" fill="#A0C4FC" fill-rule="nonzero" cx="101.348" cy="4.414" rx="2.804" ry="2.809"></ellipse>
                        <ellipse id="Oval" fill="#A0C4FC" fill-rule="nonzero" cx="12.418" cy="74.236" rx="2.804" ry="2.809"></ellipse>
                        <ellipse id="Oval" fill="#A0C4FC" fill-rule="nonzero" cx="10.816" cy="12.439" rx="2.003" ry="2.006"></ellipse>
                        <ellipse id="Oval" fill="#A0C4FC" fill-rule="nonzero" cx="61.289" cy="16.452" rx="2.003" ry="2.006"></ellipse>
                        <ellipse id="Oval" fill="#A0C4FC" fill-rule="nonzero" cx="122.98" cy="30.898" rx="1.202" ry="1.204"></ellipse>
                        <ellipse id="Oval" fill="#A0C4FC" fill-rule="nonzero" cx="20.83" cy="85.07" rx="1" ry="1"></ellipse>
                        <ellipse id="Oval" fill="#A0C4FC" fill-rule="nonzero" cx="4.006" cy="83.465" rx="1" ry="1"></ellipse>
                        <ellipse id="Oval" fill="#A0C4FC" fill-rule="nonzero" cx="1.602" cy="67.414" rx="1" ry="1"></ellipse>
                        <ellipse id="Oval" fill="#A0C4FC" fill-rule="nonzero" cx="99.345" cy="13.643" rx="1" ry="1"></ellipse>
                        <ellipse id="Oval" fill="#A0C4FC" fill-rule="nonzero" cx="127.386" cy="73.032" rx="1" ry="1"></ellipse>
                        <ellipse id="Oval" fill="#A0C4FC" fill-rule="nonzero" cx="37.655" cy="118.777" rx="1" ry="1"></ellipse>
                        <ellipse id="Oval" fill="#A0C4FC" fill-rule="nonzero" cx="29.243" cy="18.86" rx="1.202" ry="1.204"></ellipse>
                        <ellipse id="Oval" fill="#A0C4FC" fill-rule="nonzero" cx="5.208" cy="50.962" rx="1.202" ry="1.204"></ellipse>
                        <ellipse id="Oval" fill="#A0C4FC" fill-rule="nonzero" cx="38.056" cy="5.217" rx="1.202" ry="1.204"></ellipse>
                        <ellipse id="Oval" fill="#A0C4FC" fill-rule="nonzero" cx="126.985" cy="85.471" rx="2.804" ry="2.809"></ellipse>
                        <ellipse id="Oval" fill="#A0C4FC" fill-rule="nonzero" cx="106.956" cy="123.191" rx="2.804" ry="2.809"></ellipse>
                        <ellipse id="Oval" fill="#A0C4FC" fill-rule="nonzero" cx="26.038" cy="122.389" rx="2.804" ry="2.809"></ellipse>
                        <ellipse id="Oval" fill="#A0C4FC" fill-rule="nonzero" cx="83.722" cy="121.586" rx="2.003" ry="2.006"></ellipse>
                        <ellipse id="Oval" fill="#A0C4FC" fill-rule="nonzero" cx="71.705" cy="110.35" rx="2.003" ry="2.006"></ellipse>
                        <path d="M65.696,117.172 L60.889,121.987 M65.695,121.987 L60.888,117.172 M9.614,112.357 L4.807,117.172 M9.614,117.172 L4.807,112.357 M4.807,21.67 L0,26.483 M4.807,26.483 L0,21.67 M120.175,14.446 L116.971,17.656 M120.176,17.656 L116.972,14.446 M25.637,0 L21.632,4.013 M25.637,4.013 L21.632,0 M122.58,97.108 L117.772,101.924 M122.579,101.924 L117.771,97.108" id="Shape" stroke="#003EA0" stroke-width="0.8" stroke-linecap="round"></path>
                        <path d="M16.825,93.096 L10.415,99.516 M16.825,99.516 L10.415,93.096 M69.702,0.803 L63.292,7.223 M69.702,7.223 L63.292,0.803" id="Shape" stroke="#003EA0" stroke-width="1.6" stroke-linecap="round"></path>
                    </g>
                </g>
                <g id="server" transform="translate(25.000000, 25.000000)" fill-rule="nonzero">
                    <rect id="Rectangle-path" fill="#268FF4" x="8.749375" y="18.68125" width="62.5015625" height="38.6953125"></rect>
                    <path d="M77.2101562,21.7478125 L2.78984375,21.7478125 C1.89625,21.7478125 1.171875,21.0234375 1.171875,20.1298438 L1.171875,2.90890625 C1.171875,2.0153125 1.89625,1.2909375 2.78984375,1.2909375 L77.2101562,1.2909375 C78.10375,1.2909375 78.828125,2.0153125 78.828125,2.90890625 L78.828125,20.1298437 C78.828125,21.0234375 78.10375,21.7478125 77.2101562,21.7478125 Z" id="Shape" fill="#A0C4FC"></path>
                    <g id="Group" transform="translate(1.093750, 1.250000)" fill="#268FF4">
                        <path d="M76.1164062,20.4978125 L73.3415625,20.4978125 L73.3415625,0.04109375 L76.1164062,0.04109375 C77.01,0.04109375 77.734375,0.76546875 77.734375,1.6590625 L77.734375,18.88 C77.734375,19.7734375 77.01,20.4978125 76.1164062,20.4978125 Z" id="Shape"></path>
                        <path d="M4.4709375,20.4978125 L1.69609375,20.4978125 C0.8025,20.4978125 0.078125,19.7734375 0.078125,18.8798438 L0.078125,1.65890625 C0.078125,0.7653125 0.8025,0.0409375 1.69609375,0.0409375 L4.4709375,0.0409375 L4.4709375,20.4978125 Z" id="Shape"></path>
                    </g>
                    <circle id="Oval" fill="#0062FF" cx="69.44375" cy="11.7234375" r="3.71"></circle>
                    <circle id="Oval" fill="#35C9A6" cx="56.8390625" cy="11.7234375" r="3.71"></circle>
                    <path d="M77.2101562,48.0409375 L2.78984375,48.0409375 C1.89625,48.0409375 1.171875,47.3165625 1.171875,46.4229687 L1.171875,29.2020313 C1.171875,28.3084375 1.89625,27.5840625 2.78984375,27.5840625 L77.2101562,27.5840625 C78.10375,27.5840625 78.828125,28.3084375 78.828125,29.2020313 L78.828125,46.4229687 C78.828125,47.3165625 78.10375,48.0409375 77.2101562,48.0409375 Z" id="Shape" fill="#A0C4FC"></path>
                    <g id="Group" transform="translate(1.093750, 27.500000)" fill="#268FF4">
                        <path d="M76.1164062,20.5409375 L73.3415625,20.5409375 L73.3415625,0.0840625 L76.1164062,0.0840625 C77.01,0.0840625 77.734375,0.8084375 77.734375,1.70203125 L77.734375,18.9229687 C77.734375,19.8165625 77.01,20.5409375 76.1164062,20.5409375 Z" id="Shape"></path>
                        <path d="M4.4709375,20.5409375 L1.69609375,20.5409375 C0.8025,20.5409375 0.078125,19.8165625 0.078125,18.9229687 L0.078125,1.70203125 C0.078125,0.8084375 0.8025,0.0840625 1.69609375,0.0840625 L4.4709375,0.0840625 L4.4709375,20.5409375 Z" id="Shape"></path>
                    </g>
                    <circle id="Oval" fill="#0062FF" cx="69.44375" cy="38.0171875" r="3.71"></circle>
                    <circle id="Oval" fill="#35C9A6" cx="56.8390625" cy="38.0171875" r="3.71"></circle>
                    <path d="M77.2101562,74.3339062 L2.78984375,74.3339062 C1.89625,74.3339062 1.171875,73.6095313 1.171875,72.7159375 L1.171875,55.4951562 C1.171875,54.6015625 1.89625,53.8771875 2.78984375,53.8771875 L77.2101562,53.8771875 C78.10375,53.8771875 78.828125,54.6015625 78.828125,55.4951562 L78.828125,72.7160937 C78.828125,73.6095313 78.10375,74.3339062 77.2101562,74.3339062 Z" id="Shape" fill="#A0C4FC"></path>
                    <g id="Group" transform="translate(1.093750, 53.750000)" fill="#268FF4">
                        <path d="M76.1164062,20.5839063 L73.3415625,20.5839063 L73.3415625,0.1271875 L76.1164062,0.1271875 C77.01,0.1271875 77.734375,0.8515625 77.734375,1.74515625 L77.734375,18.9660938 C77.734375,19.8595312 77.01,20.5839063 76.1164062,20.5839063 Z" id="Shape"></path>
                        <path d="M4.4709375,20.5839063 L1.69609375,20.5839063 C0.8025,20.5839063 0.078125,19.8595313 0.078125,18.9659375 L0.078125,1.74515625 C0.078125,0.8515625 0.8025,0.1271875 1.69609375,0.1271875 L4.4709375,0.1271875 L4.4709375,20.5839063 Z" id="Shape"></path>
                    </g>
                    <circle id="Oval" fill="#0062FF" cx="69.44375" cy="64.309375" r="3.71"></circle>
                    <circle id="Oval" fill="#35C9A6" cx="56.8390625" cy="64.309375" r="3.71"></circle>
                    <path d="M77.2103125,22.9196875 C78.7485938,22.9196875 80,21.668125 80,20.1298438 L80,2.9090625 C80,1.370625 78.7484375,0.11921875 77.2103125,0.11921875 L69.375,0.11921875 C68.7276563,0.11921875 68.203125,0.64375 68.203125,1.29109375 C68.203125,1.9384375 68.7276563,2.46296875 69.375,2.46296875 L77.2103125,2.46296875 C77.45625,2.46296875 77.65625,2.663125 77.65625,2.9090625 L77.65625,20.1298437 C77.65625,20.3757813 77.45625,20.5759375 77.2103125,20.5759375 L2.7896875,20.5759375 C2.54375,20.5759375 2.34375,20.3757812 2.34375,20.1298437 L2.34375,2.9090625 C2.34375,2.663125 2.54375,2.46296875 2.7896875,2.46296875 L64.7395312,2.46296875 C65.386875,2.46296875 65.9114062,1.9384375 65.9114062,1.29109375 C65.9114062,0.64375 65.386875,0.11921875 64.7395312,0.11921875 L2.7896875,0.11921875 C1.2515625,0.1190625 0,1.370625 0,2.9090625 L0,20.1298437 C0,21.6682812 1.2515625,22.9196875 2.7896875,22.9196875 L7.5775,22.9196875 L7.5775,26.4123437 L2.7896875,26.4123437 C1.2515625,26.4123437 0,27.66375 0,29.2020313 L0,46.4229688 C0,47.96125 1.2515625,49.2126563 2.7896875,49.2126563 L7.5775,49.2126563 L7.5775,52.7053125 L2.7896875,52.7053125 C1.2515625,52.7053125 0,53.956875 0,55.495 L0,72.7159375 C0,74.254375 1.2515625,75.5057813 2.7896875,75.5057813 L35.7292187,75.5057813 C36.3765625,75.5057813 36.9010937,74.98125 36.9010937,74.3339063 C36.9010937,73.6865625 36.3765625,73.1620313 35.7292187,73.1620313 L2.7896875,73.1620313 C2.54375,73.1620313 2.34375,72.961875 2.34375,72.7159375 L2.34375,55.495 C2.34375,55.2490625 2.54375,55.0490625 2.7896875,55.0490625 L77.2101562,55.0490625 C77.4560937,55.0490625 77.6560937,55.2490625 77.6560937,55.495 L77.6560937,72.7159375 C77.6560937,72.961875 77.4560937,73.1620313 77.2101562,73.1620313 L40.78125,73.1620313 C40.1339063,73.1620313 39.609375,73.6865625 39.609375,74.3339063 C39.609375,74.98125 40.1339063,75.5057813 40.78125,75.5057813 L77.2103125,75.5057813 C78.7485937,75.5057813 80,74.2542188 80,72.7159375 L80,55.495 C80,53.9567188 78.7484375,52.7053125 77.2103125,52.7053125 L72.4225,52.7053125 L72.4225,49.2126563 L77.2103125,49.2126563 C78.7485937,49.2126563 80,47.9610938 80,46.4229688 L80,29.2020313 C80,27.66375 78.7484375,26.4123437 77.2103125,26.4123437 L72.4225,26.4123437 L72.4225,22.9196875 L77.2103125,22.9196875 Z M70.07875,52.7053125 L9.92125,52.7053125 L9.92125,49.2126563 L70.07875,49.2126563 L70.07875,52.7053125 Z M70.07875,26.4123438 L19.1145312,26.4123438 C18.4671875,26.4123438 17.9426562,26.936875 17.9426562,27.5842188 C17.9426562,28.2315625 18.4671875,28.7560938 19.1145312,28.7560938 L77.2103125,28.7560938 C77.45625,28.7560938 77.65625,28.9560938 77.65625,29.2020313 L77.65625,46.4229688 C77.65625,46.6689063 77.45625,46.8689063 77.2103125,46.8689063 L2.7896875,46.8689063 C2.54375,46.8689063 2.34375,46.6689063 2.34375,46.4229688 L2.34375,29.2020313 C2.34375,28.9560938 2.54375,28.7560938 2.7896875,28.7560938 L14.4270313,28.7560938 C15.074375,28.7560938 15.5989063,28.2315625 15.5989063,27.5842188 C15.5989063,26.936875 15.074375,26.4123438 14.4270313,26.4123438 L9.92125,26.4123438 L9.92125,22.9196875 L70.07875,22.9196875 L70.07875,26.4123438 Z" id="Shape" fill="#363C50"></path>
                    <path d="M69.4445312,16.6053125 C72.1365625,16.6053125 74.3264062,14.4153125 74.3264062,11.7234375 C74.3264062,9.0315625 72.1364062,6.8415625 69.4445312,6.8415625 C66.7526562,6.8415625 64.5626562,9.0315625 64.5626562,11.7234375 C64.5626562,14.4153125 66.7526563,16.6053125 69.4445312,16.6053125 Z M69.4445312,9.1853125 C70.8440625,9.1853125 71.9826562,10.3239063 71.9826562,11.7234375 C71.9826562,13.1229688 70.8440625,14.2615625 69.4445312,14.2615625 C68.045,14.2615625 66.9064062,13.1229688 66.9064062,11.7234375 C66.9064062,10.3239063 68.045,9.1853125 69.4445312,9.1853125 Z" id="Shape" fill="#363C50"></path>
                    <path d="M51.9573437,11.7234375 C51.9573437,14.4154688 54.1473438,16.6053125 56.8392187,16.6053125 C59.5310937,16.6053125 61.7209375,14.4153125 61.7209375,11.7234375 C61.7209375,9.0315625 59.5309375,6.8415625 56.8392187,6.8415625 C54.1473438,6.8415625 51.9573437,9.03140625 51.9573437,11.7234375 Z M59.3773437,11.7234375 C59.3773437,13.1229688 58.23875,14.2615625 56.839375,14.2615625 C55.4398438,14.2615625 54.30125,13.1229688 54.30125,11.7234375 C54.30125,10.3239063 55.4398438,9.1853125 56.839375,9.1853125 C58.23875,9.1853125 59.3773437,10.3239063 59.3773437,11.7234375 Z" id="Shape" fill="#363C50"></path>
                    <path d="M7.953125,10.5515625 C7.30578125,10.5515625 6.78125,11.0760937 6.78125,11.7234375 C6.78125,12.3707813 7.30578125,12.8953125 7.953125,12.8953125 L47.7628125,12.8953125 C48.4101562,12.8953125 48.9346875,12.3707813 48.9346875,11.7234375 C48.9346875,11.0760937 48.4101562,10.5515625 47.7628125,10.5515625 L7.953125,10.5515625 Z" id="Shape" fill="#FFFFFF"></path>
                    <path d="M69.4445312,42.8982812 C72.1365625,42.8982812 74.3264062,40.7082812 74.3264062,38.0164062 C74.3264062,35.3245312 72.1364062,33.1346875 69.4445312,33.1346875 C66.7526562,33.1346875 64.5626562,35.3246875 64.5626562,38.0164062 C64.5626563,40.7084375 66.7526563,42.8982812 69.4445312,42.8982812 Z M69.4445312,35.4784375 C70.8440625,35.4784375 71.9826562,36.6170313 71.9826562,38.0164063 C71.9826562,39.4159375 70.8440625,40.5545312 69.4445312,40.5545312 C68.045,40.5545312 66.9064062,39.4159375 66.9064062,38.0164062 C66.9064063,36.6170312 68.045,35.4784375 69.4445312,35.4784375 Z" id="Shape" fill="#363C50"></path>
                    <path d="M56.8392188,42.8982812 C59.5310938,42.8982812 61.7209375,40.7082812 61.7209375,38.0164062 C61.7209375,35.3245312 59.5309375,33.1346875 56.8392188,33.1346875 C54.1471875,33.1346875 51.9573438,35.3246875 51.9573438,38.0164062 C51.9573437,40.7084375 54.1473438,42.8982812 56.8392188,42.8982812 Z M56.8392188,35.4784375 C58.2385938,35.4784375 59.3771875,36.6170313 59.3771875,38.0164063 C59.3771875,39.4159375 58.2385938,40.5545312 56.8392188,40.5545312 C55.4396875,40.5545312 54.3010938,39.4159375 54.3010938,38.0164062 C54.3010937,36.6170312 55.4396875,35.4784375 56.8392188,35.4784375 Z" id="Shape" fill="#363C50"></path>
                    <path d="M6.78125,38.0164063 C6.78125,38.66375 7.30578125,39.1882813 7.953125,39.1882813 L47.7628125,39.1882813 C48.4101562,39.1882813 48.9346875,38.66375 48.9346875,38.0164063 C48.9346875,37.3690625 48.4101562,36.8445313 47.7628125,36.8445313 L7.953125,36.8445313 C7.3059375,36.8445313 6.78125,37.3692188 6.78125,38.0164063 Z" id="Shape" fill="#FFFFFF"></path>
                    <path d="M74.3264063,64.3096875 C74.3264063,61.6176562 72.1364063,59.4278125 69.4445313,59.4278125 C66.7526563,59.4278125 64.5626563,61.6178125 64.5626563,64.3096875 C64.5626563,67.0015625 66.7526563,69.1914062 69.4445313,69.1914062 C72.1364063,69.1914062 74.3264063,67.0014063 74.3264063,64.3096875 Z M66.9064063,64.3096875 C66.9064063,62.9101562 68.045,61.7715625 69.4445313,61.7715625 C70.8440625,61.7715625 71.9826563,62.9101562 71.9826563,64.3096875 C71.9826563,65.7090625 70.8440625,66.8476562 69.4445313,66.8476562 C68.045,66.8476562 66.9064063,65.7090625 66.9064063,64.3096875 Z" id="Shape" fill="#363C50"></path>
                    <path d="M61.7210937,64.3096875 C61.7210937,61.6176562 59.5310937,59.4278125 56.839375,59.4278125 C54.1473437,59.4278125 51.9575,61.6178125 51.9575,64.3096875 C51.9575,67.0015625 54.1475,69.1914062 56.839375,69.1914062 C59.5310938,69.1914062 61.7210937,67.0014063 61.7210937,64.3096875 Z M54.3010937,64.3096875 C54.3010937,62.9101562 55.4396875,61.7715625 56.8392187,61.7715625 C58.2385937,61.7715625 59.3771875,62.9101562 59.3771875,64.3096875 C59.3771875,65.7090625 58.2385937,66.8476562 56.8392187,66.8476562 C55.4396875,66.8476562 54.3010937,65.7090625 54.3010937,64.3096875 Z" id="Shape" fill="#363C50"></path>
                    <path d="M48.9348437,64.3096875 C48.9348437,63.6623438 48.4103125,63.1378125 47.7629687,63.1378125 L7.953125,63.1378125 C7.30578125,63.1378125 6.78125,63.6623438 6.78125,64.3096875 C6.78125,64.9570312 7.30578125,65.4815625 7.953125,65.4815625 L47.7628125,65.4815625 C48.4101562,65.4815625 48.9348437,64.956875 48.9348437,64.3096875 Z" id="Shape" fill="#FFFFFF"></path>
                    <path d="M11.4032812,40.5545312 L7.953125,40.5545312 C7.30578125,40.5545312 6.78125,41.0790625 6.78125,41.7264062 C6.78125,42.37375 7.30578125,42.8982812 7.953125,42.8982812 L11.4032812,42.8982812 C12.050625,42.8982812 12.5751562,42.37375 12.5751562,41.7264062 C12.5751562,41.0790625 12.050625,40.5545312 11.4032812,40.5545312 Z" id="Shape" fill="#FFFFFF"></path>
                </g>
            </g>
        </g>
    </g>
</svg>