<?xml version="1.0" encoding="UTF-8"?>
<svg width="62px" height="61px" viewBox="0 0 62 61" version="1.1" xmlns="http://www.w3.org/2000/svg" xmlns:xlink="http://www.w3.org/1999/xlink">
    <!-- Generator: Sketch 51.2 (57519) - http://www.bohemiancoding.com/sketch -->
    <title>add-project-image</title>
    <desc>Created with Sketch.</desc>
    <defs></defs>
    <g id="zdd" stroke="none" stroke-width="1" fill="none" fill-rule="evenodd">
        <g id="index" transform="translate(-180.000000, -222.000000)">
            <g id="add-project-image" transform="translate(181.000000, 223.000000)">
                <g id="bg">
                    <path d="M23.4250741,34.6366667 C23.0105958,33.4819048 23.5110713,32.422381 24.6186965,32.0128571 C25.7267916,31.6047619 26.960828,32.2095238 27.3753063,33.3638095 C27.7897846,34.5180952 27.1896839,35.6790476 26.167586,36.3228571" id="Shape" stroke="#363C50" stroke-width="2" stroke-linecap="round"></path>
                    <path d="M23.6186853,40.2261905 L32.9355189,47.422381 L29.0717538,48.847619 L23.3010126,46.8809524 C22.3179189,46.5461905 21.799586,45.4714286 22.1449846,44.4761905 L23.6186853,40.2261905 Z" id="Shape" fill="#0082FF" fill-rule="nonzero"></path>
                    <g id="Group" transform="translate(39.004196, 31.904762)" stroke="#0D84F5" stroke-linecap="round" stroke-width="2">
                        <path d="M0.302634965,1.55714286 C0.717583217,0.402857143 1.77351608,-0.0828571429 2.88114126,0.325714286 C3.98923636,0.734285714 4.5508028,2.00190476 4.13585455,3.1552381 C3.72231608,4.30952381 2.52587413,4.80761905 1.33366154,4.6352381" id="Shape"></path>
                    </g>
                    <g id="Group">
                        <ellipse id="Oval" fill="#A0C4FC" fill-rule="nonzero" cx="47.6264727" cy="2.10190476" rx="1.31768392" ry="1.33761905"></ellipse>
                        <ellipse id="Oval" fill="#A0C4FC" fill-rule="nonzero" cx="5.83559161" cy="35.3504762" rx="1.31768392" ry="1.33761905"></ellipse>
                        <ellipse id="Oval" fill="#A0C4FC" fill-rule="nonzero" cx="5.08276364" cy="5.92333333" rx="1" ry="1"></ellipse>
                        <ellipse id="Oval" fill="#A0C4FC" fill-rule="nonzero" cx="28.8015441" cy="7.83428571" rx="1" ry="1"></ellipse>
                        <ellipse id="Oval" fill="#A0C4FC" fill-rule="nonzero" cx="57.792" cy="14.7133333" rx="1" ry="1"></ellipse>
                        <ellipse id="Oval" fill="#A0C4FC" fill-rule="nonzero" cx="9.78864336" cy="40.5095238" rx="1" ry="1"></ellipse>
                        <ellipse id="Oval" fill="#A0C4FC" fill-rule="nonzero" cx="1.88253986" cy="39.7452381" rx="1" ry="1"></ellipse>
                        <ellipse id="Oval" fill="#A0C4FC" fill-rule="nonzero" cx="0.752827972" cy="32.1019048" rx="1" ry="1"></ellipse>
                        <ellipse id="Oval" fill="#A0C4FC" fill-rule="nonzero" cx="46.6852028" cy="6.49666667" rx="1" ry="1"></ellipse>
                        <ellipse id="Oval" fill="#A0C4FC" fill-rule="nonzero" cx="59.8625119" cy="34.7771429" rx="1" ry="1"></ellipse>
                        <ellipse id="Oval" fill="#A0C4FC" fill-rule="nonzero" cx="17.6952168" cy="56.5604762" rx="1" ry="1"></ellipse>
                        <ellipse id="Oval" fill="#A0C4FC" fill-rule="nonzero" cx="13.742165" cy="8.98095238" rx="1" ry="1"></ellipse>
                        <ellipse id="Oval" fill="#A0C4FC" fill-rule="nonzero" cx="2.4473958" cy="24.267619" rx="1" ry="1"></ellipse>
                        <ellipse id="Oval" fill="#A0C4FC" fill-rule="nonzero" cx="17.8836587" cy="2.48428571" rx="1" ry="1"></ellipse>
                        <ellipse id="Oval" fill="#A0C4FC" fill-rule="nonzero" cx="59.6740699" cy="40.7004762" rx="1.31768392" ry="1.33761905"></ellipse>
                        <ellipse id="Oval" fill="#A0C4FC" fill-rule="nonzero" cx="50.2618406" cy="58.662381" rx="1.31768392" ry="1.33761905"></ellipse>
                        <ellipse id="Oval" fill="#A0C4FC" fill-rule="nonzero" cx="12.2360392" cy="58.2804762" rx="1.31768392" ry="1.33761905"></ellipse>
                        <ellipse id="Oval" fill="#A0C4FC" fill-rule="nonzero" cx="39.3434853" cy="57.8980952" rx="1" ry="1"></ellipse>
                        <ellipse id="Oval" fill="#A0C4FC" fill-rule="nonzero" cx="33.6963357" cy="52.547619" rx="1" ry="1"></ellipse>
                        <path d="M30.8725259,55.7961905 L28.613572,58.0890476 M30.8720559,58.0890476 L28.6131021,55.7961905 M4.51790769,53.5033333 L2.25895385,55.7961905 M4.51790769,55.7961905 L2.25895385,53.5033333 M2.25895385,10.3190476 L0,12.6109524 M2.25895385,12.6109524 L0,10.3190476 M56.4738462,6.87904762 L54.9681902,8.40761905 M56.4743161,8.40761905 L54.9686601,6.87904762 M12.0475972,0 L10.1655273,1.91095238 M12.0475972,1.91095238 L10.1655273,0 M57.604028,46.2419048 L55.3446042,48.5352381 M57.603558,48.5352381 L55.3441343,46.2419048" id="Shape" stroke="#003EA0" stroke-width="0.8" stroke-linecap="round"></path>
                        <path d="M7.90657343,44.3314286 L4.89432168,47.3885714 M7.90657343,47.3885714 L4.89432168,44.3314286 M32.7550657,0.382380952 L29.742814,3.43952381 M32.7550657,3.43952381 L29.742814,0.382380952" id="Shape" stroke="#003EA0" stroke-width="1.6" stroke-linecap="round"></path>
                    </g>
                </g>
                <g id="rocket" transform="translate(8.422078, 7.363636)" fill-rule="nonzero">
                    <path d="M16.0308701,14.8730316 C16.0133827,14.8775775 15.995807,14.881396 15.978673,14.888033 C14.5102651,15.4648144 13.1941208,16.6696547 12.2727669,18.2807149 C11.333484,19.9232326 10.8368607,21.8797798 10.8368607,23.9390639 C10.8368607,26.1505441 11.4321374,28.3010185 12.5129089,29.9942683 C12.5938983,30.1211893 12.728233,30.2008331 12.8753741,30.2094703 C12.8842061,30.2099249 12.8929497,30.2102885 12.9016051,30.2102885 C13.0392959,30.2102885 13.1703628,30.1474645 13.259036,30.0378178 C13.9981859,29.1234593 14.9524832,28.4442138 16.0309584,28.0605414 L16.0309584,14.8730316 L16.0308701,14.8730316 Z" id="Shape" fill="#0481BF"></path>
                    <path d="M16.0308701,16.4899105 L16.0308701,14.8731225 C16.0133827,14.8776684 15.995807,14.8814869 15.978673,14.8881239 C14.5102651,15.4649053 13.1941208,16.6697456 12.2727669,18.2808058 C11.333484,19.9233235 10.8368607,21.8798707 10.8368607,23.9391548 C10.8368607,26.150635 11.4321374,28.3011094 12.5129089,29.9943592 C12.5938983,30.1212802 12.728233,30.200924 12.8753741,30.2095612 C12.8842061,30.2100158 12.8929497,30.2103794 12.9016051,30.2103794 C13.0392959,30.2103794 13.1703628,30.1475554 13.259036,30.0379087 C13.58529,29.6343254 13.9540259,29.2773828 14.3563234,28.970445 C13.6371338,27.4723044 13.2481727,25.7258679 13.2481727,23.9392457 C13.2481727,21.8799616 13.7447959,19.9233235 14.6840788,18.2808967 C15.0694188,17.6067426 15.5247966,17.0052316 16.0308701,16.4899105 Z" id="Shape" fill="#000000" opacity="0.1"></path>
                    <path d="M32.9472362,18.2808058 C32.0257939,16.6696547 30.709738,15.4648144 29.2412418,14.8881239 C29.224196,14.8814869 29.206532,14.8776684 29.189133,14.8731225 L29.189133,28.0606323 C30.2676965,28.4443047 31.2219938,29.1235502 31.9611437,30.0379087 C32.0497286,30.1475554 32.1807955,30.2103794 32.3184863,30.2103794 C32.32723,30.2103794 32.3358853,30.2100158 32.344629,30.2095612 C32.4916818,30.200924 32.6261931,30.1211893 32.7070942,29.9943592 C33.7877774,28.3011094 34.3831423,26.1507259 34.3831423,23.9391548 C34.3831423,21.8798707 33.8866074,19.9232326 32.9472362,18.2808058 Z" id="Shape" fill="#0481BF"></path>
                    <path d="M18.0897853,29.3774831 L18.0897853,31.8468057 C18.0897853,32.0968291 18.2885052,32.3013938 18.5313852,32.3013938 L26.6886179,32.3013938 C26.9314978,32.3013938 27.1302178,32.0968291 27.1302178,31.8468057 L27.1302178,29.3774831 L18.0897853,29.3774831 Z" id="Shape" fill="#C5CCD3"></path>
                    <path d="M20.8436021,31.8468057 L20.8436021,29.3774831 L18.0897853,29.3774831 L18.0897853,31.8468057 C18.0897853,32.0968291 18.2885052,32.3013938 18.5313852,32.3013938 L21.2852019,32.3013938 C21.042322,32.3013938 20.8436021,32.0968291 20.8436021,31.8468057 Z" id="Shape" fill="#000000" opacity="0.1"></path>
                    <path d="M16.8743258,29.3774831 C16.4085263,29.3774831 16.0308701,28.988083 16.0308701,28.5077652 L16.0308701,12.5169924 C16.0308701,10.3537895 16.6292379,8.25350152 17.7617649,6.44333171 C18.8639099,4.68143916 20.4152502,3.27558 22.2481546,2.37776851 C22.3626173,2.32167234 22.4862652,2.29357879 22.6100899,2.29357879 C22.7338261,2.29357879 22.8575624,2.32167234 22.9721134,2.37776851 C24.8049295,3.27558 26.3562698,4.68143916 27.4584148,6.44333171 C28.5906769,8.25350152 29.1893096,10.3537895 29.1893096,12.5169924 L29.1893096,28.5076743 C29.1893096,28.9879921 28.8117418,29.3773922 28.3458539,29.3773922 L16.8743258,29.3773922 L16.8743258,29.3774831 Z" id="Shape" fill="#FFFFFF"></path>
                    <path d="M16.0308701,25.8924289 L16.0308701,28.5077652 C16.0308701,28.988083 16.408438,29.3774831 16.8743258,29.3774831 L28.3457656,29.3774831 C28.8115651,29.3774831 29.1892213,28.988083 29.1892213,28.5077652 L29.1892213,25.8924289 L16.0308701,25.8924289 Z" id="Shape" fill="#EF5050"></path>
                    <g id="Group" opacity="0.1" transform="translate(15.985915, 2.272940)" fill="#000000">
                        <path d="M2.82632747,26.2347338 L2.82632747,10.2440519 C2.82632747,8.08084896 3.42469529,5.98056103 4.55722231,4.17039122 C5.44651613,2.7487124 6.62859065,1.55923718 8.01477263,0.681154807 C7.68304281,0.470862353 7.33991972,0.278207916 6.9861099,0.104828016 C6.8715589,0.0487318442 6.74791093,0.0206382997 6.62408633,0.0206382997 C6.50035005,0.0206382997 6.37661377,0.0487318442 6.26215108,0.104828016 C4.42924667,1.00263951 2.87790634,2.40849867 1.77576139,4.17039122 C0.643322687,5.98056103 0.0448665465,8.08084896 0.0448665465,10.2440519 L0.0448665465,26.2347338 C0.0448665465,26.7150516 0.422434433,27.1044517 0.888322293,27.1044517 L3.6696949,27.1044517 C3.20389536,27.1045426 2.82632747,26.7150516 2.82632747,26.2347338 Z" id="Shape"></path>
                    </g>
                    <ellipse id="Oval" fill="#C5CCD3" cx="22.6099132" cy="16.8243055" rx="4.28175231" ry="4.41514145"></ellipse>
                    <ellipse id="Oval" fill="#7FDEE9" cx="22.6099132" cy="16.8243055" rx="2.33712314" ry="2.40986243"></ellipse>
                    <g id="Group" transform="translate(8.390397, 0.727341)" fill="#FFC502">
                        <path d="M5.69257557,5.11675272 C5.59789656,5.11675272 5.51107803,5.06220215 5.46824284,4.97564858 C4.89787245,3.82735904 4.46245498,3.37777141 3.35050651,2.78889799 C3.2668675,2.74462111 3.21440544,2.65624918 3.21440544,2.55978558 C3.21440544,2.46314015 3.2668675,2.37495006 3.35050651,2.33049135 C4.46263162,1.74161792 4.89787245,1.29203029 5.46824284,0.143740757 C5.51107803,0.0572781005 5.59789656,0.00281844621 5.69257557,0.00281844621 C5.78743122,0.00281844621 5.87407312,0.0572781005 5.91699662,0.143740757 C6.48736701,1.29212121 6.9228728,1.74170884 8.03482127,2.33049135 C8.11837196,2.37495006 8.17101067,2.46323107 8.17101067,2.55978558 C8.17101067,2.65624918 8.11837196,2.74453019 8.03482127,2.78889799 C6.92278448,3.37777141 6.48745533,3.82735904 5.91699662,4.97564858 C5.87407312,5.06220215 5.78743122,5.11675272 5.69257557,5.11675272 Z" id="Shape"></path>
                        <path d="M25.9101657,13.0109478 C25.8404812,13.0109478 25.7764492,12.9709441 25.7450073,12.907029 C25.3250458,12.0614042 25.0042677,11.7303731 24.1854532,11.296787 C24.1238059,11.2640567 24.08521,11.1989596 24.08521,11.127953 C24.08521,11.0569463 24.1237176,10.9918493 24.1854532,10.9592099 C25.0044443,10.5255328 25.3250458,10.1945018 25.7450073,9.34887701 C25.7764492,9.28514375 25.8404812,9.24495817 25.9101657,9.24495817 C25.9800268,9.24495817 26.0438821,9.28505284 26.0754123,9.34887701 C26.4954621,10.1945018 26.816152,10.5256238 27.6351431,10.9592099 C27.6967021,10.9918493 27.7354746,11.0569463 27.7354746,11.127953 C27.7354746,11.1989596 27.6967021,11.2640567 27.6351431,11.296787 C26.816152,11.7303731 26.4956388,12.0614042 26.0754123,12.907029 C26.0438821,12.9708531 25.9800268,13.0109478 25.9101657,13.0109478 Z" id="Shape"></path>
                        <path d="M1.87909576,13.0109478 C1.8094113,13.0109478 1.74537932,12.9709441 1.71402573,12.907029 C1.29397593,12.0614042 0.973286108,11.7303731 0.154383314,11.296787 C0.0927359722,11.2640567 0.0541401437,11.1989596 0.0541401437,11.127953 C0.0541401437,11.0569463 0.0927359722,10.9918493 0.154383314,10.9592099 C0.973286108,10.5255328 1.29397593,10.1945018 1.71402573,9.34887701 C1.74537932,9.28514375 1.8094113,9.24495817 1.87909576,9.24495817 C1.94895685,9.24495817 2.0128122,9.28505284 2.04434243,9.34887701 C2.46439222,10.1945018 2.78508204,10.5256238 3.60407316,10.9592099 C3.66563218,10.9918493 3.70431633,11.0569463 3.70431633,11.127953 C3.70431633,11.1989596 3.66563218,11.2640567 3.60407316,11.296787 C2.78508204,11.7303731 2.46456886,12.0614042 2.04434243,12.907029 C2.0128122,12.9708531 1.94895685,13.0109478 1.87909576,13.0109478 Z" id="Shape"></path>
                    </g>
                    <path d="M15.3684703,12.5169924 L15.3684703,14.4130793 C13.9126038,15.0916885 12.6211892,16.3275317 11.7019549,17.9347733 C10.7027027,19.68221 10.1744609,21.7584048 10.1744609,23.9390639 C10.1744609,26.2820109 10.8083334,28.565407 11.9593193,30.3687579 C12.1545064,30.6745139 12.4828801,30.8695322 12.8428723,30.8905342 C12.8625677,30.8915343 12.8821747,30.8921707 12.9015168,30.8921707 C13.2373093,30.8921707 13.5531415,30.7397018 13.7681123,30.4739496 C14.2445986,29.8844398 14.8212397,29.4044857 15.4665938,29.0537255 C15.6817412,29.6402351 16.2306498,30.0592744 16.8742375,30.0592744 L17.4273855,30.0592744 L17.4273855,31.8467148 C17.4273855,32.473319 17.9225956,32.983185 18.5313852,32.983185 L26.6886179,32.983185 C27.2973192,32.983185 27.7926176,32.473319 27.7926176,31.8467148 L27.7926176,30.0592744 L28.3456773,30.0592744 C28.9892649,30.0592744 29.5382619,29.640326 29.7534093,29.0538164 C30.39894,29.4044857 30.9754045,29.8843489 31.4518024,30.4737678 C31.6665966,30.7396109 31.9825171,30.8921707 32.3184863,30.8921707 C32.3381817,30.8921707 32.3577004,30.8915343 32.3822533,30.8903523 C32.7372113,30.8695322 33.0654966,30.6746048 33.2607721,30.3687579 C34.4116697,28.5654979 35.0455421,26.2821019 35.0455421,23.9391548 C35.0455421,21.7584048 34.5173887,19.6821191 33.5179599,17.9346824 C33.4791874,17.866767 33.4397084,17.7996698 33.3996111,17.7331181 C33.206632,17.413179 32.7982404,17.3149879 32.4874424,17.5134611 C32.1765561,17.712207 32.0810822,18.1326101 32.2740614,18.4524583 C32.3088594,18.5101 32.3428626,18.5681964 32.3764242,18.6266564 C33.2558262,20.1644371 33.7207425,22.0014276 33.7207425,23.9391548 C33.7207425,25.9205225 33.2156406,27.8451576 32.29411,29.391939 C31.6117499,28.6103203 30.7800407,27.9994448 29.8516211,27.5931339 L29.8516211,15.9468596 C30.1317721,16.1167846 30.4043275,16.3133485 30.6670794,16.5366422 C30.9491734,16.776301 31.3667503,16.7352063 31.59965,16.4446336 C31.8324615,16.1542427 31.7925409,15.7243842 31.5102702,15.4846344 C30.9890057,15.0418656 30.4323249,14.6834683 29.8516211,14.4130793 L29.8516211,12.5169924 C29.8516211,10.2226862 29.2166888,7.99484089 28.0152722,6.07420618 C26.8464457,4.20557634 25.2009563,2.71452737 23.2567687,1.76207439 C22.8551778,1.56551049 22.3645603,1.56560141 21.9634993,1.76207439 C20.0192234,2.71443646 18.373734,4.20557634 17.2048192,6.07420618 C16.0034026,7.99447722 15.3684703,10.2224135 15.3684703,12.5169924 Z M15.3684703,27.5931339 C14.4399624,27.9994448 13.6082532,28.6103203 12.9259814,29.39203 C12.0043625,27.8451576 11.4993489,25.9205225 11.4993489,23.9391548 C11.4993489,22.0016094 11.9642652,20.164528 12.8436672,18.6266564 C13.5050071,17.4701843 14.3822894,16.5455521 15.3685586,15.947496 L15.3684703,27.5931339 Z M26.4679063,31.6195116 L18.7522734,31.6195116 L18.7522734,30.0593653 L26.4679063,30.0593653 L26.4679063,31.6195116 Z M22.5328982,2.99346263 C22.5570979,2.98155242 22.5830639,2.97555186 22.6100015,2.97555186 C22.6369391,2.97555186 22.6629935,2.98155242 22.6873698,2.99355355 C24.4088144,3.83681447 25.8660057,5.1573929 26.9013807,6.81254817 C27.9646649,8.5124349 28.5267332,10.4850745 28.5267332,12.5169924 L28.5267332,25.2105468 L27.1143202,25.2105468 C26.7484105,25.2105468 26.4519204,25.5157572 26.4519204,25.8924289 C26.4519204,26.2691006 26.7484105,26.5743111 27.1143202,26.5743111 L28.5267332,26.5743111 L28.5267332,28.5077652 C28.5267332,28.6114113 28.4454788,28.695601 28.3456773,28.695601 L16.8743258,28.695601 C16.7745242,28.695601 16.6932699,28.6113204 16.6932699,28.5077652 L16.6932699,26.5743111 L24.1114411,26.5743111 C24.4773507,26.5743111 24.7738409,26.2691006 24.7738409,25.8924289 C24.7738409,25.5157572 24.4773507,25.2105468 24.1114411,25.2105468 L16.6932699,25.2105468 L16.6932699,12.5169924 C16.6932699,10.4847108 17.2552499,8.51225307 18.3186223,6.81254817 C19.3539974,5.1573929 20.8111886,3.83690539 22.5328982,2.99346263 Z" id="Shape" fill="#000000"></path>
                    <path d="M22.6100015,21.9216928 C25.3361742,21.9216928 27.5540653,19.6352056 27.5540653,16.8247601 C27.5540653,14.0142237 25.3361742,11.7276456 22.6100015,11.7276456 C19.8838289,11.7276456 17.6658494,14.0141328 17.6658494,16.8247601 C17.6658494,19.6351147 19.8838289,21.9216928 22.6100015,21.9216928 Z M22.6100015,13.0914099 C24.6056797,13.0914099 26.2292657,14.7662034 26.2292657,16.8247601 C26.2292657,18.8833169 24.6055913,20.5579285 22.6100015,20.5579285 C20.6144117,20.5579285 18.990649,18.883226 18.990649,16.8247601 C18.990649,14.7662943 20.6143234,13.0914099 22.6100015,13.0914099 Z" id="Shape" fill="#000000"></path>
                    <path d="M22.6100015,19.9164138 C24.2639697,19.9164138 25.6095245,18.5294655 25.6095245,16.8246692 C25.6095245,15.1198729 24.2639697,13.7328337 22.6100015,13.7328337 C20.9559451,13.7328337 19.6103903,15.1198729 19.6103903,16.8246692 C19.6103903,18.5294655 20.9559451,19.9164138 22.6100015,19.9164138 Z M22.6100015,15.096598 C23.5334752,15.096598 24.2847249,15.8717616 24.2847249,16.8246692 C24.2847249,17.7773949 23.5334752,18.5526495 22.6100015,18.5526495 C21.6865279,18.5526495 20.9351899,17.7774859 20.9351899,16.8246692 C20.9351899,15.8718526 21.6865279,15.096598 22.6100015,15.096598 Z" id="Shape" fill="#000000"></path>
                    <path d="M8.90097525,39.7001788 C9.40987494,39.225316 9.98598612,38.8234602 10.6183571,38.5133402 C10.9485855,38.3514159 11.0888376,37.9444686 10.9314514,37.6045276 C10.7741536,37.2644957 10.378745,37.1202095 10.048605,37.2822247 C8.95538035,37.8184568 8.0009064,38.5820739 7.23464231,39.5151614 C7.2107076,39.5149796 7.18694952,39.5139795 7.16301481,39.5139795 C4.31107455,39.5139795 1.67384014,40.9839356 0.108280287,43.4460756 C-0.0921177323,43.7611961 -0.00635903809,44.1837812 0.29975799,44.3900733 C0.411659396,44.465444 0.537427039,44.5015383 0.661958201,44.5015383 C0.877900536,44.5015383 1.08969183,44.3929826 1.21678427,44.1930548 C2.53663796,42.1172237 4.75956337,40.8778347 7.16301481,40.8778347 C9.56637793,40.8778347 11.789215,42.1171328 13.1090687,44.1928729 C13.3094667,44.5080843 13.7200663,44.5963653 14.026095,44.3899823 C14.332212,44.1836903 14.4178824,43.7611052 14.2175727,43.4459847 C12.9765887,41.4942562 11.0619,40.1669498 8.90097525,39.7001788 Z" id="Shape" fill="#000000"></path>
                    <path d="M45.1117228,43.4458938 C43.5461629,40.9838446 40.9089285,39.5139795 38.0571649,39.5139795 C38.0327003,39.5139795 38.008324,39.5149796 37.9839476,39.5151614 C36.4129119,37.6078007 34.0795866,36.4434187 31.5541652,36.4434187 C29.9592832,36.4434187 28.424282,36.9001888 27.0849979,37.7662701 C26.7003645,37.5177013 26.2965655,37.3019538 25.8778406,37.1205731 L25.8778406,34.3425853 C25.8778406,33.9659136 25.5813504,33.6607031 25.2154408,33.6607031 C24.8495311,33.6607031 24.5530409,33.9659136 24.5530409,34.3425853 L24.5530409,36.6767133 C24.1349342,36.5750674 23.7070239,36.50597 23.272313,36.4709667 L23.272313,34.3425853 C23.272313,33.9659136 22.9758229,33.6607031 22.6099132,33.6607031 C22.2440036,33.6607031 21.9475134,33.9659136 21.9475134,34.3425853 L21.9475134,36.4709667 C21.5450393,36.5032425 21.1482177,36.5641573 20.7598747,36.653893 L20.7598747,34.3425853 C20.7598747,33.9659136 20.4633846,33.6607031 20.0974749,33.6607031 C19.7315653,33.6607031 19.4350751,33.9659136 19.4350751,34.3425853 L19.4350751,37.0812967 C18.9830535,37.2704963 18.547901,37.499245 18.1348285,37.7660882 C16.7958094,36.9001888 15.2607199,36.4433278 13.6656612,36.4433278 C13.5150756,36.4433278 13.3627237,36.44751 13.212933,36.4556926 C12.8475533,36.4756035 12.567049,36.7966337 12.5864794,37.1726689 C12.6058215,37.5487951 12.9194457,37.8386405 13.2829707,37.8175476 C13.4096216,37.8106379 13.5383921,37.807183 13.6656612,37.807183 C14.8368723,37.807183 15.9691344,38.1001196 16.9873754,38.6577173 C16.4471221,39.1571278 15.9642768,39.7320908 15.5550904,40.3756058 C15.3547807,40.6907262 15.440451,41.1133113 15.7465681,41.3196034 C15.8584695,41.3949741 15.9842371,41.4310684 16.1087683,41.4310684 C16.3247106,41.4310684 16.5365019,41.3225128 16.6635944,41.122494 C17.983448,39.046572 20.2063735,37.807183 22.6098249,37.807183 C25.013188,37.807183 27.2360251,39.0464811 28.5558788,41.1223122 C28.7563651,41.4375236 29.1669647,41.5256227 29.4729051,41.3194216 C29.7790221,41.1132204 29.8647808,40.6905444 29.6643828,40.3754239 C29.2552847,39.7319999 28.7724394,39.1572187 28.2322744,38.6578083 C29.2506037,38.1000287 30.3830424,37.807183 31.5539886,37.807183 C33.3550978,37.807183 35.0406845,38.5099762 36.3190278,39.7001788 C34.1580147,40.1669498 32.2432377,41.4942562 31.0022537,43.4460756 C30.801944,43.7611961 30.8876144,44.1837812 31.1937314,44.3900733 C31.3056328,44.465444 31.4314005,44.5015383 31.5559316,44.5015383 C31.771874,44.5015383 31.9836653,44.3929826 32.1107577,44.1930548 C33.4306114,42.1172237 35.6535368,40.8778347 38.0569883,40.8778347 C40.4603514,40.8778347 42.6831885,42.1171328 44.0030422,44.1928729 C44.2035285,44.5080843 44.614128,44.5963653 44.9200684,44.3899823 C45.2263621,44.1835993 45.3121208,43.7610143 45.1117228,43.4458938 Z" id="Shape" fill="#000000"></path>
                    <path d="M11.4379665,4.12256855 C12.421851,4.64352651 12.7640909,4.99701422 13.2685746,6.01265495 C13.4253425,6.3292301 13.7374653,6.52597583 14.0830614,6.52597583 C14.4283925,6.52597583 14.7404269,6.32950285 14.8972832,6.01347321 C15.4022085,4.99701422 15.7445367,4.64361743 16.7285979,4.12247763 C17.0340966,3.96055335 17.2238963,3.64043241 17.2238963,3.28712654 C17.2238963,2.93436618 17.0344499,2.61442707 16.7283329,2.45141178 C15.7442718,1.93054474 15.4020319,1.57705703 14.8972832,0.560688961 C14.7403386,0.244568397 14.4283041,0.0482772561 14.0830614,0.0482772561 C13.7375536,0.0482772561 13.4255192,0.244750232 13.2689279,0.560688961 C12.7640026,1.57714795 12.4217627,1.93054474 11.4370833,2.45195729 C11.1320261,2.61415432 10.9424914,2.93418434 10.9424914,3.28721746 C10.9424031,3.64061425 11.1322911,3.96073519 11.4379665,4.12256855 Z M14.0829731,1.85099182 C14.4647803,2.47586862 14.8689325,2.8931805 15.4739243,3.28712654 C14.8690208,3.68116351 14.4647803,4.0985663 14.0830614,4.72317035 C13.7013424,4.09847538 13.2972786,3.68125442 12.6921984,3.28712654 C13.2971019,2.89308958 13.7012541,2.4757777 14.0829731,1.85099182 Z" id="Shape" fill="#000000"></path>
                    <path d="M32.2728249,12.6305485 C32.9647235,12.9967647 33.1907344,13.2302411 33.5447208,13.9430352 C33.6898305,14.2372447 33.9794317,14.42008 34.3005631,14.42008 C34.6213413,14.42008 34.9107658,14.2375174 35.0555223,13.9448536 C35.4107452,13.2299684 35.6368443,12.9965828 36.3297145,12.6298211 C36.6126034,12.4793525 36.7882718,12.1825065 36.7882718,11.8551121 C36.7882718,11.527445 36.6123384,11.2305081 36.3284781,11.0799485 C35.6366677,10.7137323 35.4106569,10.4803468 35.0559639,9.76637072 C34.9105892,9.47279772 34.6210763,9.29032606 34.3005631,9.29032606 C33.9796967,9.29032606 33.6901838,9.47307047 33.545604,9.76573429 C33.190646,10.4802559 32.9647235,10.7137323 32.2726482,11.0801303 C31.9892294,11.2303262 31.8132077,11.5273541 31.8132077,11.855203 C31.8132077,12.1827792 31.9889645,12.4797162 32.2728249,12.6305485 Z M34.3005631,11.1212251 C34.5053772,11.4139798 34.7283851,11.6440014 35.0119805,11.8553849 C34.7285617,12.0666774 34.5056421,12.296699 34.3007398,12.5894537 C34.0959258,12.2966081 33.8730062,12.0666774 33.5893224,11.8552939 C33.8728295,11.6439105 34.0957491,11.413798 34.3005631,11.1212251 Z" id="Shape" fill="#000000"></path>
                    <path d="M8.24184329,12.6305485 C8.93365364,12.9967647 9.15966445,13.2301502 9.51338594,13.9423988 C9.65831902,14.2370628 9.94800853,14.4201709 10.2694932,14.4201709 C10.5902714,14.4201709 10.8796959,14.2376083 11.0244524,13.9449445 C11.3796753,13.2300593 11.6057744,12.9966737 12.2986446,12.6299121 C12.5814452,12.4794434 12.7571136,12.1825974 12.7571136,11.855203 C12.7571136,11.5275359 12.5811802,11.230599 12.2974081,11.0800394 C11.6055978,10.7138232 11.379587,10.4804377 11.024894,9.76646163 C10.8795193,9.47288864 10.5900064,9.29041698 10.2694932,9.29041698 C9.94827349,9.29041698 9.6586723,9.47334323 9.51462242,9.76582521 C9.15966445,10.4803468 8.93365364,10.7137323 8.24157833,11.0802212 C7.95815953,11.2304171 7.78213782,11.527445 7.78213782,11.8552939 C7.78213782,12.1827792 7.95789457,12.4797162 8.24184329,12.6305485 Z M10.2694932,11.1212251 C10.4743073,11.4139798 10.6972269,11.6440014 10.9809106,11.8553849 C10.6974918,12.0666774 10.4746605,12.296699 10.2696699,12.5893628 C10.0648559,12.2966081 9.84184793,12.0665865 9.55825249,11.855203 C9.84175961,11.6439105 10.0646792,11.413798 10.2694932,11.1212251 Z" id="Shape" fill="#000000"></path>
                </g>
            </g>
        </g>
    </g>
</svg>