<?xml version="1.0" encoding="UTF-8"?>
<svg width="131px" height="126px" viewBox="0 0 131 126" version="1.1" xmlns="http://www.w3.org/2000/svg" xmlns:xlink="http://www.w3.org/1999/xlink">
    <!-- Generator: Sketch 49 (51002) - http://www.bohemiancoding.com/sketch -->
    <title>add-payment-method-image</title>
    <desc>Created with Sketch.</desc>
    <defs></defs>
    <g id="servers" stroke="none" stroke-width="1" fill="none" fill-rule="evenodd">
        <g id="add-payment-method-image" transform="translate(1.000000, 0.000000)">
            <g id="public-score">
                <path d="M44.95,21.005 C44.677,20.255 45.033,19.93 45.75,20.285 L72.095,33.275 L72.895,35.475 L56.267,41.528 C54.391,42.211 52.317,41.248 51.637,39.378 L44.95,21.005 Z" id="Shape" fill="#268FF4" fill-rule="nonzero"></path>
                <path d="M42.62,19.29 C42.348,18.54 42.713,18.206 43.438,18.545 L72.268,32.051 C72.991,32.391 72.962,32.891 72.223,33.159 L53.928,39.819 C52.058,40.499 49.988,39.534 49.308,37.665 L42.62,19.29 Z" id="Shape" stroke="#363C50" stroke-width="2" fill="#268FF4" fill-rule="nonzero" stroke-linejoin="bevel"></path>
                <path d="M49.848,72.737 C48.966,70.312 50.031,68.087 52.388,67.227 C54.746,66.37 57.372,67.64 58.254,70.064 C59.136,72.488 57.859,74.926 55.684,76.278" id="Shape" stroke="#363C50" stroke-width="2" stroke-linecap="round"></path>
                <path d="M50.26,84.475 L70.086,99.587 L61.864,102.58 L49.584,98.45 C47.492,97.747 46.389,95.49 47.124,93.4 L50.26,84.475 Z" id="Shape" fill="#0082FF" fill-rule="nonzero"></path>
                <g id="Group" transform="translate(83.000000, 24.000000)">
                    <path d="M30.145,3.494 C30.418,2.744 30.889,2.72 31.208,3.469 L42.583,30.207 L41.783,32.407 L25.609,26.49 C23.739,25.807 22.776,23.736 23.456,21.866 L30.144,3.494 L30.145,3.494 Z" id="Shape" fill="#A0C4FC" fill-rule="nonzero"></path>
                    <path d="M29.462,0.683 C29.736,-0.067 30.23,-0.089 30.567,0.637 L43.97,29.514 C44.307,30.239 43.964,30.604 43.225,30.334 L24.93,23.674 C23.06,22.994 22.095,20.924 22.775,19.056 L29.462,0.683 Z" id="Shape" stroke="#363C50" stroke-width="2" fill="#A0C4FC" fill-rule="nonzero" stroke-linejoin="bevel"></path>
                    <path d="M0.644,46.27 C1.527,43.846 3.774,42.826 6.131,43.684 C8.489,44.542 9.684,47.204 8.801,49.626 C7.921,52.05 5.375,53.096 2.838,52.734" id="Shape" stroke="#0D84F5" stroke-width="2" stroke-linecap="round"></path>
                </g>
                <g id="Group">
                    <ellipse id="Oval" fill="#A0C4FC" fill-rule="nonzero" cx="101.348" cy="4.414" rx="2.804" ry="2.809"></ellipse>
                    <ellipse id="Oval" fill="#A0C4FC" fill-rule="nonzero" cx="12.418" cy="74.236" rx="2.804" ry="2.809"></ellipse>
                    <ellipse id="Oval" fill="#A0C4FC" fill-rule="nonzero" cx="10.816" cy="12.439" rx="2.003" ry="2.006"></ellipse>
                    <ellipse id="Oval" fill="#A0C4FC" fill-rule="nonzero" cx="61.289" cy="16.452" rx="2.003" ry="2.006"></ellipse>
                    <ellipse id="Oval" fill="#A0C4FC" fill-rule="nonzero" cx="122.98" cy="30.898" rx="1.202" ry="1.204"></ellipse>
                    <ellipse id="Oval" fill="#A0C4FC" fill-rule="nonzero" cx="20.83" cy="85.07" rx="1" ry="1"></ellipse>
                    <ellipse id="Oval" fill="#A0C4FC" fill-rule="nonzero" cx="4.006" cy="83.465" rx="1" ry="1"></ellipse>
                    <ellipse id="Oval" fill="#A0C4FC" fill-rule="nonzero" cx="1.602" cy="67.414" rx="1" ry="1"></ellipse>
                    <ellipse id="Oval" fill="#A0C4FC" fill-rule="nonzero" cx="99.345" cy="13.643" rx="1" ry="1"></ellipse>
                    <ellipse id="Oval" fill="#A0C4FC" fill-rule="nonzero" cx="127.386" cy="73.032" rx="1" ry="1"></ellipse>
                    <ellipse id="Oval" fill="#A0C4FC" fill-rule="nonzero" cx="37.655" cy="118.777" rx="1" ry="1"></ellipse>
                    <ellipse id="Oval" fill="#A0C4FC" fill-rule="nonzero" cx="29.243" cy="18.86" rx="1.202" ry="1.204"></ellipse>
                    <ellipse id="Oval" fill="#A0C4FC" fill-rule="nonzero" cx="5.208" cy="50.962" rx="1.202" ry="1.204"></ellipse>
                    <ellipse id="Oval" fill="#A0C4FC" fill-rule="nonzero" cx="38.056" cy="5.217" rx="1.202" ry="1.204"></ellipse>
                    <ellipse id="Oval" fill="#A0C4FC" fill-rule="nonzero" cx="126.985" cy="85.471" rx="2.804" ry="2.809"></ellipse>
                    <ellipse id="Oval" fill="#A0C4FC" fill-rule="nonzero" cx="106.956" cy="123.191" rx="2.804" ry="2.809"></ellipse>
                    <ellipse id="Oval" fill="#A0C4FC" fill-rule="nonzero" cx="26.038" cy="122.389" rx="2.804" ry="2.809"></ellipse>
                    <ellipse id="Oval" fill="#A0C4FC" fill-rule="nonzero" cx="83.722" cy="121.586" rx="2.003" ry="2.006"></ellipse>
                    <ellipse id="Oval" fill="#A0C4FC" fill-rule="nonzero" cx="71.705" cy="110.35" rx="2.003" ry="2.006"></ellipse>
                    <path d="M65.696,117.172 L60.889,121.987 M65.695,121.987 L60.888,117.172 M9.614,112.357 L4.807,117.172 M9.614,117.172 L4.807,112.357 M4.807,21.67 L0,26.483 M4.807,26.483 L0,21.67 M120.175,14.446 L116.971,17.656 M120.176,17.656 L116.972,14.446 M25.637,0 L21.632,4.013 M25.637,4.013 L21.632,0 M122.58,97.108 L117.772,101.924 M122.579,101.924 L117.771,97.108" id="Shape" stroke="#003EA0" stroke-width="0.8" stroke-linecap="round"></path>
                    <path d="M16.825,93.096 L10.415,99.516 M16.825,99.516 L10.415,93.096 M69.702,0.803 L63.292,7.223 M69.702,7.223 L63.292,0.803" id="Shape" stroke="#003EA0" stroke-width="1.6" stroke-linecap="round"></path>
                </g>
            </g>
            <g id="payment-method" transform="translate(25.000000, 23.000000)" fill-rule="nonzero">
                <path d="M45.54625,50.1865625 L65.9623438,29.7704688 C67.1826563,28.5501563 67.1826563,26.57125 65.9623438,25.3509375 L43.0870313,2.47546875 C41.8667187,1.25515625 39.8878125,1.25515625 38.6675,2.47546875 L2.47578125,38.6673438 C1.25546875,39.8876563 1.25546875,41.8665625 2.47578125,43.086875 L25.3510937,65.9621875 C26.5714063,67.1825 28.5503125,67.1825 29.770625,65.9621875 L35.7128125,60.02" id="Shape" fill="#FFFFFF"></path>
                <path d="M46.4395313,78.4373437 L75.3123438,78.4373437 C77.0382813,78.4373437 78.4375,77.0382812 78.4375,75.3121875 L78.4375,42.9615625 C78.4375,41.235625 77.0384375,39.8364062 75.3123438,39.8364062 L24.1292187,39.8364062 C22.4032812,39.8364062 21.0040625,41.2354687 21.0040625,42.9615625 L21.0040625,75.3120312 C21.0040625,77.0379687 22.403125,78.4371875 24.1292187,78.4371875 L32.5326563,78.4371875 L46.439375,78.4371875 L46.439375,78.4373437 L46.4395313,78.4373437 Z" id="Shape" fill="#2786E2"></path>
                <circle id="Oval" fill="#FEA02C" cx="61.9375" cy="69.0595313" r="4.53140625"></circle>
                <circle id="Oval" fill="#EF3C3C" cx="67.5892188" cy="69.0595313" r="4.53140625"></circle>
                <rect id="Rectangle-path" fill="#FFFFFF" x="28.7507812" y="45.3182812" width="11.2503125" height="7.18109375"></rect>
                <rect id="Rectangle-path" fill="#A0C4FC" transform="translate(28.794300, 28.794645) rotate(135.000000) translate(-28.794300, -28.794645) " x="0.0784817558" y="25.2041321" width="57.4316367" height="7.18102488"></rect>
                <path d="M28.81375,60.6995312 L38.3790625,60.6995312 C39.241875,60.6995312 39.9415625,59.9998437 39.9415625,59.1370312 C39.9415625,58.2742187 39.241875,57.5745312 38.3790625,57.5745312 L28.81375,57.5745312 C27.9509375,57.5745312 27.25125,58.2742187 27.25125,59.1370312 C27.25125,59.9998437 27.9507812,60.6995312 28.81375,60.6995312 Z" id="Shape" fill="#363C50"></path>
                <path d="M55.979375,59.1370312 C55.979375,58.2742187 55.2796875,57.5745312 54.416875,57.5745312 L44.8515625,57.5745312 C43.98875,57.5745312 43.2890625,58.2742187 43.2890625,59.1370312 C43.2890625,59.9998437 43.98875,60.6995312 44.8515625,60.6995312 L54.416875,60.6995312 C55.2798437,60.6995312 55.979375,60 55.979375,59.1370312 Z" id="Shape" fill="#363C50"></path>
                <path d="M70.6767187,60.6995312 C71.5395312,60.6995312 72.2392187,59.9998437 72.2392187,59.1370312 C72.2392187,58.2742187 71.5395312,57.5745312 70.6767187,57.5745312 L61.1114062,57.5745312 C60.2485937,57.5745312 59.5489062,58.2742187 59.5489062,59.1370312 C59.5489062,59.9998437 60.2485937,60.6995312 61.1114062,60.6995312 L70.6767187,60.6995312 Z" id="Shape" fill="#363C50"></path>
                <path d="M55.8439063,69.0590625 C55.8439063,72.419375 58.5775,75.1529687 61.9378125,75.1529687 C62.9571875,75.1529687 63.9182813,74.9 64.7634375,74.455625 C65.60875,74.9 66.5696875,75.1529687 67.5890625,75.1529687 C70.949375,75.1529687 73.6829688,72.419375 73.6829688,69.0590625 C73.6829688,65.69875 70.949375,62.9651563 67.5890625,62.9651563 C66.5696875,62.9651563 65.6085937,63.218125 64.7634375,63.6625 C63.918125,63.218125 62.9571875,62.9651563 61.9378125,62.9651563 C58.5776563,62.9651562 55.8439063,65.6989063 55.8439063,69.0590625 Z M64.9067188,69.0590625 C64.9067188,69.375625 64.8557813,69.6801563 64.7635938,69.9664063 C64.6714063,69.6801563 64.6204688,69.375625 64.6204688,69.0590625 C64.6204688,68.7425 64.6714063,68.4379687 64.7635938,68.1517188 C64.8559375,68.4379687 64.9067188,68.7425 64.9067188,69.0590625 Z M70.5582812,69.0590625 C70.5582812,70.6960938 69.2265625,72.0278125 67.5895312,72.0278125 C67.480625,72.0278125 67.3734375,72.0210938 67.2675,72.0095312 C67.75375,71.1346875 68.031875,70.1289062 68.031875,69.0590625 C68.031875,67.9892188 67.75375,66.9834375 67.2675,66.1085938 C67.3732813,66.0971875 67.480625,66.0903125 67.5895312,66.0903125 C69.2264062,66.0903125 70.5582812,67.4220313 70.5582812,69.0590625 Z M61.9378125,66.0903125 C62.0467188,66.0903125 62.1539062,66.0970313 62.2598438,66.1085938 C61.7735937,66.9834375 61.4954688,67.9892188 61.4954688,69.0590625 C61.4954688,70.1289062 61.7735937,71.1346875 62.2598438,72.0095312 C62.1540625,72.0209375 62.0467188,72.0278125 61.9378125,72.0278125 C60.3007813,72.0278125 58.9690625,70.6960938 58.9690625,69.0590625 C58.9690625,67.4220313 60.3009375,66.0903125 61.9378125,66.0903125 Z" id="Shape" fill="#363C50"></path>
                <path d="M40.000625,54.061875 C40.8634375,54.061875 41.563125,53.3621875 41.563125,52.499375 L41.563125,45.3182812 C41.563125,44.4554687 40.8634375,43.7557812 40.000625,43.7557812 L28.7503125,43.7557812 C27.8875,43.7557812 27.1878125,44.4554687 27.1878125,45.3182812 L27.1878125,52.499375 C27.1878125,53.3621875 27.8875,54.061875 28.7503125,54.061875 L40.000625,54.061875 Z M30.3128125,46.8807812 L38.4379687,46.8807812 L38.4379687,50.936875 L30.3128125,50.936875 L30.3128125,46.8807812 Z" id="Shape" fill="#363C50"></path>
                <path d="M40.1675,76.8748437 L40.146875,76.8748437 C39.2840625,76.8748437 38.584375,77.5745312 38.584375,78.4373437 C38.584375,79.3001563 39.2840625,79.9998437 40.146875,79.9998437 L40.1675,79.9998437 C41.0303125,79.9998437 41.73,79.3001563 41.73,78.4373437 C41.73,77.5746875 41.0304688,76.8748437 40.1675,76.8748437 Z" id="Shape" fill="#363C50"></path>
                <path d="M75.3121875,38.2740625 L59.6684375,38.2740625 L67.0673438,30.8753125 C68.8948438,29.0476562 68.8948438,26.07375 67.0673438,24.2460938 L44.191875,1.370625 C42.3640625,-0.45703125 39.3901562,-0.45671875 37.5625,1.370625 L1.370625,37.5625 C-0.45671875,39.3901562 -0.45671875,42.3640625 1.370625,44.1917187 L19.4415625,62.2626562 L19.4415625,75.3120312 C19.4415625,77.8967187 21.544375,79.9996875 24.1292187,79.9996875 L32.5326563,79.9996875 C33.3954687,79.9996875 34.0951563,79.3 34.0951563,78.4371875 C34.0951563,77.574375 33.3954687,76.8746875 32.5326563,76.8746875 L24.1292188,76.8746875 C23.2676563,76.8746875 22.5667188,76.17375 22.5667188,75.3121875 L22.5667188,42.9617187 C22.5667188,42.1001562 23.2676563,41.3992187 24.1292188,41.3992187 L75.3121875,41.3992187 C76.17375,41.3992187 76.8746875,42.1001562 76.8746875,42.9617187 L76.8746875,75.3121875 C76.8746875,76.17375 76.17375,76.8746875 75.3121875,76.8746875 L46.4395313,76.8746875 C45.5767188,76.8746875 44.8770313,77.574375 44.8770313,78.4371875 C44.8770313,79.3 45.5767188,79.9996875 46.4395313,79.9996875 L75.3123437,79.9996875 C77.8970313,79.9996875 80,77.896875 80,75.3120312 L80,42.9617187 C79.9998437,40.3770312 77.8970312,38.2740625 75.3121875,38.2740625 Z M65.315,27.560625 C65.315,27.9779688 65.1525,28.3703125 64.8573437,28.6654687 L55.2485938,38.2740625 L45.9101563,38.2740625 L49.4646875,34.7195313 C50.0748438,34.109375 50.0748438,33.12 49.4646875,32.5098438 C48.854375,31.8996875 47.8653125,31.8996875 47.2548438,32.5098438 L41.4907813,38.2740625 L37.3684375,38.2740625 L45.8496875,29.7926563 C46.4598438,29.1825 46.4598438,28.193125 45.8496875,27.5828125 C45.239375,26.9726562 44.2503125,26.9726562 43.6398438,27.5828125 L32.9485938,38.2740625 L26.6021875,38.2740625 L43.8446875,21.03125 C44.4548437,20.4210937 44.4548437,19.4317188 43.8446875,18.8215625 C43.234375,18.2114063 42.2453125,18.2114063 41.6348437,18.8215625 L11.0276563,49.4290625 L8.159375,46.5610937 L46.5609375,8.15953125 L64.8573437,26.4557812 C65.1525,26.7507813 65.315,27.1432813 65.315,27.560625 Z M3.580625,39.7721875 L39.7725,3.580625 C40.381875,2.97125 41.3732813,2.9715625 41.9821875,3.580625 L44.35125,5.9496875 L5.94953125,44.35125 L3.58046875,41.9821875 C2.97140625,41.3729687 2.97140625,40.3815625 3.580625,39.7721875 Z M13.2373438,51.6389062 L19.4415625,45.4345312 L19.4415625,57.8429687 L13.2373438,51.6389062 Z" id="Shape" fill="#363C50"></path>
                <path d="M45.7928125,14.6651563 C45.500625,14.9557813 45.3348438,15.3589063 45.3348438,15.7698437 C45.3348438,16.1807812 45.500625,16.5839062 45.7928125,16.8745312 C46.081875,17.1651562 46.485,17.3323437 46.8959375,17.3323437 C47.3085938,17.3323437 47.7115625,17.1651563 48.0021875,16.8745312 C48.2928125,16.5839062 48.46,16.1807812 48.46,15.7698437 C48.46,15.3589063 48.2929688,14.9557813 48.0021875,14.6651563 C47.7115625,14.3745313 47.3085938,14.2073437 46.8959375,14.2073437 C46.485,14.2075 46.081875,14.3745313 45.7928125,14.6651563 Z" id="Shape" fill="#000000"></path>
            </g>
        </g>
    </g>
</svg>