<?xml version="1.0" encoding="UTF-8"?>
<svg width="82px" height="83px" viewBox="0 0 82 83" version="1.1" xmlns="http://www.w3.org/2000/svg" xmlns:xlink="http://www.w3.org/1999/xlink">
    <!-- Generator: Sketch 51.3 (57544) - http://www.bohemiancoding.com/sketch -->
    <title>artwork-deployment-counter</title>
    <desc>Created with Sketch.</desc>
    <defs></defs>
    <g id="zdd" stroke="none" stroke-width="1" fill="none" fill-rule="evenodd">
        <g id="summary-v2" transform="translate(-1179.000000, -507.000000)" fill-rule="nonzero">
            <g id="artwork-deployment-counter" transform="translate(1182.000000, 507.000000)">
                <circle id="Oval-2" fill-opacity="0.15" fill="#5295FF" cx="37.5" cy="40.5" r="24.5"></circle>
                <circle id="Oval-2" stroke="#A4B8CB" stroke-width="5" opacity="0.136662946" cx="38" cy="41" r="38"></circle>
                <rect id="Rectangle-9" fill="#FFFFFF" x="37" y="0" width="3" height="7"></rect>
                <rect id="Rectangle-9" fill="#FFFFFF" x="37" y="76" width="3" height="7"></rect>
                <rect id="Rectangle-9" fill="#FFFFFF" transform="translate(70.500000, 22.500000) rotate(-1200.000000) translate(-70.500000, -22.500000) " x="69" y="19" width="3" height="7"></rect>
                <rect id="Rectangle-9" fill="#FFFFFF" transform="translate(70.500000, 61.500000) scale(-1, 1) rotate(-1200.000000) translate(-70.500000, -61.500000) " x="69" y="58" width="3" height="7"></rect>
                <rect id="Rectangle-9" fill="#FFFFFF" transform="translate(5.781089, 22.500000) rotate(120.000000) translate(-5.781089, -22.500000) " x="4.28108891" y="19" width="3" height="7"></rect>
                <rect id="Rectangle-9" fill="#FFFFFF" transform="translate(5.781089, 61.500000) scale(-1, 1) rotate(120.000000) translate(-5.781089, -61.500000) " x="4.28108891" y="58" width="3" height="7"></rect>
            </g>
        </g>
    </g>
</svg>