<?xml version="1.0" encoding="UTF-8"?>
<svg width="512px" height="512px" viewBox="0 0 512 512" version="1.1" xmlns="http://www.w3.org/2000/svg" xmlns:xlink="http://www.w3.org/1999/xlink">
    <!-- Generator: Sketch 49.3 (51167) - http://www.bohemiancoding.com/sketch -->
    <title>backup</title>
    <desc>Created with Sketch.</desc>
    <defs></defs>
    <g id="backup" stroke="none" stroke-width="1" fill="none" fill-rule="evenodd">
        <g fill-rule="nonzero">
            <path d="M511.999,193.892 C512.291,232.754 481.042,264.503 442.181,264.828 L69.817,264.828 C31.08,264.213 0,232.634 0,193.892 C0,155.15 31.08,123.572 69.817,122.956 C72.339,122.925 74.859,123.083 77.357,123.429 C75.441,115.533 74.473,107.436 74.471,99.311 C74.262,73.179 84.443,48.035 102.774,29.41 C121.105,10.785 146.085,0.206 172.216,0 C210.949,0.124 245.927,23.185 261.304,58.735 C278.316,45.193 299.418,37.824 321.161,37.833 C371.783,38.176 413.875,76.89 418.441,127.307 C426.018,124.406 434.066,122.931 442.179,122.957 C481.042,123.281 512.291,155.031 511.999,193.892 Z" id="Shape" fill="#4DC6FA"></path>
            <g id="Group" transform="translate(139.000000, 77.000000)" fill="#547580">
                <path d="M37.551,117.208 C32.676,117.208 28.723,113.256 28.723,108.38 L28.723,41.414 L3.236,15.927 C-0.201,12.478 -0.196,6.898 3.247,3.455 C6.69,0.012 12.27,0.007 15.719,3.444 L43.792,31.518 C45.448,33.173 46.378,35.418 46.378,37.759 L46.378,108.38 C46.379,113.255 42.426,117.208 37.551,117.208 Z" id="Shape"></path>
                <path d="M125.827,117.208 C120.952,117.208 116.999,113.256 116.999,108.38 L116.999,59.07 L105.551,47.622 C102.104,44.175 102.104,38.586 105.551,35.139 C108.998,31.692 114.587,31.692 118.034,35.139 L132.068,49.174 C133.723,50.829 134.654,53.074 134.654,55.415 L134.654,108.381 C134.654,113.255 130.702,117.208 125.827,117.208 Z" id="Shape"></path>
                <path d="M187.62,117.208 C182.745,117.208 178.792,113.256 178.792,108.38 L178.792,55.414 C178.793,53.073 179.723,50.828 181.378,49.173 L195.412,35.139 C198.859,31.692 204.448,31.692 207.895,35.139 C211.342,38.586 211.342,44.175 207.895,47.622 L196.446,59.07 L196.446,108.38 C196.448,113.255 192.495,117.208 187.62,117.208 Z" id="Shape"></path>
            </g>
            <path d="M132.413,167.725 L379.585,167.725 C389.336,167.725 397.24,175.629 397.24,185.38 L397.24,494.346 C397.24,504.097 389.335,512.001 379.585,512.001 L132.413,512.001 C122.662,512.001 114.758,504.096 114.758,494.346 L114.758,185.38 C114.758,175.629 122.662,167.725 132.413,167.725 Z" id="Shape" fill="#3A4550"></path>
            <g id="Group" transform="translate(150.000000, 203.000000)" fill="#293238">
                <path d="M211.93,199.185 L211.93,273.69 L150.137,273.69 L150.137,240.145 C174.024,232.257 195.361,218.113 211.93,199.185 Z" id="Shape"></path>
                <path d="M61.861,240.145 L61.861,273.69 L0.068,273.69 L0.068,199.185 C16.512,217.97 37.656,232.046 61.331,239.968 C61.508,240.057 61.685,240.057 61.861,240.145 Z" id="Shape"></path>
                <path d="M68.57,205.1 C119.134,224.132 175.914,201.991 200.247,153.754 C224.58,105.517 208.642,46.694 163.285,17.339 C117.928,-12.016 57.738,-2.463 23.698,39.492 C-10.342,81.447 -7.284,142.314 30.788,180.648 L68.57,205.1 Z" id="Shape"></path>
            </g>
            <g id="Group" transform="translate(150.000000, 282.000000)" fill="#BDC3C7">
                <circle id="Oval" cx="105.999" cy="26.966" r="26.483"></circle>
                <path d="M75.368,92.025 L61.862,159.379 L61.332,160.968 C37.656,153.045 16.513,138.97 0.069,120.185 L61.774,82.933 C64.751,80.94 68.636,80.94 71.613,82.931 C74.59,84.923 76.072,88.513 75.368,92.025 Z" id="Shape"></path>
            </g>
        </g>
    </g>
</svg>