<?xml version="1.0" encoding="UTF-8"?>
<svg width="350px" height="159px" viewBox="0 0 350 159" version="1.1" xmlns="http://www.w3.org/2000/svg" xmlns:xlink="http://www.w3.org/1999/xlink">
    <!-- Generator: Sketch 50 (54983) - http://www.bohemiancoding.com/sketch -->
    <title>cloudflare-logo</title>
    <desc>Created with Sketch.</desc>
    <defs></defs>
    <g id="3rd-party-api" stroke="none" stroke-width="1" fill="none" fill-rule="evenodd">
        <g id="cloudflare-logo" fill-rule="nonzero">
            <polygon id="Shape" fill="#FFFFFF" points="320.219298 94.7660819 276.315789 69.5906433 268.74269 66.3157895 89.1374269 67.5438596 89.1374269 158.72807 320.219298 158.72807"></polygon>
            <path d="M240.292398,150.336257 C242.44152,142.967836 241.622807,136.21345 238.040936,131.19883 C234.766082,126.593567 229.239766,123.932749 222.587719,123.625731 L96.6081871,121.988304 C95.7894737,121.988304 95.0730994,121.578947 94.6637427,120.964912 C94.254386,120.350877 94.1520468,119.532164 94.3567251,118.71345 C94.7660819,117.48538 95.994152,116.564327 97.3245614,116.461988 L224.429825,114.824561 C239.473684,114.108187 255.847953,101.929825 261.578947,86.9883041 L268.845029,68.0555556 C269.152047,67.2368421 269.254386,66.4181287 269.049708,65.5994152 C260.862573,28.5526316 227.807018,0.921052632 188.304094,0.921052632 C151.871345,0.921052632 120.964912,24.4590643 109.912281,57.1052632 C102.748538,51.7836257 93.6403509,48.9181287 83.8157895,49.8391813 C66.3157895,51.5789474 52.2953216,65.5994152 50.5555556,83.0994152 C50.1461988,87.6023392 50.4532164,92.002924 51.4766082,96.0964912 C22.9239766,96.9152047 0.102339181,120.248538 0.102339181,149.005848 C0.102339181,151.564327 0.307017544,154.122807 0.614035088,156.681287 C0.81871345,157.909357 1.84210526,158.830409 3.07017544,158.830409 L235.584795,158.830409 C236.915205,158.830409 238.143275,157.909357 238.552632,156.578947 L240.292398,150.336257 Z" id="Shape" fill="#F38020"></path>
            <path d="M280.409357,69.3859649 C279.283626,69.3859649 278.055556,69.3859649 276.929825,69.4883041 C276.111111,69.4883041 275.394737,70.1023392 275.087719,70.9210526 L270.175439,88.0116959 C268.026316,95.380117 268.845029,102.134503 272.426901,107.149123 C275.701754,111.754386 281.22807,114.415205 287.880117,114.722222 L314.692982,116.359649 C315.511696,116.359649 316.22807,116.769006 316.637427,117.383041 C317.046784,117.997076 317.149123,118.918129 316.944444,119.634503 C316.535088,120.862573 315.307018,121.783626 313.976608,121.885965 L286.038012,123.523392 C270.891813,124.239766 254.619883,136.418129 248.888889,151.359649 L246.842105,156.578947 C246.432749,157.602339 247.149123,158.625731 248.274854,158.625731 L344.269006,158.625731 C345.394737,158.625731 346.418129,157.909357 346.725146,156.783626 C348.362573,150.847953 349.283626,144.605263 349.283626,138.157895 C349.283626,100.292398 318.377193,69.3859649 280.409357,69.3859649" id="Shape" fill="#FAAE40"></path>
        </g>
    </g>
</svg>