<svg enable-background="new 0 0 60 60" viewBox="0 0 60 60" xmlns="http://www.w3.org/2000/svg"><path d="m24 35v-.375-.375-8.625-.375h.034c-.021.124-.034.249-.034.375 0-2.437 3.862-4.552 9.534-5.625h-29.926c-1.992 0-3.608 1.615-3.608 3.608v11.783c0 1.994 1.616 3.609 3.608 3.609h20.392z" fill="#424a60"/><path d="m24.034 53h-.034v-9-.375-.375-4.25h-20.392c-1.992 0-3.608 1.615-3.608 3.608v11.783c0 1.994 1.616 3.609 3.608 3.609h28.718c-4.725-1.069-7.948-2.897-8.292-5z" fill="#556080"/><path d="m54.392 20h-50.784c-1.992 0-3.608-1.616-3.608-3.608v-11.784c0-1.992 1.616-3.608 3.608-3.608h50.783c1.993 0 3.609 1.616 3.609 3.608v11.783c0 1.993-1.616 3.609-3.608 3.609z" fill="#556080"/><g fill="#7383bf"><circle cx="9.5" cy="10.5" r="3.5"/><circle cx="49" cy="9" r="1"/><circle cx="45" cy="9" r="1"/><circle cx="51" cy="12" r="1"/><circle cx="47" cy="12" r="1"/><circle cx="41" cy="9" r="1"/><circle cx="43" cy="12" r="1"/><circle cx="37" cy="9" r="1"/><circle cx="39" cy="12" r="1"/><circle cx="33" cy="9" r="1"/><circle cx="35" cy="12" r="1"/><circle cx="9.5" cy="29.5" r="3.5"/><circle cx="9.5" cy="48.5" r="3.5"/></g><path d="m42 48.75c-9.941 0-18-2.854-18-6.375v10.625h.034c.548 3.346 8.381 6 17.966 6s17.418-2.654 17.966-6h.034v-10.625c0 3.521-8.059 6.375-18 6.375z" fill="#1a9172"/><path d="m24 42v.375c0-.126.013-.251.034-.375z" fill="#1a9172"/><path d="m59.966 42c.021.124.034.249.034.375v-.375z" fill="#1a9172"/><path d="m42 38c-9.941 0-18-2.854-18-6.375v11.125h.034c.548 3.346 8.381 6 17.966 6s17.418-2.654 17.966-6h.034v-11.125c0 3.521-8.059 6.375-18 6.375z" fill="#25ae88"/><path d="m24 31.25v.375c0-.126.013-.251.034-.375z" fill="#25ae88"/><path d="m59.966 31.25c.021.124.034.249.034.375v-.375z" fill="#25ae88"/><ellipse cx="42" cy="21.375" fill="#88c057" rx="18" ry="6.375"/><path d="m42 27.75c-9.941 0-18-2.854-18-6.375v10.625h.034c.548 3.346 8.381 6 17.966 6s17.418-2.654 17.966-6h.034v-10.625c0 3.521-8.059 6.375-18 6.375z" fill="#61b872"/><path d="m24 21v.375c0-.126.013-.251.034-.375z" fill="#61b872"/><path d="m59.966 21c.021.124.034.249.034.375v-.375z" fill="#61b872"/></svg>