<?xml version="1.0" encoding="UTF-8"?>
<svg width="369px" height="86px" viewBox="0 0 369 86" version="1.1" xmlns="http://www.w3.org/2000/svg" xmlns:xlink="http://www.w3.org/1999/xlink">
    <!-- Generator: Sketch 44.1 (41455) - http://www.bohemiancoding.com/sketch -->
    <title>graph-1</title>
    <desc>Created with Sketch.</desc>
    <defs>
        <linearGradient x1="50%" y1="66.016627%" x2="50%" y2="100%" id="linearGradient-1">
            <stop stop-color="#82E2E2" stop-opacity="0.5" offset="0%"></stop>
            <stop stop-color="#8DE4E4" stop-opacity="0.5" offset="0%"></stop>
            <stop stop-color="#FFFFFF" offset="100%"></stop>
        </linearGradient>
    </defs>
    <g id="referral" stroke="none" stroke-width="1" fill="none" fill-rule="evenodd">
        <g id="v2" transform="translate(-391.000000, -982.000000)">
            <g id="user-analytic" transform="translate(345.000000, 777.000000)">
                <g id="graph-1" transform="translate(47.000000, 207.000000)">
                    <path d="M0.913583026,80.3295265 L24.689449,10.8308414 L24.689449,10.8308414 C25.0469845,9.7857375 26.1840485,9.22835323 27.2291523,9.58588876 C27.6448573,9.72810361 28.0021655,10.0032482 28.2458776,10.3688163 L53.9581276,48.9371915 L53.9581276,48.9371915 C54.5438157,49.8157236 55.7115402,50.0876301 56.6250758,49.5581947 L97.488718,25.8758566 L97.488718,25.8758566 C98.3543995,25.3741548 99.457633,25.5893759 100.07127,26.3796661 L130.417352,65.4617418 L130.417352,65.4617418 C131.094782,66.3341885 132.351204,66.4922815 133.223651,65.8148522 C133.356598,65.7116232 133.475981,65.5920243 133.57897,65.4588919 L171.195285,16.8329242 L171.195285,16.8329242 C171.87114,15.9592576 173.127276,15.7988999 174.000943,16.4747552 C174.201428,16.6298475 174.370604,16.8216362 174.499464,17.0399091 L196.617686,54.505468 L196.617686,54.505468 C197.123886,55.3629091 198.183725,55.7173936 199.10393,55.3370423 L234.164819,40.845208 L234.164819,40.845208 C234.695763,40.6257512 235.295441,40.6452168 235.811035,40.8986443 L262.823104,54.1757628 L262.823104,54.1757628 C263.767096,54.6397591 264.909173,54.2932473 265.436194,53.3829379 L295.590117,1.29888917 L295.590117,1.29888917 C296.143546,0.342965693 297.367118,0.0166797593 298.323042,0.570109142 C298.674434,0.773546739 298.955583,1.0791187 299.129114,1.44620248 L322.626178,51.1515301 L322.626178,51.1515301 C323.098248,52.1501407 324.290471,52.5769859 325.289082,52.1049154 C325.302375,52.0986313 325.315598,52.0922009 325.32875,52.0856252 L337.037976,46.2310121 L337.037976,46.2310121 C337.88867,45.8056651 338.921239,46.0382502 339.507413,46.78725 L365.5,80" id="Line" stroke="#44BFC1" stroke-width="3" stroke-linecap="square"></path>
                    <path d="M0.908301384,81.3449652 L24.689449,11.8308414 L24.689449,11.8308414 C25.0469845,10.7857375 26.1840485,10.2283532 27.2291523,10.5858888 C27.6448573,10.7281036 28.0021655,11.0032482 28.2458776,11.3688163 L53.9581276,49.9371915 L53.9581276,49.9371915 C54.5438157,50.8157236 55.7115402,51.0876301 56.6250758,50.5581947 L97.488718,26.8758566 L97.488718,26.8758566 C98.3543995,26.3741548 99.457633,26.5893759 100.07127,27.3796661 L130.417352,66.4617418 L130.417352,66.4617418 C131.094782,67.3341885 132.351204,67.4922815 133.223651,66.8148522 C133.356598,66.7116232 133.475981,66.5920243 133.57897,66.4588919 L171.195285,17.8329242 L171.195285,17.8329242 C171.87114,16.9592576 173.127276,16.7988999 174.000943,17.4747552 C174.201428,17.6298475 174.370604,17.8216362 174.499464,18.0399091 L196.617686,55.505468 L196.617686,55.505468 C197.123886,56.3629091 198.183725,56.7173936 199.10393,56.3370423 L234.164819,41.845208 L234.164819,41.845208 C234.695763,41.6257512 235.295441,41.6452168 235.811035,41.8986443 L262.823104,55.1757628 L262.823104,55.1757628 C263.767096,55.6397591 264.909173,55.2932473 265.436194,54.3829379 L295.590117,2.29888917 L295.590117,2.29888917 C296.143546,1.34296569 297.367118,1.01667976 298.323042,1.57010914 C298.674434,1.77354674 298.955583,2.0791187 299.129114,2.44620248 L322.428191,51.732711 L322.428191,51.732711 C322.900261,52.7313217 324.092484,53.1581668 325.091094,52.6860963 C325.226472,52.6220998 325.354234,52.5431021 325.471978,52.4505885 L335.851816,44.2950016 L335.851816,44.2950016 C336.720359,43.6125748 337.977669,43.763452 338.660096,44.6319952 C338.679415,44.6565836 338.698155,44.6816216 338.716301,44.7070887 L363.755643,79.8500255 L363.755643,79.8500255 C364.396597,80.7496098 364.186936,81.9984627 363.287351,82.6394166 C362.950041,82.8797502 362.546437,83.009436 362.132266,83.0105676" id="Line-Copy" fill="url(#linearGradient-1)"></path>
                </g>
            </g>
        </g>
    </g>
</svg>