<?xml version="1.0" encoding="UTF-8"?>
<svg width="349px" height="85px" viewBox="0 0 349 85" version="1.1" xmlns="http://www.w3.org/2000/svg" xmlns:xlink="http://www.w3.org/1999/xlink">
    <!-- Generator: Sketch 46.2 (44496) - http://www.bohemiancoding.com/sketch -->
    <title>graph-2</title>
    <desc>Created with Sketch.</desc>
    <defs>
        <linearGradient x1="50%" y1="66.016627%" x2="50%" y2="100%" id="linearGradient-1">
            <stop stop-color="#82E1E1" stop-opacity="0.5" offset="0%"></stop>
            <stop stop-color="#8DE4E4" stop-opacity="0.5" offset="0%"></stop>
            <stop stop-color="#FFFFFF" offset="100%"></stop>
        </linearGradient>
    </defs>
    <g id="referral" stroke="none" stroke-width="1" fill="none" fill-rule="evenodd">
        <g id="v2" transform="translate(-900.000000, -979.000000)">
            <g id="credit-analytic" transform="translate(837.000000, 777.000000)">
                <g id="graph-2" transform="translate(53.000000, 204.000000)">
                    <path d="M12,78.25 L22.8217731,75.1916728 L22.8217731,75.1916728 C23.2606964,75.0676293 23.6440351,74.7972839 23.9082199,74.4254683 L49.3992372,38.5492217 L49.3992372,38.5492217 C50.016048,37.6811176 51.2049148,37.4485821 52.103349,38.020313 L76.6996474,53.6725029 L76.6996474,53.6725029 C77.4659679,54.1601614 78.46468,54.070171 79.1314824,53.4533788 L136.000461,0.849573382 L136.000461,0.849573382 C136.811325,0.0995243201 138.076695,0.148824447 138.826744,0.959688298 C138.964666,1.10879355 139.079071,1.27803853 139.166021,1.46159957 L159.536753,44.4664794 L159.536753,44.4664794 C160.009605,45.4647207 161.202161,45.8906335 162.200402,45.4177824 C162.271254,45.3842206 162.340072,45.3465217 162.406499,45.3048809 L192.940451,26.1641948 L192.940451,26.1641948 C193.588676,25.7578449 194.411918,25.756895 195.061079,26.161748 L239.497768,53.874952 L239.497768,53.874952 C240.116036,54.2605389 240.895084,54.2793686 241.531259,53.9241019 L277.481164,33.8481813 L277.481164,33.8481813 C278.352048,33.3618436 279.448147,33.5915547 280.050482,34.3866368 L303.005698,64.6875217 L303.005698,64.6875217 C303.583285,65.4499358 304.619849,65.6966696 305.478988,65.2762398 L326.379007,55.0485711 L326.379007,55.0485711 C327.065031,54.712857 327.88236,54.7971645 328.485411,55.2658467 L355.346152,76.1416177 L355.346152,76.1416177 C356.218297,76.8194357 356.37583,78.0759288 355.698012,78.9480736 C355.321288,79.4328018 354.742816,79.7176614 354.128916,79.7207502" id="Line" stroke="#44BFC1" stroke-width="3" stroke-linecap="square"></path>
                    <path d="M12,79.25 L22.8217731,76.1916728 L22.8217731,76.1916728 C23.2606964,76.0676293 23.6440351,75.7972839 23.9082199,75.4254683 L49.3992372,39.5492217 L49.3992372,39.5492217 C50.016048,38.6811176 51.2049148,38.4485821 52.103349,39.020313 L76.6996474,54.6725029 L76.6996474,54.6725029 C77.4659679,55.1601614 78.46468,55.070171 79.1314824,54.4533788 L136.000461,1.84957338 L136.000461,1.84957338 C136.811325,1.09952432 138.076695,1.14882445 138.826744,1.9596883 C138.964666,2.10879355 139.079071,2.27803853 139.166021,2.46159957 L159.536753,45.4664794 L159.536753,45.4664794 C160.009605,46.4647207 161.202161,46.8906335 162.200402,46.4177824 C162.271254,46.3842206 162.340072,46.3465217 162.406499,46.3048809 L192.940451,27.1641948 L192.940451,27.1641948 C193.588676,26.7578449 194.411918,26.756895 195.061079,27.161748 L239.497768,54.874952 L239.497768,54.874952 C240.116036,55.2605389 240.895084,55.2793686 241.531259,54.9241019 L277.481164,34.8481813 L277.481164,34.8481813 C278.352048,34.3618436 279.448147,34.5915547 280.050482,35.3866368 L303.005698,65.6875217 L303.005698,65.6875217 C303.583285,66.4499358 304.619849,66.6966696 305.478988,66.2762398 L326.374794,56.0506327 L326.374794,56.0506327 C327.063004,55.7138491 327.883133,55.7998433 328.486516,56.2720562 L357.431932,78.92499 L357.431932,78.92499 C358.301786,79.6057453 358.45508,80.8627625 357.774325,81.7326165 C357.395251,82.2169888 356.814387,82.5 356.199315,82.5" id="Line-Copy-2" fill="url(#linearGradient-1)"></path>
                </g>
            </g>
        </g>
    </g>
</svg>