<svg xmlns="http://www.w3.org/2000/svg" width="150" height="150" viewBox="0 0 150 150">
  <g fill="none" fill-rule="evenodd">
    <rect width="150" height="150" fill="#22313F" fill-rule="nonzero" rx="5"/>
    <g fill="#FFF" fill-rule="nonzero" transform="translate(20 50)">
      <path d="M93.976378 17.3228346L93.976378 17.3228346C92.7093931 17.4066548 91.7405223 18.6639573 91.8150508 20.0889002 91.8895794 21.4300229 92.8584501 22.519685 93.976378 22.519685L93.976378 22.519685C95.2433628 22.4358649 96.2122336 21.1785624 96.1377051 19.7536195 96.0631765 18.4124968 95.1688343 17.3228346 93.976378 17.3228346zM98.7401575 9.52727768C98.7401575 10.9498951 97.6190293 12.1214623 96.2576595 12.1214623L87.5288762 12.1214623C86.1675063 12.2051457 84.9662976 11.1172618 84.886217 9.69464444 84.8061364 8.27202704 85.847184 7.0167764 87.2085538 6.93309302 87.2886344 6.93309302 87.368715 6.93309302 87.5288762 6.93309302L96.2576595 6.93309302C97.6190293 6.84940965 98.7401575 8.10466029 98.7401575 9.52727768zM107.511088 17.32736L104.170155 17.32736C102.713851 17.2436128 101.428877 18.3323261 101.343212 19.7560282 101.257547 21.1797302 102.371191 22.4359379 103.827495 22.519685 103.91316 22.519685 103.998825 22.519685 104.170155 22.519685L107.511088 22.519685C108.967392 22.4359379 110.081036 21.1797302 109.995371 19.7560282 109.995371 18.4160733 108.881727 17.32736 107.511088 17.32736z"/>
      <path d="M107.401575,29.4841158 C107.401575,30.8717623 106.263339,32.01453 104.881196,32.01453 L78.0513558,32.01453 C76.6692125,32.0961563 75.6122794,33.3205502 75.6935819,34.7081967 C75.7748845,36.0142169 76.8318176,37.0753583 78.0513558,37.0753583 L96.5070337,37.0753583 C97.8891769,36.993732 99.1087151,38.0548734 99.1900177,39.4425199 C99.2713202,40.8301664 98.2143871,42.0545603 96.8322438,42.1361866 C96.7509413,42.1361866 96.6696388,42.1361866 96.5070337,42.1361866 L85.2059798,42.1361866 C84.9620722,42.5443179 84.636862,42.9524492 84.3116518,43.3605805 C81.953878,46.2174997 78.539171,48.0132775 74.7992539,48.5030351 L12.6841089,48.5030351 C5.77339255,48.5846614 0.0822143455,43.1157017 0,36.1774694 C-0.0803907461,29.3208633 5.28557728,23.6886512 12.0336886,23.4437724 L12.0336886,23.4437724 C12.0336886,14.3832572 19.3509177,7.03689356 28.2941977,7.03689356 C30.8145767,7.03689356 33.3349556,7.6082774 35.6114269,8.75104508 C43.0912611,-1.04410646 57.1566015,-2.92151051 66.912907,4.66973194 C67.6446299,5.24111578 68.2950503,5.81249962 68.9454706,6.46550972 L76.9131201,6.46550972 C78.2952634,6.38388346 79.5148016,7.44502487 79.5961041,8.83267134 C79.6774067,10.2203178 78.6204736,11.4447118 77.2383303,11.526338 C77.1570278,11.526338 77.0757252,11.526338 76.9131201,11.526338 L68.8641681,11.526338 C67.4820248,11.4447118 66.2624866,12.5058532 66.1811841,13.8934996 C66.0998815,15.2811461 67.1568146,16.5055401 68.5389579,16.5871663 C68.6202605,16.5871663 68.701563,16.5871663 68.8641681,16.5871663 L83.4986263,16.5871663 C84.8807696,16.5055401 86.1003078,17.5666815 86.1816103,18.9543279 C86.2629129,20.3419744 85.2059798,21.5663683 83.8238365,21.6479946 C83.742534,21.6479946 83.6612314,21.6479946 83.4986263,21.6479946 L71.4658496,21.6479946 C70.0837063,21.7296209 69.0267732,22.9540148 69.1080757,24.3416613 C69.1893783,25.6476815 70.2463114,26.7088229 71.4658496,26.7088229 L104.799893,26.7088229 C106.182037,26.8720754 107.320272,28.0148431 107.401575,29.4841158 C107.401575,29.4841158 107.401575,29.4841158 107.401575,29.4841158 Z"/>
    </g>
  </g>
</svg>
