<?xml version="1.0" encoding="UTF-8"?>
<svg width="192px" height="230px" viewBox="0 0 192 230" version="1.1" xmlns="http://www.w3.org/2000/svg" xmlns:xlink="http://www.w3.org/1999/xlink">
    <!-- Generator: Sketch 50 (54983) - http://www.bohemiancoding.com/sketch -->
    <title>linode-logo</title>
    <desc>Created with Sketch.</desc>
    <defs>
        <polygon id="path-1" points="0 0.221191489 191.632588 0.221191489 191.632588 229.941277 0 229.941277"></polygon>
    </defs>
    <g id="3rd-party-api" stroke="none" stroke-width="1" fill="none" fill-rule="evenodd">
        <g id="linode-logo">
            <path d="M47.8722979,103.518596 L39.1538298,43.9965532 L3.36778723,21.7452766 L14.9901277,77.8917021 L47.8722979,103.518596 Z M57.8288511,171.585872 L51.686383,129.61234 L20.2918723,103.455957 L28.7206383,144.164 L57.8288511,171.585872 Z M33.4468936,166.962383 L39.6608085,196.983745 L65.578383,224.493702 L61.1418298,194.201234 L33.4468936,166.962383 Z M117.377319,153.947319 L104.133234,143.839064 L104.234043,146.208553 C104.256553,146.685191 104.027532,147.139319 103.628213,147.408468 L93.6403404,154.13817 L104.502213,163.004426 C104.510043,163.010298 104.515915,163.019106 104.523745,163.025957 C104.552128,163.050426 104.574638,163.079787 104.601064,163.106213 C104.655872,163.161021 104.708723,163.217787 104.752766,163.281404 C104.777234,163.316638 104.796809,163.352851 104.81834,163.391021 C104.854553,163.45366 104.886851,163.517277 104.912298,163.584809 C104.927957,163.625915 104.940681,163.667021 104.952426,163.710085 C104.972,163.781532 104.984723,163.853957 104.992553,163.929319 C104.995489,163.956723 105.005277,163.983149 105.007234,164.011532 L105.450596,174.388936 L117.634723,184.644979 L117.377319,153.947319 Z M162.781277,121.463489 L160.190596,151.400681 L151.612085,145.431447 L152.539915,130.163362 C152.540894,130.146723 152.536,130.130085 152.536,130.113447 C152.536,130.093872 152.542851,130.074298 152.541872,130.054723 C152.540894,129.994043 152.525234,129.935319 152.516426,129.876596 C152.509574,129.833532 152.508596,129.790468 152.49783,129.749362 C152.471404,129.642681 152.432255,129.539915 152.381362,129.443021 C152.377447,129.434213 152.375489,129.425404 152.370596,129.416596 C152.312851,129.310894 152.237489,129.214 152.153319,129.125915 C152.135702,129.108298 152.115149,129.094596 152.096553,129.077957 C152.041745,129.026085 151.987915,128.972255 151.923319,128.929191 L133.467532,116.74017 L133.735702,103.364936 L162.781277,121.463489 Z" id="Fill-7" fill="#073D1A"></path>
            <g id="Group-11">
                <mask id="mask-2" fill="white">
                    <use xlink:href="#path-1"></use>
                </mask>
                <g id="Clip-9"></g>
                <path d="M98.6406383,79.7121277 L96.2231915,23.1996596 L41.9471064,44.0562553 L50.8162979,104.599106 L98.6406383,79.7121277 Z M101.449574,145.554766 L99.6741702,103.893447 L54.4718298,129.622128 L60.8100426,172.932596 L101.449574,145.554766 Z M102.363702,166.670723 L63.9214043,194.174809 L68.5918723,226.049872 L103.705532,198.076 L102.363702,166.670723 Z M120.134383,153.967872 L120.390809,184.782979 L147.788213,162.931021 L149.614511,132.880298 L120.134383,153.967872 Z M188.465915,105.086511 L184.61366,133.593787 L163.006383,150.817362 L165.543234,121.492851 L188.465915,105.086511 Z" id="Fill-8" fill="#00A756" mask="url(#mask-2)"></path>
                <path d="M105.007234,164.011532 C105.005277,163.983149 104.995489,163.956723 104.992553,163.929319 C104.984723,163.853957 104.972,163.781532 104.952426,163.710085 C104.940681,163.667021 104.927957,163.625915 104.912298,163.584809 C104.886851,163.517277 104.854553,163.45366 104.81834,163.391021 C104.796809,163.352851 104.777234,163.316638 104.752766,163.281404 C104.708723,163.217787 104.655872,163.161021 104.601064,163.106213 C104.574638,163.079787 104.552128,163.050426 104.523745,163.025957 C104.515915,163.019106 104.510043,163.010298 104.502213,163.004426 L93.6403404,154.13817 L103.628213,147.408468 C104.027532,147.139319 104.256553,146.685191 104.234043,146.208553 L104.133234,143.839064 L117.377319,153.947319 L117.634723,184.644979 L105.450596,174.388936 L105.007234,164.011532 Z M51.686383,129.61234 L57.8288511,171.585872 L28.7206383,144.164 L20.2918723,103.455957 L51.686383,129.61234 Z M101.449574,145.554766 L60.8100426,172.932596 L54.4718298,129.622128 L99.6741702,103.893447 L101.449574,145.554766 Z M96.2231915,23.1996596 L98.6406383,79.7121277 L50.8162979,104.599106 L41.9471064,44.0562553 L96.2231915,23.1996596 Z M39.1538298,43.9965532 L47.8722979,103.518596 L14.9901277,77.8917021 L3.36778723,21.7452766 L39.1538298,43.9965532 Z M39.6608085,196.983745 L33.4468936,166.962383 L61.1418298,194.201234 L65.578383,224.493702 L39.6608085,196.983745 Z M103.705532,198.076 L68.5918723,226.049872 L63.9214043,194.174809 L102.363702,166.670723 L103.705532,198.076 Z M147.788213,162.931021 L120.390809,184.782979 L120.134383,153.967872 L149.614511,132.880298 L147.788213,162.931021 Z M151.612085,145.431447 L152.539915,130.163362 C152.540894,130.146723 152.536,130.130085 152.536,130.113447 C152.536,130.093872 152.542851,130.074298 152.541872,130.054723 C152.540894,129.994043 152.525234,129.935319 152.516426,129.876596 C152.509574,129.833532 152.508596,129.790468 152.49783,129.749362 C152.471404,129.642681 152.432255,129.539915 152.381362,129.443021 C152.377447,129.434213 152.375489,129.425404 152.370596,129.416596 C152.312851,129.310894 152.237489,129.214 152.153319,129.125915 C152.135702,129.108298 152.115149,129.094596 152.096553,129.077957 C152.041745,129.026085 151.987915,128.972255 151.923319,128.929191 L133.467532,116.74017 L133.735702,103.364936 L162.781277,121.463489 L160.190596,151.400681 L151.612085,145.431447 Z M163.006383,150.817362 L165.543234,121.492851 L188.465915,105.086511 L184.61366,133.593787 L163.006383,150.817362 Z M191.632085,102.028979 C191.631106,102.002553 191.621319,101.979064 191.618383,101.952638 C191.612511,101.902723 191.601745,101.855745 191.590979,101.806809 C191.573362,101.730468 191.550851,101.658043 191.521489,101.585617 C191.503872,101.542553 191.485277,101.501447 191.462766,101.46034 C191.424596,101.388894 191.378596,101.323319 191.327702,101.258723 C191.300298,101.224468 191.27583,101.190213 191.245489,101.158894 C191.181872,101.093319 191.110426,101.037532 191.034085,100.984681 C191.009617,100.968043 190.992979,100.944553 190.967532,100.929872 C190.96166,100.925957 190.954809,100.925957 190.947957,100.922043 C190.940128,100.917149 190.934255,100.909319 190.925447,100.905404 L159.552468,83.5213191 C159.120851,83.2834894 158.590383,83.2922979 158.167574,83.553617 L131.688213,99.7407234 C131.645149,99.7671489 131.611872,99.8033617 131.572723,99.8337021 C131.525745,99.8699149 131.476809,99.9022128 131.435702,99.9433191 C131.390681,99.9883404 131.356426,100.039234 131.318255,100.089149 C131.284979,100.133191 131.248766,100.173319 131.220383,100.220298 C131.187106,100.278043 131.164596,100.34166 131.140128,100.403319 C131.120553,100.450298 131.096085,100.49434 131.082383,100.543277 C131.063787,100.610809 131.058894,100.681277 131.050085,100.751745 C131.045191,100.797745 131.030511,100.840809 131.029532,100.886809 L130.74766,114.944213 L119.97583,107.829872 C119.529532,107.533319 118.955021,107.523532 118.496979,107.802468 L103.000851,117.276511 L102.328468,101.522 C102.326511,101.488723 102.315745,101.458383 102.31183,101.426085 C102.303021,101.356596 102.294213,101.288085 102.275617,101.221532 C102.262894,101.171617 102.243319,101.125617 102.223745,101.07766 C102.200255,101.018936 102.176766,100.961191 102.146426,100.906383 C102.118043,100.858426 102.085745,100.814383 102.052468,100.769362 C102.017234,100.722383 101.982979,100.675404 101.941872,100.63234 C101.900766,100.590255 101.854766,100.553064 101.807787,100.515872 C101.777447,100.491404 101.752979,100.461064 101.720681,100.439532 L85.5932766,89.6070213 L100.689106,81.7508085 C101.162809,81.5031915 101.449574,81.0040426 101.428043,80.4696596 L98.8931489,21.1668511 C98.889234,21.0944255 98.8725957,21.0249362 98.8579149,20.9544681 C98.8520426,20.9251064 98.8520426,20.894766 98.843234,20.8654043 C98.8119149,20.7469787 98.7639574,20.6334468 98.7022979,20.5287234 C98.6915319,20.5091489 98.6758723,20.4934894 98.6641277,20.4758723 C98.6093191,20.3917021 98.5466809,20.3134043 98.4742553,20.2429362 C98.4478298,20.2174894 98.4194468,20.1959574 98.3910638,20.1724681 C98.3519149,20.1391915 98.3176596,20.102 98.273617,20.073617 C98.2403404,20.0511064 98.2021702,20.0393617 98.1659574,20.0197872 C98.1483404,20.01 98.1346383,19.9953191 98.1160426,19.9855319 L57.4412766,0.359191489 C57.1251489,0.206510638 56.7669362,0.179106383 56.4331915,0.283829787 L0.957191489,17.5641702 C0.953276596,17.5651489 0.950340426,17.5680851 0.945446809,17.5700426 C0.923914894,17.5768936 0.904340426,17.5915745 0.881829787,17.600383 C0.778085106,17.6395319 0.678255319,17.6845532 0.589191489,17.7462128 C0.586255319,17.7481702 0.583319149,17.7481702 0.581361702,17.7501277 C0.550042553,17.7716596 0.529489362,17.802 0.50012766,17.8264681 C0.429659574,17.8842128 0.359191489,17.9419574 0.302425532,18.0134043 C0.260340426,18.0642979 0.23293617,18.1220426 0.199659574,18.1778298 C0.166382979,18.233617 0.128212766,18.2854894 0.102765957,18.3451915 C0.0724255319,18.417617 0.0587234043,18.4939574 0.041106383,18.5702979 C0.0303404255,18.6162979 0.00880851064,18.658383 0.00293617021,18.7053617 C0.00195744681,18.7122128 0.00391489362,18.7190638 0.00293617021,18.7249362 C-0.00489361702,18.7944255 0.00391489362,18.8648936 0.00685106383,18.9363404 C0.00880851064,18.9999574 0.00587234043,19.0645532 0.0176170213,19.1271915 C0.0185957447,19.1379574 0.0166382979,19.1477447 0.0185957447,19.1585106 L12.3974894,78.9448085 C12.4650213,79.2638723 12.639234,79.5496596 12.8995745,79.7512766 L29.6993617,92.845617 L17.5534043,98.6288936 C17.5318723,98.6396596 17.5142553,98.6562979 17.4937021,98.6670638 C17.4751064,98.6778298 17.4545532,98.6797872 17.4369362,98.6905532 C17.4105106,98.7062128 17.3919149,98.7306809 17.3674468,98.7482979 C17.2969787,98.797234 17.2333617,98.8500851 17.1746383,98.9097872 C17.140383,98.9440426 17.1071064,98.9763404 17.0777447,99.0145106 C17.0190213,99.0869362 16.9710638,99.1662128 16.928,99.2494043 C16.9123404,99.2807234 16.8917872,99.3081277 16.8780851,99.3394468 C16.8301277,99.4539574 16.7948936,99.5743404 16.7782553,99.7005957 C16.7782553,99.7054894 16.779234,99.710383 16.7782553,99.7152766 C16.7762979,99.7348511 16.7802128,99.7544255 16.7782553,99.774 C16.7704255,99.8865532 16.7762979,99.9981277 16.7948936,100.107745 C16.7978298,100.122426 16.7939149,100.137106 16.7968511,100.151787 L26.1094043,145.147617 C26.1671489,145.425574 26.3080851,145.677106 26.513617,145.870894 L38.208383,156.885447 L30.4588511,161.625404 C30.3580426,161.686085 30.2699574,161.761447 30.1897021,161.844638 C30.1681702,161.86617 30.1515319,161.891617 30.1329362,161.914128 C30.0654043,161.993404 30.0086383,162.078553 29.9606809,162.170553 C29.9450213,162.200894 29.9293617,162.230255 29.9156596,162.261574 C29.864766,162.381957 29.8236596,162.506255 29.808,162.64034 C29.7933191,162.772468 29.8040851,162.903617 29.8265957,163.032809 C29.8295319,163.046511 29.825617,163.061191 29.8285532,163.075872 L37.0437021,197.924298 C37.0955745,198.171915 37.214,198.401915 37.3891915,198.587872 L66.5708085,229.567404 C66.6148511,229.613404 66.664766,229.650596 66.7146809,229.689745 C66.7322979,229.704426 66.7469787,229.720085 66.7655745,229.733787 C66.8565957,229.80034 66.9544681,229.85417 67.0562553,229.896255 C67.0611489,229.898213 67.0650638,229.901149 67.0699574,229.903106 C67.0777872,229.907021 67.0875745,229.905064 67.096383,229.908979 C67.2500426,229.965745 67.4115319,230 67.5749787,230 C67.7110213,230 67.8460851,229.972596 67.9782128,229.931489 C68.0095319,229.921702 68.0379149,229.911915 68.0682553,229.90017 C68.1034894,229.886468 68.1397021,229.879617 68.1739574,229.862 C68.2297447,229.835574 68.2718298,229.791532 68.3227234,229.758255 C68.3579574,229.734766 68.3990638,229.724 68.4323404,229.696596 L105.969319,199.792681 C106.31383,199.516681 106.50566,199.094851 106.488043,198.657362 L105.610128,178.123745 L118.150511,188.678298 C118.173021,188.697872 118.201404,188.703745 118.224894,188.721362 C118.295362,188.774213 118.363872,188.829021 118.445106,188.86817 C118.471532,188.879915 118.499915,188.884809 118.52634,188.895574 C118.560596,188.909277 118.592894,188.920043 118.628128,188.930809 C118.762213,188.972894 118.899234,189.002255 119.037234,189.002255 C119.172298,189.002255 119.305404,188.974851 119.437532,188.934723 C119.468851,188.924936 119.498213,188.915149 119.528553,188.903404 C119.560851,188.890681 119.593149,188.884809 119.623489,188.871106 C119.692979,188.83783 119.748766,188.789872 119.810426,188.746809 C119.83783,188.728213 119.869149,188.721362 119.894596,188.700809 L149.984468,164.704468 C150.290809,164.45783 150.476766,164.098638 150.500255,163.708128 L151.41634,148.650468 L160.571319,155.022936 C160.589915,155.03566 160.612426,155.039574 160.631021,155.051319 C160.657447,155.068936 160.678,155.092426 160.705404,155.107106 C160.759234,155.135489 160.816979,155.15017 160.872766,155.170723 C160.910936,155.185404 160.947149,155.203021 160.986298,155.213787 C161.10766,155.248043 161.230979,155.268596 161.355277,155.268596 C161.491319,155.268596 161.626383,155.24217 161.757532,155.202043 C161.788851,155.192255 161.818213,155.183447 161.847574,155.171702 C161.878894,155.159957 161.911191,155.154085 161.941532,155.140383 C162.015915,155.10417 162.080511,155.054255 162.147064,155.007277 C162.168596,154.992596 162.194043,154.986723 162.214596,154.970085 L186.761957,135.407362 C187.039915,135.185191 187.22,134.863191 187.267957,134.51183 L191.622298,102.293234 C191.627191,102.258979 191.619362,102.225702 191.621319,102.191447 C191.624255,102.136638 191.635021,102.083787 191.632085,102.028979 Z" id="Fill-10" fill="#1A1919" mask="url(#mask-2)"></path>
            </g>
        </g>
    </g>
</svg>