<?xml version="1.0" encoding="UTF-8"?>
<svg width="136px" height="61px" viewBox="0 0 136 61" version="1.1" xmlns="http://www.w3.org/2000/svg" xmlns:xlink="http://www.w3.org/1999/xlink">
    <!-- Generator: Sketch 48.2 (47327) - http://www.bohemiancoding.com/sketch -->
    <title>Group 3</title>
    <desc>Created with Sketch.</desc>
    <defs></defs>
    <g id="email" stroke="none" stroke-width="1" fill="none" fill-rule="evenodd">
        <g id="Group-3" fill="#FFFFFF" fill-rule="nonzero">
            <path d="M115.8,21.2 C114.1,21.3 112.8,22.8 112.9,24.5 C113,26.1 114.3,27.4 115.8,27.4 C117.5,27.3 118.8,25.8 118.7,24.1 C118.6,22.5 117.4,21.2 115.8,21.2 Z" id="Shape"></path>
            <path d="M121.8,11.8 C121.8,13.5 120.4,14.9 118.7,14.9 L107.8,14.9 C106.1,15 104.6,13.7 104.5,12 C104.4,10.3 105.7,8.8 107.4,8.7 C107.5,8.7 107.6,8.7 107.8,8.7 L118.7,8.7 C120.4,8.6 121.8,10.1 121.8,11.8 Z" id="Shape"></path>
            <path d="M132.4,21.2 L128.5,21.2 C126.8,21.1 125.3,22.4 125.2,24.1 C125.1,25.8 126.4,27.3 128.1,27.4 C128.2,27.4 128.3,27.4 128.5,27.4 L132.4,27.4 C134.1,27.3 135.4,25.8 135.3,24.1 C135.3,22.5 134,21.2 132.4,21.2 Z" id="Shape"></path>
            <path d="M132.8,36.8 C132.8,38.5 131.4,39.9 129.7,39.9 L96.7,39.9 C95,40 93.7,41.5 93.8,43.2 C93.9,44.8 95.2,46.1 96.7,46.1 L119.4,46.1 C121.1,46 122.6,47.3 122.7,49 C122.8,50.7 121.5,52.2 119.8,52.3 C119.7,52.3 119.6,52.3 119.4,52.3 L105.5,52.3 C105.2,52.8 104.8,53.3 104.4,53.8 C101.5,57.3 97.3,59.5 92.7,60.1 L16.3,60.1 C7.8,60.2 0.8,53.5 0.7,45 C0.6,36.6 7.2,29.7 15.5,29.4 C15.5,18.3 24.5,9.3 35.5,9.3 C38.6,9.3 41.7,10 44.5,11.4 C53.7,-0.6 71,-2.9 83,6.4 C83.9,7.1 84.7,7.8 85.5,8.6 L95.3,8.6 C97,8.5 98.5,9.8 98.6,11.5 C98.7,13.2 97.4,14.7 95.7,14.8 C95.6,14.8 95.5,14.8 95.3,14.8 L85.4,14.8 C83.7,14.7 82.2,16 82.1,17.7 C82,19.4 83.3,20.9 85,21 C85.1,21 85.2,21 85.4,21 L103.4,21 C105.1,20.9 106.6,22.2 106.7,23.9 C106.8,25.6 105.5,27.1 103.8,27.2 C103.7,27.2 103.6,27.2 103.4,27.2 L88.6,27.2 C86.9,27.3 85.6,28.8 85.7,30.5 C85.8,32.1 87.1,33.4 88.6,33.4 L129.6,33.4 C131.3,33.6 132.7,35 132.8,36.8 C132.8,36.8 132.8,36.8 132.8,36.8 Z" id="Shape"></path>
        </g>
    </g>
</svg>