<?xml version="1.0" encoding="iso-8859-1"?>
<!-- Generator: Adobe Illustrator 19.0.0, SVG Export Plug-In . SVG Version: 6.00 Build 0)  -->
<svg version="1.1" id="Layer_1" xmlns="http://www.w3.org/2000/svg" xmlns:xlink="http://www.w3.org/1999/xlink" x="0px" y="0px"
	 viewBox="0 0 512.001 512.001" style="enable-background:new 0 0 512.001 512.001;" xml:space="preserve">
<path style="fill:#B06328;" d="M504,154.241L280,30c-14.637-8.087-32.403-8.087-47.04,0L8,154.241c-4.921,2.841-7.966,8.078-8,13.76
	l0,0c0.437,5.248,3.429,9.945,8,12.56l224,126.16c14.606,8.21,32.435,8.21,47.04,0l224.96-126.16c4.571-2.615,7.563-7.312,8-12.56
	l0,0C511.966,162.319,508.921,157.081,504,154.241z"/>
<path style="fill:#A35425;" d="M462.641,162.801l5.36-28.48l-28-15.36V200l-171.2,74.4c-8.139,3.539-17.381,3.539-25.52,0L0,168.64
	c0.634,5.014,3.601,9.433,8,11.92l224,126.16c14.606,8.21,32.435,8.21,47.04,0L439.999,216l0,0l13.84-8l0,0l50.16-27.44
	c4.399-2.486,7.366-6.906,8-11.92l-27.2,11.76c-8.091,3.554-17.53-0.124-21.083-8.215
	C462.422,169.237,462.046,165.966,462.641,162.801z"/>
<path style="fill:#FFCB5B;" d="M512,168.001c-0.437,5.248-3.429,9.945-8,12.56L280,306.721c-14.606,8.21-32.435,8.21-47.04,0
	L8,180.56c-4.571-2.615-7.563-7.312-8-12.56l0,0v321.36c0,12.503,10.136,22.64,22.64,22.64l0,0h466.721
	c12.503,0,22.64-10.136,22.64-22.64l0,0L512,168.001L512,168.001z"/>
<g>
	<path style="fill:#F7B84E;" d="M0,167.2v0.8c0,0,0-0.48,0-0.72l0,0V167.2z"/>
	<path style="fill:#F7B84E;" d="M512,168.001c-0.437,5.248-3.429,9.945-8,12.56L280,306.721c-14.606,8.21-32.435,8.21-47.04,0
		L8,180.56c-1.167-0.657-2.242-1.465-3.2-2.4c-0.537-0.68-1.019-1.402-1.44-2.16l-0.8-1.04c-0.553-0.938-1.009-1.929-1.36-2.96
		v-0.48c-0.498-0.944-0.899-1.936-1.2-2.96v-0.56l0,0v16c-0.011,5.528,2.832,10.67,7.52,13.6l223.04,139.36l2.56,1.6
		c14.283,8.772,22.956,24.359,22.88,41.12v51.76c0,26.819-21.741,48.56-48.56,48.56H72c-17.674,0-32,14.327-32,32h449.36
		c12.503,0,22.64-10.136,22.64-22.64l0,0L512,168.001L512,168.001z"/>
</g>
<path style="fill:#E9E9E9;" d="M360,0.001H96C82.745,0.001,72,10.746,72,24v192.48l160.48,90.32c14.606,8.21,32.435,8.21,47.04,0
	l160.48-90.32V80L360,0.001z"/>
<path style="fill:#DBDAD9;" d="M241.28,295.521L72,208v8.48l160.48,90.32c14.606,8.21,32.435,8.21,47.04,0l160.48-90.32V208
	l-169.28,87.521C261.489,300.303,250.511,300.303,241.28,295.521z"/>
<path style="fill:#595A66;" d="M200,64h112c4.418,0,8,3.582,8,8l0,0c0,4.418-3.582,8-8,8H200c-4.418,0-8-3.582-8-8l0,0
	C192,67.582,195.582,64,200,64z"/>
<g>
	<path style="fill:#6F707E;" d="M144,120.001h112c4.418,0,8,3.582,8,8l0,0c0,4.418-3.582,8-8,8H144c-4.418,0-8-3.582-8-8l0,0
		C136,123.582,139.582,120.001,144,120.001z"/>
	<path style="fill:#6F707E;" d="M144,200h168c4.418,0,8,3.582,8,8l0,0c0,4.418-3.582,8-8,8H144c-4.418,0-8-3.582-8-8l0,0
		C136,203.582,139.582,200,144,200z"/>
	<path style="fill:#6F707E;" d="M144,160.001h72c4.418,0,8,3.582,8,8l0,0c0,4.418-3.582,8-8,8h-72c-4.418,0-8-3.582-8-8l0,0
		C136,163.583,139.582,160.001,144,160.001z"/>
	<path style="fill:#6F707E;" d="M328,160.001h56c4.418,0,8,3.582,8,8l0,0c0,4.418-3.582,8-8,8h-56c-4.418,0-8-3.582-8-8l0,0
		C320,163.583,323.582,160.001,328,160.001z"/>
	<path style="fill:#6F707E;" d="M248.001,160.001h48c4.418,0,8,3.582,8,8l0,0c0,4.418-3.582,8-8,8h-48c-4.418,0-8-3.582-8-8l0,0
		C240.001,163.583,243.582,160.001,248.001,160.001z"/>
	<path style="fill:#6F707E;" d="M344,200h40c4.418,0,8,3.582,8,8l0,0c0,4.418-3.582,8-8,8h-40c-4.418,0-8-3.582-8-8l0,0
		C336,203.582,339.582,200,344,200z"/>
	<path style="fill:#6F707E;" d="M288,120.001h96c4.418,0,8,3.582,8,8l0,0c0,4.418-3.582,8-8,8h-96c-4.418,0-8-3.582-8-8l0,0
		C280,123.582,283.581,120.001,288,120.001z"/>
</g>
<path style="fill:#CAD1D8;" d="M384,80.001h56L360,0.001v56C360,69.256,370.745,80.001,384,80.001z"/>
<polygon style="fill:#DDDDDC;" points="440,80.001 384,80.001 440,136.001 "/>
<g>
</g>
<g>
</g>
<g>
</g>
<g>
</g>
<g>
</g>
<g>
</g>
<g>
</g>
<g>
</g>
<g>
</g>
<g>
</g>
<g>
</g>
<g>
</g>
<g>
</g>
<g>
</g>
<g>
</g>
</svg>
