<?xml version="1.0" encoding="UTF-8"?>
<svg width="94px" height="70px" viewBox="0 0 94 70" version="1.1" xmlns="http://www.w3.org/2000/svg" xmlns:xlink="http://www.w3.org/1999/xlink">
    <!-- Generator: Sketch 51.2 (57519) - http://www.bohemiancoding.com/sketch -->
    <title>most-popular</title>
    <desc>Created with Sketch.</desc>
    <defs></defs>
    <g id="subscription" stroke="none" stroke-width="1" fill="none" fill-rule="evenodd">
        <g id="change-plan" transform="translate(-812.000000, -188.000000)" fill="#F5AB35">
            <g id="most-popular" transform="translate(812.000000, 188.000000)">
                <path d="M22.5525,3.58 L22.5525,5.305 C22.4324994,5.41500055 22.3725,5.769997 22.3725,6.37 L22.3725,8.53 C22.3725,8.8300015 22.4324994,9.1599982 22.5525,9.52 C22.5525,10.3000039 22.5824997,10.7549993 22.6425,10.885 C22.6625001,10.9350002 22.6899998,11.059999 22.725,11.26 C22.7600002,11.460001 22.8024997,11.7299983 22.8525,12.07 C22.9425004,12.7300033 23.1124987,13.1999986 23.3625,13.48 C23.3625,13.6200007 23.4224994,13.7399995 23.5425,13.84 C23.6625006,13.9600006 23.7225,14.0799994 23.7225,14.2 L23.7225,14.545 C23.6624997,14.6850007 23.4825015,14.755 23.1825,14.755 C23.0424993,14.7249998 22.8925008,14.6250008 22.7325,14.455 C22.6024993,14.2849992 22.4525008,14.2 22.2825,14.2 C22.2624999,14.0999995 22.1875006,13.9100014 22.0575,13.63 C21.9174993,13.3199984 21.8475,13.0900007 21.8475,12.94 C21.7374994,12.6199984 21.6200006,12.1400032 21.495,11.5 C21.3699994,10.8599968 21.2475006,10.0550048 21.1275,9.085 C21.1575001,8.15499535 21.1725,7.37500315 21.1725,6.745 C21.1725,6.4249984 21.1849999,6.12250143 21.21,5.8375 C21.2350001,5.55249857 21.2674998,5.2800013 21.3075,5.02 L21.0075,5.02 C21.0075,5.3200015 20.9525005,5.47 20.8425,5.47 C20.5524985,6.16000345 20.2900012,6.80999695 20.055,7.42 C19.8199988,8.03000305 19.6075009,8.60999725 19.4175,9.16 C19.2774993,9.27000055 19.2075,9.35999965 19.2075,9.43 C19.2075,9.46000015 19.2224998,9.51999955 19.2525,9.61 C19.2825001,9.70000045 19.2975,9.7549999 19.2975,9.775 C19.2975,9.9150007 19.2375006,9.985 19.1175,9.985 C19.1175,10.585003 18.9425017,11.0599982 18.5925,11.41 C18.5925,11.8300021 18.4975009,12.244998 18.3075,12.655 C18.3075,12.7350004 18.2675004,12.869999 18.1875,13.06 C18.0974995,13.2300009 18.0525,13.3949992 18.0525,13.555 C17.8124988,14.1750031 17.6925,14.6299985 17.6925,14.92 C17.6324997,14.9800003 17.5625004,15.1649984 17.4825,15.475 C17.4224997,15.7650014 17.2525014,15.91 16.9725,15.91 C16.582498,15.91 16.2525013,15.7300018 15.9825,15.37 C15.8724994,15.0999986 15.7525006,14.8550011 15.6225,14.635 C15.5624997,14.5349995 15.4950004,14.4200006 15.42,14.29 C15.3449996,14.1599993 15.2625004,14.0100009 15.1725,13.84 C14.0724945,11.8899903 13.0825044,9.85001065 12.2025,7.72 L12.1125,7.72 C11.9724993,8.6600047 11.8575004,9.57499555 11.7675,10.465 C11.6774995,11.3550045 11.6125002,12.2399956 11.5725,13.12 C11.5624999,13.5400021 11.5874997,13.7799997 11.6475,13.84 C11.5974997,13.9700006 11.5725,14.4199961 11.5725,15.19 L11.5725,15.82 C11.4524994,15.9400006 11.092503,16 10.4925,16 L10.3125,15.82 C10.2524997,15.7299996 10.2225,15.0450064 10.2225,13.765 C10.2425001,13.5349989 10.2624999,13.2550017 10.2825,12.925 C10.3025001,12.5949984 10.3224999,12.2150022 10.3425,11.785 C10.3625001,11.3449978 10.3824999,10.9525017 10.4025,10.6075 C10.4225001,10.2624983 10.4424999,9.95500135 10.4625,9.685 C10.4825001,9.41499865 10.5174997,9.13750142 10.5675,8.8525 C10.6175002,8.56749858 10.6774996,8.2750015 10.7475,7.975 C10.7475,7.8549994 10.7574999,7.72750068 10.7775,7.5925 C10.7975001,7.45749933 10.8224998,7.31500075 10.8525,7.165 C10.8825001,7.0249993 10.9049999,6.8950006 10.92,6.775 C10.9350001,6.6549994 10.9474999,6.55000045 10.9575,6.46 C10.9875001,6.259999 11.0074999,6.060001 11.0175,5.86 C11.0275,5.659999 11.0424999,5.4500011 11.0625,5.23 C11.0925001,4.7899978 11.1424996,4.44500125 11.2125,4.195 L11.2725,4.135 C11.2925001,4.1149999 11.3199998,4.09000015 11.355,4.06 C11.3900002,4.02999985 11.4324997,3.99000025 11.4825,3.94 C11.6325007,3.94 11.7974991,3.97499965 11.9775,4.045 C12.0875005,4.0850002 12.1824996,4.1149999 12.2625,4.135 C12.3425004,4.1550001 12.4124997,4.1749999 12.4725,4.195 C12.4725,4.4750014 12.4874998,4.714999 12.5175,4.915 C12.5475001,5.115001 12.5874997,5.26999945 12.6375,5.38 C13.1475025,6.71000665 13.5649984,7.77749598 13.89,8.5825 C14.2150016,9.38750402 14.4674991,9.9399985 14.6475,10.24 C14.6475,10.6700022 14.7924985,10.9699991 15.0825,11.14 C15.0825,11.3200009 15.1124997,11.4399997 15.1725,11.5 C15.1925001,11.5700004 15.2199998,11.6474996 15.255,11.7325 C15.2900002,11.8175004 15.3474996,11.9049995 15.4275,11.995 C15.5675007,12.195001 15.6375,12.3599994 15.6375,12.49 C15.7275004,12.5800005 15.8524992,12.7749985 16.0125,13.075 C16.0925004,13.2250007 16.1674996,13.3499995 16.2375,13.45 C16.3075003,13.5500005 16.3674997,13.6249998 16.4175,13.675 C16.4975004,13.5549994 16.5874995,13.3250017 16.6875,12.985 C16.7975005,12.6449983 16.8924996,12.4200006 16.9725,12.31 C17.0325003,11.8599977 17.2474981,11.2750036 17.6175,10.555 C17.9875019,9.8549965 18.2174995,9.27000235 18.3075,8.8 C18.3175,8.7799999 18.3324999,8.74250027 18.3525,8.6875 C18.3725001,8.63249973 18.4074997,8.55000055 18.4575,8.44 C18.5275003,8.239999 18.6324993,8.12500015 18.7725,8.095 C18.8725005,7.78499845 19.4124951,6.4000123 20.3925,3.94 L21.3075,3.13 C21.3575003,3.13 21.4124997,3.08500045 21.4725,2.995 C21.5325003,2.90499955 21.5924997,2.86 21.6525,2.86 C22.1525025,3.1000012 22.4224998,3.31499905 22.4625,3.505 L22.5525,3.58 Z M30.2475,9.34 C30.3375004,9.5000008 30.5424984,9.71499865 30.8625,9.985 C31.1625015,10.2550014 31.3424997,10.4299996 31.4025,10.51 C32.002503,11.7600062 32.3025,12.5699981 32.3025,12.94 C32.3025,13.5900032 32.1700013,14.1449977 31.905,14.605 C31.6399987,15.0650023 31.2325027,15.4149988 30.6825,15.655 C30.3924985,15.7850007 30.0925015,15.8749998 29.7825,15.925 C29.4724984,15.9750003 29.1425017,16 28.7925,16 C28.2224971,16 27.6900025,15.9200008 27.195,15.76 C26.6999975,15.5999992 26.2425021,15.3500017 25.8225,15.01 C25.0724962,14.3799968 24.7124998,13.7500031 24.7425,13.12 C24.7625001,12.6599977 24.9549982,12.2350019 25.32,11.845 C25.6850018,11.4549981 26.2124965,11.0950017 26.9025,10.765 C26.9025,10.1949971 27.1724973,9.7500016 27.7125,9.43 C27.7625002,9.4099999 27.8274996,9.3900001 27.9075,9.37 C27.9875004,9.3499999 28.0824994,9.3300001 28.1925,9.31 C28.3025005,9.2899999 28.3999996,9.26500015 28.485,9.235 C28.5700004,9.20499985 28.6424997,9.1800001 28.7025,9.16 C29.0725018,9.16 29.3124994,9.2199994 29.4225,9.34 L30.2475,9.34 Z M29.6025,10.6 C29.4924994,10.6700003 29.337501,10.7624994 29.1375,10.8775 C28.937499,10.9925006 28.6775016,11.1349991 28.3575,11.305 C27.7274968,11.6150016 27.2425017,11.9199985 26.9025,12.22 C26.4324976,12.8600032 26.1975,13.3449984 26.1975,13.675 C26.7475027,14.3950036 27.7674925,14.755 29.2575,14.755 C29.3575005,14.6249993 29.5224988,14.5150004 29.7525,14.425 C29.8825006,14.3749998 29.9874996,14.3325002 30.0675,14.2975 C30.1475004,14.2624998 30.2074998,14.2300002 30.2475,14.2 C30.5375014,13.7599978 30.6825,13.4600008 30.6825,13.3 C30.6825,12.5799964 30.5675011,11.8600036 30.3375,11.14 C29.9574981,10.7799982 29.7125005,10.6 29.6025,10.6 Z M39.1575,8.8 C39.9175038,9.5400037 40.3324997,10.109998 40.4025,10.51 C40.3524997,10.5500002 40.2975003,10.6249994 40.2375,10.735 C40.1674996,10.8650006 40.1075003,10.9449998 40.0575,10.975 C39.647498,10.975 39.4075003,10.9999998 39.3375,11.05 C39.2874998,10.8899992 39.1125015,10.7400007 38.8125,10.6 C38.8125,10.3099985 38.6275019,9.98000185 38.2575,9.61 C37.8774981,9.4899994 37.5775011,9.43 37.3575,9.43 C36.9374979,9.43 36.5475018,9.5199991 36.1875,9.7 C36.4075011,9.87000085 36.6349988,10.0449991 36.87,10.225 C37.1050012,10.4050009 37.3524987,10.589999 37.6125,10.78 C37.8725013,10.9700009 38.1099989,11.1499991 38.325,11.32 C38.5400011,11.4900008 38.7374991,11.6599991 38.9175,11.83 C39.2775018,12.1600016 39.5974986,12.5599976 39.8775,13.03 C39.8775,13.7500036 39.7925008,14.3499976 39.6225,14.83 C39.5324995,14.83 39.4775001,14.8699996 39.4575,14.95 C39.4475,15.0200003 39.4075003,15.0699999 39.3375,15.1 C38.5674961,15.700003 37.7225046,16 36.8025,16 C36.0424962,16 35.3275034,15.7900021 34.6575,15.37 C33.9974967,14.7599969 33.6675,14.3100014 33.6675,14.02 C33.6775,13.9699997 33.6825,13.9175003 33.6825,13.8625 C33.6825,13.8074997 33.6874999,13.7450004 33.6975,13.675 C33.6975,13.5749995 33.7324997,13.4650006 33.8025,13.345 C33.8825004,13.2449995 33.9824994,13.1700003 34.1025,13.12 L34.5675,13.12 C34.5675,13.13 34.5974997,13.1799996 34.6575,13.27 C34.7175003,13.3600005 34.7475,13.4549995 34.7475,13.555 C34.7575001,13.5650001 34.8324993,13.7199985 34.9725,14.02 C35.1025007,14.3100014 35.267499,14.455 35.4675,14.455 C35.6175008,14.7050012 35.8574984,14.83 36.1875,14.83 C36.397501,14.83 36.6274987,14.7750005 36.8775,14.665 C37.0075006,14.6149997 37.1274995,14.5725002 37.2375,14.5375 C37.3475005,14.5024998 37.4474996,14.4750001 37.5375,14.455 C38.0775027,14.3349994 38.3475,14.075002 38.3475,13.675 C38.3475,13.1849976 38.047503,12.640003 37.4475,12.04 L37.2675,12.04 C37.0374988,11.6999983 36.6075031,11.3400019 35.9775,10.96 C35.3274967,10.559998 34.9175008,10.1950016 34.7475,9.865 C34.7475,9.31499725 34.7724998,9.02500015 34.8225,8.995 C35.5325036,8.62499815 36.492494,8.44 37.7025,8.44 C37.7325001,8.5000003 37.8324992,8.53 38.0025,8.53 C38.1725008,8.53 38.2874997,8.5599997 38.3475,8.62 L39.1575,8.8 Z M43.0875,0.97 C43.2075006,0.97 43.2874998,0.9899998 43.3275,1.03 C43.3575001,1.0500001 43.4024997,1.0999996 43.4625,1.18 C43.4825001,1.21000015 43.5049999,1.24249983 43.53,1.2775 C43.5550001,1.31250017 43.5824998,1.35499975 43.6125,1.405 C43.4924994,2.0250031 43.4325,2.6949964 43.4325,3.415 L43.4325,4.315 C43.4024998,4.5750013 43.3725001,5.02999675 43.3425,5.68 C43.3124998,6.29000305 43.2825001,6.7649983 43.2525,7.105 L43.2525,8.62 C43.462501,8.65000015 43.7724979,8.665 44.1825,8.665 C44.592502,8.665 44.9124988,8.67999985 45.1425,8.71 C45.1525,8.71 45.452497,8.79499915 46.0425,8.965 C46.0425,9.0250003 46.0724997,9.1049995 46.1325,9.205 C46.1925003,9.3250006 46.2225,9.42999955 46.2225,9.52 C46.1524996,9.6200005 46.0525006,9.69499975 45.9225,9.745 C45.7824993,9.8050003 45.7025001,9.8449999 45.6825,9.865 L43.3425,9.865 C43.2324994,9.93500035 43.1775,10.1799979 43.1775,10.6 L43.1775,10.975 C43.1174997,11.4450023 43.0875,12.2199946 43.0875,13.3 C43.0875,14.4400057 43.0275006,15.2799973 42.9075,15.82 C42.7674993,15.9400006 42.5825011,16 42.3525,16 C42.2124993,16 41.9725017,15.9400006 41.6325,15.82 C41.5724997,15.7599997 41.5425,15.335004 41.5425,14.545 C41.5425,14.2349984 41.5724997,13.6500043 41.6325,12.79 C41.6925003,11.9399958 41.7225,11.1500037 41.7225,10.42 C41.7225,10.0999984 41.7524997,9.5700037 41.8125,8.83 C41.8725003,8.1099964 41.9025,7.56500185 41.9025,7.195 C41.9225001,7.06499935 41.9399999,6.91750082 41.955,6.7525 C41.9700001,6.58749917 41.9874999,6.405001 42.0075,6.205 C42.0375001,5.7849979 42.0674998,5.4550012 42.0975,5.215 L42.0975,3.58 C42.0975,2.02999225 42.1824991,1.13000125 42.3525,0.88 C42.4225003,0.88 42.5274993,0.89499985 42.6675,0.925 C42.7975006,0.95500015 42.9374992,0.97 43.0875,0.97 Z M2.565,22.87 L4.725,22.87 C4.91500095,22.9900006 5.209998,23.05 5.61,23.05 C6.010002,23.05 6.28499925,23.1099994 6.435,23.23 C6.52500045,23.23 6.6199995,23.235 6.72,23.245 C6.8200005,23.255 6.92499945,23.2749998 7.035,23.305 C7.24500105,23.3650003 7.40499945,23.395 7.515,23.395 C8.8150065,23.8750024 9.6549981,24.5699955 10.035,25.48 C10.1550006,25.6000006 10.215,25.8999976 10.215,26.38 C9.9749988,28.0300083 8.6850117,29.1699969 6.345,29.8 C6.0049983,29.8900004 4.87000965,30.0099992 2.94,30.16 C2.78999925,30.17 2.67000045,30.18 2.58,30.19 C2.48999955,30.2 2.43000015,30.2199999 2.4,30.25 L2.4,31.33 C2.4,31.6200015 2.40749993,31.9824978 2.4225,32.4175 L2.475,33.94 C2.5350003,35.1100059 2.565,35.9449975 2.565,36.445 C2.4649995,36.6950013 2.1650025,36.8799994 1.665,37 C1.31499825,37 1.07500065,36.7900021 0.945,36.37 C1.0650006,36.0699985 1.125,35.2600066 1.125,33.94 L1.125,31.06 C1.125,30.7699986 1.12250003,30.5375009 1.1175,30.3625 C1.11249998,30.1874991 1.11,30.0650004 1.11,29.995 C1.0899999,29.8449993 1.07500005,29.7100006 1.065,29.59 C1.05499995,29.5399997 1.04750003,29.4925002 1.0425,29.4475 C1.03749998,29.4024998 1.035,29.3700001 1.035,29.35 C1.035,29.1199989 1.02000015,28.8150019 0.99,28.435 C0.95999985,28.0449981 0.945,27.6900016 0.945,27.37 C0.945,27.1499989 0.93000015,26.9700007 0.9,26.83 C0.86999985,26.6999993 0.855,26.6399999 0.855,26.65 C0.82499985,26.4199988 0.79500015,26.1000021 0.765,25.69 C0.73499985,25.2699979 0.70500015,24.960001 0.675,24.76 C0.50499915,24.569999 0.42,24.2700021 0.42,23.86 C0.49000035,23.7799996 0.5449998,23.540002 0.585,23.14 C0.6450003,22.7199979 0.8249985,22.4750003 1.125,22.405 C1.41500145,22.405 1.68499875,22.4849992 1.935,22.645 C2.1750012,22.7950007 2.3849991,22.87 2.565,22.87 Z M4.02,23.95 C3.419997,23.95 3.0600006,23.9799997 2.94,24.04 C2.7199989,24.04 2.41500195,24.0949994 2.025,24.205 C2.0650002,24.4650013 2.09749988,24.7799981 2.1225,25.15 C2.14750013,25.5200018 2.1699999,25.9449976 2.19,26.425 C2.2100001,26.9150024 2.23749983,27.3424982 2.2725,27.7075 C2.30750018,28.0725018 2.34999975,28.3799988 2.4,28.63 C2.4,28.7900008 2.5199988,28.8749999 2.76,28.885 C3.0000012,28.9050001 3.1499997,28.9349998 3.21,28.975 C3.2500002,28.975 3.3299994,28.9600001 3.45,28.93 C3.5700006,28.8999999 3.69499935,28.885 3.825,28.885 C4.025001,28.7749994 4.624995,28.72 5.625,28.72 C5.7050004,28.6999999 5.7949995,28.6700002 5.895,28.63 C5.9950005,28.5899998 6.10999935,28.5400003 6.24,28.48 C6.5000013,28.3399993 6.7199991,28.27 6.9,28.27 C6.9600003,28.1899996 7.04749943,28.1075004 7.1625,28.0225 C7.27750058,27.9374996 7.4249991,27.8500004 7.605,27.76 C7.93500165,27.5899992 8.17499925,27.405001 8.325,27.205 C8.47500075,27.1649998 8.56499985,27.045001 8.595,26.845 C8.62500015,26.6549991 8.6799996,26.5300003 8.76,26.47 C8.76,26.1799986 8.7000006,25.9300011 8.58,25.72 C8.4599994,25.5099989 8.2900011,25.2950011 8.07,25.075 C7.85999895,24.8849991 7.7050005,24.7200007 7.605,24.58 C7.55499975,24.5599999 7.49500035,24.5350002 7.425,24.505 C7.35499965,24.4749999 7.26500055,24.4300003 7.155,24.37 C6.9349989,24.2599994 6.725001,24.205 6.525,24.205 L4.635,23.86 C4.5149994,23.9200003 4.31000145,23.95 4.02,23.95 Z M15.9,30.34 C15.9900005,30.5000008 16.1949984,30.7149986 16.515,30.985 C16.8150015,31.2550013 16.9949997,31.4299996 17.055,31.51 C17.655003,32.7600063 17.955,33.5699981 17.955,33.94 C17.955,34.5900033 17.8225013,35.1449977 17.5575,35.605 C17.2924987,36.0650023 16.8850028,36.4149988 16.335,36.655 C16.0449986,36.7850006 15.7450016,36.8749997 15.435,36.925 C15.1249984,36.9750003 14.7950017,37 14.445,37 C13.8749972,37 13.3425025,36.9200008 12.8475,36.76 C12.3524975,36.5999992 11.8950021,36.3500017 11.475,36.01 C10.7249963,35.3799968 10.3649999,34.7500031 10.395,34.12 C10.4150001,33.6599977 10.6074982,33.2350019 10.9725,32.845 C11.3375018,32.4549981 11.8649966,32.0950017 12.555,31.765 C12.555,31.1949971 12.8249973,30.7500016 13.365,30.43 C13.4150003,30.4099999 13.4799996,30.3900001 13.56,30.37 C13.6400004,30.3499999 13.7349995,30.3300001 13.845,30.31 C13.9550006,30.2899999 14.0524996,30.2650001 14.1375,30.235 C14.2225004,30.2049998 14.2949997,30.1800001 14.355,30.16 C14.7250018,30.16 14.9649995,30.2199994 15.075,30.34 L15.9,30.34 Z M15.255,31.6 C15.1449995,31.6700004 14.990001,31.7624994 14.79,31.8775 C14.589999,31.9925006 14.3300016,32.1349991 14.01,32.305 C13.3799969,32.6150016 12.8950017,32.9199985 12.555,33.22 C12.0849977,33.8600032 11.85,34.3449983 11.85,34.675 C12.4000028,35.3950036 13.4199926,35.755 14.91,35.755 C15.0100005,35.6249994 15.1749989,35.5150005 15.405,35.425 C15.5350007,35.3749998 15.6399996,35.3325002 15.72,35.2975 C15.8000004,35.2624998 15.8599998,35.2300002 15.9,35.2 C16.1900015,34.7599978 16.335,34.4600008 16.335,34.3 C16.335,33.5799964 16.2200012,32.8600036 15.99,32.14 C15.6099981,31.7799982 15.3650006,31.6 15.255,31.6 Z M24.12,30.55 C24.3500012,30.55 24.6199985,30.6299992 24.93,30.79 C25.2500016,30.9500008 25.4949991,31.0449998 25.665,31.075 C26.4050037,31.8150037 26.8599992,32.4149977 27.03,32.875 C27.03,32.9150002 27.0399999,32.9749996 27.06,33.055 C27.0900002,33.1150003 27.105,33.1749997 27.105,33.235 C27.0849999,33.3750007 27.0700001,33.5024994 27.06,33.6175 C27.05,33.7325006 27.04,33.8399995 27.03,33.94 C26.9999998,34.1600011 26.9400004,34.3199995 26.85,34.42 C26.85,34.5800008 26.7650008,34.7449991 26.595,34.915 C26.4249991,35.0850008 26.3250002,35.2499992 26.295,35.41 C26.1649994,35.600001 25.9450016,35.7799992 25.635,35.95 C25.2949983,36.1200008 25.0600006,36.299999 24.93,36.49 C24.2399966,36.7800015 23.5850031,36.925 22.965,36.925 C22.2449964,36.925 21.5250036,36.7800015 20.805,36.49 C20.6849994,36.7200012 20.625,37.0199981 20.625,37.39 C20.625,38.7000065 20.6549997,39.4749988 20.715,39.715 C20.6549997,39.8450006 20.6150001,40.009999 20.595,40.21 C20.595,40.3000004 20.5900001,40.4024994 20.58,40.5175 C20.57,40.6325006 20.5550001,40.7599993 20.535,40.9 C20.525,40.9500002 20.52,40.9999997 20.52,41.05 C20.52,41.1000003 20.5100001,41.1599996 20.49,41.23 C20.4499998,41.3500006 20.43,41.4449996 20.43,41.515 C20.3799997,41.6650007 20.3125004,41.8024994 20.2275,41.9275 C20.1424996,42.0525006 20.0350007,42.1549996 19.905,42.235 C19.8249996,42.1749997 19.6450014,42.1150003 19.365,42.055 C19.0749986,41.9849996 18.8950004,41.8650008 18.825,41.695 C18.9450006,40.7449952 19.1199989,40.0850018 19.35,39.715 C19.35,38.5949944 19.3599999,37.635004 19.38,36.835 C19.4000001,36.034996 19.4199999,35.3750026 19.44,34.855 L19.44,34.225 C19.5600006,33.5649967 19.62,32.5450069 19.62,31.165 C19.830001,30.9849991 20.0699986,30.895 20.34,30.895 L20.985,31.345 C21.5250027,30.744997 22.5399926,30.445 24.03,30.445 L24.12,30.55 Z M23.505,31.54 C22.5849954,31.6800007 22.0150011,32.0399971 21.795,32.62 L20.895,32.62 L20.895,34.33 C20.8349997,34.3900003 20.805,34.6899973 20.805,35.23 C21.1550018,35.5800018 21.6699966,35.755 22.35,35.755 C22.4100003,35.7149998 22.5799986,35.6850001 22.86,35.665 C23.1200013,35.655 23.3049995,35.6000005 23.415,35.5 C23.6450011,35.4699999 24.1799958,35.1700029 25.02,34.6 C25.2700012,34.199998 25.395,33.5400046 25.395,32.62 C25.194999,32.0399971 24.5650053,31.6800007 23.505,31.54 Z M35.445,32.875 C35.455,33.0450009 35.46,33.1924994 35.46,33.3175 L35.46,33.625 C35.46,33.7250005 35.455,33.8049997 35.445,33.865 L35.07,34.93 C34.5599974,35.9800052 33.6300067,36.6699984 32.28,37 L31.38,37 C30.4699954,37 29.8750014,36.7600024 29.595,36.28 C29.4949995,36.1799995 29.3150013,35.9050023 29.055,35.455 C28.7049982,34.6949962 28.4900004,33.920004 28.41,33.13 C28.41,32.939999 28.3800003,32.6550019 28.32,32.275 C28.2599997,31.9049982 28.23,31.620001 28.23,31.42 C28.23,31.0599982 28.3199991,30.7000018 28.5,30.34 C28.6200006,30.2199994 28.7449993,30.16 28.875,30.16 C28.9250002,30.16 29.0249992,30.2049996 29.175,30.295 C29.3350008,30.3850004 29.4749994,30.43 29.595,30.43 C29.7150006,30.6100009 29.775,30.9399976 29.775,31.42 C29.775,32.8500071 29.9799979,34.1949937 30.39,35.455 C30.6300012,35.7050013 30.9599979,35.83 31.38,35.83 C31.5600009,35.83 31.6749997,35.8200001 31.725,35.8 C31.7550001,35.79 31.7799999,35.78 31.8,35.77 C31.8200001,35.76 31.8349999,35.755 31.845,35.755 C31.9450005,35.755 32.0999989,35.6750008 32.31,35.515 C32.500001,35.3649992 32.6749992,35.29 32.835,35.29 C32.8950003,35.2099996 33.0349989,35.0600011 33.255,34.84 C33.5050012,34.5899987 33.6649996,34.3800009 33.735,34.21 C33.9050008,34.1199996 33.99,33.7900029 33.99,33.22 C33.99,32.1599947 33.8100018,30.9900064 33.45,29.71 C33.45,29.5199991 33.544999,29.3450008 33.735,29.185 L34.35,29.185 C34.6800016,29.8850035 34.939999,30.539997 35.13,31.15 C35.320001,31.7600031 35.4249999,32.3349973 35.445,32.875 Z M39.45,23.05 C39.3499995,23.2800012 39.2800002,23.5299987 39.24,23.8 C39.2199999,23.9400007 39.2025001,24.0774993 39.1875,24.2125 C39.1724999,24.3475007 39.1550001,24.4849993 39.135,24.625 C39.1249999,24.7550006 39.115,24.8674995 39.105,24.9625 C39.0949999,25.0575005 39.085,25.1349997 39.075,25.195 C39.075,25.5850019 39.0150006,26.184996 38.895,26.995 L38.985,27.205 C38.985,27.4850014 38.9400004,27.9299969 38.85,28.54 C38.7999997,28.8500016 38.7675001,29.1399986 38.7525,29.41 C38.7374999,29.6800014 38.73,29.9299989 38.73,30.16 C38.6099994,30.4000012 38.55,30.5799994 38.55,30.7 C38.55,30.7400002 38.5649998,30.8399992 38.595,31 C38.6250001,31.1700009 38.64,31.2799998 38.64,31.33 C38.64,31.520001 38.5800006,31.6649995 38.46,31.765 L38.46,33.04 C38.4199998,33.240001 38.3900001,33.442499 38.37,33.6475 C38.3499999,33.852501 38.3300001,34.0649989 38.31,34.285 C38.2899999,34.5050011 38.275,34.714999 38.265,34.915 C38.2549999,35.115001 38.245,35.3099991 38.235,35.5 C38.2149999,35.6900009 38.2025,35.8624992 38.1975,36.0175 C38.1925,36.1725008 38.185,36.3149994 38.175,36.445 C38.175,36.5950007 38.1150006,36.7049996 37.995,36.775 C37.8849994,36.8450003 37.83,36.9199996 37.83,37 C37.6799992,37 37.5450006,36.9850001 37.425,36.955 C37.3049994,36.9249998 37.2250002,36.91 37.185,36.91 C37.1749999,36.8599998 37.1000007,36.7900005 36.96,36.7 C36.8199993,36.6299997 36.75,36.5200008 36.75,36.37 C36.7700001,36.1199988 36.7974998,35.8025019 36.8325,35.4175 C36.8675002,35.0324981 36.9099997,34.5700027 36.96,34.03 C37.0200003,33.4899973 37.0699998,33.0100021 37.11,32.59 C37.1500002,32.1699979 37.1749999,31.8100015 37.185,31.51 C37.195,30.9899974 37.2199998,30.3950033 37.26,29.725 C37.3000002,29.0549966 37.3649995,28.3000042 37.455,27.46 C37.5550005,26.6099958 37.6374997,25.8650032 37.7025,25.225 C37.7675003,24.5849968 37.8099999,24.0400023 37.83,23.59 L37.83,22.78 C37.9100004,22.7399998 37.9949995,22.6400008 38.085,22.48 C38.1850005,22.3199992 38.3099992,22.24 38.46,22.24 C38.7700015,22.3600006 39.0999982,22.6299979 39.45,23.05 Z M44.91,29.44 C45.5800033,29.6100008 45.9349998,29.7299996 45.975,29.8 C46.5450028,29.8900004 46.8749995,30.1599977 46.965,30.61 C47.0750005,30.6900004 47.1449998,30.8399989 47.175,31.06 C47.2150002,31.260001 47.235,31.3799998 47.235,31.42 C47.0949993,31.6600012 46.9700005,31.9449983 46.86,32.275 C46.7499994,32.6050016 46.6400005,32.9799979 46.53,33.4 C46.53,34.3000045 46.5899994,34.8399991 46.71,35.02 C46.8400006,35.02 46.9749993,35.0349998 47.115,35.065 C47.2650007,35.0950001 47.3699997,35.11 47.43,35.11 C47.7800017,35.2300006 47.955,35.3449994 47.955,35.455 C47.955,35.7450014 47.8400011,35.9299996 47.61,36.01 C46.4899944,36.01 45.7350019,35.7400027 45.345,35.2 C45.2249994,35.2 45.1300003,35.2749993 45.06,35.425 C44.9899997,35.5850008 44.8800008,35.665 44.73,35.665 C44.73,35.8050007 44.6200011,35.969999 44.4,36.16 C44.1699988,36.360001 44.0350002,36.4949996 43.995,36.565 C43.3649968,36.8550014 42.7950025,37 42.285,37 C41.7749975,37 41.2050031,36.8550014 40.575,36.565 C40.2249982,36.164998 40.05,35.7100025 40.05,35.2 C40.05,34.9699988 40.0774997,34.7175014 40.1325,34.4425 C40.1875003,34.1674986 40.2749994,33.8750016 40.395,33.565 C40.8950025,32.2849936 41.6199952,31.3000034 42.57,30.61 C42.58,30.5999999 42.6549993,30.5550004 42.795,30.475 C42.9350007,30.3949996 43.0349997,30.3200003 43.095,30.25 C43.2050005,30.049999 43.4149984,29.9050004 43.725,29.815 C44.0450016,29.7249995 44.2549995,29.6300005 44.355,29.53 C44.4650005,29.53 44.5524997,29.5275 44.6175,29.5225 C44.6825003,29.5175 44.7349998,29.51 44.775,29.5 C44.8550004,29.4699998 44.8999999,29.45 44.91,29.44 Z M44.82,30.865 C44.7599997,30.865 44.6800005,30.8999997 44.58,30.97 C44.4999996,31.0300003 44.4250003,31.06 44.355,31.06 C43.9249978,31.3200013 43.1500056,32.0099944 42.03,33.13 C42.03,33.4500016 41.9100012,33.7799983 41.67,34.12 C41.5999996,34.1900003 41.5500001,34.2949993 41.52,34.435 C41.4899998,34.5750007 41.4450003,34.6849996 41.385,34.765 C41.385,35.3750031 41.4149997,35.7299995 41.475,35.83 C42.0050026,35.83 42.3049996,35.8050002 42.375,35.755 C42.6050011,35.6349994 42.7999992,35.5375004 42.96,35.4625 C43.1200008,35.3874996 43.2549994,35.3300002 43.365,35.29 C43.4650005,35.29 43.6049991,35.2100008 43.785,35.05 C43.9550008,34.8799992 44.0549998,34.7850001 44.085,34.765 C44.1750004,34.6949996 44.2899993,34.5700009 44.43,34.39 C44.5700007,34.2099991 44.7299991,33.9650015 44.91,33.655 C45.0500007,33.3949987 45.1749994,32.9300033 45.285,32.26 C45.3850005,31.6299969 45.529999,31.1350018 45.72,30.775 C45.6599997,30.6649994 45.5350009,30.61 45.345,30.61 C45.1649991,30.61 44.9900008,30.6949992 44.82,30.865 Z M50.55,29.62 C50.55,30.3300036 50.5799997,30.7449994 50.64,30.865 L50.64,31.42 C50.64,31.5500007 50.6999994,31.6649995 50.82,31.765 L50.82,32.665 L50.895,32.665 C51.5150031,31.464994 52.5949923,30.4800039 54.135,29.71 C54.1950003,29.71 54.3099992,29.6950002 54.48,29.665 C54.6400008,29.6349998 54.7949993,29.62 54.945,29.62 C55.135001,29.62 55.2749996,29.6050002 55.365,29.575 L55.5,29.53 C55.5300001,29.6500006 55.6249992,29.7299998 55.785,29.77 C55.9450008,29.8200002 56.025,29.9149993 56.025,30.055 C56.1350006,30.055 56.19,30.1799987 56.19,30.43 L55.665,30.775 C55.3749986,30.775 55.0650017,30.8474993 54.735,30.9925 C54.4049984,31.1375007 54.0600018,31.3699984 53.7,31.69 L52.62,32.665 C52.62,32.7850006 52.5550007,32.9099993 52.425,33.04 C52.3049994,33.1600006 52.245,33.2799994 52.245,33.4 C51.8949983,34.000003 51.72,34.599997 51.72,35.2 C51.6399996,35.2800004 51.5950001,35.414999 51.585,35.605 C51.5649999,35.805001 51.5500001,35.9099999 51.54,35.92 L51.63,36.1 C51.63,36.5500022 51.5400009,36.8199995 51.36,36.91 C51.2499994,36.91 51.1500005,36.9249998 51.06,36.955 C50.9699996,36.9850001 50.9150001,37 50.895,37 C50.4249977,37 50.1000009,36.8550015 49.92,36.565 C49.92,36.1349978 49.8900003,35.92 49.83,35.92 C49.83,35.6699987 49.825,35.4325011 49.815,35.2075 C49.805,34.9824989 49.7900001,34.7650011 49.77,34.555 C49.7499999,34.354999 49.7375,34.1725008 49.7325,34.0075 C49.7275,33.8424992 49.7200001,33.6950006 49.71,33.565 C49.6999999,33.3349988 49.6700003,33.0400018 49.62,32.68 C49.5699998,32.3199982 49.5000005,31.8900025 49.41,31.39 C49.2299991,30.4199951 49.1250001,29.6850025 49.095,29.185 C49.1450003,29.1349997 49.1999997,29.0350007 49.26,28.885 C49.3400004,28.7349993 49.4049998,28.6500001 49.455,28.63 C49.6350009,28.63 49.9399978,28.7849985 50.37,29.095 L50.55,29.62 Z" id="Most-Popular"></path>
                <g id="arrow" transform="translate(63.000000, 37.000000)" fill-rule="nonzero">
                    <g id="Path-3">
                        <path d="M26.1,30.8 C24.2,24.3 21.5,18.6 18.2,13.7 C14.9,8.9 9,4.7 0.8,1.1 L1.2,0.2 C9.6,3.9 15.6,8.2 19,13.2 C22.4,18.1 25.1,24 27.1,30.5 L26.1,30.8 Z" id="Shape"></path>
                    </g>
                    <g id="Path-11" transform="translate(19.000000, 22.000000)">
                        <path d="M8.6,10.4 L8.1,10 C6.8,8.9 5.7,8.2 5,7.9 C4.3,7.6 2.8,7.1 0.6,6.5 L0.9,5.5 C3.2,6.1 4.7,6.6 5.5,6.9 C6.2,7.2 7.1,7.8 8.3,8.7 C9.2,7 9.7,5.7 9.9,4.8 C10.1,3.9 10.3,2.4 10.3,0.4 L11.3,0.4 C11.3,2.5 11.2,4 10.9,5 C10.6,6 10,7.5 8.9,9.6 L8.6,10.4 Z" id="Shape"></path>
                    </g>
                </g>
            </g>
        </g>
    </g>
</svg>