<svg xmlns="http://www.w3.org/2000/svg" width="139" height="18" viewBox="0 0 139 18">
  <path fill="#22313F" d="M57.012934 2.55481559C56.352129 2.21745758 55.6240471 2.03267324 54.8823409 2.0140794L52.0076579 2.0140794C51.2627344 2.03529469 50.6375628 2.58195641 50.5171671 3.31739228L49.0151221 13.891789C48.9590641 14.2432695 49.0604821 14.6016131 49.2924227 14.8715845 49.5255171 15.1365166 49.8639866 15.284597 50.2167581 15.2759812 50.9669583 15.2589624 51.5997563 14.712411 51.7257356 13.9726684L52.1370649 11.0563902 53.4773512 11.0563902 55.21048 14.6289465C55.424165 15.0341118 55.8478331 15.2843799 56.3058174 15.2759812 56.555888 15.2749263 56.801018 15.206258 57.0152448 15.0772491 57.4287741 14.8467563 57.7127483 14.438277 57.784754 13.9703575 57.8204799 13.7238254 57.7827007 13.4722321 57.6761446 13.2470651L56.2896415 10.3770037C56.9743238 9.97328443 57.5539166 9.4134865 57.9811753 8.74324095 58.4049829 8.07877788 58.6917487 7.33632954 58.8246313 6.55949862 59.0903777 4.7431796 58.4456538 3.31739228 57.012934 2.55481559L57.012934 2.55481559zM56.1348154 6.48324095C56.0592728 6.85198335 55.9133369 7.2027003 55.7049994 7.51618574 55.3214002 8.09389535 54.780664 8.34808758 53.9834248 8.34808758L52.5114207 8.34808758 53.0244268 4.71082786 54.5819319 4.71082786C54.9105893 4.71958011 55.2335957 4.79836217 55.5293757 4.94191171 56.0562469 5.23307735 56.2457356 5.7044884 56.1301937 6.48324095L56.1348154 6.48324095zM69.2580669 2.00483604C68.5131434 2.02605134 67.8879718 2.57271305 67.7675761 3.30814893L66.797024 10.1805825C66.797024 10.2036908 66.3348563 12.5746111 64.3406027 12.5746111 63.8676351 12.6040568 63.4063535 12.4200529 63.0835066 12.0731592 62.5635679 11.4723412 62.5797438 10.4902348 62.6213389 10.2614618L63.591891 3.39364995C63.647949 3.04216948 63.546531 2.68382589 63.3145904 2.41385445 63.0814961 2.14892234 62.7430266 2.00084196 62.390255 2.00945772 61.6453316 2.03067302 61.0201599 2.57733473 60.8997642 3.3127706L59.9292121 10.1759608C59.8331227 10.9924545 59.9062793 11.8199896 60.1441201 12.6069628 60.7056538 14.3262266 62.089846 15.2736704 64.049437 15.2736704 65.931694 15.2975708 67.6792129 14.2999993 68.6156538 12.6670446 69.0571119 11.9257267 69.3528124 11.1068638 69.4868399 10.2545293L70.4573921 3.38671743C70.51345 3.03523696 70.412032 2.67689337 70.1800914 2.40692193 69.9484778 2.14238427 69.6119182 1.99355392 69.2603777 2.00021437L69.2580669 2.00483604zM81.3553062 2.00483604C80.6031611 2.01558355 79.9675709 2.56538855 79.8486395 3.30814893L78.9474125 9.67450885 75.007433 2.61258656C74.7961731 2.23495819 74.3956172 2.00277757 73.962934 2.00714688 73.2107889 2.01789438 72.5751988 2.56769939 72.4562673 3.31045977L70.9634657 13.8940998C70.9074077 14.2455803 71.0088257 14.6039239 71.2407663 14.8738953 71.4738607 15.1388275 71.8123301 15.2869078 72.1651017 15.2782921 72.9144235 15.2601827 73.5459582 14.7138858 73.6717683 13.9749792L74.5729953 7.61093011 78.5129749 14.6774741C78.727386 15.06102 79.136696 15.2941487 79.5759606 15.2829138 80.3200036 15.2606112 80.9439144 14.7142049 81.0641405 13.9796009L82.5569422 3.39596079C82.6130001 3.04448032 82.5115821 2.68613673 82.2796415 2.41616529 82.0469811 2.1503755 81.7084499 2.00142179 81.3553062 2.00945772L81.3553062 2.00483604zM93.9909708 2.80438615C93.0565353 2.27582598 92.0003558 2.00023163 90.926799 2.00477928 87.2895393 2.00477928 83.9110935 4.96270925 83.3980874 8.59996897 83.1204798 10.295835 83.6021121 12.0280211 84.7152653 13.3371878 85.8323947 14.6018144 87.4488458 15.3115995 89.1358992 15.2782921 90.2723671 15.2652774 91.3908136 14.9925819 92.4057356 14.4810528 93.0989872 14.120562 93.4317479 13.3256336 93.1775557 12.6855313 93.0556025 12.3822797 92.812739 12.1436036 92.5074125 12.0269424 92.1377519 11.8965892 91.7307304 11.9241697 91.3820342 12.1032001 90.7800029 12.4135649 90.1112869 12.5722164 89.4339974 12.5653677 88.4522901 12.587951 87.5102151 12.1781695 86.8574125 11.4446111 86.2071876 10.6777168 85.9281794 9.6631416 86.0948358 8.67160496 86.406799 6.48324095 88.438026 4.70158451 90.6240792 4.70158451 91.2502153 4.68611801 91.8681813 4.84621285 92.4080465 5.1637522L92.4219115 5.1637522C93.0957259 5.49440854 93.9103762 5.26789603 94.316799 4.63688103 94.5373011 4.32702648 94.6208486 3.94020136 94.5478829 3.56696283 94.473035 3.24725247 94.2710884 2.9718707 93.98866 2.80438615L93.9909708 2.80438615zM100.898067 12.5699894L97.5311753 12.5699894 98.8252448 3.39133911C98.8813028 3.03985864 98.7798848 2.68151505 98.5479442 2.41154361 98.3148498 2.14661151 97.9763804 1.99853112 97.6236088 2.00714688 96.8732204 2.02011577 96.2401877 2.56939339 96.1215638 3.31045977L94.6264514 13.8940998C94.5665386 14.2459101 94.6679871 14.6060144 94.9027373 14.8748124 95.1374874 15.1436103 95.4806575 15.2926111 95.8373307 15.2806029L100.586104 15.2806029C101.335426 15.2624935 101.96696 14.7161967 102.09277 13.97729 102.152749 13.6242816 102.052174 13.2629156 101.818448 12.9916508 101.584722 12.720386 101.242198 12.5674862 100.884202 12.5746111L100.898067 12.5699894zM110.256963 2.00483604C106.767597 2.00483604 103.513936 4.96270925 103.00093 8.59996897 102.742116 10.4486397 103.208905 12.1586602 104.318108 13.4365538 105.364507 14.6355352 106.886456 15.3119572 108.477617 15.2852246 111.976226 15.2852246 115.23913 12.3273514 115.752136 8.68778083 116.01095 6.85066427 115.544161 5.13602214 114.434959 3.85812848 113.383935 2.65393331 111.855078 1.97491116 110.256963 2.00252521L110.256963 2.00483604zM108.766472 12.5699894C107.883137 12.5851506 107.037911 12.2107153 106.455633 11.546288 105.800769 10.7472787 105.522787 9.70442631 105.693057 8.68546999 106.00502 6.49710598 107.911462 4.71544954 109.951932 4.71544954 110.84031 4.69987856 111.690542 5.07597526 112.276635 5.74377265 112.936894 6.5381924 113.215625 7.58216592 113.039212 8.59996897 112.734181 10.788333 110.820807 12.5699894 108.768783 12.5699894L108.766472 12.5699894zM126.351952 2.00483604C125.607029 2.02605134 124.981857 2.57271305 124.861462 3.30814893L123.890909 10.1805825C123.890909 10.2036908 123.428742 12.5746111 121.436799 12.5746111 120.963831 12.6040568 120.50255 12.4200529 120.179703 12.0731592 119.662075 11.4723412 119.678251 10.4902348 119.717535 10.2614618L120.688087 3.39364995C120.744145 3.04216948 120.642727 2.68382589 120.410787 2.41385445 120.177692 2.14892234 119.839223 2.00084196 119.486451 2.00945772 118.742408 2.03176024 118.118498 2.5781666 117.998271 3.3127706L117.027719 10.1759608C116.930882 10.992296 117.003252 11.8198282 117.240316 12.6069628 117.799539 14.3262266 119.181421 15.2736704 121.141012 15.2736704 123.024091 15.2984141 124.772694 14.3007286 125.709539 12.6670446 126.150997 11.9257267 126.446698 11.1068638 126.580725 10.2545293L127.551278 3.38671743C127.607336 3.03523696 127.505918 2.67689337 127.273977 2.40692193 127.042363 2.14238427 126.705804 1.99355392 126.354263 2.00021437L126.351952 2.00483604zM134.127924 2.00483604L131.038333 2.00483604C130.293409 2.02605134 129.668238 2.57271305 129.547842 3.30814893L128.05504 13.891789C127.997723 14.242579 128.097427 14.6008368 128.327719 14.8715845 128.560814 15.1365166 128.899283 15.284597 129.252055 15.2759812L132.334713 15.2759812C132.565797 15.2759812 137.982402 15.1997236 138.897494 8.68084831 139.204836 6.51559269 138.844345 4.82174811 137.822954 3.6432205 136.441073 2.05336365 134.363629 2.00714688 134.125613 2.00714688L134.127924 2.00483604zM134.250398 12.0662266C133.759922 12.3625941 133.204832 12.535465 132.632811 12.5699894L130.959764 12.5699894 132.068967 4.7131387 133.825204 4.7131387C134.31949 4.74507245 134.797118 4.90428199 135.211707 5.17530639 136.108312 5.77150271 136.443384 6.9246111 136.205368 8.60459065 135.967351 10.2845702 135.308762 11.4469219 134.248087 12.0662266L134.250398 12.0662266zM34.1114125 6.03719892L34.0988143 6.03719892C33.5862587 6.03719892 33.1707503 6.45270736 33.1707503 6.96526299 33.1707503 7.47781862 33.5862587 7.89332706 34.0988143 7.89332706L34.1114125 7.89332706C34.6062507 7.86977002 34.9953455 7.46171144 34.9953455 6.96631284 34.9953455 6.47091423 34.6062507 6.06285566 34.1114125 6.03929861L34.1114125 6.03719892zM35.8961535 3.25090702C35.8967088 3.49740851 35.7991771 3.73400501 35.6250709 3.90850517 35.4509646 4.08300534 35.2145891 4.18107078 34.968087 4.18107078L31.7345606 4.18107078C31.222005 4.18107078 30.8064965 3.76556234 30.8064965 3.25300671 30.8064965 2.74045108 31.222005 2.32494264 31.7345606 2.32494264L34.968087 2.32494264C35.4790071 2.32494264 35.8938392 2.73789242 35.8961535 3.24880733L35.8961535 3.25090702zM39.0666867 6.03929861L37.9202546 6.03929861C37.5886892 6.0392986 37.2823102 6.21618661 37.1165275 6.50333064 36.9507448 6.79047467 36.9507448 7.1442507 37.1165275 7.43139473 37.2823102 7.71853875 37.5886892 7.89542675 37.9202546 7.89542675L39.0708861 7.89542675C39.5840215 7.89542675 40 7.47944828 40 6.96631284 40 6.45317739 39.5840215 6.03719892 39.0708861 6.03719892L39.0666867 6.03929861zM39.1590732 10.679619C39.1590732 10.9257569 39.0612953 11.1618136 38.8872495 11.3358594 38.7132037 11.5099051 38.477147 11.607683 38.2310091 11.607683L28.4191462 11.607683C27.9060108 11.607683 27.4900323 12.0236615 27.4900323 12.536797 27.4900323 13.0499324 27.9060108 13.4659109 28.4191462 13.4659109L35.1675578 13.4659109C35.4991232 13.4659109 35.8055022 13.6427989 35.9712849 13.9299429 36.1370676 14.2170869 36.1370676 14.570863 35.9712849 14.858007 35.8055022 15.145151 35.4991232 15.322039 35.1675578 15.322039L31.0521606 15.322039C30.949495 15.472122 30.8387478 15.6165138 30.7204091 15.7545757 29.8455226 16.7903724 28.6089771 17.4540677 27.2622157 17.6107991L4.58553701 17.6107991C2.10121083 17.6266135.0620739056 15.6494021.00138571026 13.1657664-.059302485 10.6821306 1.8808313 8.60768485 4.36296961 8.50223788 4.36295397 6.43582595 5.43349735 4.51691707 7.19188896 3.431506 8.95028057 2.34609493 11.1454743 2.24914615 12.9927056 3.17531809 14.4150779 1.32878965 16.5602446.179933708 18.8855468.0193742552 21.2108491-.141185198 23.4935592.701930936 25.1562241 2.3354411L28.0810957 2.3354411C28.4126611 2.3354411 28.7190401 2.51232911 28.8848228 2.79947313 29.0506055 3.08661716 29.0506055 3.44039319 28.8848228 3.72753721 28.7190401 4.01468124 28.4126611 4.19156925 28.0810957 4.19156924L25.0911336 4.19156924C24.7494177 4.17530167 24.4264618 4.34834556 24.2507342 4.64186597 24.0750067 4.93538637 24.0750067 5.30178056 24.2507342 5.59530097 24.4264618 5.88882138 24.7494177 6.06186526 25.0911336 6.04559769L30.4495488 6.04559769C30.9621044 6.04559769 31.3776129 6.46110613 31.3776129 6.97366176 31.3776129 7.48621739 30.9621044 7.90172583 30.4495488 7.90172583L26.0401946 7.90172583C25.5270592 7.90172583 25.1110807 8.3177043 25.1110807 8.83083975 25.1110807 9.34397519 25.5270592 9.75995366 26.0401946 9.75995366L38.2184109 9.75995366C38.7293542 9.75528276 39.147959 10.1645017 39.1548738 10.6754196L39.1590732 10.679619z"/>
</svg>
