<svg xmlns="http://www.w3.org/2000/svg" width="24" height="24" viewBox="0 0 24 24">
  <defs>
    <linearGradient id="br-nginx-a" x1="17.031%" x2="109.059%" y1="94.743%" y2="7.272%">
      <stop offset="0%" stop-color="#009B2B" />
      <stop offset="100%" stop-color="#BDFF00" />
    </linearGradient>
  </defs>
  <g fill="none" fill-rule="evenodd" transform="translate(2 1)">
    <path fill="#000"
      d="M19.05255,5.5 L9.526275,0 L0,5.5 L0,16.5 L9.526275,22 L19.05255,16.5 L19.05255,5.5 Z M8.065365,10.77659 L8.065365,15.4 L5.676275,15.4 L5.676275,6.6 L7.7044,6.6 L10.832525,11.20625 L10.901275,11.20625 L10.901275,6.6 L13.290365,6.6 L13.290365,15.4 L11.296615,15.4 L8.1169,10.77659 L8.065365,10.77659 Z" />
    <path fill="url(#br-nginx-a)"
      d="M19.05255,5.5 L9.526275,0 L0,5.5 L0,16.5 L9.526275,22 L19.05255,16.5 L19.05255,5.5 Z M8.065365,10.77659 L8.065365,15.4 L5.676275,15.4 L5.676275,6.6 L7.7044,6.6 L10.832525,11.20625 L10.901275,11.20625 L10.901275,6.6 L13.290365,6.6 L13.290365,15.4 L11.296615,15.4 L8.1169,10.77659 L8.065365,10.77659 Z" />
  </g>
</svg>