<svg xmlns="http://www.w3.org/2000/svg" width="24" height="24" viewBox="0 0 24 24">
  <g fill="none" transform="translate(3 1)">
    <polyline fill="#F68536" points="3.042 17.397 .913 17.883 .913 4.096 3.042 4.583 3.042 17.397"/>
    <path fill="#F68536" d="M5.69824651,18.210808 L3.04216717,18.9656218 L3.04216717,3.03206314 L5.69824651,3.78595193 L5.69824651,18.210808 M9.10543959,19.046881 L5.69824651,20.2938038 L5.69824651,1.70388116 L9.10543959,2.95023472 L9.10543959,19.046881 M18.2157177,17.4386324 L9.10543959,21.9937714 L9.10543959,0 L18.2157177,4.55513907 L18.2157177,17.4386324"/>
    <path fill="#9D5025" d="M7.28941792,0.908153146 L9.10543959,0 L9.10543959,21.9937714 L7.28941792,21.0859029 L7.28941792,0.908153146 M4.29243426,2.40646708 L5.69824651,1.70359654 L5.69824651,20.2901749 L4.29243426,19.5873043 L4.29243426,2.40646708 M1.92232746,3.59169837 L3.04216717,3.03177852 L3.04216717,18.9619929 L1.92232746,18.4017173 L1.92232746,3.59169837 M0.913347471,4.09604606 L0,4.55271979 L0,17.4413363 L0.913347471,17.8977254 L0.913347471,4.09604606"/>
  </g>
</svg>
