<svg xmlns="http://www.w3.org/2000/svg" width="24" height="24" viewBox="0 0 24 24">
  <defs>
    <linearGradient id="br-beanstalk-a" x1="0%" x2="96.949%" y1="108.75%" y2="8.119%">
      <stop offset="0%" stop-color="#11A49B"/>
      <stop offset="100%" stop-color="#90FC8E"/>
    </linearGradient>
  </defs>
  <g fill="none" fill-rule="evenodd" transform="translate(1 1)">
    <path fill="#000" d="M4.4,0 L6.05,0 L6.05,2.2 C6.05,0.984973 7.034995,0 8.25,0 L10.45,0 L10.45,1.1 C10.45,2.315027 9.465005,3.3 8.25,3.3 L6.05,3.3 L6.05,6.6 C6.05,5.384995 7.034995,4.4 8.25,4.4 L10.45,4.4 L10.45,5.5 C10.45,6.715005 9.465005,7.7 8.25,7.7 L6.05,7.7 L6.05,11 C6.05,9.784995 7.034995,8.8 8.25,8.8 L10.45,8.8 L10.45,9.9 C10.45,11.115005 9.465005,12.1 8.25,12.1 L6.05,12.1 L6.05,15.4 C6.05,14.184995 7.034995,13.2 8.25,13.2 L10.45,13.2 L10.45,14.3 C10.45,15.515005 9.465005,16.5 8.25,16.5 L6.05,16.5 L6.05,17.54896 C7.53786,17.229795 9.21954,17.05 11,17.05 C12.78046,17.05 14.46214,17.229795 15.95,17.54896 L15.95,16.5 L13.75,16.5 C12.534995,16.5 11.55,15.515005 11.55,14.3 L11.55,13.2 L13.75,13.2 C14.965005,13.2 15.95,14.184995 15.95,15.4 L15.95,12.1 L13.75,12.1 C12.534995,12.1 11.55,11.115005 11.55,9.9 L11.55,8.8 L13.75,8.8 C14.965005,8.8 15.95,9.784995 15.95,11 L15.95,7.7 L13.75,7.7 C12.534995,7.7 11.55,6.715005 11.55,5.5 L11.55,4.4 L13.75,4.4 C14.965005,4.4 15.95,5.384995 15.95,6.6 L15.95,3.3 L13.75,3.3 C12.534995,3.3 11.55,2.315027 11.55,1.1 L11.55,0 L13.75,0 C14.965005,0 15.95,0.984973 15.95,2.2 L15.95,0 L17.6,0 L17.6,2.2 C17.6,0.984973 18.584995,0 19.8,0 L22,0 L22,1.1 C22,2.315027 21.015005,3.3 19.8,3.3 L17.6,3.3 L17.6,6.6 C17.6,5.384995 18.584995,4.4 19.8,4.4 L22,4.4 L22,5.5 C22,6.715005 21.015005,7.7 19.8,7.7 L17.6,7.7 L17.6,11 C17.6,9.784995 18.584995,8.8 19.8,8.8 L22,8.8 L22,9.9 C22,11.115005 21.015005,12.1 19.8,12.1 L17.6,12.1 L17.6,15.4 C17.6,14.184995 18.584995,13.2 19.8,13.2 L22,13.2 L22,14.3 C22,15.515005 21.015005,16.5 19.8,16.5 L17.6,16.5 L17.6,17.98467 C20.27179,18.837555 22,20.195505 22,21.725 C22,21.81729 21.99373,21.90903 21.9813,22 L17.6,22 L15.95,22 L6.05,22 L4.4,22 L0.0187165,22 C0.0062975,21.90903 0,21.81729 0,21.725 C0,20.195505 1.7282155,18.837555 4.4,17.98467 L4.4,16.5 L2.2,16.5 C0.984973,16.5 0,15.515005 0,14.3 L0,13.2 L2.2,13.2 C3.415005,13.2 4.4,14.184995 4.4,15.4 L4.4,12.1 L2.2,12.1 C0.984973,12.1 0,11.115005 0,9.9 L0,8.8 L2.2,8.8 C3.415005,8.8 4.4,9.784995 4.4,11 L4.4,7.7 L2.2,7.7 C0.984973,7.7 0,6.715005 0,5.5 L0,4.4 L2.2,4.4 C3.415005,4.4 4.4,5.384995 4.4,6.6 L4.4,3.3 L2.2,3.3 C0.984973,3.3 0,2.315027 0,1.1 L0,0 L2.2,0 C3.415005,0 4.4,0.984973 4.4,2.2 L4.4,0 Z M8.25,19.525 C8.25,18.765615 8.865615,18.15 9.625,18.15 L12.375,18.15 C13.134385,18.15 13.75,18.765615 13.75,19.525 C13.75,20.284385 13.134385,20.9 12.375,20.9 L9.625,20.9 C8.865615,20.9 8.25,20.284385 8.25,19.525 Z M12.1,19.25 L12.1,18.7 L9.9,18.7 L9.9,19.25 L12.1,19.25 Z"/>
    <path fill="url(#br-beanstalk-a)" d="M4.4,0 L6.05,0 L6.05,2.2 C6.05,0.984973 7.034995,0 8.25,0 L10.45,0 L10.45,1.1 C10.45,2.315027 9.465005,3.3 8.25,3.3 L6.05,3.3 L6.05,6.6 C6.05,5.384995 7.034995,4.4 8.25,4.4 L10.45,4.4 L10.45,5.5 C10.45,6.715005 9.465005,7.7 8.25,7.7 L6.05,7.7 L6.05,11 C6.05,9.784995 7.034995,8.8 8.25,8.8 L10.45,8.8 L10.45,9.9 C10.45,11.115005 9.465005,12.1 8.25,12.1 L6.05,12.1 L6.05,15.4 C6.05,14.184995 7.034995,13.2 8.25,13.2 L10.45,13.2 L10.45,14.3 C10.45,15.515005 9.465005,16.5 8.25,16.5 L6.05,16.5 L6.05,17.54896 C7.53786,17.229795 9.21954,17.05 11,17.05 C12.78046,17.05 14.46214,17.229795 15.95,17.54896 L15.95,16.5 L13.75,16.5 C12.534995,16.5 11.55,15.515005 11.55,14.3 L11.55,13.2 L13.75,13.2 C14.965005,13.2 15.95,14.184995 15.95,15.4 L15.95,12.1 L13.75,12.1 C12.534995,12.1 11.55,11.115005 11.55,9.9 L11.55,8.8 L13.75,8.8 C14.965005,8.8 15.95,9.784995 15.95,11 L15.95,7.7 L13.75,7.7 C12.534995,7.7 11.55,6.715005 11.55,5.5 L11.55,4.4 L13.75,4.4 C14.965005,4.4 15.95,5.384995 15.95,6.6 L15.95,3.3 L13.75,3.3 C12.534995,3.3 11.55,2.315027 11.55,1.1 L11.55,0 L13.75,0 C14.965005,0 15.95,0.984973 15.95,2.2 L15.95,0 L17.6,0 L17.6,2.2 C17.6,0.984973 18.584995,0 19.8,0 L22,0 L22,1.1 C22,2.315027 21.015005,3.3 19.8,3.3 L17.6,3.3 L17.6,6.6 C17.6,5.384995 18.584995,4.4 19.8,4.4 L22,4.4 L22,5.5 C22,6.715005 21.015005,7.7 19.8,7.7 L17.6,7.7 L17.6,11 C17.6,9.784995 18.584995,8.8 19.8,8.8 L22,8.8 L22,9.9 C22,11.115005 21.015005,12.1 19.8,12.1 L17.6,12.1 L17.6,15.4 C17.6,14.184995 18.584995,13.2 19.8,13.2 L22,13.2 L22,14.3 C22,15.515005 21.015005,16.5 19.8,16.5 L17.6,16.5 L17.6,17.98467 C20.27179,18.837555 22,20.195505 22,21.725 C22,21.81729 21.99373,21.90903 21.9813,22 L17.6,22 L15.95,22 L6.05,22 L4.4,22 L0.0187165,22 C0.0062975,21.90903 0,21.81729 0,21.725 C0,20.195505 1.7282155,18.837555 4.4,17.98467 L4.4,16.5 L2.2,16.5 C0.984973,16.5 0,15.515005 0,14.3 L0,13.2 L2.2,13.2 C3.415005,13.2 4.4,14.184995 4.4,15.4 L4.4,12.1 L2.2,12.1 C0.984973,12.1 0,11.115005 0,9.9 L0,8.8 L2.2,8.8 C3.415005,8.8 4.4,9.784995 4.4,11 L4.4,7.7 L2.2,7.7 C0.984973,7.7 0,6.715005 0,5.5 L0,4.4 L2.2,4.4 C3.415005,4.4 4.4,5.384995 4.4,6.6 L4.4,3.3 L2.2,3.3 C0.984973,3.3 0,2.315027 0,1.1 L0,0 L2.2,0 C3.415005,0 4.4,0.984973 4.4,2.2 L4.4,0 Z M8.25,19.525 C8.25,18.765615 8.865615,18.15 9.625,18.15 L12.375,18.15 C13.134385,18.15 13.75,18.765615 13.75,19.525 C13.75,20.284385 13.134385,20.9 12.375,20.9 L9.625,20.9 C8.865615,20.9 8.25,20.284385 8.25,19.525 Z M12.1,19.25 L12.1,18.7 L9.9,18.7 L9.9,19.25 L12.1,19.25 Z"/>
  </g>
</svg>
