<svg xmlns="http://www.w3.org/2000/svg" width="24" height="24" viewBox="0 0 24 24">
  <defs>
    <linearGradient id="br-concrete5-a" x1="50%" x2="50%" y1="100.001%" y2="0%">
      <stop offset="0%" stop-color="#FFF"/>
      <stop offset=".59%" stop-color="#F7F7F7"/>
      <stop offset="3.63%" stop-color="#D3D3D3"/>
      <stop offset="7.05%" stop-color="#B2B2B2"/>
      <stop offset="10.83%" stop-color="#979797"/>
      <stop offset="15.1%" stop-color="#818181"/>
      <stop offset="20.09%" stop-color="#707070"/>
      <stop offset="26.25%" stop-color="#646464"/>
      <stop offset="34.9%" stop-color="#5E5E5E"/>
      <stop offset="58.92%" stop-color="#5C5C5C"/>
    </linearGradient>
    <linearGradient id="br-concrete5-b" x1="50%" x2="50%" y1=".002%" y2="100.014%">
      <stop offset="0%" stop-color="#6B6B6B"/>
      <stop offset="19.01%" stop-color="#676767"/>
      <stop offset="38.45%" stop-color="#5B5B5B"/>
      <stop offset="58.1%" stop-color="#464646"/>
      <stop offset="77.88%" stop-color="#2A2A2A"/>
      <stop offset="97.6%" stop-color="#050505"/>
      <stop offset="100%"/>
    </linearGradient>
    <linearGradient id="br-concrete5-c" x1="50%" x2="50%" y1="0%" y2="100%">
      <stop offset="0%" stop-color="#0D0D0D"/>
      <stop offset="27.57%" stop-color="#666"/>
      <stop offset="31.35%"/>
      <stop offset="62.16%" stop-color="#404040"/>
      <stop offset="94.05%" stop-color="#383838"/>
      <stop offset="100%"/>
    </linearGradient>
  </defs>
  <g fill="none" transform="translate(1 1)">
    <path fill="url(#br-concrete5-a)" d="M18.2490701,20.2364968 L3.51453503,20.2364968 C2.0209172,20.2364968 0.810636943,19.0262166 0.810636943,17.5332994 L0.810636943,18.3316051 C0.810636943,19.8245223 2.0209172,21.0350828 3.51453503,21.0350828 L18.2490701,21.0350828 C19.7422675,21.0350828 20.9529682,19.8245223 20.9529682,18.3316051 L20.9529682,17.5332994 C20.9529682,19.0262166 19.7424076,20.2364968 18.2490701,20.2364968 Z" opacity=".15"/>
    <path fill="url(#br-concrete5-b)" d="M17.1249682,0.0273333333 L1.56031847,0.0273333333 C1.00275159,0.0273333333 0.484980892,0.202166667 0.0510063694,0.500166667 C0.379044586,0.485333333 0.673592357,0.772166667 0.687044586,0.963166667 C1.0411465,0.779 1.43924841,0.672833333 1.8613121,0.672833333 L16.8243949,0.672833333 C17.2460382,0.672833333 17.6437197,0.779 17.9978217,0.963 C17.9280382,0.756166667 18.209414,0.4215 18.6111592,0.453333333 C18.1959618,0.2145 17.6822548,0.0273333333 17.1249682,0.0273333333 Z" opacity=".6" transform="translate(1.541 .14)"/>
    <path d="M18.8942166,0.107898089 L2.94099363,0.107898089 C1.32420382,0.107898089 0.0137324841,1.41836943 0.0137324841,3.03473885 L0.0137324841,18.9883822 C0.0137324841,20.605172 1.32420382,21.9157834 2.94099363,21.9157834 L18.8942166,21.9157834 C20.511707,21.9157834 21.8221783,20.605172 21.8221783,18.9883822 L21.8221783,3.03459873 C21.8221783,1.4182293 20.511707,0.107898089 18.8942166,0.107898089 Z"/>
    <path fill="#010101" d="M18.8276561,0.198700637 L3.00755414,0.198700637 C1.40435669,0.198700637 0.104815287,1.49810191 0.104815287,3.10129936 L0.104815287,18.9219618 C0.104815287,20.524879 1.40421656,21.8248408 3.00755414,21.8248408 L18.8276561,21.8248408 C20.4309936,21.8248408 21.7309554,20.5250191 21.7309554,18.9219618 L21.7309554,3.10129936 C21.7309554,1.49810191 20.4311338,0.198700637 18.8276561,0.198700637 Z"/>
    <path fill="url(#br-concrete5-c)" stroke="#010101" stroke-width=".765" d="M2.97616561,20.834 C1.39594904,20.834 0.114203822,19.552535 0.114203822,17.9723185 L0.114203822,17.9723185 L0.114203822,2.93020382 C0.114203822,1.34928662 1.39580892,0.0683821656 2.97616561,0.0683821656 L2.97616561,0.0683821656 L18.0178599,0.0683821656 C19.5990573,0.0683821656 20.8801019,1.34928662 20.8801019,2.93020382 L20.8801019,2.93020382 L20.8801019,17.9723185 C20.8801019,19.552535 19.5990573,20.834 18.0178599,20.834 L18.0178599,20.834 L2.97616561,20.834 L2.97616561,20.834 Z M0.318369427,2.93020382 L0.318369427,17.9723185 C0.321312102,19.4395924 1.50791083,20.6275924 2.97616561,20.6299745 L2.97616561,20.6299745 L18.0178599,20.6299745 C19.4861146,20.6275924 20.6742548,19.4395924 20.6766369,17.9723185 L20.6766369,17.9723185 L20.6766369,2.93020382 C20.6742548,1.46194904 19.4861146,0.274509554 18.0178599,0.271707006 L18.0178599,0.271707006 L2.97616561,0.271707006 C1.50805096,0.274509554 0.321312102,1.46208917 0.318369427,2.93020382 L0.318369427,2.93020382 Z" opacity=".7" transform="translate(.42 .56)"/>
    <path fill="#FFF" d="M17.777121,13.3649299 C16.2130191,11.5013758 13.8063312,15.4313885 12.5098726,16.2823822 C11.6145987,16.8702166 10.2563439,16.9164586 9.30193631,16.3553885 C7.99608917,15.5877707 8.39573248,13.7518217 9.77458599,13.2961274 C11.0008408,12.8905987 13.1445096,14.182293 13.9230573,12.8898981 C14.8818089,11.2977707 11.6049299,10.9243312 10.6352484,10.9630064 C8.88771975,11.0318089 7.20436943,11.5980637 6.16728662,12.9204459 C5.05033121,14.3447006 5.30578344,16.0664459 6.53694268,17.3585605 C7.79136306,18.5716433 9.60755414,19.0392484 11.4153376,18.8909936 C11.8721529,18.8531592 12.6567261,18.6579618 13.2574522,18.3293631 C14.448535,17.6777707 18.0933885,13.7415924 17.777121,13.3649299 Z M6.33880255,11.9703822 C6.94457325,12.0910318 5.77142675,8.7073758 5.69449682,8.24159236 C5.60173248,7.67828025 5.39378344,6.88403822 4.83509554,6.80150318 C4.18616561,6.7069172 4.00876433,7.44482803 4.14076433,8.09221656 C4.27752866,8.76594904 5.76988535,11.8567389 6.33880255,11.9703822 Z M11.3507389,10.2229936 C12.2890318,10.3562548 12.2248535,5.85270064 12.2255541,5.24076433 C12.2261146,4.6906242 12.4409299,3.16561783 11.6981146,3.02226752 C10.6784076,2.82454777 10.5770955,4.1682293 10.5550955,4.89100637 C10.5972739,5.6130828 10.3691465,10.0845478 11.3507389,10.2229936 Z M13.5854904,10.9433885 C14.6106624,11.371758 15.3952357,6.82224204 15.5081783,6.23875159 C15.6228025,5.64419108 15.6417197,4.38206369 14.6225732,4.78198726 C14.1113885,4.9822293 14.0177834,5.81136306 13.9390318,6.26859873 C13.8112357,6.85040764 12.795172,10.6129682 13.5854904,10.9433885 Z M8.65510828,10.5609809 C9.81059873,10.646879 8.72194904,6.07143949 8.63044586,5.46132484 C8.53740127,4.83943949 8.11898089,3.5931465 7.25565605,4.31872611 C6.82294268,4.68249682 7.01814013,5.52816561 7.09899363,6.00277707 C7.17522293,6.61667516 7.76417834,10.4948408 8.65510828,10.5609809 Z"/>
  </g>
</svg>
