<svg xmlns="http://www.w3.org/2000/svg" width="24" height="24" viewBox="0 0 24 24">
  <g fill="none" transform="translate(1 7)">
    <polygon fill="#FFF" points="20.128 5.957 17.368 4.374 16.892 4.168 5.603 4.246 5.603 9.977 20.128 9.977"/>
    <path fill="#F38020" d="M15.1040936,9.4497076 C15.2391813,8.98654971 15.1877193,8.5619883 14.9625731,8.24678363 C14.7567251,7.95730994 14.4093567,7.79005848 13.9912281,7.77076023 L6.07251462,7.66783626 C6.02105263,7.66783626 5.97602339,7.64210526 5.9502924,7.60350877 C5.9245614,7.56491228 5.91812865,7.51345029 5.93099415,7.4619883 C5.95672515,7.38479532 6.03391813,7.32690058 6.11754386,7.32046784 L14.1070175,7.21754386 C15.0526316,7.17251462 16.0818713,6.40701754 16.4421053,5.46783626 L16.8988304,4.27777778 C16.9181287,4.22631579 16.9245614,4.1748538 16.9116959,4.12339181 C16.397076,1.79473684 14.3192982,0.0578947368 11.8362573,0.0578947368 C9.54619883,0.0578947368 7.60350877,1.5374269 6.90877193,3.58947368 C6.45847953,3.25497076 5.88596491,3.0748538 5.26842105,3.13274854 C4.16842105,3.24210526 3.2871345,4.12339181 3.17777778,5.22339181 C3.15204678,5.50643275 3.17134503,5.78304094 3.23567251,6.04035088 C1.44093567,6.09181287 0.00643274854,7.55847953 0.00643274854,9.36608187 C0.00643274854,9.52690058 0.0192982456,9.6877193 0.0385964912,9.84853801 C0.0514619883,9.92573099 0.115789474,9.98362573 0.192982456,9.98362573 L14.8081871,9.98362573 C14.8918129,9.98362573 14.9690058,9.92573099 14.9947368,9.84210526 L15.1040936,9.4497076 Z"/>
    <path fill="#FAAE40" d="M17.625731,4.36140351 C17.5549708,4.36140351 17.4777778,4.36140351 17.4070175,4.36783626 C17.3555556,4.36783626 17.3105263,4.40643275 17.2912281,4.45789474 L16.9824561,5.53216374 C16.8473684,5.99532164 16.8988304,6.41988304 17.1239766,6.73508772 C17.3298246,7.0245614 17.677193,7.19181287 18.0953216,7.21111111 L19.7807018,7.31403509 C19.8321637,7.31403509 19.877193,7.33976608 19.902924,7.37836257 C19.928655,7.41695906 19.9350877,7.4748538 19.9222222,7.51988304 C19.8964912,7.59707602 19.8192982,7.65497076 19.7356725,7.66140351 L17.9795322,7.76432749 C17.0274854,7.80935673 16.0046784,8.5748538 15.6444444,9.51403509 L15.5157895,9.84210526 C15.4900585,9.90643275 15.5350877,9.97076023 15.605848,9.97076023 L21.6397661,9.97076023 C21.7105263,9.97076023 21.7748538,9.92573099 21.794152,9.85497076 C21.897076,9.48187135 21.9549708,9.08947368 21.9549708,8.68421053 C21.9549708,6.30409357 20.0122807,4.36140351 17.625731,4.36140351"/>
  </g>
</svg>
