<svg xmlns="http://www.w3.org/2000/svg" width="24" height="24" viewBox="0 0 24 24">
  <g fill="#0080FF" transform="translate(1 1)">
    <path d="M10.9627119,21.9627119 L10.9627119,17.7118644 C15.4621469,17.7118644 18.9548023,13.2497175 17.2271186,8.51412429 C16.5932203,6.76158192 15.1887006,5.35706215 13.4361582,4.72316384 C8.70056497,3.0079096 4.23841808,6.48813559 4.23841808,10.9875706 L4.23841808,10.9875706 L0,10.9875706 C0,3.81581921 6.93559322,-1.77740113 14.4553672,0.571751412 C17.7367232,1.60338983 20.359322,4.21355932 21.3785311,7.49491525 C23.7276836,15.0271186 18.1468927,21.9627119 10.9627119,21.9627119 Z"/>
    <polygon points="10.975 17.724 6.749 17.724 6.749 13.498 6.749 13.498 10.975 13.498 10.975 13.498"/>
    <polygon points="6.749 20.981 3.493 20.981 3.493 20.981 3.493 17.724 6.749 17.724"/>
    <polygon points="3.493 17.724 .771 17.724 .771 17.724 .771 15.002 .771 15.002 3.493 15.002 3.493 15.002"/>
  </g>
</svg>
