<svg xmlns="http://www.w3.org/2000/svg" width="24" height="24" viewBox="0 0 24 24">
  <path fill="#0084CB" d="M15.8839713,5.68619242 C14.3358271,4.13877954 12.8587484,2.66366195 12.4191497,1 C11.9795306,2.66366195 10.5022144,4.13877954 8.95433269,5.68619242 C6.63248596,8.00656871 4,10.6363638 4,14.5806033 C4,17.588564 5.60472786,20.3680344 8.20969825,21.8720147 C10.8146686,23.3759951 14.0241245,23.3759951 16.6290949,21.8720147 C19.2340653,20.3680344 20.8387931,17.588564 20.8387931,14.5806033 C20.8387931,10.6366216 18.2065244,8.00656871 15.8839713,5.68619242 M7.57850645,16.5424612 C7.06226514,16.52493 5.15702303,13.2409833 8.69155382,9.74439641 L11.0304942,12.2992913 C11.0711012,12.3394072 11.0926252,12.3949668 11.0896423,12.4519695 C11.0866594,12.5089723 11.0594541,12.5619819 11.0148819,12.5976404 C10.4567526,13.1700678 8.07786506,15.5556107 7.78218648,16.3804739 C7.72115623,16.5507307 7.63201731,16.5442911 7.57850645,16.5424612 M12.4194075,20.8706166 C11.6514306,20.8706166 10.9149061,20.5655483 10.3718648,20.0225063 C9.82882336,19.4794643 9.5237567,18.7429396 9.5237567,17.9749627 C9.53445063,17.2728539 9.78968716,16.5964589 10.2454923,16.0623121 C10.7676138,15.4238571 12.41902,13.6281432 12.41902,13.6281432 C12.41902,13.6281432 14.0451443,15.4502157 14.5886505,16.0562178 C15.0621085,16.582518 15.3212669,17.2670674 15.3150536,17.9749627 C15.3150545,19.5741855 14.0186303,20.8706166 12.4194075,20.8706166 M17.9616705,16.1748999 C17.8992604,16.3113898 17.7576873,16.5392531 17.5666052,16.54621 C17.2260056,16.5586142 17.1896103,16.3840929 16.9378636,16.0115124 C16.3851598,15.1936045 11.5617759,10.1525987 10.6595951,9.17767732 C9.86604398,8.32018789 10.547848,7.71565148 10.8641143,7.39884765 C11.2609015,7.00134937 12.4191075,5.84385287 12.4191075,5.84385287 C12.4191075,5.84385287 15.8726016,9.12052084 17.3111973,11.359387 C18.749793,13.5982531 18.2540081,15.5355824 17.9616705,16.1748999"/>
</svg>
