<svg xmlns="http://www.w3.org/2000/svg" width="24" height="24" viewBox="0 0 24 24">
  <path fill="#ED69AB" d="M10.6935,21.990502 C7.819,21.990502 4.6155,21.234 2.382,18.6645 C-1.4395,14.2665 -0.25,7.4065 3.05,3.5735 C5.9685,0.178 11.6545,-0.968 16.274,0.9065 C20.812,2.75 22.195,7 21.977,10.3655 C21.6455,15.4725 19.1605,16.4245 17.709,16.5375 C16.3106927,16.7339167 14.9450577,16.0070856 14.327,14.7375 C13.7239517,15.3827925 12.9844732,15.8853441 12.1625,16.2085 C10.8764275,16.746259 9.41815724,16.6863828 8.1805,16.045 C5.545,14.6385 5.5125,11.471 6.286,9.185 C6.7435,7.831 8.751,3.5715 15.3625,5.585 L16.168,5.8305 L16.063,6.666 C15.8245,8.566 15.532,11.542 15.6275,12.2095 C15.8835,14 16.397,14.631 17.5535,14.5435 C18.986,14.432 19.8035,12.983 19.9805,10.236 C20.0645,8.941 19.9915,4.5745 15.522,2.7605 C12.1915,1.4075 7.1835,1.831 4.565,4.877 C2.165,7.669 0.5945,13.5575 3.8915,17.3525 C7.2625,21.231 13.7945,19.8975 15.8165,19.1245 L16.5305,20.9925 C14.6555575,21.6539627 12.6817006,21.9914493 10.6935,21.990502 Z M12.1195,7.05 C10.3159413,6.92990336 8.67393687,8.08710169 8.1805,9.826 C7.9915,10.385 7.148,13.226 9.122,14.2805 C9.84632963,14.6426055 10.6936319,14.6662128 11.437,14.345 C12.4195439,13.9509217 13.2055636,13.1830644 13.6225,12.21 C13.6403835,10.5620547 13.7580992,8.91670673 13.975,7.283 C13.3673662,7.13506195 12.7448455,7.0568904 12.1195,7.05 Z" transform="translate(1 1)"/>
</svg>
