<svg xmlns="http://www.w3.org/2000/svg" width="24" height="24" viewBox="0 0 24 24">
  <defs>
    <linearGradient id="br-gravadmin-a" x1="50%" x2="50%" y1="0%" y2="100%">
      <stop offset="0%" stop-color="#A241BB"/>
      <stop offset="100%" stop-color="#49007C"/>
    </linearGradient>
  </defs>
  <g fill="none" fill-rule="evenodd">
    <g fill="#221E1F" fill-rule="nonzero" transform="translate(1 1)">
      <path d="M11.6402946 8.22113978C11.7687108 8.09286559 11.7687108 7.88496559 11.6402946 7.75679785 11.5118312 7.62852366 11.3038839 7.62852366 11.1754677 7.75679785 11.0469925 7.88496559 11.0469925 8.09286559 11.1754677 8.22113978 11.3038839 8.3492957 11.5118312 8.3492957 11.6402946 8.22113978zM10.4809065 8.45062581C10.3524312 8.57878172 10.3524312 8.78669355 10.4809065 8.91496774 10.6091452 9.04312366 10.8172699 9.04312366 10.9457333 8.91496774 11.073972 8.78669355 11.073972 8.57878172 10.9457333 8.45062581 10.8172699 8.32235161 10.6091452 8.32235161 10.4809065 8.45062581zM12.4975849 8.62143333C12.2966753 8.42067742 11.9710043 8.42085484 11.7702129 8.62143333L11.3424075 9.04877742C11.1414387 9.24953333 11.1414387 9.57486129 11.3424075 9.77538065L11.8120957 10.2447376C12.0129935 10.4454935 12.3386763 10.4453161 12.5394677 10.2447376L12.9672731 9.81739355C13.1681828 9.61663763 13.1681828 9.29130968 12.9672731 9.0906129L12.4975849 8.62143333zM16.5630194 7.02985161C17.105828 5.9972 16.3379688 5.39402151 15.8101699 4.89892688 14.9647194 4.10504624 14.1214688 3.76183441 13.1583538 4.86107742 12.1958774 5.96037957 12.8073828 7.23527957 13.6877731 7.86453871 14.5685656 8.49378602 16.0194419 8.06221935 16.5630194 7.02985161zM15.1046796 6.60637527C14.7654892 6.20025054 15.3995742 5.46291935 15.7973957 5.90320323 16.5301495 6.71438817 15.4444613 7.01248817 15.1046796 6.60637527z"/>
      <path d="M10.973872,0.075911828 C4.91317957,0.075911828 0,4.98386344 0,11.0375774 C0,17.0917527 4.91317957,22 10.973872,22 C17.0341978,22 21.9473301,17.0917527 21.9473301,11.0375774 C21.9473301,4.98386344 17.0341978,0.075911828 10.973872,0.075911828 Z M16.9079344,12.8341731 C15.7636032,12.0787215 15.1097065,11.4404022 14.5400957,10.2959172 C14.1505774,11.0800516 13.2410785,12.2460634 11.7068978,13.1633097 C10.9410022,15.5434613 7.29760108,20.0985613 6.11844839,19.4528613 C5.76931075,19.2618634 5.70300323,19.010271 5.78184839,18.7507301 C5.86641828,18.1000624 7.21383548,16.6046301 7.21383548,16.6046301 C7.21383548,16.6046301 7.2423172,16.918414 7.67336344,17.5794667 C7.10402473,15.8138602 8.61406452,13.635328 9.01408602,12.8937269 C9.64267097,12.6936097 9.68819677,11.8873806 9.68819677,11.8873806 C9.7284,10.6411634 9.17113763,9.73891505 8.63109677,9.19932366 C9.01910108,9.6723828 9.14469032,10.3872645 9.16311828,11.0419656 C9.16311828,11.0429473 9.16311828,11.044272 9.16311828,11.0456086 C9.16508172,11.1195806 9.16508172,11.1921688 9.16478602,11.2645323 C9.14635806,11.8064774 8.98225699,12.5551161 8.63109677,12.5551161 L8.63213763,12.5598473 C8.2711129,12.5443882 7.8254,12.6213645 7.42716452,12.745771 L6.54677419,12.9559301 C6.54677419,12.9559301 7.01628495,12.9344624 7.2698172,13.1532796 C6.98746022,13.6125946 6.3599043,14.1825839 5.65996129,14.5064097 C4.64157419,14.9782032 4.34887957,14.0394774 4.86593871,13.4289774 C4.9929,13.2797559 5.12113871,13.1539656 5.2423871,13.0509086 C5.16434624,12.9702419 5.11513011,12.8622172 5.10219032,12.7251194 C5.10207204,12.7244215 5.10155161,12.7237355 5.10138602,12.7230376 C5.03039462,12.4115602 5.06955699,12.0071742 5.51076344,11.3644667 C5.59787634,11.2284097 5.70230538,11.0889344 5.82742151,10.947271 C5.83141935,10.9424215 5.83476667,10.9379269 5.83881183,10.9331957 C5.84418172,10.9266785 5.85019032,10.9205043 5.85573763,10.9141527 C5.85890753,10.910628 5.86191183,10.9071151 5.86525914,10.9034247 C5.89674516,10.8676452 5.93025376,10.8326817 5.96606882,10.7989247 C6.49183333,10.2609538 7.32238065,9.70146774 8.63109677,9.19932366 C10.1573645,6.9583043 10.7162946,6.53793871 10.7162946,6.53793871 C10.885257,6.36534516 11.1806011,6.15075054 11.2891462,6.09604624 C10.4921075,4.71255376 10.3311763,2.76223011 10.5399989,2.23666667 C10.5230731,2.26512473 10.5075312,2.29419785 10.4945914,2.32432366 C10.5719935,2.14434946 10.623871,2.08647527 10.7042774,1.99178065 C10.9219355,1.73453441 11.6597043,1.59974301 11.9246151,2.14469247 C12.0657344,2.43522258 12.092371,2.81156452 12.0876871,3.09374409 C11.503457,3.06332258 10.9735172,3.72968602 10.9735172,3.72968602 C10.9735172,3.72968602 11.4574108,3.50158387 12.0585785,3.49755054 C12.0585785,3.49755054 12.2188118,3.63673011 12.4187398,3.89812796 C12.1488022,4.40447097 11.7050527,5.4771129 12.0263946,6.60319355 C12.0796559,6.82512151 12.1601806,7.01583548 12.2601742,7.1780914 C12.2639828,7.18508172 12.2671645,7.19211935 12.2710323,7.19933441 C12.2790634,7.20983763 12.2862785,7.21854301 12.2937892,7.22824194 C12.8251129,8.02731505 13.7989677,8.1207914 13.7989677,8.1207914 C13.3404925,7.8922871 12.9670957,7.52835269 12.7239602,7.08709892 C12.5975785,6.8510957 12.5201763,6.65184194 12.472628,6.49466022 C12.2147667,5.49973978 12.5943968,4.91895161 12.8117118,4.52957527 C13.3117269,3.75478495 14.2226215,3.28577097 15.2016688,3.39748602 C16.5757226,3.5541 17.5626355,4.79384731 17.405572,6.1660914 C17.3098011,7.00446882 16.8091473,7.69794194 16.1212925,8.07532473 C16.2867301,8.5225871 16.109914,9.06487527 16.109914,9.06487527 C16.5265065,9.58835699 16.5448753,9.89014731 16.5304925,10.1704699 C16.0010258,10.0815 15.486628,10.4384441 15.486628,10.4384441 C15.486628,10.4384441 16.5080785,10.1948828 17.1014989,10.7236161 C17.4874215,11.1382688 17.7448215,11.5130022 17.8981946,11.7897409 C18.1178753,12.1844398 19.1379419,12.2125903 19.0217677,12.922457 C18.9055462,13.6312828 18.1275742,13.6379774 16.9079344,12.8341731 Z"/>
    </g>
    <g transform="translate(3 15)">
      <rect width="19.426" height="8.111" x="-.405" y=".425" fill="url(#br-gravadmin-a)" stroke="#FFF" rx="4.055"/>
      <path fill="#FFF" fill-rule="nonzero" d="M3.75426064,6 L3.97016953,5.33664836 L5.01988444,5.33664836 L5.23579332,6 L5.8948836,6 L4.89204365,3.09091187 L4.09943077,3.09091187 L3.09517036,6 L3.75426064,6 Z M4.86505504,4.85653518 L4.12641938,4.85653518 L4.48437358,3.75568396 L4.50710084,3.75568396 L4.86505504,4.85653518 Z M7.03693082,6.03551133 C7.38920321,6.03551133 7.57244167,5.83238652 7.65624841,5.65056852 L7.68181657,5.65056852 L7.68181657,6 L8.27840691,6 L8.27840691,3.09091187 L7.6747143,3.09091187 L7.6747143,4.18466082 L7.65624841,4.18466082 C7.57528258,4.00710417 7.40056684,3.78977484 7.03551037,3.78977484 C6.55681764,3.78977484 6.15198848,4.16193357 6.15198848,4.91193286 C6.15198848,5.6420458 6.5397722,6.03551133 7.03693082,6.03551133 Z M7.228692,5.5539777 C6.93181729,5.5539777 6.76988562,5.2897734 6.76988562,4.90909195 C6.76988562,4.5312514 6.92897638,4.27130847 7.228692,4.27130847 C7.52272581,4.27130847 7.68749838,4.51988778 7.68749838,4.90909195 C7.68749838,5.29829612 7.51988491,5.5539777 7.228692,5.5539777 Z M9.37926056,6 L9.37926056,4.69034216 C9.37926056,4.44886512 9.5326695,4.28835391 9.73437385,4.28835391 C9.9332373,4.28835391 10.0667599,4.42471741 10.0667599,4.63920584 L10.0667599,6 L10.6534071,6 L10.6534071,4.66761491 C10.6534071,4.44176285 10.7826683,4.28835391 11.0028386,4.28835391 C11.1960202,4.28835391 11.3409064,4.40909243 11.3409064,4.65198992 L11.3409064,6 L11.944599,6 L11.944599,4.53267185 C11.944599,4.05966094 11.6633493,3.78977484 11.2570997,3.78977484 C10.9374977,3.78977484 10.6889184,3.95312695 10.5994298,4.20312671 L10.5767026,4.20312671 C10.5071004,3.95028605 10.2840892,3.78977484 9.98437362,3.78977484 C9.69033981,3.78977484 9.46732865,3.94602469 9.37641965,4.20312671 L9.35085149,4.20312671 L9.35085149,3.8181839 L8.7741475,3.8181839 L8.7741475,6 L9.37926056,6 Z M12.7258518,3.53693417 C12.9062493,3.53693417 13.0539764,3.39915021 13.0539764,3.23011628 C13.0539764,3.0625028 12.9062493,2.92471884 12.7258518,2.92471884 C12.5468747,2.92471884 12.3991475,3.0625028 12.3991475,3.23011628 C12.3991475,3.39915021 12.5468747,3.53693417 12.7258518,3.53693417 Z M13.0269878,6 L13.0269878,3.8181839 L12.4218748,3.8181839 L12.4218748,6 L13.0269878,6 Z M14.115056,6 L14.115056,4.73863757 C14.1164765,4.45738783 14.2840899,4.29261526 14.5284079,4.29261526 C14.7713054,4.29261526 14.9176121,4.45170602 14.9161916,4.71875122 L14.9161916,6 L15.5213047,6 L15.5213047,4.61079678 C15.5213047,4.10227454 15.2230095,3.78977484 14.7684645,3.78977484 C14.4446012,3.78977484 14.2102264,3.94886559 14.1122151,4.20312671 L14.0866469,4.20312671 L14.0866469,3.8181839 L13.509943,3.8181839 L13.509943,6 L14.115056,6 Z"/>
    </g>
  </g>
</svg>
