<svg xmlns="http://www.w3.org/2000/svg" width="24" height="24" viewBox="0 0 24 24">
  <g fill="none" transform="translate(1 3)">
    <path fill="#EA4335" d="M13.9579212,4.87485331 L14.6291702,4.87485331 L16.541492,2.96253143 L16.6355407,2.1511316 C13.077368,-0.989354568 7.64559933,-0.650963956 4.50511316,2.90720872 C3.6319363,3.89564124 2.9984912,5.07124895 2.65364627,6.34367142 C2.86663873,6.25607712 3.10268231,6.24224644 3.32489522,6.30310142 L7.14861693,5.67242246 C7.14861693,5.67242246 7.34316848,5.35062867 7.44367142,5.37091366 C9.14484493,3.50284996 12.0077955,3.28524728 13.9717519,4.87485331 L13.9579212,4.87485331 Z"/>
    <path fill="#4285F4" d="M19.2652137,6.34367142 C18.8253982,4.72548198 17.9236379,3.27049455 16.6687343,2.15758592 L13.9855826,4.84073764 C15.1187762,5.76647108 15.7642079,7.16152557 15.7365465,8.6248114 L15.7365465,9.1015088 C17.0559933,9.1015088 18.1246438,10.1710813 18.1246438,11.489606 C18.1246438,12.8090528 17.0550712,13.8777033 15.7365465,13.8777033 L10.95943,13.8777033 L10.4827326,14.360855 L10.4827326,17.2256496 L10.95943,17.702347 L15.7365465,17.702347 C18.475021,17.7235541 20.9046102,15.9486169 21.7178541,13.3336966 C22.529254,10.7178541 21.5334451,7.87795474 19.2652137,6.34367142 L19.2652137,6.34367142 Z"/>
    <path fill="#34A853" d="M6.17585918,17.6756077 L10.9529757,17.6756077 L10.9529757,13.851886 L6.17585918,13.851886 C5.83562448,13.851886 5.49907795,13.7790444 5.18927075,13.6370495 L4.51802179,13.8445096 L2.59279128,15.7568315 L2.42497904,16.4280805 C3.50469405,17.2431685 4.82229673,17.68114 6.17585918,17.6756077 L6.17585918,17.6756077 Z"/>
    <path fill="#FBBC05" d="M6.17585918,5.27037628 C3.52221291,5.2860855 1.17191953,6.98541492 0.325481978,9.49983236 C-0.520955574,12.0142498 0.322715842,14.789606 2.42590109,16.4068734 L5.19664711,13.6361274 C3.99430008,13.0930427 3.46043588,11.6786253 4.00352054,10.4762783 C4.5466052,9.27393127 5.96102263,8.74006706 7.16336966,9.28315172 C7.69262364,9.52288349 8.11676446,9.94702431 8.35649623,10.4762783 L11.1272422,7.70553227 C9.94794635,6.16479464 8.11584241,5.26395641 6.17585918,5.27037628 L6.17585918,5.27037628 Z"/>
  </g>
</svg>
