<svg xmlns="http://www.w3.org/2000/svg" width="24" height="24" viewBox="0 0 24 24">
  <g fill="none" transform="translate(1 2)">
    <path fill="#FC6D26" d="M21.9459763,11.5747337 L20.7151479,7.79177515 L18.2795266,0.288343195 C18.2220273,0.116677579 18.0612465,0.000970788408 17.8802071,0.000970788408 C17.6991677,0.000970788408 17.5383869,0.116677579 17.4808876,0.288343195 L15.0452663,7.78721893 L6.95278107,7.78721893 L4.51715976,0.288343195 C4.46001812,0.116495625 4.29926443,0.000540765334 4.11816568,0.000540765334 C3.93706694,0.000540765334 3.77631325,0.116495625 3.7191716,0.288343195 L1.28745562,7.78721893 L0.0566272189,11.5747337 C-0.0555421188,11.9196839 0.0668558164,12.2976467 0.359940828,12.5113609 L11,20.2426036 L21.6381065,12.5113609 C21.9325241,12.2986132 22.0567544,11.9206695 21.9459763,11.5747337"/>
    <polygon fill="#E24329" points="4.101 12.491 4.101 12.491 8.147 .041 .057 .041" transform="translate(6.9 7.746)"/>
    <polygon fill="#FC6D26" points="9.763 12.491 5.716 .041 .053 .041" transform="translate(1.237 7.746)"/>
    <path fill="#FCA326" d="M1.28550296,0.0449112426 L1.28550296,0.0449112426 L0.0546745562,3.82786982 C-0.0574947815,4.17282004 0.0649031536,4.55078277 0.357988166,4.76449704 L11,12.4970414 L1.28550296,0.0449112426 Z" transform="translate(0 7.746)"/>
    <path fill="#E24329" d="M0.0507692308,7.79047337 L5.72065089,7.79047337 L3.28047337,0.292248521 C3.22297407,0.120582905 3.06219322,0.00487611385 2.88115385,0.00487611385 C2.70011448,0.00487611385 2.53933362,0.120582905 2.48183432,0.292248521 L0.0507692308,7.79047337 Z" transform="translate(1.237)"/>
    <polygon fill="#FC6D26" points="0 12.491 4.046 .041 9.718 .041" transform="translate(11 7.746)"/>
    <path fill="#FCA326" d="M9.71384615,0.0449112426 L9.71384615,0.0449112426 L10.9446746,3.82786982 C11.0574904,4.17281938 10.9349693,4.55116228 10.6413609,4.76449704 L0,12.4911834 L9.7112426,0.0449112426 L9.71384615,0.0449112426 Z" transform="translate(11 7.746)"/>
    <path fill="#E24329" d="M5.68094675,7.79047337 L0.0117159763,7.79047337 L2.44733728,0.292248521 C2.50447893,0.12040095 2.66523262,0.00444609078 2.84633136,0.00444609078 C3.02743011,0.00444609078 3.1881838,0.12040095 3.24532544,0.292248521 L5.68094675,7.79047337 Z" transform="translate(15.036)"/>
  </g>
</svg>
