<svg xmlns="http://www.w3.org/2000/svg" width="24" height="24" viewBox="0 0 24 24">
  <g fill="none" transform="translate(1 1)">
    <path fill="#D94F3D" d="M11,4.4 C12.5272731,4.39908452 14.0055786,4.92679831 15.173,5.88964444 L18.443,2.84484444 C15.8978829,0.550199195 12.3955001,-0.437261441 8.99162237,0.180126195 C5.58774463,0.79751383 2.68058943,2.94752195 1.1465,5.98204444 L4.833,8.7604 C5.71471414,6.16068917 8.19882305,4.40429085 11,4.4 Z"/>
    <path fill="#F2C042" d="M4.50000465,10.7555556 C4.5009233,10.0773515 4.61335805,9.40370342 4.833,8.7604 L1.1465,5.98204444 C-0.382160472,8.98887767 -0.382160472,12.5222334 1.1465,15.5290667 L4.833,12.7507111 C4.61335805,12.1074077 4.5009233,11.4337596 4.50000465,10.7555556 L4.50000465,10.7555556 Z"/>
    <path fill="#5085ED" d="M21.55,8.8 L11.05,8.8 L11.05,13.2 L17,13.2 C16.6460522,14.4441 15.8351017,15.5167741 14.7225,16.2125333 L18.3805,18.9698667 C20.718,16.9184889 22.0915,13.5828 21.55,8.8 Z"/>
    <path fill="#57A75C" d="M14.721,16.2125333 C13.5905196,16.8452007 12.3017322,17.1564277 11,17.1111111 C8.19882305,17.1068203 5.71471414,15.3504219 4.833,12.7507111 L1.1465,15.5290667 C3.0038147,19.1898855 6.82061236,21.5070574 11,21.5111111 C13.6961789,21.5827313 16.324271,20.6772978 18.379,18.9688889 L14.721,16.2125333 Z"/>
  </g>
</svg>
