<svg xmlns="http://www.w3.org/2000/svg" width="24" height="24" viewBox="0 0 24 24">
  <defs>
    <linearGradient id="br-httpd-apache-a" x1="108.889%" x2="31.92%" y1="-21.684%" y2="-39.804%">
      <stop offset="0%" stop-color="#FEDC2A"/>
      <stop offset="51.418%" stop-color="#DD5789"/>
      <stop offset="89.469%" stop-color="#7A2C9E"/>
    </linearGradient>
  </defs>
  <g fill="none" fill-rule="evenodd" transform="translate(1)">
    <path fill="#000" d="M17.6399568,0.554929189 L20.1626432,3.07758 C22.0202757,4.93519459 22.0202757,7.94699459 20.1626432,9.80462703 L18.6549892,11.3122811 L13.6097351,11.3122811 L18.0603946,6.86156216 L17.2195189,6.02068649 L9.49858919,13.7416757 L9.49858919,8.69636216 L17.6399568,0.554929189 Z M8.30934054,9.88555135 L3.76538919,14.4295027 C2.28272,15.9121838 2.15250973,18.2352054 3.37474054,19.8654649 L0.401862703,22.8383189 L1.24274432,23.6792541 L4.21561622,20.7063405 C5.84593514,21.9285892 8.1688973,21.798373 9.65157838,20.3156919 L11.2524649,18.7148054 L6.20715135,18.7148054 L4.21561622,20.7063405 C4.0587027,20.5886703 3.90815135,20.4584541 3.76538919,20.3156919 C3.62262703,20.1729297 3.49241081,20.0224378 3.37474054,19.8654649 L8.3094,14.9308649 L8.30934054,9.88555135 Z M12.4416541,17.5256162 L7.39634054,17.5256162 L12.4205459,12.5014703 L17.4658,12.5014703 L12.4416541,17.5256162 Z"/>
    <path fill="url(#br-httpd-apache-a)" d="M17.6399568,0.554929189 L20.1626432,3.07758 C22.0202757,4.93519459 22.0202757,7.94699459 20.1626432,9.80462703 L18.6549892,11.3122811 L13.6097351,11.3122811 L18.0603946,6.86156216 L17.2195189,6.02068649 L9.49858919,13.7416757 L9.49858919,8.69636216 L17.6399568,0.554929189 Z M8.30934054,9.88555135 L3.76538919,14.4295027 C2.28272,15.9121838 2.15250973,18.2352054 3.37474054,19.8654649 L0.401862703,22.8383189 L1.24274432,23.6792541 L4.21561622,20.7063405 C5.84593514,21.9285892 8.1688973,21.798373 9.65157838,20.3156919 L11.2524649,18.7148054 L6.20715135,18.7148054 L4.21561622,20.7063405 C4.0587027,20.5886703 3.90815135,20.4584541 3.76538919,20.3156919 C3.62262703,20.1729297 3.49241081,20.0224378 3.37474054,19.8654649 L8.3094,14.9308649 L8.30934054,9.88555135 Z M12.4416541,17.5256162 L7.39634054,17.5256162 L12.4205459,12.5014703 L17.4658,12.5014703 L12.4416541,17.5256162 Z"/>
  </g>
</svg>
