<svg xmlns="http://www.w3.org/2000/svg" width="24" height="24" viewBox="0 0 24 24">
  <g fill="none" transform="translate(1 1)">
    <path fill="#F9AE41" d="M21.8010876,3.03234097 C21.8010876,1.44567068 20.5148484,0.159431484 18.9281781,0.159431484 C17.4794496,0.159431484 16.2818023,1.23196284 16.0844878,2.62624511 C16.0660559,2.61647706 16.0553536,2.61095599 16.0553536,2.61095599 C13.7059263,1.5512505 11.7268355,3.42815914 11.7268355,3.42815914 L6.49192773,8.68871863 L8.56037498,10.6806354 L12.773885,6.54110771 C14.741424,4.57348367 15.8127663,5.90525045 15.8127663,5.90525045 C17.2939416,7.15649455 15.8638149,8.63766993 15.8638149,8.63766993 L17.9833958,10.6806354 C19.7142084,8.81128634 19.814607,7.17976799 19.2884916,5.88189207 C20.7049431,5.70453835 21.8010876,4.49686822 21.8010876,3.03234097"/>
    <path fill="#EE4035" d="M19.3151626,16.2447687 C19.3249306,16.2264217 19.3304517,16.2157193 19.3304517,16.2157193 C20.3902421,13.8662072 18.5132485,11.8872012 18.5132485,11.8872012 L13.2526041,6.65212367 L11.2607723,8.72065589 L15.4003,12.9341658 C17.367924,14.9017899 16.0361572,15.9731321 16.0361572,15.9731321 C14.7849131,17.4543075 13.3037377,16.0241808 13.3037377,16.0241808 L11.2607723,18.1436766 C13.1300364,19.8744893 14.7616396,19.9748878 16.0594306,19.4487724 C16.2367843,20.8653088 17.4445395,21.9614534 18.9090667,21.9614534 C20.495737,21.9614534 21.7818912,20.6752141 21.7818912,19.0885439 C21.7818912,17.6398154 20.7094448,16.4421681 19.3151626,16.2447687"/>
    <path fill="#4F91CD" d="M13.2973672,11.3445226 L9.0838573,15.4839654 C7.11623322,17.4516744 6.04489102,16.1199926 6.04489102,16.1199926 C4.56371562,14.8686635 5.99384237,13.387573 5.99384237,13.387573 L3.87434645,11.3445226 C2.14353379,13.2138717 2.04313528,14.8453901 2.56916575,16.1432659 C1.15262932,16.3206197 0.0565697222,17.5282049 0.0565697222,18.9928171 C0.0565697222,20.5794874 1.34280892,21.8656416 2.92947921,21.8656416 C4.3782077,21.8656416 5.57585498,20.7932801 5.77316949,19.3989979 C5.79160136,19.4087659 5.80230374,19.414202 5.80230374,19.414202 C8.15181588,20.4740774 10.1308219,18.5969989 10.1308219,18.5969989 L15.3658145,13.3363545 L13.2973672,11.3445226"/>
    <path fill="#7AC043" d="M6.45735735,9.09099221 C4.48973329,7.12336814 5.82133019,6.05202594 5.82133019,6.05202594 C7.07274419,4.57085054 8.55383467,6.00097729 8.55383467,6.00097729 L10.596885,3.88156632 C8.72753601,2.15075366 7.09601762,2.05035514 5.79822664,2.57638561 C5.62078798,1.15976424 4.41320279,0.0637046421 2.94850566,0.0637046421 C1.36192031,0.0637046421 0.0756811148,1.34994383 0.0756811148,2.93661412 C0.0756811148,4.38542757 1.14812753,5.58307483 2.5424098,5.78038934 C2.53264175,5.79882122 2.52720562,5.8095236 2.52720562,5.8095236 C1.46724532,8.1589508 3.34432383,10.1378718 3.34432383,10.1378718 L8.60505314,15.3729494 L10.596885,13.3045021 L6.45735735,9.09099221"/>
  </g>
</svg>
