<svg xmlns="http://www.w3.org/2000/svg" xmlns:xlink="http://www.w3.org/1999/xlink" width="24" height="24" viewBox="0 0 24 24">
  <defs>
    <path id="br-linode-a" d="M18.3416594,9.74532751 C18.3416594,9.74532751 18.3416594,9.74052402 18.3416594,9.73764192 L18.3416594,9.72419214 C18.3404384,9.71686206 18.3381738,9.70974466 18.3349345,9.70305677 C18.3337587,9.69874238 18.3321493,9.69455804 18.330131,9.69056769 C18.3259725,9.68394172 18.3214836,9.67752898 18.3166812,9.67135371 L18.3089956,9.66174672 C18.3027068,9.65578515 18.2959613,9.65032454 18.288821,9.64541485 C18.288821,9.64541485 18.288821,9.64541485 18.2820961,9.64061135 L15.2751092,7.97379913 C15.234199,7.94971302 15.183443,7.94971302 15.1425328,7.97379913 L12.6120524,9.52052402 L12.600524,9.52917031 L12.5880349,9.53973799 C12.5839034,9.54430322 12.5800535,9.54911561 12.5765066,9.55414847 C12.5730743,9.55812947 12.569867,9.56229899 12.5668996,9.56663755 L12.559214,9.58393013 C12.5571883,9.58825024 12.5555798,9.59275395 12.5544105,9.59737991 C12.5539544,9.60409707 12.5539544,9.61083743 12.5544105,9.61755459 C12.5544105,9.61755459 12.5544105,9.62620087 12.5544105,9.63004367 L12.5275109,10.9750218 L11.4986026,10.2948472 C11.4551478,10.2675182 11.399874,10.2675182 11.3564192,10.2948472 L9.87598253,11.200786 L9.81161572,9.69441048 C9.81206567,9.69154595 9.81206567,9.68862873 9.81161572,9.68576419 C9.81215037,9.67937069 9.81215037,9.67294372 9.81161572,9.66655022 C9.80958539,9.66190059 9.80797774,9.65707764 9.80681223,9.65213974 L9.79912664,9.63580786 C9.7964732,9.63125003 9.79324436,9.62705255 9.78951965,9.62331878 C9.78684799,9.61822779 9.78326632,9.61366929 9.77895197,9.609869 L9.76646288,9.59834061 C9.76376573,9.59587082 9.76087431,9.59362194 9.75781659,9.59161572 L8.22069869,8.55598253 L9.66174672,7.80567686 C9.70705395,7.78181906 9.73441155,7.73384957 9.73187773,7.68270742 L9.48978166,2.01458515 C9.49024676,2.0078683 9.49024676,2.00112733 9.48978166,1.99441048 C9.48978166,1.99441048 9.48978166,1.98864629 9.48978166,1.98576419 C9.48688386,1.97459191 9.48235169,1.96390893 9.47633188,1.95406114 L9.47633188,1.94829694 C9.47138651,1.94006033 9.46523363,1.93261211 9.4580786,1.92620087 L9.45039301,1.91947598 L9.43982533,1.909869 L9.42925764,1.9050655 L9.42445415,1.9050655 L5.51633188,0.027860262 C5.48641142,0.013174218 5.45193669,0.010760987 5.42026201,0.0211353712 L0.118165939,1.67257642 C0.11595568,1.67310679 0.113651307,1.67310679 0.111441048,1.67257642 C0.101684408,1.67641117 0.0923484458,1.68124012 0.083580786,1.6869869 C0.080778642,1.68929665 0.0782049491,1.69187035 0.0758951965,1.69467249 C0.069046272,1.69992306 0.0626217302,1.70570514 0.0566812227,1.71196507 L0.0470742358,1.72829694 C0.0433415607,1.73341103 0.0401235842,1.73888159 0.0374672489,1.74462882 C0.034978375,1.75150676 0.0330506751,1.758575 0.0317030568,1.76576419 L0.0317030568,1.77825328 C0.0313423341,1.78496957 0.0313423341,1.79171166 0.0317030568,1.79842795 L0.0317030568,1.81668122 C0.0317030568,1.81668122 0.0317030568,1.81668122 0.0317030568,1.81668122 L1.21432314,7.53091703 C1.22090495,7.56160987 1.23787035,7.58909382 1.26235808,7.60873362 L2.86768559,8.85764192 L1.70716157,9.41100437 L1.70139738,9.41100437 L1.69563319,9.41100437 C1.69563319,9.41100437 1.69563319,9.41100437 1.689869,9.41676856 C1.68283194,9.42104752 1.67637433,9.42621361 1.67065502,9.43213974 L1.66200873,9.44174672 C1.6563325,9.44850456 1.65149392,9.45592372 1.64759825,9.46384279 C1.64564015,9.46651161 1.64402626,9.4694166 1.64279476,9.47248908 C1.63826106,9.48360556 1.63503703,9.49521208 1.63318777,9.50707424 L1.63318777,9.51379913 C1.63172375,9.52463783 1.63172375,9.53562418 1.63318777,9.54646288 L2.52279476,13.8475109 C2.528801,13.8737393 2.54212641,13.8977251 2.56122271,13.9166812 L3.67851528,14.9868996 L2.93781659,15.4403493 C2.92813003,15.4460117 2.91937984,15.4531415 2.91187773,15.4614847 L2.90611354,15.4682096 C2.89990483,15.4756678 2.8944352,15.4837114 2.88978166,15.4922271 L2.88978166,15.5008734 C2.8848165,15.5125775 2.88126876,15.5248333 2.87921397,15.5373799 C2.87777666,15.5498276 2.87777666,15.5623994 2.87921397,15.5748472 L3.56899563,18.9055895 C3.57374369,18.9293622 3.58505957,18.9513284 3.60165939,18.9689956 L6.38768559,21.929869 C6.39171542,21.9342112 6.39622791,21.9380791 6.40113537,21.9413974 L6.40113537,21.9462009 C6.40987962,21.9522516 6.41921396,21.9574016 6.42899563,21.9615721 C6.4433627,21.9672893 6.45868561,21.9702183 6.47414847,21.9702183 C6.48753039,21.9698549 6.50079267,21.9675906 6.51353712,21.9634934 L6.52218341,21.9634934 L6.53179039,21.9634934 C6.53694905,21.9608589 6.54178484,21.957635 6.54620087,21.9538865 L6.55676856,21.9481223 L10.1545852,19.089083 C10.1875266,19.062879 10.2060672,19.022589 10.2045415,18.980524 L10.12,17.0178166 L11.318952,18.0265502 L11.3256769,18.0313537 C11.3323538,18.0363909 11.3394213,18.0408883 11.3468122,18.0448035 L11.3544978,18.0448035 L11.3650655,18.0448035 C11.3773405,18.0494324 11.390376,18.0517137 11.4034934,18.0515284 C11.4165206,18.0515624 11.4294775,18.0496189 11.4419214,18.0457642 L11.4505677,18.0457642 L11.4601747,18.0457642 C11.4661554,18.0422565 11.4719291,18.0384073 11.4774672,18.0342358 L11.4861135,18.0342358 L14.3614847,15.741048 C14.3908872,15.717573 14.4087427,15.6825623 14.4104803,15.6449782 L14.4979039,14.2039301 L15.3731004,14.8130131 L15.3788646,14.8130131 L15.3865502,14.8178166 L15.4019214,14.8245415 L15.4134498,14.8245415 C15.424739,14.827548 15.4363537,14.8291611 15.4480349,14.829345 C15.4610621,14.829379 15.474019,14.8274355 15.4864629,14.8235808 L15.4951092,14.8235808 L15.5047162,14.8235808 L15.5239301,14.810131 L15.530655,14.810131 L17.8766812,12.9406114 C17.9026608,12.9185794 17.9197348,12.8878461 17.9247162,12.8541485 L18.3406987,9.77510917 C18.3411722,9.77192434 18.3411722,9.76868701 18.3406987,9.76550218 C18.3426833,9.75896038 18.3430134,9.7520283 18.3416594,9.74532751 L18.3416594,9.74532751 Z"/>
  </defs>
  <g fill="none" fill-rule="evenodd" transform="translate(3 1)">
    <path fill="#000" fill-rule="nonzero" d="M18.3416594,9.74532751 C18.3416594,9.74532751 18.3416594,9.74052402 18.3416594,9.73764192 L18.3416594,9.72419214 C18.3404384,9.71686206 18.3381738,9.70974466 18.3349345,9.70305677 C18.3337587,9.69874238 18.3321493,9.69455804 18.330131,9.69056769 C18.3259725,9.68394172 18.3214836,9.67752898 18.3166812,9.67135371 L18.3089956,9.66174672 C18.3027068,9.65578515 18.2959613,9.65032454 18.288821,9.64541485 C18.288821,9.64541485 18.288821,9.64541485 18.2820961,9.64061135 L15.2751092,7.97379913 C15.234199,7.94971302 15.183443,7.94971302 15.1425328,7.97379913 L12.6120524,9.52052402 L12.600524,9.52917031 L12.5880349,9.53973799 C12.5839034,9.54430322 12.5800535,9.54911561 12.5765066,9.55414847 C12.5730743,9.55812947 12.569867,9.56229899 12.5668996,9.56663755 L12.559214,9.58393013 C12.5571883,9.58825024 12.5555798,9.59275395 12.5544105,9.59737991 C12.5539544,9.60409707 12.5539544,9.61083743 12.5544105,9.61755459 C12.5544105,9.61755459 12.5544105,9.62620087 12.5544105,9.63004367 L12.5275109,10.9750218 L11.4986026,10.2948472 C11.4551478,10.2675182 11.399874,10.2675182 11.3564192,10.2948472 L9.87598253,11.200786 L9.81161572,9.69441048 C9.81206567,9.69154595 9.81206567,9.68862873 9.81161572,9.68576419 C9.81215037,9.67937069 9.81215037,9.67294372 9.81161572,9.66655022 C9.80958539,9.66190059 9.80797774,9.65707764 9.80681223,9.65213974 L9.79912664,9.63580786 C9.7964732,9.63125003 9.79324436,9.62705255 9.78951965,9.62331878 C9.78684799,9.61822779 9.78326632,9.61366929 9.77895197,9.609869 L9.76646288,9.59834061 C9.76376573,9.59587082 9.76087431,9.59362194 9.75781659,9.59161572 L8.22069869,8.55598253 L9.66174672,7.80567686 C9.70705395,7.78181906 9.73441155,7.73384957 9.73187773,7.68270742 L9.48978166,2.01458515 C9.49024676,2.0078683 9.49024676,2.00112733 9.48978166,1.99441048 C9.48978166,1.99441048 9.48978166,1.98864629 9.48978166,1.98576419 C9.48688386,1.97459191 9.48235169,1.96390893 9.47633188,1.95406114 L9.47633188,1.94829694 C9.47138651,1.94006033 9.46523363,1.93261211 9.4580786,1.92620087 L9.45039301,1.91947598 L9.43982533,1.909869 L9.42925764,1.9050655 L9.42445415,1.9050655 L5.51633188,0.027860262 C5.48641142,0.013174218 5.45193669,0.010760987 5.42026201,0.0211353712 L0.118165939,1.67257642 C0.11595568,1.67310679 0.113651307,1.67310679 0.111441048,1.67257642 C0.101684408,1.67641117 0.0923484458,1.68124012 0.083580786,1.6869869 C0.080778642,1.68929665 0.0782049491,1.69187035 0.0758951965,1.69467249 C0.069046272,1.69992306 0.0626217302,1.70570514 0.0566812227,1.71196507 L0.0470742358,1.72829694 C0.0433415607,1.73341103 0.0401235842,1.73888159 0.0374672489,1.74462882 C0.034978375,1.75150676 0.0330506751,1.758575 0.0317030568,1.76576419 L0.0317030568,1.77825328 C0.0313423341,1.78496957 0.0313423341,1.79171166 0.0317030568,1.79842795 L0.0317030568,1.81668122 C0.0317030568,1.81668122 0.0317030568,1.81668122 0.0317030568,1.81668122 L1.21432314,7.53091703 C1.22090495,7.56160987 1.23787035,7.58909382 1.26235808,7.60873362 L2.86768559,8.85764192 L1.70716157,9.41100437 L1.70139738,9.41100437 L1.69563319,9.41100437 C1.69563319,9.41100437 1.69563319,9.41100437 1.689869,9.41676856 C1.68283194,9.42104752 1.67637433,9.42621361 1.67065502,9.43213974 L1.66200873,9.44174672 C1.6563325,9.44850456 1.65149392,9.45592372 1.64759825,9.46384279 C1.64564015,9.46651161 1.64402626,9.4694166 1.64279476,9.47248908 C1.63826106,9.48360556 1.63503703,9.49521208 1.63318777,9.50707424 L1.63318777,9.51379913 C1.63172375,9.52463783 1.63172375,9.53562418 1.63318777,9.54646288 L2.52279476,13.8475109 C2.528801,13.8737393 2.54212641,13.8977251 2.56122271,13.9166812 L3.67851528,14.9868996 L2.93781659,15.4403493 C2.92813003,15.4460117 2.91937984,15.4531415 2.91187773,15.4614847 L2.90611354,15.4682096 C2.89990483,15.4756678 2.8944352,15.4837114 2.88978166,15.4922271 L2.88978166,15.5008734 C2.8848165,15.5125775 2.88126876,15.5248333 2.87921397,15.5373799 C2.87777666,15.5498276 2.87777666,15.5623994 2.87921397,15.5748472 L3.56899563,18.9055895 C3.57374369,18.9293622 3.58505957,18.9513284 3.60165939,18.9689956 L6.38768559,21.929869 C6.39171542,21.9342112 6.39622791,21.9380791 6.40113537,21.9413974 L6.40113537,21.9462009 C6.40987962,21.9522516 6.41921396,21.9574016 6.42899563,21.9615721 C6.4433627,21.9672893 6.45868561,21.9702183 6.47414847,21.9702183 C6.48753039,21.9698549 6.50079267,21.9675906 6.51353712,21.9634934 L6.52218341,21.9634934 L6.53179039,21.9634934 C6.53694905,21.9608589 6.54178484,21.957635 6.54620087,21.9538865 L6.55676856,21.9481223 L10.1545852,19.089083 C10.1875266,19.062879 10.2060672,19.022589 10.2045415,18.980524 L10.12,17.0178166 L11.318952,18.0265502 L11.3256769,18.0313537 C11.3323538,18.0363909 11.3394213,18.0408883 11.3468122,18.0448035 L11.3544978,18.0448035 L11.3650655,18.0448035 C11.3773405,18.0494324 11.390376,18.0517137 11.4034934,18.0515284 C11.4165206,18.0515624 11.4294775,18.0496189 11.4419214,18.0457642 L11.4505677,18.0457642 L11.4601747,18.0457642 C11.4661554,18.0422565 11.4719291,18.0384073 11.4774672,18.0342358 L11.4861135,18.0342358 L14.3614847,15.741048 C14.3908872,15.717573 14.4087427,15.6825623 14.4104803,15.6449782 L14.4979039,14.2039301 L15.3731004,14.8130131 L15.3788646,14.8130131 L15.3865502,14.8178166 L15.4019214,14.8245415 L15.4134498,14.8245415 C15.424739,14.827548 15.4363537,14.8291611 15.4480349,14.829345 C15.4610621,14.829379 15.474019,14.8274355 15.4864629,14.8235808 L15.4951092,14.8235808 L15.5047162,14.8235808 L15.5239301,14.810131 L15.530655,14.810131 L17.8766812,12.9406114 C17.9026608,12.9185794 17.9197348,12.8878461 17.9247162,12.8541485 L18.3406987,9.77510917 C18.3411722,9.77192434 18.3411722,9.76868701 18.3406987,9.76550218 C18.3426833,9.75896038 18.3430134,9.7520283 18.3416594,9.74532751 L18.3416594,9.74532751 Z"/>
    <mask id="br-linode-b" fill="#fff">
      <use xlink:href="#br-linode-a"/>
    </mask>
    <g mask="url(#br-linode-b)">
      <g transform="translate(-.096 1.73)">
        <g transform="translate(3.939 .192)">
          <polygon fill="#00A95C" fill-rule="nonzero" points="14.515 7.745 14.075 10.983 11.599 12.957 11.868 9.782"/>
          <polygon fill="#00A95C" fill-rule="nonzero" points="7.57 12.852 7.561 16.184 10.572 13.778 10.763 10.513"/>
          <polygon fill="#00A95C" fill-rule="nonzero" points="6.22 13.748 2.199 16.698 2.647 20.118 6.366 17.156"/>
          <polygon fill="#00A95C" fill-rule="nonzero" points="6.152 12.117 5.977 7.68 1.302 10.512 1.944 14.961"/>
          <polygon fill="#00A95C" fill-rule="nonzero" points="5.633 .075 .095 2.321 1.008 8.501 4.387 6.627 4.398 6.66 5.928 5.888 5.928 5.772"/>
        </g>
        <path fill="#546758" fill-rule="nonzero" d="M15.8073362,9.9749345 L15.5383406,13.1327511 L14.5939738,12.4717904 L14.69869,10.7050655 L14.69869,10.700262 C14.69869,10.700262 14.69869,10.700262 14.69869,10.6944978 C14.6991624,10.6887433 14.6991624,10.6829598 14.69869,10.6772052 C14.69869,10.6772052 14.69869,10.6695197 14.69869,10.6656769 C14.6962842,10.6552516 14.6924022,10.6452231 14.6871616,10.6358952 C14.6871616,10.6358952 14.6871616,10.6358952 14.6871616,10.6358952 C14.6821675,10.6254703 14.6753331,10.6160323 14.6669869,10.6080349 L14.6612227,10.6032314 C14.6562378,10.5979314 14.6507703,10.5931071 14.6448908,10.588821 L12.6206987,9.25248908 L12.648559,7.88733624 L15.8073362,9.9749345 Z M11.5091703,13.0443668 L10.0796507,12.0144978 L10.0854148,12.2383406 C10.0874086,12.2843777 10.0651807,12.3281049 10.0268122,12.3536245 L9.07283843,12.9963319 L10.110393,13.8436681 C10.1127071,13.8464663 10.1152804,13.8490396 10.1180786,13.8513537 C10.1236664,13.8564164 10.1285171,13.8622372 10.1324891,13.8686463 C10.1350463,13.8716157 10.1372992,13.8748342 10.139214,13.8782533 L10.1478603,13.8974672 C10.1482732,13.901299 10.1482732,13.9051639 10.1478603,13.9089956 C10.1483166,13.9160334 10.1483166,13.9230933 10.1478603,13.930131 C10.1478603,13.930131 10.1478603,13.930131 10.1478603,13.9378166 L10.2055022,15.2827948 L11.4889956,16.3635808 L11.5091703,13.0443668 Z M2.91956332,13.7581659 L3.64104803,17.1859389 L6.59135371,20.3274236 L6.13790393,16.8900437 L2.91956332,13.7581659 Z M5.88331878,15.1531004 L5.23965066,10.7041048 L1.72925764,7.83641921 L2.59388646,12.1951092 L5.88331878,15.1531004 Z M4.94663755,8.69336245 L4.0349345,2.51318777 L0.0701310044,1.36523495e-15 L1.29982533,5.84200873 L4.94663755,8.69336245 Z"/>
      </g>
    </g>
  </g>
</svg>
