<svg xmlns="http://www.w3.org/2000/svg" width="24" height="24" viewBox="0 0 24 24">
  <g fill="#E17107" transform="translate(1 3)">
    <path d="M13.0597712,16.4754037 L13.0924791,15.3025942 C13.0971516,15.1250374 13.1438771,11.0459031 9.06474282,10.01327 C8.82177033,9.95252691 8.65355861,9.73291717 8.64888606,9.48527213 C8.64888606,9.23295455 8.81242524,9.0133448 9.05539773,8.94792913 C13.1018242,7.85455293 13.0878065,3.70065789 13.0878065,3.65860496 L13.0737889,2.61662679 L13.8447593,3.31750897 C13.9522279,3.41563248 16.5127841,5.77994169 16.6389429,9.26098983 C16.7183762,11.4804501 15.7838666,13.620477 13.868122,15.6296725 L13.0597712,16.4754037 L13.0597712,16.4754037 Z M10.2889504,9.46658194 C12.8635242,10.550613 13.6531848,12.8588517 13.8914847,14.2325807 C15.1764354,12.6392419 15.7978843,10.98516 15.7371411,9.29369767 C15.6670529,7.24244916 14.601712,5.58369468 13.8821397,4.69123804 C13.6344946,6.04627691 12.8401615,8.34517045 10.2889504,9.46658194 L10.2889504,9.46658194 Z M3.50441089,9.93383672 L2.7054052,9.93383672 C2.45776017,9.93383672 2.25216806,9.73291717 2.25216806,9.48059958 C2.25216806,9.23295455 2.45308762,9.02736244 2.7054052,9.02736244 L3.50441089,9.02736244 C3.75205592,9.02736244 3.95764803,9.228282 3.95764803,9.48059958 C3.95764803,9.72824462 3.75672847,9.93383672 3.50441089,9.93383672 Z M1.25691537,9.93383672 L0.453237141,9.93383672 C0.205592105,9.93383672 0,9.73291717 0,9.48059958 C0,9.23295455 0.200919557,9.02736244 0.453237141,9.02736244 L1.25691537,9.02736244 C1.50456041,9.02736244 1.71015251,9.228282 1.71015251,9.48059958 C1.70547996,9.72824462 1.50456041,9.93383672 1.25691537,9.93383672 Z M5.66780054,9.93383672 L4.70992823,9.93383672 C4.46228319,9.93383672 4.25669109,9.73291717 4.25669109,9.48059958 C4.25669109,9.23295455 4.45761065,9.02736244 4.70992823,9.02736244 L5.66780054,9.02736244 C5.91544557,9.02736244 6.12103768,9.228282 6.12103768,9.48059958 C6.11636513,9.72824462 5.91544557,9.93383672 5.66780054,9.93383672 Z M7.66765102,9.93383672 L6.86397279,9.93383672 C6.61632775,9.93383672 6.41073565,9.73291717 6.41073565,9.48059958 C6.41073565,9.23295455 6.6116552,9.02736244 6.86397279,9.02736244 L7.66765102,9.02736244 C7.91529605,9.02736244 8.12088816,9.228282 8.12088816,9.48059958 C8.12088816,9.72824462 7.9199686,9.93383672 7.66765102,9.93383672 Z M11.0412306,4.40154007 C10.3637111,4.40154007 9.81702303,3.85485197 9.81702303,3.17733254 C9.81702303,3.85485197 9.27033493,4.40154007 8.59281549,4.40154007 C9.27033493,4.40154007 9.81702303,4.94822817 9.81702303,5.62574761 C9.81702303,4.94822817 10.3637111,4.40154007 11.0412306,4.40154007 Z M20.0078499,11.2514952 C19.2789324,11.2514952 18.6901914,10.6627542 18.6901914,9.93383672 C18.6901914,10.6627542 18.1014504,11.2514952 17.3725329,11.2514952 C18.1014504,11.2514952 18.6901914,11.8402362 18.6901914,12.5691537 C18.6901914,11.8402362 19.2789324,11.2514952 20.0078499,11.2514952 Z M9.81702303,13.9288651 C8.88251346,13.9288651 8.12088816,13.1719124 8.12088816,12.2327303 C8.12088816,13.1672398 7.36393541,13.9288651 6.42475329,13.9288651 C7.35926286,13.9288651 8.12088816,14.6858179 8.12088816,15.625 C8.12556071,14.6858179 8.88251346,13.9288651 9.81702303,13.9288651 L9.81702303,13.9288651 Z"/>
    <path d="M12.5177557,18.9565266 C7.87791567,18.9565266 3.95297548,15.6483627 3.17733254,11.0786109 C3.13060706,10.8076032 3.31283642,10.5459405 3.58851675,10.499215 C3.86419707,10.4571621 4.1211872,10.6347189 4.16791268,10.9103992 C4.86412231,14.994206 8.37320574,17.9519288 12.5177557,17.9519288 L12.5504635,17.9519288 C14.8119767,17.9425837 16.9379859,17.0547996 18.5313248,15.4474432 C20.1246636,13.8400867 20.99843,11.7094049 20.9890849,9.44789175 C20.9797398,7.18637859 20.0919557,5.06036932 18.4845993,3.4670305 C16.8865879,1.87836423 14.7699237,1.00927033 12.5177557,1.00927033 L12.4850478,1.00927033 C8.34517045,1.02328798 4.84075957,3.99502841 4.15856758,8.07416268 C4.11184211,8.349843 3.85485197,8.53207237 3.57917165,8.48534689 C3.30349133,8.43862141 3.12126196,8.18163128 3.16798744,7.90595096 C3.93895783,3.34554426 7.85455293,0.0233627392 12.4850478,0.00467254785 L12.5224282,0.00467254785 C15.0409315,0.00467254785 17.4099133,0.981235048 19.1994991,2.75680323 C20.9937575,4.54171651 21.9890102,6.91537081 21.9984217,9.44789175 C22.0077004,11.9804127 21.0311379,14.3634121 19.2462246,16.1576705 C17.4613113,17.9519288 15.087657,18.9471815 12.5551361,18.9565266 L12.5177557,18.9565266 Z"/>
  </g>
</svg>
