<svg xmlns="http://www.w3.org/2000/svg" width="24" height="24" viewBox="0 0 24 24">
  <defs>
    <linearGradient id="br-memcached-a" x1="0%" x2="89.516%" y1="84.716%" y2="3.63%">
      <stop offset="0%" stop-color="#02AAB0"/>
      <stop offset=".01%" stop-color="#02AAB0"/>
      <stop offset="100%" stop-color="#00CDAC"/>
    </linearGradient>
    <linearGradient id="br-memcached-b" x1="6.042%" x2="27.196%" y1="55.707%" y2="35.414%">
      <stop offset="0%" stop-color="#FF4B2B"/>
      <stop offset="100%" stop-color="#FF416C"/>
    </linearGradient>
  </defs>
  <g fill="none" fill-rule="evenodd" transform="translate(1 2)">
    <polygon fill="#000" fill-rule="nonzero" points="5.071 19.092 5.071 4.528 5.22 4.528 9.471 14.244 12.529 14.244 16.78 4.602 16.929 4.602 16.929 19.092 22 19.092 22 0 15.549 0 11.112 7.104 10.888 7.104 6.451 0 0 0 0 19.092"/>
    <polygon fill="url(#br-memcached-a)" fill-rule="nonzero" points="5.071 19.092 5.071 4.528 5.22 4.528 9.471 14.244 12.529 14.244 16.78 4.602 16.929 4.602 16.929 19.092 22 19.092 22 0 15.549 0 11.112 7.104 10.888 7.104 6.451 0 0 0 0 19.092"/>
    <path fill="#000" d="M8.088245,18.76468 C8.981665,18.76468 9.705905,18.04044 9.705905,17.147075 C9.705905,16.253655 8.981665,15.529415 8.088245,15.529415 C7.194825,15.529415 6.470585,16.253655 6.470585,17.147075 C6.470585,18.04044 7.194825,18.76468 8.088245,18.76468 Z M13.911755,18.76468 C14.805175,18.76468 15.529415,18.04044 15.529415,17.147075 C15.529415,16.253655 14.805175,15.529415 13.911755,15.529415 C13.018335,15.529415 12.294095,16.253655 12.294095,17.147075 C12.294095,18.04044 13.018335,18.76468 13.911755,18.76468 Z"/>
    <path fill="url(#br-memcached-b)" d="M8.088245,18.76468 C8.981665,18.76468 9.705905,18.04044 9.705905,17.147075 C9.705905,16.253655 8.981665,15.529415 8.088245,15.529415 C7.194825,15.529415 6.470585,16.253655 6.470585,17.147075 C6.470585,18.04044 7.194825,18.76468 8.088245,18.76468 Z M13.911755,18.76468 C14.805175,18.76468 15.529415,18.04044 15.529415,17.147075 C15.529415,16.253655 14.805175,15.529415 13.911755,15.529415 C13.018335,15.529415 12.294095,16.253655 12.294095,17.147075 C12.294095,18.04044 13.018335,18.76468 13.911755,18.76468 Z"/>
  </g>
</svg>
