<svg xmlns="http://www.w3.org/2000/svg" width="24" height="24" viewBox="0 0 24 24">
  <g fill="none" transform="translate(1 2)">
    <polygon fill="#FFF" points="4.889 17.6 3.911 16.622 2.689 20.533 6.356 18.089"/>
    <polygon fill="#FFF" points="19.062 16.404 18.085 15.426 16.862 19.337 20.529 16.893" transform="rotate(-77 18.696 17.382)"/>
    <ellipse cx="11" cy="9.623" fill="#FFF" rx="11" ry="9.623"/>
    <path fill="#027DCC" d="M10.9650801.714384152C5.17859181.714384152.488888889 4.71076657.488888889 9.63944874.488888889 9.77398794.488888889 9.90663222.500234944 10.0392765.500234944 10.0885444.500234944 10.1378122.509689992 10.1870801.509689992 10.2685616.522927054 10.3481481.530491092 10.4277347.538055129 10.5073213.541837147 10.5490095.549401184 10.6172265.563268586 10.7271318.579657332 10.8364054.598567425 10.9450474.710136971 8.72799312 2.11137482 6.81223085 3.76789891 5.38914728 6.3453445 3.17209303 11.0274834 1.09905254 14.0776813 3.6894057 14.4771806 4.03571366 14.8350984 4.42743906 15.1442105 4.85667529 16.4422773 5.29453112 17.6570598 5.94930698 18.7371281 6.79328166 19.7658371 7.60051681 20.9155707 8.71093884 21.4299252 10.0013781 21.4299252 9.88199828 21.4412713 9.76072352 21.4412713 9.63944874 21.4412713 4.71076657 16.7515684.714384152 10.9650801.714384152L10.9650801.714384152 10.9650801.714384152zM15.1026083 16.2640827C14.5041644 16.3071742 13.9038103 16.3172957 13.3042585 16.2944014 11.5834401 17.0049957 9.60544444 17.228596 7.7560374 17.0959518L6.82376985 17.8406546C7.30545755 18.0168879 7.79818145 18.1612127 8.29875706 18.272696L8.29875706 18.272696C8.4588625 18.3080678 8.62085896 18.3402814 8.78474642 18.3693368L8.81500258 18.3693368C8.96817433 18.3958656 9.12323708 18.4186046 9.27829982 18.4413437L9.34070314 18.4413437C9.48631085 18.4602928 9.63380958 18.4754522 9.78130829 18.4906116L9.87396774 18.5000861C10.0157934 18.5114556 10.1595101 18.5209302 10.3032269 18.5285099L10.4129054 18.5285099C10.6020063 18.5285099 10.7740881 18.5417743 10.957516 18.5417743 11.1409439 18.5417743 11.2789876 18.5417743 11.4378324 18.5304048L11.572094 18.5304048C11.6981613 18.5304048 11.8242286 18.5221935 11.9502959 18.5057709L12.0524104 18.5057709C12.2036911 18.4918748 12.3537112 18.4754522 12.5024706 18.456503L12.6480783 18.4356589 12.9657679 18.3863911 13.1265036 18.3598622C13.263917 18.3358599 13.4000696 18.309331 13.5349616 18.2802756L13.7051525 18.2404823 13.9623297 18.17795 14.1684497 18.1229974 14.3915888 18.0585702C14.5126134 18.0225668 14.633638 17.9846684 14.7527716 17.9448751L14.9305265 17.8861326 15.1725756 17.7970715 15.3125103 17.7440138C15.591119 17.6353718 15.862794 17.5166236 16.1275353 17.3877692L16.2239768 17.3403962C16.3109632 17.2968131 16.3979496 17.25323 16.483045 17.2077519L15.1026083 16.2640827 15.1026083 16.2640827z"/>
    <path fill="#282C2D" d="M20.9080067,11.6139535 C20.9628459,9.29267873 19.0831828,7.46976743 17.2791599,6.30818261 C17.1430073,6.21975308 17.0024422,6.13258685 16.8574649,6.04668389 L16.8574649,6.04668389 C16.4100593,5.77712168 15.947224,5.5341529 15.4713551,5.31903531 C17.5628113,8.62187768 17.7632583,13.9560724 14.1287385,15.9040482 C13.9963679,15.9741602 13.8602152,16.0423773 13.7240626,16.1068045 L13.7240626,16.1068045 L14.3178395,16.1068045 L14.3178395,16.1068045 C14.5069404,16.1068045 14.7054963,16.0973299 14.8851422,16.0859604 C15.664238,16.0423773 15.9630175,16.3152455 16.6229797,16.7681309 L16.9179772,16.9708872 L16.9860535,16.9310939 L16.9198682,16.9727821 L16.9198682,16.9727821 L19.3157769,18.6251507 L18.2492477,16.0556417 L18.2492477,16.0556417 L18.1981904,16.095435 L18.2492477,16.0537468 L18.1357871,15.7827735 C18.1442426,15.7738816 18.1557075,15.7684752 18.1679343,15.7676141 L18.1490242,15.7676141 C19.4708396,14.8807924 20.8701865,13.3023256 20.9080067,11.6139535 L20.9080067,11.6139535 L20.9080067,11.6139535 Z"/>
    <path fill="#282C2D" d="M12.5213807,3.42222222 C10.136818,2.01808785 7.25491996,3.51128338 5.32230852,5.09543496 C3.46533743,6.6113695 1.44195755,8.90801034 1.738846,11.5229974 C1.96009408,13.4652885 3.06255246,15.2673557 4.59616095,16.4497847 L4.58481491,16.4497847 C4.60561601,16.4611542 4.61885307,16.4706288 4.61696207,16.4782084 L3.54854185,19.4911283 L6.16758963,17.391559 C6.855917,16.836348 7.19818968,16.8230835 8.0415798,16.8420327 C11.6136963,16.9500431 15.6755841,15.4037898 15.7682436,11.1875969 C15.8268648,8.53660637 14.9664556,4.86046511 12.5213807,3.42222222 L12.5213807,3.42222222 L12.5213807,3.42222222 Z M6.59873974,5.73970716 C6.59873974,5.73970716 8.80365652,3.32179156 11.6212603,4.57622738 C14.6582211,5.92919898 14.9267444,10.76882 14.9267444,10.76882 C11.6628625,2.88027562 6.59873974,5.73970716 6.59873974,5.73970716 L6.59873974,5.73970716 L6.59873974,5.73970716 Z"/>
  </g>
</svg>
