<svg xmlns="http://www.w3.org/2000/svg" width="24" height="24" viewBox="0 0 24 24">
  <defs>
    <linearGradient id="br-mariadb-a" x1="100%" x2="14.508%" y1="62.137%" y2="29.411%">
      <stop offset="0%" stop-color="#F4D19A"/>
      <stop offset="100%" stop-color="#DC7866"/>
    </linearGradient>
    <linearGradient id="br-mariadb-b" x1="100.098%" x2="25.148%" y1="12.014%" y2="103.9%">
      <stop offset="0%" stop-color="#F4D19A"/>
      <stop offset="100%" stop-color="#DC7866"/>
    </linearGradient>
  </defs>
  <g fill="none" transform="translate(1 2)">
    <path fill="#000" d="M19.63401,16.376085 L20.14441,16.376085 C21.169225,16.376085 22,17.20686 22,18.231675 L22,19.156995 L16.951715,19.156995 C18.05386,18.4602 18.97665,17.50463 19.63401,16.376085 Z"/>
    <path fill="url(#br-mariadb-a)" d="M19.63401,16.376085 L20.14441,16.376085 C21.169225,16.376085 22,17.20686 22,18.231675 L22,19.156995 L16.951715,19.156995 C18.05386,18.4602 18.97665,17.50463 19.63401,16.376085 Z"/>
    <path fill="#000" d="M1.0017755,0.007084 C1.92951,0.007084 2.75374,0.4578255 3.2676435,1.151601 C3.85077,0.4527105 4.72769,0.007084 5.70691,0.007084 L6.35173,0.007084 L6.351785,1.77441 C6.351785,3.246045 5.24502,4.463305 3.820245,4.639525 L3.820245,5.063025 C3.82206,7.78965 6.040815,10.007305 8.76777,10.007305 L8.912475,10.007305 C10.29281,10.007305 11.58773,9.47441 12.558645,8.50663 C13.527525,7.54094 14.06119,6.25526 14.06119,4.886475 L14.06119,4.630175 C14.06119,2.70941 15.62396,1.1467885 17.544835,1.1467885 L21.978495,1.1467885 L21.978495,2.66882 C21.978495,4.18033 20.90561,5.446045 19.481385,5.74431 L19.481385,12.32044 C19.481385,16.09014 16.414585,19.15694 12.64494,19.15694 L10.845285,19.15694 L10.845285,17.86719 C10.927785,17.01788 11.645975,16.35183 12.516515,16.35183 L15.164765,16.35183 L15.164765,12.526525 L13.87496,12.526525 L13.87496,15.062025 L12.516515,15.062025 C10.879495,15.062025 9.547725,16.393795 9.547725,18.03076 L9.547725,19.10975 C5.607305,18.679705 2.530517,15.332295 2.530517,11.27929 L2.530473,4.617305 C1.0955725,4.370795 0,3.118445 0,1.6142445 L0,0.007084 L1.0017755,0.007084 Z"/>
    <path fill="url(#br-mariadb-b)" d="M1.0017755,0.007084 C1.92951,0.007084 2.75374,0.4578255 3.2676435,1.151601 C3.85077,0.4527105 4.72769,0.007084 5.70691,0.007084 L6.35173,0.007084 L6.351785,1.77441 C6.351785,3.246045 5.24502,4.463305 3.820245,4.639525 L3.820245,5.063025 C3.82206,7.78965 6.040815,10.007305 8.76777,10.007305 L8.912475,10.007305 C10.29281,10.007305 11.58773,9.47441 12.558645,8.50663 C13.527525,7.54094 14.06119,6.25526 14.06119,4.886475 L14.06119,4.630175 C14.06119,2.70941 15.62396,1.1467885 17.544835,1.1467885 L21.978495,1.1467885 L21.978495,2.66882 C21.978495,4.18033 20.90561,5.446045 19.481385,5.74431 L19.481385,12.32044 C19.481385,16.09014 16.414585,19.15694 12.64494,19.15694 L10.845285,19.15694 L10.845285,17.86719 C10.927785,17.01788 11.645975,16.35183 12.516515,16.35183 L15.164765,16.35183 L15.164765,12.526525 L13.87496,12.526525 L13.87496,15.062025 L12.516515,15.062025 C10.879495,15.062025 9.547725,16.393795 9.547725,18.03076 L9.547725,19.10975 C5.607305,18.679705 2.530517,15.332295 2.530517,11.27929 L2.530473,4.617305 C1.0955725,4.370795 0,3.118445 0,1.6142445 L0,0.007084 L1.0017755,0.007084 Z"/>
  </g>
</svg>
