<svg width="48" height="48" viewBox="0 0 48 48" fill="none" xmlns="http://www.w3.org/2000/svg">
<path fill-rule="evenodd" clip-rule="evenodd" d="M43.1051 13.0953L43.0317 35.0318L23.9975 45.9364L5.03669 34.9047L5.11009 12.9682L24.1443 2.06357L27.5919 4.06896L26.0876 6.65453L24.1327 5.51766L8.09564 14.7053L8.0338 33.1876L24.0091 42.4823L40.0462 33.2947L40.108 14.8124L38.5952 13.9322C38.9404 12.8951 39.1056 11.8262 39.1019 10.7665L43.1051 13.0953Z" fill="url(#paint0_linear)"/>
<path fill-rule="evenodd" clip-rule="evenodd" d="M22.2694 17.1818L23.9255 23.4462L19.4172 31.1951C19.615 31.3515 19.8264 31.4959 20.0507 31.6264C20.2002 31.7134 20.3521 31.7923 20.506 31.8633L20.7383 31.9638L22.558 28.8361L28.8224 27.18L27.3603 29.694C26.0059 32.0219 23.164 32.9463 20.7383 31.9638L18.0223 36.6315L16.702 35.8633L19.4172 31.1951C17.3646 29.5717 16.764 26.6446 18.1183 24.3168L22.2694 17.1818ZM34.4982 17.4247L29.9085 25.3133L23.6441 26.9694L28.2325 19.0812L34.4982 17.4247ZM33.1403 3.89769C36.9482 6.11321 38.2391 10.9962 36.0236 14.8041L35.5848 15.5571L29.3196 17.2127L33.3857 10.2257L32.0654 9.45757L25.0117 21.5794L23.3561 15.3142L30.7931 2.53205L33.1403 3.89769Z" fill="url(#paint1_linear)"/>
<defs>
<linearGradient id="paint0_linear" x1="-1.14803" y1="28.9951" x2="56.8704" y2="10.7353" gradientUnits="userSpaceOnUse">
<stop stop-color="#009B2B"/>
<stop offset="1" stop-color="#BDFF00"/>
</linearGradient>
<linearGradient id="paint1_linear" x1="39.3608" y1="-6.39513" x2="13.8239" y2="-5.21109" gradientUnits="userSpaceOnUse">
<stop stop-color="#FEDC2A"/>
<stop offset="0.51418" stop-color="#DD5789"/>
<stop offset="0.894689" stop-color="#7A2C9E"/>
</linearGradient>
</defs>
</svg>
