<svg xmlns="http://www.w3.org/2000/svg" width="24" height="24" viewBox="0 0 24 24">
  <path fill="#FA7600" d="M20.5631316,11.5385848 C20.2164604,5.91831978 14.0410158,1.05371492 11.4972849,1.00037421 C8.95253373,0.945665783 4.197455,6.89862639 4.00489761,12.9466429 C3.82390712,18.6178551 8.70656384,22.5059145 10.8076847,23 C10.8662002,20.3312546 11.0812113,10.5090406 11.1172735,9.36289906 C11.1927995,7.02137841 11.3098309,3.38053267 11.7031105,3.25914835 C11.9293483,3.1893951 12.2375763,5.23719987 12.2001536,6.44728188 C12.1923287,6.67842497 12.189607,7.42622076 12.189607,8.48688039 C12.6148664,8.0581031 13.0601977,7.61188749 13.3299821,7.34894512 C14.0702735,6.62747776 14.3982336,6.71295965 14.0423766,7.35680945 C13.8243036,7.75207784 12.88329,9.06918318 12.1923287,10.0228194 C12.1950503,11.9475303 12.2042361,14.3690619 12.2134216,16.6247587 C13.1904973,15.4922943 14.3863262,14.132448 15.0136686,13.5289457 C16.3319724,12.2627875 16.4714575,12.4228097 15.8495583,13.7518825 C15.4681857,14.5653284 13.5997669,16.7382787 12.2202256,18.4520202 C12.2280506,20.4543486 12.2362155,22.1373165 12.2375763,22.9411885 C15.9359711,22.1345811 20.9033393,17.0562714 20.5631316,11.5385848"/>
</svg>
