<svg xmlns="http://www.w3.org/2000/svg" width="24" height="24" viewBox="0 0 24 24">
  <g fill="none" transform="translate(1 1)">
    <path fill="#75D1DF"
      d="M19.7861795,4.56485897 C19.7540256,4.52142308 19.7048077,4.49491026 19.6522051,4.49067949 C19.5990385,4.48644872 19.547,4.50605128 19.5085,4.54342308 L18.6417564,5.40720513 C18.5787179,5.47052564 18.5708205,5.57065385 18.6215897,5.6435641 C19.739359,7.22347436 20.3315256,9.07514103 20.3315256,10.999859 C20.3315256,16.1437692 16.1391154,20.3299744 10.9858974,20.3299744 C10.6285385,20.3299744 10.2566538,20.3038846 9.81778205,20.2497308 C9.7905641,20.245641 9.67365385,20.2277308 9.59933333,20.2156026 C9.23153846,20.1593333 8.89279487,20.0892436 8.56251282,20.0012436 C8.56251282,20.0012436 8.51019231,19.9878462 8.49905128,19.9841795 C8.49566667,19.9836154 8.49312821,19.9824872 8.48946154,19.9809359 C8.07287179,19.8638846 7.66671795,19.7190513 7.28058974,19.5498205 C6.89530769,19.3832692 6.50875641,19.1803333 6.12883333,18.9441154 L17.4784359,12.9419231 C17.8391795,12.7506923 18.0587564,12.4144872 18.0652436,12.0423205 C18.072859,11.670859 17.8671026,11.3261923 17.5131282,11.1215641 L13.6153205,8.86557692 L19.3828462,3.09791026 C19.7976026,2.68414103 19.7646026,2.31141026 19.6647564,2.0740641 C19.5454487,1.78044872 19.2358974,1.57511538 18.9121026,1.57511538 C18.7380769,1.57511538 18.5764615,1.62165385 18.3719744,1.73123077 L4.52494872,9.05342308 C4.16279487,9.24437179 3.94251282,9.58170513 3.93574359,9.95697436 C3.93024359,10.3302692 4.13910256,10.6733846 4.49335897,10.8749103 L8.39807692,13.1218718 L4.17830769,17.3406538 C3.9435,17.0859615 3.72138462,16.8198462 3.51689744,16.5448462 C2.65508974,15.3822308 2.08830769,14.0974872 1.83347436,12.7272821 C1.82980769,12.7076795 1.82642308,12.6876538 1.82430769,12.6681923 C1.82360256,12.6642436 1.82332051,12.6604359 1.82233333,12.655641 L1.81683333,12.6275769 C1.77833333,12.4016538 1.73630769,12.1392051 1.71148718,11.8776026 C1.70570513,11.8166795 1.70373077,11.7522308 1.70217949,11.6910256 C1.70217949,11.6894744 1.70217949,11.6882051 1.70161538,11.6867949 L1.6879359,11.4495897 C1.67905128,11.3151923 1.66903846,11.1633077 1.66903846,11.0086026 C1.66903846,10.3713077 1.73235897,9.73810256 1.85815385,9.12703846 C1.91724359,8.84103846 1.98958974,8.55898718 2.0740641,8.28920513 C2.07730769,8.27961538 2.07928205,8.27242308 2.08097436,8.26255128 C2.08182051,8.25747436 2.08323077,8.24802564 2.08534615,8.24153846 C2.08534615,8.24153846 2.08534615,8.24083333 2.08562821,8.24055128 C3.3060641,4.30960256 6.88867949,1.66847436 11.0002821,1.66847436 C11.5659359,1.66847436 12.1458333,1.73391026 12.8254359,1.8749359 L12.9079359,1.8925641 C13.1210256,1.93712821 13.3583718,1.99833333 13.6328077,2.07857692 C13.7783462,2.12102564 13.9241667,2.17362821 14.052641,2.21974359 L14.1740641,2.26332051 C14.2853333,2.30153846 14.4023846,2.34229487 14.5081538,2.38629487 C14.5099872,2.38671795 14.5113974,2.38784615 14.5136538,2.38841026 C14.5287436,2.39433333 14.541859,2.40039744 14.5576538,2.40744872 L14.5635769,2.41055128 C14.6150513,2.43438462 14.6754103,2.43283333 14.7260385,2.40561538 L16.0911667,1.68285897 C16.1508205,1.65169231 16.1881923,1.58907692 16.1888974,1.52082051 C16.1888974,1.45298718 16.1506795,1.39121795 16.0911667,1.35962821 C14.5276154,0.528987179 12.7666282,0.0905384615 11.0002821,0.0905384615 C4.98483333,0.0905384615 0.0909615385,4.98370513 0.0909615385,10.9997179 C0.0909615385,13.4370641 0.891423077,15.7514359 2.40575641,17.6922308 C2.60558974,17.9480513 2.82629487,18.2040128 3.06265385,18.4557436 L2.61757692,18.9015256 C2.2049359,19.3114872 2.23553846,19.6829487 2.33411538,19.9219872 C2.45638462,20.2167308 2.76692308,20.4224872 3.08958974,20.4224872 C3.26008974,20.4224872 3.42621795,20.3748205 3.62774359,20.2679231 L4.55329487,19.7767308 C4.85861538,20.0012436 5.16619231,20.2057308 5.46982051,20.3851154 C7.15507692,21.3814615 9.06780769,21.9083333 11.0004231,21.9083333 C17.0147436,21.9083333 21.9083334,17.0148846 21.9083334,10.9995769 C21.9086154,8.6740641 21.1752821,6.44882051 19.7861795,4.56485897 Z" />
    <path fill="#FFD633"
      d="M3.08958974,19.7615 C3.03585897,19.7615 2.96435897,19.7172179 2.94489744,19.6703974 C2.92952564,19.6330256 2.89751282,19.5550385 3.08352564,19.3700128 L9.03424359,13.4202821 C9.13874359,13.3162051 9.18951282,13.1658718 9.17047436,13.0197692 C9.15073077,12.8742308 9.06244872,12.7423718 8.93510256,12.6694615 L4.82307692,10.3037564 C4.67937179,10.2211154 4.59475641,10.0948974 4.59630769,9.966 C4.5985641,9.83823077 4.68741026,9.71539744 4.8339359,9.63797436 L18.6809615,2.31535897 C18.8129615,2.24498718 18.8740256,2.23610256 18.9135128,2.23610256 C18.9680897,2.23610256 19.0343718,2.27812821 19.0532692,2.32382051 C19.0718846,2.36711538 19.1043205,2.44411538 18.9173205,2.63026923 L12.9791538,8.56871795 C12.8747949,8.67223077 12.8243077,8.8214359 12.8432051,8.96767949 C12.8623846,9.11392308 12.9501026,9.2449359 13.0768846,9.31841026 L17.182,11.6937051 C17.3235897,11.7757821 17.4070769,11.9007308 17.4041154,12.0282179 C17.401859,12.1583846 17.3137179,12.2815 17.1688846,12.3590641 L3.31960256,19.6840769 C3.18873077,19.7540256 3.12808974,19.7615 3.08958974,19.7615 Z" />
  </g>
</svg>