<svg xmlns="http://www.w3.org/2000/svg" width="24" height="24" viewBox="0 0 24 24">
  <g fill="none" transform="translate(1 1)">
    <circle cx="11" cy="11" r="11" fill="#A2DBEB"/>
    <path fill="#525353" d="M18.194,19.3218867 C17.5846172,19.8484687 16.9172266,20.3096953 16.2015391,20.6939648 C15.9925391,20.8068867 15.7791562,20.9131914 15.5613477,21.0121914 C14.1716953,21.6464961 12.6272695,22 11,22 C9.37273047,22 7.82830469,21.6465391 6.43869531,21.0121914 C6.22161719,20.9131914 6.00827734,20.8075742 5.79850391,20.6946953 C5.08350391,20.3104687 4.41542578,19.8484687 3.80604297,19.3218867 C5.60196484,17.3983477 8.16053906,16.1956953 11.000043,16.1956953 C13.8394609,16.1956953 16.3980781,17.3983047 18.194,19.3218867 Z"/>
    <path fill="#000" d="M16.5212695,20.5157305 C16.2902695,20.6506953 16.0541563,20.7760781 15.8135742,20.8934258 C14.3593828,21.6025391 12.7262695,22 11,22 C9.273,22 7.63915625,21.6018086 6.18569531,20.8926953 C5.94515625,20.7753906 5.70977344,20.6492773 5.47950391,20.515 C6.98212109,19.1216953 8.90488672,18.2856953 11.000043,18.2856953 C13.0958867,18.2856953 15.0186953,19.1216953 16.5212695,20.5157305 Z"/>
    <g fill="#BFB098" transform="translate(6.316 16.5)">
      <polygon points="2.264 .012 1.017 .012 .027 3.114 1.274 3.114"/>
      <polygon points="7.104 .012 8.35 .012 9.34 3.114 8.094 3.114"/>
    </g>
    <path fill="#525353" d="M18.7542695,11.0733047 C18.7542695,11.1018789 18.7542695,11.1304961 18.7535391,11.1591133 C18.7410781,12.3610781 18.4551211,13.496957 17.9549219,14.5082266 C17.4496523,15.531957 16.7258437,16.4273398 15.8436523,17.1350781 C14.5134258,18.2028086 12.8245391,18.8408086 10.9875391,18.8408086 C7.68092187,18.8408086 4.85761719,16.775 3.73707813,13.8636523 C3.40269531,12.9975742 3.22007813,12.0567305 3.22007813,11.0733477 C3.22007813,6.78407813 6.69753906,3.30657422 10.9875391,3.30657422 C13.8878437,3.30657422 16.4178437,4.89719141 17.7510781,7.25411328 C18.0084609,7.70880859 18.2218867,8.19203516 18.3839219,8.69803516 C18.6244609,9.44680859 18.7542695,10.2446523 18.7542695,11.0733047 Z"/>
    <path fill="#FFF" d="M12.2913828 9.36572656L12.1483828 9.57257813C10.8181563 10.6403086 9.12926953 11.2783086 7.29226953 11.2783086 3.98565234 11.2783086 1.16234766 9.2125.0418085938 6.30115234.106390625 5.32876953.378425781 4.41284766.814 3.59665625 1.94558203 1.47657813 4.17926953.0341171875 6.74961719.0341171875 7.84373047.0341171875 8.89826953.436003906 9.88388672 1.06300391L10.2865039 1.93419531 10.7023125 3.01000391 12.2913828 9.36572656zM15.058957 3.51080469C15.058957 3.53937891 15.058957 3.56799609 15.0582266 3.59661328 15.0457656 4.79857813 14.7598086 5.93445703 14.2596094 6.94572656L13.0855313 6.16326563 11.5506445 3.59657031 10.9038359 2.514875C11.0688359 1.21317969 12.0955313.0031796875 13.1221406.0031796875 13.1771406.0031796875 13.2321406.00829296875 13.2871406.0185625 13.5489492.0662578125 13.8122188.223179688 14.0637578.442449219 14.2851758.635292969 14.4964531.8765625 14.6885664 1.13544922 14.9291484 1.88430859 15.058957 2.68215234 15.058957 3.51080469z" transform="translate(3.695 7.563)"/>
    <path fill="#000" d="M14.6725391,9.71080859 C14.6725391,9.71080859 14.8375391,6.79580859 16.4142344,6.59411328 C17.9909297,6.39241797 18.5225391,10.0408086 18.5225391,10.0408086 L14.6725391,9.71080859 Z"/>
    <path fill="#BCBEBF" d="M17.7591563,8.00507812 L17.7591563,11.1591133 L15.246,11.1591133 L14.5991914,10.077418 C14.7641914,8.77572266 15.7908867,7.56572266 16.8174961,7.56572266 C17.1321563,7.56580859 17.4548086,7.73961719 17.7591563,8.00507812 Z"/>
    <path fill="#F9B138" d="M14.5698867,17.9666953 C16.9994258,17.6286172 19.4084258,15.07 19.4084258,15.07 C18.4917305,13.7800781 16.7442344,11.1085391 14.5581563,9.33388672 L14.5574258,9.33388672 C14.3608867,9.174 14.1606953,9.02150391 13.9575391,8.87850391 C13.8328438,8.79050391 13.706,8.70619922 13.5791563,8.62550391 C13.5637734,9.32288672 13.5241563,10.340043 13.4288516,11.1591992 C13.4259297,11.1841211 13.4229648,11.2083125 13.420043,11.2325039 C13.2931563,12.2613906 12.406582,14.0638867 11.9519297,15.0935039 L11.9519297,15.0942344 C11.790625,15.4587383 11.6842344,15.7263477 11.6842344,15.8283125 C11.6842344,16.2191992 11.4642344,18.0033906 14.0551211,18.0033906 C14.0881211,18.0033906 14.1203906,18.0026602 14.1533906,18.0019297 C14.2919219,17.9981914 14.4312695,17.9864609 14.5698867,17.9666953"/>
    <path fill="#000" d="M13.5791562,8.62546094 C12.2158867,5.93411328 9.72455859,6.08630859 8.64088672,6.48411328 C7.19258203,7.01580859 6.05588672,8.39080859 6.14758203,9.63741797"/>
    <path fill="#BCBEBF" d="M11.5133047,7.722 C12.2275742,7.88626953 12.9183828,8.20526953 13.5791133,8.62546094 C13.5718086,8.97376563 13.5578437,9.40276563 13.5336523,9.84646094 C13.5101484,10.2908438 13.4764609,10.7499219 13.4287656,11.1591563 L11.6086523,11.1591563 L4.50926953,11.1591563 C5.64080859,9.03907813 7.87453906,7.59661719 10.4448867,7.59661719 C10.8056953,7.59661719 11.1628086,7.64061719 11.5133047,7.722"/>
    <path fill="#000" d="M12.4175391,15.5591133 C11.3419453,15.3391133 9.23974219,14.0435195 9.23974219,14.0435195 C9.23974219,14.0435195 10.7064375,16.0235195 12.6864375,16.5857227 L12.4175391,15.5591133 Z"/>
    <path fill="#000" d="M16.6466953,14.2633047 L14.5698867,17.9666094 L14.1533047,18.0018008 C14.1203047,18.0025312 14.0880781,18.0032617 14.0550781,18.0032617 C11.4641914,18.0032617 11.6841914,16.2190703 11.6841914,15.8281836 C11.6841914,15.7262187 11.7904961,15.4585664 11.9518437,15.0941484 L11.9518437,15.093375 C12.3691133,14.1730703 14.9057305,12.3221055 15.0061914,10.383957 C15.1066953,8.44580859 16.6466953,14.2633047 16.6466953,14.2633047 Z"/>
    <path fill="#E1006D" d="M19.4083828,15.07 L19.4076523,15.0707305 L19.4069219,15.0721914 C19.3328437,15.1491914 16.9612266,17.6337734 14.5698437,17.9666953 C13.7125742,17.3081562 13.4273047,16.6811133 13.5783828,15.8994258 C13.6773828,15.389043 13.9626523,14.8118867 14.3974961,14.1166953 C15.4974961,12.3566953 15.3016875,10.5966953 14.5573828,9.33388672 L14.5581133,9.33388672 C16.7441914,11.1085391 18.4917734,13.7800781 19.4083828,15.07 Z"/>
    <path fill="#9D1D54" d="M19.4076953,15.0707305 L19.4069648,15.0721914 C19.3328867,15.1491914 16.9612695,17.6337734 14.5698867,17.9666953 C13.7126172,17.3081562 13.4273477,16.6811133 13.5784258,15.8994258 L13.5791562,15.8994258 C17.38,16.4516172 19.3563477,15.1059219 19.4076953,15.0707305 Z"/>
    <path fill="#E2DEDC" d="M2.1065 1.06296094C2.09915234 1.41126562 2.08523047 1.84026563 2.06099609 2.28396094 2.03753516 2.72834375 2.00380469 3.18737891 1.95610938 3.59665625L.135996094 3.59665625.0406914063 2.54576953.0406914063.1595C.754960937.323769531 1.44572656.642726562 2.1065 1.06296094zM7.28161328 3.51080469C7.28161328 3.53937891 7.28161328 3.56799609 7.28088281 3.59661328L5.50988281 3.59661328 5.50988281.0186914063C5.77169141.0663867188 6.03496094.223308594 6.2865.442578125 6.50791797.635421875 6.71919531.876691406 6.91130859 1.13557813 7.15180469 1.88430859 7.28161328 2.68215234 7.28161328 3.51080469z" transform="translate(11.473 7.563)"/>
    <polygon fill="#919494" points="12.369 10.939 11.489 8.177 10.807 10.38 7.969 11.159 11.758 11.966"/>
    <circle cx="11.513" cy="11.159" r="1.051" fill="#000"/>
    <polygon fill="#919494" points="17.759 9.142 17.349 10.945 18.171 10.958"/>
    <ellipse cx="17.759" cy="11.159" fill="#000" rx="1" ry="1"/>
    <ellipse cx="17.759" cy="10.762" fill="#FFF" rx="1" ry="1"/>
    <circle cx="11.513" cy="10.646" r="1" fill="#E2DEDC"/>
    <path fill="#BFB098" d="M15.8136172,19.6137305 L15.8136172,20.8934258 C14.3593828,21.6025391 12.7262695,22 11,22 C9.273,22 7.63915625,21.6018086 6.18569531,20.8926953 L6.18569531,19.6137734 L15.8136172,19.6137734 L15.8136172,19.6137305 Z"/>
    <path fill="#AA9676" d="M15.8136172,19.6137305 L15.8136172,20.8934258 C14.3593828,21.6025391 12.7262695,22 11,22 L11,19.6137305 L15.8136172,19.6137305 L15.8136172,19.6137305 Z"/>
    <path fill="#8A7460" d="M16.201582,20.6939219 C15.992582,20.8068438 15.7791992,20.9131484 15.5613906,21.0121484 L15.4682773,19.812418 L6.53180859,19.812418 L6.43869531,21.0121484 C6.22161719,20.9131484 6.00827734,20.8075313 5.79850391,20.6946094 L5.92169531,19.2990703 L16.0783906,19.2990703 L16.201582,20.6939219 Z"/>
  </g>
</svg>
