<svg xmlns="http://www.w3.org/2000/svg" width="24" height="24" viewBox="0 0 24 24">
  <g fill="none" transform="translate(1 6)">
    <path fill="#95C748" d="M21.5036585,7.5900832 L21.4473171,7.50154662 C21.4368845,7.49016013 21.4278753,7.47754722 21.4204878,7.46398564 L17.5060976,1.50788808 L12.4487805,5.26398564 L16.1646341,10.9678881 L16.2102439,11.0403271 L16.2317073,11.0698393 C17.2113191,12.4855593 19.142687,12.8589585 20.5793952,11.9103954 C22.0161034,10.9618323 22.4314551,9.03905004 21.5143902,7.58203442"/>
    <path fill="#35BFC0" d="M6.33170732,9.24813198 C6.33170732,7.49967929 4.91430635,6.08227832 3.16585366,6.08227832 C1.41740096,6.08227832 -1.23911721e-14,7.49967929 -1.23911721e-14,9.24813198 C-1.23911721e-14,10.9965847 1.41740096,12.4139856 3.16585366,12.4139856 C4.91430635,12.4139856 6.33170732,10.9965847 6.33170732,9.24813198"/>
    <path fill="#F38334" d="M17.9809756,3.16593686 C17.9809715,1.88473703 17.2087622,0.729845963 16.0247753,0.240307318 C14.8407885,-0.249231327 13.4784691,0.0231041613 12.5736779,0.930201608 C11.6688866,1.83729906 11.4000199,3.2003072 11.892571,4.38304408 C12.385122,5.56578095 13.541975,6.33504781 14.8231707,6.33180082 C15.6628073,6.33180082 16.4680546,5.99824618 17.0617673,5.40453345 C17.6554801,4.81082072 17.9890244,4.00557346 17.9890244,3.16593686"/>
    <path fill="#3152A0" d="M14.8231707,6.33179052 C13.7570906,6.3326296 12.7624293,5.79595638 12.1778049,4.90447345 L9.76317073,1.50788808 C9.18907375,0.571243437 8.16943935,0.000283318606 7.07085366,0.000283318606 C5.97226796,0.000283318606 4.95263356,0.571243437 4.37853659,1.50788808 L0.54195122,7.47471735 C1.14615574,6.57956426 2.16530837,6.05453766 3.24493528,6.08224826 C4.3245622,6.10995887 5.31543911,6.68657656 5.87292683,7.61154662 L8.38414634,11.1234978 C8.97880661,11.9365078 9.92565031,12.4170469 10.9329268,12.4170469 C11.9402033,12.4170469 12.8870471,11.9365078 13.4817073,11.1234978 L13.5058537,11.0832539 L13.6882927,10.8149613 L17.4443902,4.95544906 C16.8528486,5.82040471 15.8710509,6.33592387 14.8231707,6.33179052 M0.461463415,7.60081491 L0.531219512,7.48544906 L0.461463415,7.60081491 Z"/>
  </g>
</svg>
