<svg xmlns="http://www.w3.org/2000/svg" width="24" height="24" viewBox="0 0 24 24">
  <path fill="#2692D8" d="M10.7044528,1.29011321 C11.8003019,1.29011321 12.5773866,2.28633962 12.5773866,3.32739623 C12.5823396,4.64739623 11.9248302,5.60377358 10.7193962,5.60377358 C10.2611321,5.60377358 9.88754717,5.34475472 9.67833962,4.99109434 L9.67833962,4.99109434 L9.67833962,6.81418868 L9.35456604,6.81418868 C8.98596226,6.81418868 8.63728302,6.54520755 8.63728302,6.10188679 L8.63728302,6.10188679 L8.63728302,3.60633962 C8.63728302,2.2365283 9.24996226,1.29011321 10.7044528,1.29011321 Z M2.06716981,1.29011321 C3.16301887,1.29011321 3.94007547,2.28633962 3.94007547,3.32739623 C3.94007547,4.65237736 3.28256604,5.60875472 2.08211321,5.60875472 C1.61886792,5.60377358 1.24030189,5.33977358 1.03607547,4.99109434 L1.03607547,4.99109434 L1.03607547,6.81418868 L0.717283019,6.81418868 C0.348679245,6.81418868 -6.70574707e-14,6.54520755 -6.70574707e-14,6.10188679 L-6.70574707e-14,6.10188679 L-6.70574707e-14,3.60633962 C-6.70574707e-14,2.2365283 0.612679245,1.29011321 2.06716981,1.29011321 Z M19.2570566,0.244075472 C20.2582642,0.244075472 20.970566,0.772075472 20.970566,1.62883019 C20.970566,2.21162264 20.6567547,2.58520755 20.138717,2.73962264 C20.666717,2.88407547 21.0652075,3.42701887 21.0652075,3.88528302 C21.0652075,4.94626415 20.2233962,5.53403774 19.2670189,5.53403774 L19.2670189,5.53403774 L18.6991698,5.53403774 C17.7178868,5.53403774 17.2396981,5.10566038 17.2396981,4.28875472 L17.2396981,4.28875472 L17.2396981,0.483169811 C17.4937358,0.393509434 18.1861132,0.244075472 18.6244528,0.244075472 L18.6244528,0.244075472 Z M15.0131321,0.244075472 C16.0143396,0.244075472 16.7266415,0.772075472 16.7266415,1.62883019 C16.7266415,2.21162264 16.4128302,2.58520755 15.8947925,2.73962264 C16.4227925,2.88407547 16.821283,3.42701887 16.821283,3.88528302 C16.821283,4.94128302 15.9794717,5.5290566 15.0230943,5.5290566 L15.0230943,5.5290566 L14.4552453,5.5290566 C13.4739623,5.53403774 12.9957736,5.10566038 12.9957736,4.28875472 L12.9957736,4.28875472 L12.9957736,0.483169811 C13.2498113,0.393509434 13.9421887,0.244075472 14.3805283,0.244075472 L14.3805283,0.244075472 Z M4.72211321,3.41948692e-14 C5.21026415,3.41948692e-14 5.44935849,0.273962264 5.44935849,0.657509434 L5.44935849,0.657509434 L5.44935849,1.83803774 C5.60377358,1.59396226 5.95245283,1.28513208 6.34596226,1.28513208 C7.4069434,1.28513208 8.03456604,1.91773585 8.03456604,3.08830189 L8.03456604,3.08830189 L8.03456604,5.50415094 L7.69086792,5.50415094 C7.26249057,5.50913208 6.99350943,5.2650566 6.99350943,4.82173585 L6.99350943,4.82173585 L6.99350943,3.13811321 C6.99350943,2.46566038 6.62490566,2.19667925 6.17660377,2.19667925 C5.85283019,2.19667925 5.43441509,2.44075472 5.43441509,3.168 L5.43441509,3.168 L5.43441509,5.50913208 L5.10067925,5.50913208 C4.61750943,5.50913208 4.39833962,5.24015094 4.39833962,4.82173585 L4.39833962,4.82173585 L4.39833962,3.41948692e-14 Z M10.5450566,2.19667925 C9.97720755,2.19667925 9.66339623,2.68483019 9.66339623,3.39713208 C9.66339623,4.224 10.0668679,4.69222642 10.6795472,4.69222642 C11.1776604,4.69222642 11.5213585,4.24890566 11.5213585,3.59139623 C11.5263396,2.62007547 11.202566,2.19667925 10.5450566,2.19667925 Z M1.89781132,2.19667925 C1.32996226,2.19667925 1.01615094,2.68483019 1.01615094,3.39713208 C1.01615094,4.224 1.41962264,4.69222642 2.03230189,4.69222642 C2.53539623,4.69222642 2.87909434,4.24890566 2.87909434,3.59139623 C2.87909434,2.62007547 2.55532075,2.19667925 1.89781132,2.19667925 Z M19.1126038,3.168 L18.2807547,3.168 L18.2807547,4.24890566 C18.2807547,4.43320755 18.48,4.57766038 18.7390189,4.57766038 L18.7390189,4.57766038 L19.1673962,4.57766038 C19.7352453,4.57766038 20.0092075,4.31864151 20.0092075,3.92015094 C20.0092075,3.35230189 19.725283,3.168 19.1126038,3.168 L19.1126038,3.168 Z M14.8686792,3.168 L14.0368302,3.168 L14.0368302,4.24890566 C14.0368302,4.43320755 14.2360755,4.57766038 14.4950943,4.57766038 L14.4950943,4.57766038 L14.9234717,4.57766038 C15.4913208,4.57766038 15.765283,4.31864151 15.765283,3.92015094 C15.765283,3.35230189 15.4813585,3.168 14.8686792,3.168 L14.8686792,3.168 Z M19.1126038,1.12075472 L18.7240755,1.12075472 C18.594566,1.12075472 18.4202264,1.15064151 18.2707925,1.17554717 L18.2707925,1.17554717 L18.2707925,2.3610566 L19.0727547,2.3610566 C19.5409811,2.35607547 19.9245283,2.17675472 19.9245283,1.7234717 C19.9245283,1.26520755 19.5061132,1.12075472 19.1126038,1.12075472 L19.1126038,1.12075472 Z M14.8686792,1.12075472 L14.4801509,1.12075472 C14.3506415,1.12075472 14.1763019,1.15064151 14.0268679,1.17554717 L14.0268679,1.17554717 L14.0268679,2.3610566 L14.8288302,2.3610566 C15.2970566,2.35607547 15.6806038,2.17675472 15.6806038,1.7234717 C15.6806038,1.26520755 15.2621887,1.12075472 14.8686792,1.12075472 L14.8686792,1.12075472 Z" transform="translate(1 9)"/>
</svg>
