<svg xmlns="http://www.w3.org/2000/svg" width="24" height="24" viewBox="0 0 24 24">
  <g fill="none" fill-rule="evenodd" transform="translate(1 1)">
    <path fill="#CCC" fill-rule="nonzero" d="M12.3428308,0.292831167 L12.3239155,0.250797067 C12.314668,0.241549565 12.3050002,0.231881722 12.2818814,0.231881722 L12.2398473,0.241549565 C12.220932,0.26046491 12.2112641,0.270132753 12.2112641,0.289048098 L11.4050501,14.887491 L11.5286303,14.8685757 L12.3142477,0.671138067 L13.2440419,2.19865726 L13.2343741,2.19865726 C13.9363436,4.26673498 14.2305823,6.46722012 14.1170902,8.80095335 L14.1738362,8.88628257 L15.0985864,10.5172057 L15.1553325,10.5739517 C16.5689393,11.8164797 18.1523638,12.6512769 19.9077078,13.0783434 L20.3343539,13.7710653 L20.3911,13.7899807 L20.4007678,13.7710653 L12.3276986,0.566893499 L12.3466139,0.291570144 M12.0586803,5.44368978 C13.0548885,7.48318431 13.4151207,10.5659652 13.1494652,14.6924528 L17.0292127,14.2183082 L12.0586803,5.44368978 Z M20.902655,14.4078819 C21.3011382,14.3603834 21.5571259,14.2750542 21.6710383,14.1556773 L1.35679847,16.6314858 C1.36646631,17.4755306 1.74561389,18.1396693 2.48541405,18.613814 C2.66906136,18.7455878 2.87025655,18.850996 3.08313895,18.926968 C3.26388558,18.7184789 3.46270688,18.5663155 3.6997792,18.4242402 L3.7090267,18.4242402 C5.83385046,17.1337933 8.99271307,16.934972 13.1666992,17.8172678 L13.2141977,17.8265153 C13.665196,17.9190289 14.1115415,18.0329297 14.5517228,18.1678322 C14.6651997,18.1865735 14.7809377,18.1514637 14.8648768,18.0728351 C15.0161996,17.9593431 15.2066141,17.8735935 15.4626017,17.8206305 L15.4626017,17.8109627 C16.135988,16.6155129 17.0472873,15.7336375 18.1851504,15.1544076 C18.9724491,14.7655921 19.883328,14.5091841 20.8980312,14.4146074 M11.1469607,14.7819854 L12.0717109,0.534106901 C10.7337702,5.71102844 8.54617622,10.6300965 5.59803916,15.0909361 L11.147381,14.777782 M5.9204407,3.29995068 L5.8784066,3.28103534 L5.8363725,3.29070318 L5.81745716,3.33820171 L5.04907381,15.670166 L5.16256588,15.6604981 L5.93094923,3.33820171 L5.91203388,3.29616761 M4.83932365,15.4040901 L5.65478519,3.3760324 L1.35763915,15.7739902 L4.83890331,15.4040901"/>
    <g stroke="#CCC" stroke-linecap="round" stroke-linejoin="round" transform="translate(.18 1.344)">
      <path stroke-width=".5" d="M4.8339215,18.0696189 C3.76205195,18.5824349 2.9844211,18.6673438 2.49094077,18.3541898 C1.99746043,18.017917 1.23832459,18.1019852 0.21437391,18.5811739 M7.34756068,18.1452803 C7.13851453,18.0755744 6.92191808,18.0309852 6.70233725,18.0124525 C6.2374401,17.9704184 5.67796623,18.1553685 5.02307495,18.5437636 C4.36860401,18.9422468 3.58130532,19.0902069 2.64184319,19.0086607 M13.1924023,17.1780756 C8.67709926,16.2533254 5.42323958,16.4664383 3.43124358,17.8422144 M16.0385312,17.6236371 C15.8319965,17.5449605 15.6141246,17.5001087 15.3933078,17.4908094 C14.9284106,17.4487753 14.3689367,17.6337253 13.7144658,18.0221204 C13.0599949,18.4105155 12.2726962,18.5626789 11.333234,18.4870175"/>
      <path stroke-width=".811" d="M9.98099704,2.07017942 C9.5160999,1.78560857 9.03228741,1.86169029 8.52955957,2.30725175 C8.09324561,1.86169029 7.63843665,1.78602891 7.16345132,2.07017942 M8.92804284,0.476246353 C8.45389819,0.191675496 7.98900105,0.305587907 7.51443606,0.817563245 C7.04953891,0.304747225 6.57539426,0.187051745 6.10082927,0.476246353"/>
    </g>
  </g>
</svg>
