<svg xmlns="http://www.w3.org/2000/svg" width="24" height="24" viewBox="0 0 24 24">
  <defs>
    <linearGradient id="br-redis-a" x1="6.042%" x2="96.54%" y1="94.743%" y2="7.928%">
      <stop offset="0%" stop-color="#EB3349"/>
      <stop offset="100%" stop-color="#F45C43"/>
    </linearGradient>
  </defs>
  <g fill="none" fill-rule="evenodd" transform="translate(1 1)">
    <path fill="#000" d="M22,0 L0,0 L0,22 L22,22 L22,0 Z M4.48074,6.559905 L4.110315,8.719755 L6.05,7.7 L7.989685,8.719755 L7.61926,6.559905 L9.188465,5.030245 L7.01987,4.715095 L6.05,2.75 L5.08013,4.715095 L2.911513,5.030245 L4.48074,6.559905 Z M9.35,15.95 C9.35,17.772535 7.872535,19.25 6.05,19.25 C4.227465,19.25 2.75,17.772535 2.75,15.95 C2.75,14.127465 4.227465,12.65 6.05,12.65 C7.872535,12.65 9.35,14.127465 9.35,15.95 Z M12.65,2.75 L19.25,2.75 L19.25,9.35 L12.65,9.35 L12.65,2.75 Z M18.15,3.85 L13.75,3.85 L13.75,8.25 L18.15,8.25 L18.15,3.85 Z M19.25,19.25 L15.95,12.65 L12.65,19.25 L19.25,19.25 Z"/>
    <path fill="url(#br-redis-a)" d="M22,0 L0,0 L0,22 L22,22 L22,0 Z M4.48074,6.559905 L4.110315,8.719755 L6.05,7.7 L7.989685,8.719755 L7.61926,6.559905 L9.188465,5.030245 L7.01987,4.715095 L6.05,2.75 L5.08013,4.715095 L2.911513,5.030245 L4.48074,6.559905 Z M9.35,15.95 C9.35,17.772535 7.872535,19.25 6.05,19.25 C4.227465,19.25 2.75,17.772535 2.75,15.95 C2.75,14.127465 4.227465,12.65 6.05,12.65 C7.872535,12.65 9.35,14.127465 9.35,15.95 Z M12.65,2.75 L19.25,2.75 L19.25,9.35 L12.65,9.35 L12.65,2.75 Z M18.15,3.85 L13.75,3.85 L13.75,8.25 L18.15,8.25 L18.15,3.85 Z M19.25,19.25 L15.95,12.65 L12.65,19.25 L19.25,19.25 Z"/>
  </g>
</svg>
