<svg xmlns="http://www.w3.org/2000/svg" width="24" height="24" viewBox="0 0 24 24">
  <defs>
    <linearGradient id="br-selfhostedgitlab-a" x1="50%" x2="50%" y1="0%" y2="100%">
      <stop offset="0%" stop-color="#A241BB"/>
      <stop offset="100%" stop-color="#49007C"/>
    </linearGradient>
  </defs>
  <g fill="none" fill-rule="evenodd">
    <g fill-rule="nonzero" transform="translate(1 2)">
      <path fill="#FC6D26" d="M21.9459763,11.5747337 L20.7151479,7.79177515 L18.2795266,0.288343195 C18.2220273,0.116677579 18.0612465,0.000970788408 17.8802071,0.000970788408 C17.6991677,0.000970788408 17.5383869,0.116677579 17.4808876,0.288343195 L15.0452663,7.78721893 L6.95278107,7.78721893 L4.51715976,0.288343195 C4.46001812,0.116495625 4.29926443,0.000540765334 4.11816568,0.000540765334 C3.93706694,0.000540765334 3.77631325,0.116495625 3.7191716,0.288343195 L1.28745562,7.78721893 L0.0566272189,11.5747337 C-0.0555421188,11.9196839 0.0668558164,12.2976467 0.359940828,12.5113609 L11,20.2426036 L21.6381065,12.5113609 C21.9325241,12.2986132 22.0567544,11.9206695 21.9459763,11.5747337"/>
      <polygon fill="#E24329" points="4.101 12.491 4.101 12.491 8.147 .041 .057 .041" transform="translate(6.9 7.746)"/>
      <polygon fill="#FC6D26" points="9.763 12.491 5.716 .041 .053 .041" transform="translate(1.237 7.746)"/>
      <path fill="#FCA326" d="M1.28550296,0.0449112426 L1.28550296,0.0449112426 L0.0546745562,3.82786982 C-0.0574947815,4.17282004 0.0649031536,4.55078277 0.357988166,4.76449704 L11,12.4970414 L1.28550296,0.0449112426 Z" transform="translate(0 7.746)"/>
      <path fill="#E24329" d="M0.0507692308,7.79047337 L5.72065089,7.79047337 L3.28047337,0.292248521 C3.22297407,0.120582905 3.06219322,0.00487611385 2.88115385,0.00487611385 C2.70011448,0.00487611385 2.53933362,0.120582905 2.48183432,0.292248521 L0.0507692308,7.79047337 Z" transform="translate(1.237)"/>
      <polygon fill="#FC6D26" points="0 12.491 4.046 .041 9.718 .041" transform="translate(11 7.746)"/>
      <path fill="#FCA326" d="M9.71384615,0.0449112426 L9.71384615,0.0449112426 L10.9446746,3.82786982 C11.0574904,4.17281938 10.9349693,4.55116228 10.6413609,4.76449704 L0,12.4911834 L9.7112426,0.0449112426 L9.71384615,0.0449112426 Z" transform="translate(11 7.746)"/>
      <path fill="#E24329" d="M5.68094675,7.79047337 L0.0117159763,7.79047337 L2.44733728,0.292248521 C2.50447893,0.12040095 2.66523262,0.00444609078 2.84633136,0.00444609078 C3.02743011,0.00444609078 3.1881838,0.12040095 3.24532544,0.292248521 L5.68094675,7.79047337 Z" transform="translate(15.036)"/>
    </g>
    <g transform="translate(5 15)">
      <rect width="14.459" height="8.088" x="-.341" y=".455" fill="url(#br-selfhostedgitlab-a)" stroke="#FFF" rx="4.044"/>
      <path fill="#FFF" fill-rule="nonzero" d="M4.33096464,6.04119314 C5.04119124,6.04119314 5.45880447,5.70170483 5.46022493,5.16903488 C5.45880447,4.68466035 5.093748,4.42755832 4.58806667,4.31392206 L4.32670328,4.25142212 C4.07386261,4.19318354 3.86221509,4.09943363 3.86647645,3.89062701 C3.86647645,3.70312719 4.03266947,3.56534323 4.33380555,3.56534323 C4.62783936,3.56534323 4.80823691,3.69886583 4.83096416,3.92755879 L5.42045224,3.92755879 C5.41192952,3.40909338 4.98579356,3.05113918 4.33806691,3.05113918 C3.70028342,3.05113918 3.23295432,3.40341157 3.23579523,3.93182015 C3.23437478,4.36079702 3.53693131,4.60653542 4.02840811,4.72443303 L4.34516917,4.80397841 C4.66193023,4.88068289 4.83806643,4.97159189 4.83948688,5.16761443 C4.83806643,5.38068241 4.63636208,5.52556863 4.32386237,5.52556863 C4.00426041,5.52556863 3.77414699,5.3778415 3.75426064,5.0866486 L3.15909076,5.0866486 C3.17471574,5.71590936 3.6249994,6.04119314 4.33096464,6.04119314 Z M6.85511246,6.0426136 C7.39488467,6.0426136 7.75852069,5.77982976 7.84374788,5.3750006 L7.28408932,5.33806881 C7.22300983,5.50426184 7.06675998,5.59090948 6.86505563,5.59090948 C6.5624991,5.59090948 6.37073792,5.39062558 6.37073792,5.0653418 L6.37073792,5.06392135 L7.85653196,5.06392135 L7.85653196,4.89772832 C7.85653196,4.15625176 7.40766875,3.78977484 6.83096475,3.78977484 C6.18891991,3.78977484 5.77272713,4.24574031 5.77272713,4.91903512 C5.77272713,5.61079583 6.1832381,6.0426136 6.85511246,6.0426136 Z M7.28693023,4.6889217 L6.37073792,4.6889217 C6.383522,4.4403424 6.57244227,4.24147895 6.84090793,4.24147895 C7.10369177,4.24147895 7.28550977,4.42897877 7.28693023,4.6889217 Z M8.85653328,6 L8.85653328,3.09091187 L8.25142022,3.09091187 L8.25142022,6 L8.85653328,6 Z M10.0795445,6 L10.0795445,4.27272892 L10.5127827,4.27272892 L10.5127827,3.8181839 L10.0795445,3.8181839 L10.0795445,3.67187722 C10.0795445,3.52415009 10.1392036,3.43750244 10.3167602,3.43750244 C10.3892033,3.43750244 10.4630669,3.45312743 10.5113623,3.46875241 L10.6178963,3.01420739 C10.5426123,2.99148014 10.3764192,2.95454836 10.1903399,2.95454836 C9.7798289,2.95454836 9.47443146,3.18608223 9.47443146,3.66051359 L9.47443146,3.8181839 L9.16619312,3.8181839 L9.16619312,4.27272892 L9.47443146,4.27272892 L9.47443146,6 L10.0795445,6 Z"/>
    </g>
  </g>
</svg>
