<svg xmlns="http://www.w3.org/2000/svg" width="24" height="24" viewBox="0 0 24 24">
  <g fill="none" transform="translate(1 1)">
    <path fill="#36C5F0" d="M8.06486928,0 C6.84893791,0.00089869281 5.86486928,0.987663399 5.86576736,2.20359477 C5.86486928,3.41952614 6.8498366,4.40629085 8.06576797,4.40718954 L10.2657686,4.40718954 L10.2657686,2.20449346 C10.2666667,0.988562092 9.28169935,0.00179738562 8.06486928,0 C8.06576797,0 8.06576797,0 8.06486928,0 M8.06486928,5.87745098 L2.2,5.87745098 C0.984068627,5.87834967 -0.00089869281,6.86511438 -2.45601609e-06,8.08104575 C-0.00179738562,9.29697712 0.983169935,10.2837418 2.19910131,10.2855392 L8.06486928,10.2855392 C9.28080065,10.2846405 10.265768,9.29787582 10.2648699,8.08194444 C10.265768,6.86511438 9.28080065,5.87834967 8.06486928,5.87745098 Z"/>
    <path fill="#2EB67D" d="M21.9964058,8.08104575 C21.9973039,6.86511438 21.0123366,5.87834967 19.7964052,5.87745098 C18.5804739,5.87834967 17.5955065,6.86511438 17.5964046,8.08104575 L17.5964046,10.2855392 L19.7964052,10.2855392 C21.0123366,10.2846405 21.9973039,9.29787582 21.9964058,8.08104575 Z M16.1306379,8.08104575 L16.1306379,2.20359477 C16.1315359,0.988562092 15.1474673,0.00179738562 13.9315359,0 C12.7156046,0.00089869281 11.7306373,0.987663399 11.7315335,2.20359477 L11.7315335,8.08104575 C11.7297386,9.29697712 12.7147059,10.2837418 13.9306373,10.2855392 C15.1465686,10.2846405 16.1315359,9.29787582 16.1306379,8.08104575 Z"/>
    <path fill="#ECB22E" d="M13.9306373,22.0404412 C15.1465686,22.0395425 16.1315359,21.0527778 16.1306379,19.8368464 C16.1315359,18.620915 15.1465686,17.6341503 13.9306373,17.6332516 L11.7306366,17.6332516 L11.7306366,19.8368464 C11.7297386,21.0518791 12.7147059,22.0386438 13.9306373,22.0404412 Z M13.9306373,16.1620915 L19.7964052,16.1620915 C21.0123366,16.1611928 21.9973039,15.1744281 21.9964077,13.9584967 C21.9982026,12.7425654 21.0132353,11.7558007 19.7973039,11.7540033 L13.9315359,11.7540033 C12.7156046,11.754902 11.7306373,12.7416667 11.7315353,13.957598 C11.7306373,15.1744281 12.7147059,16.1611928 13.9306373,16.1620915 L13.9306373,16.1620915 Z"/>
    <path fill="#E01E5A" d="M-6.14492289e-07,13.9584967 C-0.00089869281,15.1744281 0.984068627,16.1611928 2.2,16.1620915 C3.41593137,16.1611928 4.40089869,15.1744281 4.40000061,13.9584967 L4.40000061,11.754902 L2.2,11.754902 C0.984068627,11.7558007 -0.00089869281,12.7425654 -6.14492289e-07,13.9584967 Z M5.86576552,13.9584967 L5.86576552,19.8359477 C5.86397059,21.0518791 6.84893791,22.0386438 8.06486928,22.0404412 C9.28080065,22.0395425 10.265768,21.0527778 10.2648717,19.8368464 L10.2648717,13.9602941 C10.2666667,12.7443627 9.28169935,11.757598 8.06576797,11.7558007 C6.84893791,11.7558007 5.86486928,12.7425654 5.86576552,13.9584967 C5.86576552,13.9584967 5.86576552,13.9593954 5.86576552,13.9584967"/>
  </g>
</svg>
