<svg xmlns="http://www.w3.org/2000/svg" width="24" height="24" viewBox="0 0 24 24">
  <defs>
    <linearGradient id="br-supervisor-a" x1="6.042%" x2="95.791%" y1="93.977%" y2="7.88%">
      <stop offset="0%" stop-color="#2D6DE9"/>
      <stop offset="100%" stop-color="#12C2E9"/>
    </linearGradient>
  </defs>
  <g fill="none" fill-rule="evenodd" transform="translate(1 1)">
    <path fill="#000" d="M0,5.160375 L0,0 L22,0 L22,5.160375 L0,5.160375 Z M2.5796705,3.2242045 L3.869745,3.2242045 L3.869745,1.935142 L2.5796705,1.935142 L2.5796705,3.2242045 Z M6.44996,3.2242045 L5.15988,3.2242045 L5.15988,1.935142 L6.44996,1.935142 L6.44996,3.2242045 Z M15.549545,3.2242045 L16.839625,3.2242045 L16.839625,1.935142 L15.549545,1.935142 L15.549545,3.2242045 Z M19.419785,3.2242045 L18.129705,3.2242045 L18.129705,1.935142 L19.419785,1.935142 L19.419785,3.2242045 Z M22,6.260375 L22,11.42075 L11.644545,11.42075 L11.644545,13.696045 L20.36925,13.696045 L20.36925,17.260375 L22,17.260375 L22,21.810965 L17.44941,21.810965 L17.44941,17.260375 L19.08016,17.260375 L19.08016,14.98508 L11.644545,14.98508 L11.644545,17.260375 L13.275295,17.260375 L13.275295,21.810965 L8.724705,21.810965 L8.724705,17.260375 L10.355455,17.260375 L10.355455,14.98508 L2.9198125,14.98508 L2.9198125,17.260375 L4.55059,17.260375 L4.55059,21.810965 L0,21.810965 L0,17.260375 L1.63075,17.260375 L1.63075,13.696045 L10.355455,13.696045 L10.355455,11.42075 L0,11.42075 L0,6.260375 L22,6.260375 Z M19.419785,8.19654 L18.129705,8.19654 L18.129705,9.48563 L19.419785,9.48563 L19.419785,8.19654 Z M15.549545,8.19654 L16.839625,8.19654 L16.839625,9.48563 L15.549545,9.48563 L15.549545,8.19654 Z M2.5796705,9.48563 L3.869745,9.48563 L3.869745,8.19654 L2.5796705,8.19654 L2.5796705,9.48563 Z M6.44996,9.48563 L5.15988,9.48563 L5.15988,8.19654 L6.44996,8.19654 L6.44996,9.48563 Z"/>
    <path fill="url(#br-supervisor-a)" d="M0,5.160375 L0,0 L22,0 L22,5.160375 L0,5.160375 Z M2.5796705,3.2242045 L3.869745,3.2242045 L3.869745,1.935142 L2.5796705,1.935142 L2.5796705,3.2242045 Z M6.44996,3.2242045 L5.15988,3.2242045 L5.15988,1.935142 L6.44996,1.935142 L6.44996,3.2242045 Z M15.549545,3.2242045 L16.839625,3.2242045 L16.839625,1.935142 L15.549545,1.935142 L15.549545,3.2242045 Z M19.419785,3.2242045 L18.129705,3.2242045 L18.129705,1.935142 L19.419785,1.935142 L19.419785,3.2242045 Z M22,6.260375 L22,11.42075 L11.644545,11.42075 L11.644545,13.696045 L20.36925,13.696045 L20.36925,17.260375 L22,17.260375 L22,21.810965 L17.44941,21.810965 L17.44941,17.260375 L19.08016,17.260375 L19.08016,14.98508 L11.644545,14.98508 L11.644545,17.260375 L13.275295,17.260375 L13.275295,21.810965 L8.724705,21.810965 L8.724705,17.260375 L10.355455,17.260375 L10.355455,14.98508 L2.9198125,14.98508 L2.9198125,17.260375 L4.55059,17.260375 L4.55059,21.810965 L0,21.810965 L0,17.260375 L1.63075,17.260375 L1.63075,13.696045 L10.355455,13.696045 L10.355455,11.42075 L0,11.42075 L0,6.260375 L22,6.260375 Z M19.419785,8.19654 L18.129705,8.19654 L18.129705,9.48563 L19.419785,9.48563 L19.419785,8.19654 Z M15.549545,8.19654 L16.839625,8.19654 L16.839625,9.48563 L15.549545,9.48563 L15.549545,8.19654 Z M2.5796705,9.48563 L3.869745,9.48563 L3.869745,8.19654 L2.5796705,8.19654 L2.5796705,9.48563 Z M6.44996,9.48563 L5.15988,9.48563 L5.15988,8.19654 L6.44996,8.19654 L6.44996,9.48563 Z"/>
  </g>
</svg>
