<svg xmlns="http://www.w3.org/2000/svg" width="24" height="24" viewBox="0 0 24 24">
  <defs>
    <linearGradient id="br-telegram-a" x1="66.7%" x2="41.7%" y1="16.7%" y2="75%">
      <stop offset="0%" stop-color="#37AEE2"/>
      <stop offset="100%" stop-color="#1E96C8"/>
    </linearGradient>
    <linearGradient id="br-telegram-b" x1="66%" x2="85.1%" y1="43.7%" y2="80.2%">
      <stop offset="0%" stop-color="#EFF7FC"/>
      <stop offset="100%" stop-color="#FFF"/>
    </linearGradient>
  </defs>
  <g fill="none" transform="translate(1 1)">
    <circle cx="11" cy="11" r="11" fill="url(#br-telegram-a)"/>
    <path fill="#C8DAEA" d="M8.98333333,16.0416667 C8.62693333,16.0416667 8.687525,15.9071 8.5646,15.56775 L7.51666667,12.118975 L15.5833333,7.33333333"/>
    <path fill="#A9C9DD" d="M8.98333333,16.0416667 C9.25833333,16.0416667 9.37979167,15.9159 9.53333333,15.7666667 L11,14.3405167 L9.17051667,13.2373083"/>
    <path fill="url(#br-telegram-b)" d="M9.17033333,13.2375833 L13.6033333,16.5127417 C14.1092417,16.7918667 14.4742583,16.6473083 14.6003,16.0431333 L16.4047583,7.53985833 C16.5894667,6.79919167 16.122425,6.46314167 15.638425,6.68286667 L5.042675,10.7685417 C4.319425,11.0586667 4.32373333,11.4621833 4.91085833,11.6419417 L7.62996667,12.4906833 L13.9249917,8.519225 C14.222175,8.33900833 14.494975,8.43580833 14.271125,8.63454167"/>
  </g>
</svg>
