<svg xmlns="http://www.w3.org/2000/svg" width="24" height="24" viewBox="0 0 24 24">
  <g fill="#7B00FF" transform="translate(1 8)">
    <path d="M20.1732143,5.225 C21.1160714,5.225 21.8821429,6.01071429 21.8821429,6.93392857 C21.8821429,7.85714286 21.0964286,8.64285714 20.1732143,8.64285714 L7.975,8.64285714 L7.975,4.20357143 L8.78035714,4.20357143 L8.78035714,7.8375 L20.1928571,7.8375 C20.6839286,7.8375 21.0964286,7.425 21.0964286,6.93392857 C21.0964286,6.44285714 20.6642857,6.03035714 20.1535714,6.03035714 L9.54642857,6.03035714 L9.54642857,5.225 L20.1732143,5.225 L20.1732143,5.225 Z"/>
    <path d="M12.2964286,0 L7.975,0 L7.975,1.80714286 L8.78035714,1.80714286 L8.78035714,0.785714286 L12.3160714,0.785714286 C12.8071429,0.785714286 13.2196429,1.19821429 13.2196429,1.68928571 C13.2196429,2.18035714 12.7875,2.63214286 12.2964286,2.63214286 L1.82678571,2.63214286 C0.883928571,2.63214286 0.117857143,3.41785714 0.117857143,4.34107143 C0.117857143,5.26428571 0.903571429,6.05 1.82678571,6.05 L7.16964286,6.05 L7.16964286,5.24464286 L1.82678571,5.24464286 C1.33571429,5.24464286 0.923214286,4.83214286 0.923214286,4.34107143 C0.923214286,3.85 1.33571429,3.4375 1.82678571,3.4375 L12.3160714,3.4375 C13.2589286,3.4375 14.025,2.65178571 14.025,1.72857143 C14.025,0.805357143 13.2392857,0 12.2964286,0 L12.2964286,0 Z"/>
  </g>
</svg>
