<svg xmlns="http://www.w3.org/2000/svg" width="24" height="24" viewBox="0 0 24 24">
  <g fill="none" transform="translate(1 2)">
    <path fill="#C9F4FF" d="M7.66333333,0.523809524 C7.46574632,0.200537182 7.11505699,0.00240761722 6.73619048,0 L1.1,0 C0.492486775,0 0,0.492486775 0,1.1 C0,1.30737024 0.0580649576,1.51059759 0.167619048,1.68666667 L1.61857143,3.81857143 L8.87333333,2.24714286 L7.66333333,0.523809524 Z"/>
    <path fill="#51B9FF" d="M8.9047619,2.28904762 C8.70475443,1.96569379 8.35258339,1.76784489 7.97238095,1.7652381 L2.35714286,1.7652381 C1.945573,1.74625421 1.55819692,1.95995077 1.35473737,2.31821652 C1.15127781,2.67648226 1.16619308,3.11864058 1.39333333,3.46238095 L3.01190476,6.02904762 L10.507619,4.85571429 L8.9047619,2.28904762 Z"/>
    <path fill="#007BFC" d="M2.94380952 5.92428571C2.75966325 5.62924547 2.72289595 5.2654427 2.84428571 4.93952381 3.01266438 4.50975171 3.43039044 4.22987524 3.89190476 4.23761905L9.50714286 4.23761905C9.88761005 4.23922534 10.2402331 4.43732817 10.4395238 4.76142857L15.4838095 12.76C15.5933636 12.9360691 15.6514286 13.1392964 15.6514286 13.3466667 15.6506028 13.5539204 15.5926009 13.7569269 15.4838095 13.9333333L12.6657143 18.4014286C12.4628271 18.7201732 12.1111711 18.9131879 11.7333333 18.9131879 11.3554956 18.9131879 11.0038396 18.7201732 10.8009524 18.4014286L2.94380952 5.92428571zM17.1495238 8.48047619C17.352411 8.79922082 17.704067 8.99223555 18.0819048 8.99223555 18.4597425 8.99223555 18.8113985 8.79922082 19.0142857 8.48047619L19.9833333 6.94571429 21.832381 4.01238095C21.941935 3.83631188 22 3.63308453 22 3.42571429 21.9991742 3.21846054 21.9411723 3.01545405 21.832381 2.83904762L20.3657143.523809524C20.1657068.200455698 19.8135358.00260679416 19.4333333 0L13.7971429 0C13.5054047 0 13.2256154.115892524 13.0193254.322182541 12.8130354.528472557 12.6970938.808261861 12.6970938 1.1 12.6951257 1.30839586 12.75531 1.51265774 12.87 1.68666667L17.1495238 8.48047619z"/>
  </g>
</svg>
