<?xml version="1.0" encoding="UTF-8"?>
<svg width="70px" height="59px" viewBox="0 0 70 59" version="1.1" xmlns="http://www.w3.org/2000/svg" xmlns:xlink="http://www.w3.org/1999/xlink">
    <!-- Generator: Sketch 51.2 (57519) - http://www.bohemiancoding.com/sketch -->
    <title>basic-plan</title>
    <desc>Created with Sketch.</desc>
    <defs></defs>
    <g id="subscription" stroke="none" stroke-width="1" fill="none" fill-rule="evenodd">
        <g id="package" transform="translate(-170.000000, -271.000000)" fill-rule="nonzero">
            <g id="basic-plan" transform="translate(170.000000, 271.000000)">
                <path d="M58.792,27.028 L35,8.688 L11.208,27.028 C9.98,27.974 8.234,27.829 7.18,26.693 C5.985,25.406 6.147,23.373 7.53,22.291 L32.96,2.396 L35,0.5 L37.041,2.396 L62.471,22.291 C63.854,23.373 64.016,25.406 62.821,26.693 C61.766,27.829 60.02,27.974 58.792,27.028 Z" id="Shape" fill="#B02721"></path>
                <path d="M58.792,27.028 L35,8.688 L11.208,27.028 C9.98,27.974 8.234,27.829 7.18,26.693 C5.985,25.406 6.147,23.373 7.53,22.291 L32.96,2.396 L35,0.5 L37.041,2.396 L62.471,22.291 C63.854,23.373 64.016,25.406 62.821,26.693 C61.766,27.829 60.02,27.974 58.792,27.028 Z" id="Shape" fill="#D28C46"></path>
                <polygon id="Shape" fill="#FFE17D" points="35 8.688 12 26.417 12 26.5 12 56.5 58 56.5 58 26.5 58 26.417"></polygon>
                <g id="Group" transform="translate(5.000000, 46.000000)" fill="#E0E1E2">
                    <path d="M59,0.5 C58.447,0.5 58,0.948 58,1.5 L58,2.5 L57,2.5 L57,1.5 C57,0.948 56.553,0.5 56,0.5 C55.447,0.5 55,0.948 55,1.5 L55,2.5 L53,2.5 C52.447,2.5 52,2.948 52,3.5 C52,4.052 52.447,4.5 53,4.5 L55,4.5 L55,7.5 L53,7.5 C52.447,7.5 52,7.948 52,8.5 C52,9.052 52.447,9.5 53,9.5 L55,9.5 L55,10.5 C55,11.052 55.447,11.5 56,11.5 C56.553,11.5 57,11.052 57,10.5 L57,9.5 L58,9.5 L58,10.5 C58,11.052 58.447,11.5 59,11.5 C59.553,11.5 60,11.052 60,10.5 L60,1.5 C60,0.948 59.553,0.5 59,0.5 Z M57,7.5 L57,4.5 L58,4.5 L58,7.5 L57,7.5 Z" id="Shape"></path>
                    <path d="M7,4.5 C7.553,4.5 8,4.052 8,3.5 C8,2.948 7.553,2.5 7,2.5 L5,2.5 L5,1.5 C5,0.948 4.553,0.5 4,0.5 C3.447,0.5 3,0.948 3,1.5 L3,2.5 L2,2.5 L2,1.5 C2,0.948 1.553,0.5 1,0.5 C0.447,0.5 0,0.948 0,1.5 L0,10.5 C0,11.052 0.447,11.5 1,11.5 C1.553,11.5 2,11.052 2,10.5 L2,9.5 L3,9.5 L3,10.5 C3,11.052 3.447,11.5 4,11.5 C4.553,11.5 5,11.052 5,10.5 L5,9.5 L7,9.5 C7.553,9.5 8,9.052 8,8.5 C8,7.948 7.553,7.5 7,7.5 L5,7.5 L5,4.5 L7,4.5 Z M3,7.5 L2,7.5 L2,4.5 L3,4.5 L3,7.5 Z" id="Shape"></path>
                </g>
                <rect id="Rectangle-path" fill="#E3AA75" x="20" y="25.5" width="12" height="8"></rect>
                <rect id="Rectangle-path" fill="#E3AA75" x="20" y="39.5" width="12" height="10"></rect>
                <rect id="Rectangle-path" fill="#E3AA75" x="38" y="25.5" width="12" height="8"></rect>
                <rect id="Rectangle-path" fill="#D28C46" x="38" y="39.5" width="12" height="17"></rect>
                <rect id="Rectangle-path" fill="#D28C46" x="38" y="25.5" width="12" height="6"></rect>
                <rect id="Rectangle-path" fill="#D28C46" x="20" y="25.5" width="12" height="2.765"></rect>
                <polygon id="Shape" fill="#D28C46" points="27 43.5 27 39.5 25 39.5 25 43.5 20 43.5 20 45.5 25 45.5 25 49.5 27 49.5 27 45.5 32 45.5 32 43.5"></polygon>
                <path d="M68.90625,58.1875 L1.09375,58.1875 C0.489179688,58.1875 0,57.6977734 0,57.09375 C0,56.4897266 0.489179687,56 1.09375,56 L68.90625,56 C69.5108203,56 70,56.4897266 70,57.09375 C70,57.6977734 69.5108203,58.1875 68.90625,58.1875 Z" id="Shape" fill="#D4F582"></path>
            </g>
        </g>
    </g>
</svg>