<?xml version="1.0" encoding="UTF-8"?>
<svg width="70px" height="71px" viewBox="0 0 70 71" version="1.1" xmlns="http://www.w3.org/2000/svg" xmlns:xlink="http://www.w3.org/1999/xlink">
    <!-- Generator: Sketch 51.2 (57519) - http://www.bohemiancoding.com/sketch -->
    <title>business-plan</title>
    <desc>Created with Sketch.</desc>
    <defs></defs>
    <g id="subscription" stroke="none" stroke-width="1" fill="none" fill-rule="evenodd">
        <g id="package" transform="translate(-173.000000, -545.000000)" fill-rule="nonzero">
            <g id="business-plan" transform="translate(173.000000, 545.000000)">
                <path d="M29.3837109,7.07861328 C28.7321094,7.07861328 28.2039648,6.55060547 28.2039648,5.89886719 L28.2039648,1.17974609 C28.2039648,0.528007812 28.7322461,0 29.3837109,0 C30.0351758,0 30.563457,0.528007812 30.563457,1.17974609 L30.563457,5.89886719 C30.563457,6.55060547 30.0351758,7.07861328 29.3837109,7.07861328 Z" id="Shape" fill="#D28C46"></path>
                <rect id="Rectangle-path" fill="#FDE9A6" x="18.3723828" y="12.1910742" width="22.0225195" height="28.3145898"></rect>
                <g id="Group" transform="translate(22.960938, 5.878906)" fill="#FDE9A6">
                    <rect id="Rectangle-path" x="0.130566406" y="0.0199609375" width="12.5842773" height="6.29207031"></rect>
                </g>
                <g id="Group" transform="translate(23.371094, 17.226562)" fill="#D28C46">
                    <path d="M10.7316016,2.43632812 L1.29335937,2.43632812 C0.641757812,2.43632812 0.113613281,1.90832031 0.113613281,1.25658203 C0.113613281,0.60484375 0.641894531,0.0768359375 1.29335937,0.0768359375 L10.7316016,0.0768359375 C11.3832031,0.0768359375 11.9113477,0.60484375 11.9113477,1.25658203 C11.9114844,1.90832031 11.3832031,2.43632812 10.7316016,2.43632812 Z" id="Shape"></path>
                    <path d="M10.7316016,8.72853516 L6.01248047,8.72853516 C5.36087891,8.72853516 4.83273438,8.20052734 4.83273438,7.54878906 C4.83273438,6.89705078 5.36101563,6.36904297 6.01248047,6.36904297 L10.7316016,6.36904297 C11.3832031,6.36904297 11.9113477,6.89705078 11.9113477,7.54878906 C11.9113477,8.20052734 11.3832031,8.72853516 10.7316016,8.72853516 Z" id="Shape"></path>
                    <path d="M10.7316016,15.0206055 L6.01248047,15.0206055 C5.36087891,15.0206055 4.83273438,14.4925977 4.83273438,13.8408594 C4.83273438,13.1891211 5.36101563,12.6611133 6.01248047,12.6611133 L10.7316016,12.6611133 C11.3832031,12.6611133 11.9113477,13.1891211 11.9113477,13.8408594 C11.9113477,14.4925977 11.3832031,15.0206055 10.7316016,15.0206055 Z" id="Shape"></path>
                </g>
                <rect id="Rectangle-path" fill="#FFE17D" x="40.3949023" y="5.89886719" width="22.0225195" height="62.9213867"></rect>
                <g id="Group" transform="translate(45.382812, 10.937500)" fill="#D28C46">
                    <path d="M1.30416016,4.00626953 C0.652558594,4.00626953 0.124414062,3.47826172 0.124414062,2.82652344 L0.124414062,1.25357422 C0.124414062,0.601835937 0.652695312,0.073828125 1.30416016,0.073828125 C1.955625,0.073828125 2.48390625,0.601835937 2.48390625,1.25357422 L2.48390625,2.82666016 C2.48404297,3.47826172 1.95576172,4.00626953 1.30416016,4.00626953 Z" id="Shape"></path>
                    <path d="M6.02328125,4.00626953 C5.37167969,4.00626953 4.84353516,3.47826172 4.84353516,2.82652344 L4.84353516,1.25357422 C4.84353516,0.601835937 5.37181641,0.073828125 6.02328125,0.073828125 C6.67474609,0.073828125 7.20302734,0.601835937 7.20302734,1.25357422 L7.20302734,2.82666016 C7.20302734,3.47826172 6.67488281,4.00626953 6.02328125,4.00626953 Z" id="Shape"></path>
                    <path d="M10.7424023,4.00626953 C10.0908008,4.00626953 9.56265625,3.47826172 9.56265625,2.82652344 L9.56265625,1.25357422 C9.56265625,0.601835937 10.0909375,0.073828125 10.7424023,0.073828125 C11.3938672,0.073828125 11.9221484,0.601835937 11.9221484,1.25357422 L11.9221484,2.82666016 C11.9221484,3.47826172 11.3940039,4.00626953 10.7424023,4.00626953 Z" id="Shape"></path>
                    <path d="M1.30416016,11.8714258 C0.652558594,11.8714258 0.124414062,11.343418 0.124414062,10.6916797 L0.124414062,9.11859375 C0.124414062,8.46685547 0.652695312,7.93884766 1.30416016,7.93884766 C1.955625,7.93884766 2.48390625,8.46685547 2.48390625,9.11859375 L2.48390625,10.6916797 C2.48404297,11.343418 1.95576172,11.8714258 1.30416016,11.8714258 Z" id="Shape"></path>
                    <path d="M6.02328125,11.8714258 C5.37167969,11.8714258 4.84353516,11.343418 4.84353516,10.6916797 L4.84353516,9.11859375 C4.84353516,8.46685547 5.37181641,7.93884766 6.02328125,7.93884766 C6.67474609,7.93884766 7.20302734,8.46685547 7.20302734,9.11859375 L7.20302734,10.6916797 C7.20302734,11.343418 6.67488281,11.8714258 6.02328125,11.8714258 Z" id="Shape"></path>
                    <path d="M10.7424023,11.8714258 C10.0908008,11.8714258 9.56265625,11.343418 9.56265625,10.6916797 L9.56265625,9.11859375 C9.56265625,8.46685547 10.0909375,7.93884766 10.7424023,7.93884766 C11.3938672,7.93884766 11.9221484,8.46685547 11.9221484,9.11859375 L11.9221484,10.6916797 C11.9221484,11.343418 11.3940039,11.8714258 10.7424023,11.8714258 Z" id="Shape"></path>
                    <path d="M1.30416016,19.7367187 C0.652558594,19.7367187 0.124414062,19.2087109 0.124414062,18.5569727 L0.124414062,16.9838867 C0.124414062,16.3321484 0.652695312,15.8041406 1.30416016,15.8041406 C1.955625,15.8041406 2.48390625,16.3321484 2.48390625,16.9838867 L2.48390625,18.5569727 C2.48404297,19.2085742 1.95576172,19.7367187 1.30416016,19.7367187 Z" id="Shape"></path>
                    <path d="M6.02328125,19.7367187 C5.37167969,19.7367187 4.84353516,19.2087109 4.84353516,18.5569727 L4.84353516,16.9838867 C4.84353516,16.3321484 5.37181641,15.8041406 6.02328125,15.8041406 C6.67474609,15.8041406 7.20302734,16.3321484 7.20302734,16.9838867 L7.20302734,18.5569727 C7.20302734,19.2085742 6.67488281,19.7367187 6.02328125,19.7367187 Z" id="Shape"></path>
                    <path d="M10.7424023,19.7367187 C10.0908008,19.7367187 9.56265625,19.2087109 9.56265625,18.5569727 L9.56265625,16.9838867 C9.56265625,16.3321484 10.0909375,15.8041406 10.7424023,15.8041406 C11.3938672,15.8041406 11.9221484,16.3321484 11.9221484,16.9838867 L11.9221484,18.5569727 C11.9221484,19.2085742 11.3940039,19.7367187 10.7424023,19.7367187 Z" id="Shape"></path>
                    <path d="M1.30416016,27.601875 C0.652558594,27.601875 0.124414062,27.0738672 0.124414062,26.4221289 L0.124414062,24.849043 C0.124414062,24.1973047 0.652695312,23.6692969 1.30416016,23.6692969 C1.955625,23.6692969 2.48390625,24.1973047 2.48390625,24.849043 L2.48390625,26.4221289 C2.48404297,27.0737305 1.95576172,27.601875 1.30416016,27.601875 Z" id="Shape"></path>
                    <path d="M6.02328125,27.601875 C5.37167969,27.601875 4.84353516,27.0738672 4.84353516,26.4221289 L4.84353516,24.849043 C4.84353516,24.1973047 5.37181641,23.6692969 6.02328125,23.6692969 C6.67474609,23.6692969 7.20302734,24.1973047 7.20302734,24.849043 L7.20302734,26.4221289 C7.20302734,27.0737305 6.67488281,27.601875 6.02328125,27.601875 Z" id="Shape"></path>
                    <path d="M6.02328125,35.4670313 C5.37167969,35.4670313 4.84353516,34.9390234 4.84353516,34.2872852 L4.84353516,32.7141992 C4.84353516,32.0624609 5.37181641,31.5344531 6.02328125,31.5344531 C6.67474609,31.5344531 7.20302734,32.0624609 7.20302734,32.7141992 L7.20302734,34.2872852 C7.20302734,34.9388867 6.67488281,35.4670313 6.02328125,35.4670313 Z" id="Shape"></path>
                    <path d="M6.02328125,43.3321875 C5.37167969,43.3321875 4.84353516,42.8041797 4.84353516,42.1524414 L4.84353516,40.5793555 C4.84353516,39.9276172 5.37181641,39.3996094 6.02328125,39.3996094 C6.67474609,39.3996094 7.20302734,39.9276172 7.20302734,40.5793555 L7.20302734,42.1524414 C7.20302734,42.804043 6.67488281,43.3321875 6.02328125,43.3321875 Z" id="Shape"></path>
                    <path d="M6.02328125,51.1973437 C5.37167969,51.1973437 4.84353516,50.6693359 4.84353516,50.0175977 L4.84353516,48.4445117 C4.84353516,47.7927734 5.37181641,47.2647656 6.02328125,47.2647656 C6.67474609,47.2647656 7.20302734,47.7927734 7.20302734,48.4445117 L7.20302734,50.0175977 C7.20302734,50.6691992 6.67488281,51.1973437 6.02328125,51.1973437 Z" id="Shape"></path>
                    <path d="M10.7424023,27.601875 C10.0908008,27.601875 9.56265625,27.0738672 9.56265625,26.4221289 L9.56265625,24.849043 C9.56265625,24.1973047 10.0909375,23.6692969 10.7424023,23.6692969 C11.3938672,23.6692969 11.9221484,24.1973047 11.9221484,24.849043 L11.9221484,26.4221289 C11.9221484,27.0737305 11.3940039,27.601875 10.7424023,27.601875 Z" id="Shape"></path>
                    <path d="M10.7424023,35.4670313 C10.0908008,35.4670313 9.56265625,34.9390234 9.56265625,34.2872852 L9.56265625,32.7141992 C9.56265625,32.0624609 10.0909375,31.5344531 10.7424023,31.5344531 C11.3938672,31.5344531 11.9221484,32.0624609 11.9221484,32.7141992 L11.9221484,34.2872852 C11.9221484,34.9388867 11.3940039,35.4670313 10.7424023,35.4670313 Z" id="Shape"></path>
                    <path d="M10.7424023,43.3321875 C10.0908008,43.3321875 9.56265625,42.8041797 9.56265625,42.1524414 L9.56265625,40.5793555 C9.56265625,39.9276172 10.0909375,39.3996094 10.7424023,39.3996094 C11.3938672,39.3996094 11.9221484,39.9276172 11.9221484,40.5793555 L11.9221484,42.1524414 C11.9221484,42.804043 11.3940039,43.3321875 10.7424023,43.3321875 Z" id="Shape"></path>
                    <path d="M10.7424023,51.1973437 C10.0908008,51.1973437 9.56265625,50.6693359 9.56265625,50.0175977 L9.56265625,48.4445117 C9.56265625,47.7927734 10.0909375,47.2647656 10.7424023,47.2647656 C11.3938672,47.2647656 11.9221484,47.7927734 11.9221484,48.4445117 L11.9221484,50.0175977 C11.9221484,50.6691992 11.3940039,51.1973437 10.7424023,51.1973437 Z" id="Shape"></path>
                </g>
                <rect id="Rectangle-path" fill="#FFE17D" x="7.36119141" y="23.2022656" width="22.0225195" height="45.6179883"></rect>
                <g id="Group" transform="translate(12.433594, 29.804688)" fill="#D28C46">
                    <path d="M1.21966797,4.01556641 C0.568066406,4.01556641 0.039921875,3.48755859 0.039921875,2.83582031 L0.039921875,1.26273438 C0.039921875,0.610996094 0.568203125,0.0829882813 1.21966797,0.0829882813 C1.87113281,0.0829882813 2.39941406,0.610996094 2.39941406,1.26273438 L2.39941406,2.83582031 C2.39955078,3.48742188 1.87126953,4.01556641 1.21966797,4.01556641 Z" id="Shape"></path>
                    <path d="M5.93878906,4.01556641 C5.2871875,4.01556641 4.75904297,3.48755859 4.75904297,2.83582031 L4.75904297,1.26273438 C4.75904297,0.610996094 5.28732422,0.0829882813 5.93878906,0.0829882813 C6.59025391,0.0829882813 7.11853516,0.610996094 7.11853516,1.26273438 L7.11853516,2.83582031 C7.11853516,3.48742188 6.59039063,4.01556641 5.93878906,4.01556641 Z" id="Shape"></path>
                    <path d="M10.6579102,4.01556641 C10.0063086,4.01556641 9.47816406,3.48755859 9.47816406,2.83582031 L9.47816406,1.26273438 C9.47816406,0.610996094 10.0064453,0.0829882813 10.6579102,0.0829882813 C11.309375,0.0829882813 11.8376562,0.610996094 11.8376562,1.26273438 L11.8376562,2.83582031 C11.8376562,3.48742188 11.3095117,4.01556641 10.6579102,4.01556641 Z" id="Shape"></path>
                    <path d="M1.21966797,11.8807227 C0.568066406,11.8807227 0.039921875,11.3527148 0.039921875,10.7009766 L0.039921875,9.12789063 C0.039921875,8.47615234 0.568203125,7.94814453 1.21966797,7.94814453 C1.87113281,7.94814453 2.39941406,8.47615234 2.39941406,9.12789063 L2.39941406,10.7009766 C2.39955078,11.3525781 1.87126953,11.8807227 1.21966797,11.8807227 Z" id="Shape"></path>
                    <path d="M5.93878906,11.8807227 C5.2871875,11.8807227 4.75904297,11.3527148 4.75904297,10.7009766 L4.75904297,9.12789063 C4.75904297,8.47615234 5.28732422,7.94814453 5.93878906,7.94814453 C6.59025391,7.94814453 7.11853516,8.47615234 7.11853516,9.12789063 L7.11853516,10.7009766 C7.11853516,11.3525781 6.59039063,11.8807227 5.93878906,11.8807227 Z" id="Shape"></path>
                    <path d="M10.6579102,11.8807227 C10.0063086,11.8807227 9.47816406,11.3527148 9.47816406,10.7009766 L9.47816406,9.12789063 C9.47816406,8.47615234 10.0064453,7.94814453 10.6579102,7.94814453 C11.309375,7.94814453 11.8376562,8.47615234 11.8376562,9.12789063 L11.8376562,10.7009766 C11.8376562,11.3525781 11.3095117,11.8807227 10.6579102,11.8807227 Z" id="Shape"></path>
                    <path d="M1.21966797,19.7458789 C0.568066406,19.7458789 0.039921875,19.2178711 0.039921875,18.5661328 L0.039921875,16.9930469 C0.039921875,16.3413086 0.568203125,15.8133008 1.21966797,15.8133008 C1.87113281,15.8133008 2.39941406,16.3413086 2.39941406,16.9930469 L2.39941406,18.5661328 C2.39955078,19.2178711 1.87126953,19.7458789 1.21966797,19.7458789 Z" id="Shape"></path>
                    <path d="M5.93878906,19.7458789 C5.2871875,19.7458789 4.75904297,19.2178711 4.75904297,18.5661328 L4.75904297,16.9930469 C4.75904297,16.3413086 5.28732422,15.8133008 5.93878906,15.8133008 C6.59025391,15.8133008 7.11853516,16.3413086 7.11853516,16.9930469 L7.11853516,18.5661328 C7.11853516,19.2178711 6.59039063,19.7458789 5.93878906,19.7458789 Z" id="Shape"></path>
                    <path d="M10.6579102,19.7458789 C10.0063086,19.7458789 9.47816406,19.2178711 9.47816406,18.5661328 L9.47816406,16.9930469 C9.47816406,16.3413086 10.0064453,15.8133008 10.6579102,15.8133008 C11.309375,15.8133008 11.8376562,16.3413086 11.8376562,16.9930469 L11.8376562,18.5661328 C11.8376562,19.2178711 11.3095117,19.7458789 10.6579102,19.7458789 Z" id="Shape"></path>
                    <path d="M1.21966797,27.6110352 C0.568066406,27.6110352 0.039921875,27.0830273 0.039921875,26.4312891 L0.039921875,24.8582031 C0.039921875,24.2064648 0.568203125,23.678457 1.21966797,23.678457 C1.87113281,23.678457 2.39941406,24.2064648 2.39941406,24.8582031 L2.39941406,26.4312891 C2.39955078,27.0830273 1.87126953,27.6110352 1.21966797,27.6110352 Z" id="Shape"></path>
                    <path d="M5.93878906,27.6110352 C5.2871875,27.6110352 4.75904297,27.0830273 4.75904297,26.4312891 L4.75904297,24.8582031 C4.75904297,24.2064648 5.28732422,23.678457 5.93878906,23.678457 C6.59025391,23.678457 7.11853516,24.2064648 7.11853516,24.8582031 L7.11853516,26.4312891 C7.11853516,27.0830273 6.59039063,27.6110352 5.93878906,27.6110352 Z" id="Shape"></path>
                    <path d="M10.6579102,27.6110352 C10.0063086,27.6110352 9.47816406,27.0830273 9.47816406,26.4312891 L9.47816406,24.8582031 C9.47816406,24.2064648 10.0064453,23.678457 10.6579102,23.678457 C11.309375,23.678457 11.8376562,24.2064648 11.8376562,24.8582031 L11.8376562,26.4312891 C11.8376562,27.0830273 11.3095117,27.6110352 10.6579102,27.6110352 Z" id="Shape"></path>
                </g>
                <rect id="Rectangle-path" fill="#FFE48C" x="29.3837109" y="37.3594922" width="22.0225195" height="31.460625"></rect>
                <path d="M35.6757812,65.2811523 C35.0241797,65.2811523 34.4960352,64.7528711 34.4960352,64.1014062 L34.4960352,42.0790234 C34.4960352,41.4272852 35.0243164,40.8992773 35.6757812,40.8992773 C36.3272461,40.8992773 36.8555273,41.4272852 36.8555273,42.0790234 L36.8555273,64.101543 C36.8555273,64.7531445 36.3273828,65.2811523 35.6757812,65.2811523 Z" id="Shape" fill="#D28C46"></path>
                <g id="Group" transform="translate(35.675781, 40.878906)" fill="#D28C46">
                    <path d="M4.71912109,24.4022461 C4.06751953,24.4022461 3.539375,23.8739648 3.539375,23.2225 L3.539375,1.20011719 C3.539375,0.548378906 4.06765625,0.0203710938 4.71912109,0.0203710938 C5.37058594,0.0203710938 5.89886719,0.548378906 5.89886719,1.20011719 L5.89886719,23.2226367 C5.89886719,23.8742383 5.37058594,24.4022461 4.71912109,24.4022461 Z" id="Shape"></path>
                    <path d="M9.43824219,24.4022461 C8.78664062,24.4022461 8.25849609,23.8739648 8.25849609,23.2225 L8.25849609,1.20011719 C8.25849609,0.548378906 8.78677734,0.0203710938 9.43824219,0.0203710938 C10.089707,0.0203710938 10.6179883,0.548378906 10.6179883,1.20011719 L10.6179883,23.2226367 C10.6179883,23.8742383 10.089707,24.4022461 9.43824219,24.4022461 Z" id="Shape"></path>
                    <path d="M0,0.020234375 L0,24.4022461 C0.651601563,24.4022461 1.17974609,23.8739648 1.17974609,23.2225 L1.17974609,1.20011719 C1.17974609,0.548378906 0.651601563,0.020234375 0,0.020234375 Z" id="Shape"></path>
                </g>
                <rect id="Rectangle-path" fill="#E3AA75" x="15.2263477" y="62.5280469" width="6.29207031" height="6.29207031"></rect>
                <path d="M68.90625,70.1875 L1.09375,70.1875 C0.489179688,70.1875 0,69.6977734 0,69.09375 C0,68.4897266 0.489179687,68 1.09375,68 L68.90625,68 C69.5108203,68 70,68.4897266 70,69.09375 C70,69.6977734 69.5108203,70.1875 68.90625,70.1875 Z" id="Shape" fill="#D4F582"></path>
            </g>
        </g>
    </g>
</svg>