<?xml version="1.0" encoding="UTF-8"?>
<svg width="69px" height="70px" viewBox="0 0 69 70" version="1.1" xmlns="http://www.w3.org/2000/svg" xmlns:xlink="http://www.w3.org/1999/xlink">
    <!-- Generator: Sketch 51.2 (57519) - http://www.bohemiancoding.com/sketch -->
    <title>free-plan</title>
    <desc>Created with Sketch.</desc>
    <defs></defs>
    <g id="subscription" stroke="none" stroke-width="1" fill="none" fill-rule="evenodd">
        <g id="package" transform="translate(-169.000000, -126.000000)" fill-rule="nonzero">
            <g id="Group-3" transform="translate(140.000000, 111.000000)">
                <g id="free-plan" transform="translate(29.000000, 15.000000)">
                    <g id="Group" transform="translate(32.754732, 0.000000)">
                        <path d="M0.0772364657,5.56035156 L0.0772364657,1.77603433 C0.0772364657,0.851083847 0.827090669,0.101229643 1.75204115,0.101229643 C2.67699164,0.101229643 3.42684584,0.851083847 3.42684584,1.77603433 L3.42684584,5.56021677 L0.0772364657,5.56035156 Z" id="Shape" fill="#D28C46"></path>
                        <polygon id="Shape" fill="#D29B6E" points="0.0772364657 64.6978736 0.0772364657 35.7541483 3.42698063 35.7544179 3.42698063 64.6970648"></polygon>
                    </g>
                    <path d="M65.7700182,34.7139497 C65.7700182,17.4864437 51.8355084,3.51338303 34.62256,3.45097381 C17.3641863,3.3884298 3.24366197,17.6980689 3.24366197,34.9564426 L3.24366197,37.1309254 C3.24366197,37.6230551 3.67958297,38.0011499 4.16672535,37.9315966 L18.8752173,35.8304412 L34.5067727,38.0634243 L34.5070423,38.0634243 L50.1385976,35.8304412 L64.8469548,37.9315966 C65.334232,38.0011499 65.7701529,37.6230551 65.7701529,37.1309254 L65.7700182,34.7139497 Z" id="Shape" fill="#FFE17D"></path>
                    <path d="M27.589863,67.0934171 C27.0780535,67.0934171 26.6862098,66.6220456 26.7970098,66.1223674 C27.2403444,64.1228461 29.0240619,62.627451 31.1570285,62.627451 L37.8566516,62.627451 C39.9896182,62.627451 41.7733357,64.1228461 42.2166703,66.1223674 C42.3274703,66.6220456 41.9356267,67.0934171 41.4238171,67.0934171 L27.589863,67.0934171 Z" id="Shape" fill="#E3AA75"></path>
                    <path d="M18.8753521,34.7139497 L18.8753521,35.830576 L34.3927377,38.0472491 C34.4686262,38.0580326 34.5455931,38.0580326 34.6214816,38.0472491 L50.1384628,35.830576 L50.1384628,34.7139497 C50.1384628,17.447758 43.1400033,3.45083902 34.5069075,3.45083902 C25.8738116,3.45070423 18.8753521,17.447758 18.8753521,34.7139497 Z" id="Shape" fill="#D28C46"></path>
                    <path d="M65.9131685,32.7562142 L50.2816131,30.5232312 C50.1868535,30.5097519 50.0904765,30.5097519 49.9957169,30.5232312 L34.5069075,32.7358605 L19.0183676,30.5232312 C18.9236081,30.5097519 18.827231,30.5097519 18.7324714,30.5232312 L3.10078125,32.7562142 C2.54799461,32.835203 2.16396897,33.3472821 2.24295775,33.899934 C2.32194652,34.4527206 2.83443002,34.8353983 3.38667749,34.7577575 L18.8753521,32.5451282 L34.3641615,34.7577575 C34.4589211,34.7712368 34.5552982,34.7712368 34.6500578,34.7577575 L50.1387324,32.5451282 L65.6272722,34.7577575 C65.6757978,34.7646319 65.7239189,34.7680018 65.7715009,34.7680018 C66.2664613,34.7680018 66.6990124,34.4041951 66.7711268,33.899934 C66.849846,33.3471473 66.4658203,32.8350682 65.9131685,32.7562142 Z" id="Shape" fill="#E3AA75"></path>
                    <path d="M67.9357394,69.1989437 L1.07834507,69.1989437 C0.482289833,69.1989437 0,68.7161147 0,68.1205986 C0,67.5250825 0.482289833,67.0422535 1.07834507,67.0422535 L67.9357394,67.0422535 C68.5317947,67.0422535 69.0140845,67.5250825 69.0140845,68.1205986 C69.0140845,68.7161147 68.5317947,69.1989437 67.9357394,69.1989437 Z" id="Shape" fill="#D4F582"></path>
                </g>
            </g>
        </g>
    </g>
</svg>