<?xml version="1.0" encoding="UTF-8"?>
<svg width="70px" height="69px" viewBox="0 0 70 69" version="1.1" xmlns="http://www.w3.org/2000/svg" xmlns:xlink="http://www.w3.org/1999/xlink">
    <!-- Generator: Sketch 51.2 (57519) - http://www.bohemiancoding.com/sketch -->
    <title>pro-plan</title>
    <desc>Created with Sketch.</desc>
    <defs></defs>
    <g id="subscription" stroke="none" stroke-width="1" fill="none" fill-rule="evenodd">
        <g id="package" transform="translate(-167.000000, -409.000000)" fill-rule="nonzero">
            <g id="pro-plan" transform="translate(167.000000, 409.000000)">
                <g id="Group" transform="translate(4.648438, 58.789062)" fill="#DA8C36">
                    <path d="M3.30613281,8.02908203 L3.30613281,1.66550781 C3.30613281,0.7109375 2.66970703,0.0746484375 1.71527344,0.0746484375 C0.760839844,0.0746484375 0.124414063,0.711074219 0.124414063,1.66550781 L0.124414063,8.02908203 L3.30613281,8.02908203 Z" id="Shape"></path>
                    <path d="M60.5788477,8.02908203 L60.5788477,1.66550781 C60.5788477,0.7109375 59.9424219,0.0746484375 58.9879883,0.0746484375 C58.0335547,0.0746484375 57.3971289,0.711074219 57.3971289,1.66550781 L57.3971289,8.02908203 L60.5788477,8.02908203 Z" id="Shape"></path>
                </g>
                <g id="Group" transform="translate(4.648438, 58.789062)" fill="#C97629">
                    <polygon id="Shape" points="57.3969922 0.0745117188 57.3969922 3.25636719 58.9879883 3.25636719 58.9879883 8.02908203 60.5788477 8.02908203 60.5788477 3.25636719 60.5788477 0.0745117188"></polygon>
                    <polygon id="Shape" points="0.124277344 0.0745117188 0.124277344 3.25636719 1.71513672 3.25636719 1.71513672 8.02908203 3.30613281 8.02908203 3.30613281 3.25636719 3.30613281 0.0745117188"></polygon>
                </g>
                <path d="M35,9.54542969 C34.0454297,9.54542969 33.4091406,8.90900391 33.4091406,7.95457031 L33.4091406,1.59085937 C33.4091406,0.636425781 34.0454297,0 35,0 C35.9545703,0 36.5908594,0.636425781 36.5908594,1.59085937 L36.5908594,7.95443359 C36.5908594,8.90914063 35.9545703,9.54542969 35,9.54542969 Z" id="Shape" fill="#E3AA75"></path>
                <path d="M15.9091406,66.8181445 L15.9091406,15.9091406 C15.9091406,14.9545703 16.5455664,14.3182813 17.5,14.3182813 L25.4545703,14.3182813 C26.4091406,14.3182813 27.0454297,13.6818555 27.0454297,12.7274219 L27.0454297,9.54542969 C27.0454297,8.59085938 27.6818555,7.95457031 28.6362891,7.95457031 L41.3635742,7.95457031 C42.3181445,7.95457031 42.9544336,8.59099609 42.9544336,9.54542969 L42.9544336,12.7272852 C42.9544336,13.6818555 43.5908594,14.3181445 44.545293,14.3181445 L52.5,14.3181445 C53.4545703,14.3181445 54.0908594,14.9545703 54.0908594,15.9090039 L54.0908594,66.8181445 L15.9091406,66.8181445 Z" id="Shape" fill="#FFE17D"></path>
                <path d="M47.7272852,25.4545703 L22.2727148,25.4545703 C21.3181445,25.4545703 20.6818555,24.8181445 20.6818555,23.8637109 L20.6818555,20.6818555 C20.6818555,19.7272852 21.3182812,19.0909961 22.2727148,19.0909961 L47.7272852,19.0909961 C48.6818555,19.0909961 49.3181445,19.7274219 49.3181445,20.6818555 L49.3181445,23.8637109 C49.3181445,24.8181445 48.6818555,25.4545703 47.7272852,25.4545703 Z" id="Shape" fill="#D28C46"></path>
                <path d="M47.7272852,35 L22.2727148,35 C21.3181445,35 20.6818555,34.3635742 20.6818555,33.4091406 L20.6818555,30.2272852 C20.6818555,29.2727148 21.3182812,28.6364258 22.2727148,28.6364258 L47.7272852,28.6364258 C48.6818555,28.6364258 49.3181445,29.2728516 49.3181445,30.2272852 L49.3181445,33.4091406 C49.3181445,34.3635742 48.6818555,35 47.7272852,35 Z" id="Shape" fill="#D28C46"></path>
                <path d="M47.7272852,44.5454297 L22.2727148,44.5454297 C21.3181445,44.5454297 20.6818555,43.9090039 20.6818555,42.9545703 L20.6818555,39.7727148 C20.6818555,38.8181445 21.3182812,38.1818555 22.2727148,38.1818555 L47.7272852,38.1818555 C48.6818555,38.1818555 49.3181445,38.8182812 49.3181445,39.7727148 L49.3181445,42.9545703 C49.3181445,43.9091406 48.6818555,44.5454297 47.7272852,44.5454297 Z" id="Shape" fill="#D28C46"></path>
                <path d="M47.7272852,54.0908594 L22.2727148,54.0908594 C21.3181445,54.0908594 20.6818555,53.4544336 20.6818555,52.5 L20.6818555,49.3181445 C20.6818555,48.3635742 21.3182812,47.7272852 22.2727148,47.7272852 L47.7272852,47.7272852 C48.6818555,47.7272852 49.3181445,48.3637109 49.3181445,49.3181445 L49.3181445,52.5 C49.3181445,53.4545703 48.6818555,54.0908594 47.7272852,54.0908594 Z" id="Shape" fill="#D28C46"></path>
                <path d="M68.4091406,55.6818555 C68.4091406,58.3864258 66.3409961,60.4545703 63.6364258,60.4545703 C60.9318555,60.4545703 58.8637109,58.3864258 58.8637109,55.6818555 C58.8637109,52.9772852 63.6364258,47.7272852 63.6364258,47.7272852 C63.6364258,47.7272852 68.4091406,52.9772852 68.4091406,55.6818555 Z" id="Shape" fill="#89C763"></path>
                <path d="M66.0227148,50.5908594 C66.5,51.7044336 66.8181445,52.6590039 66.8181445,53.4544336 C66.8181445,56.4771484 64.75,58.8635742 62.0454297,58.8635742 C61.0908594,58.8635742 60.2954297,58.5454297 59.5,58.0681445 C60.2954297,59.5 61.8864258,60.4545703 63.6364258,60.4545703 C66.3409961,60.4545703 68.4091406,58.3864258 68.4091406,55.6818555 C68.4091406,54.4091406 67.1364258,52.3408594 66.0227148,50.5908594 Z" id="Shape" fill="#71B956"></path>
                <path d="M11.1364258,55.6818555 C11.1364258,58.3864258 9.06828125,60.4545703 6.36371094,60.4545703 C3.65914063,60.4545703 1.59099609,58.3864258 1.59099609,55.6818555 C1.59099609,52.9772852 6.36371094,47.7272852 6.36371094,47.7272852 C6.36371094,47.7272852 11.1364258,52.9772852 11.1364258,55.6818555 Z" id="Shape" fill="#89C763"></path>
                <g id="Group" transform="translate(20.644531, 57.148438)">
                    <rect id="Rectangle-path" fill="#E3AA75" x="9.58275391" y="0.124277344" width="9.54542969" height="9.54542969"></rect>
                    <path d="M27.0827539,6.48798828 L23.9008984,6.48798828 C22.9463281,6.48798828 22.3100391,5.8515625 22.3100391,4.89712891 L22.3100391,1.71527344 C22.3100391,0.760703125 22.9464648,0.124414062 23.9008984,0.124414062 L27.0827539,0.124414062 C28.0373242,0.124414062 28.6736133,0.760839844 28.6736133,1.71527344 L28.6736133,4.89712891 C28.6736133,5.8515625 28.0373242,6.48798828 27.0827539,6.48798828 Z" id="Shape" fill="#D28C46"></path>
                    <path d="M4.81003906,6.48798828 L1.62818359,6.48798828 C0.673613281,6.48798828 0.0373242187,5.8515625 0.0373242187,4.89712891 L0.0373242187,1.71527344 C0.0373242187,0.760703125 0.67375,0.124414062 1.62818359,0.124414062 L4.81003906,0.124414062 C5.76460937,0.124414062 6.40089844,0.760839844 6.40089844,1.71527344 L6.40089844,4.89712891 C6.40089844,5.8515625 5.76460937,6.48798828 4.81003906,6.48798828 Z" id="Shape" fill="#D28C46"></path>
                </g>
                <path d="M8.75,50.5908594 C9.22728516,51.7044336 9.54542969,52.6590039 9.54542969,53.4544336 C9.54542969,56.4771484 7.47728516,58.8635742 4.77271484,58.8635742 C3.81814453,58.8635742 3.02271484,58.5454297 2.22728516,58.0681445 C3.02271484,59.5 4.61371094,60.4545703 6.36371094,60.4545703 C9.06828125,60.4545703 11.1364258,58.3864258 11.1364258,55.6818555 C11.1364258,54.4091406 9.86357422,52.3408594 8.75,50.5908594 Z" id="Shape" fill="#71B956"></path>
                <path d="M41.3635742,7.95457031 L28.6362891,7.95457031 C27.6817187,7.95457031 27.0454297,8.59099609 27.0454297,9.54542969 L27.0454297,12.7272852 C27.0454297,13.6818555 26.4090039,14.3181445 25.4545703,14.3181445 L44.5454297,14.3181445 C43.5908594,14.3181445 42.9545703,13.6817187 42.9545703,12.7272852 L42.9545703,9.54542969 C42.9545703,8.59085937 42.3181445,7.95457031 41.3635742,7.95457031 Z" id="Shape" fill="#D28C46"></path>
                <path d="M42.9545703,12.7272852 L42.9545703,9.54542969 C42.9545703,8.59085937 42.3181445,7.95457031 41.3637109,7.95457031 L36.5909961,7.95457031 C37.5455664,7.95457031 38.1818555,8.59099609 38.1818555,9.54542969 L38.1818555,12.7272852 C38.1818555,13.6818555 38.8182813,14.3181445 39.7727148,14.3181445 L44.5454297,14.3181445 C43.5908594,14.3181445 42.9545703,13.6818555 42.9545703,12.7272852 Z" id="Shape" fill="#D28C46"></path>
                <path d="M49.3181445,20.6818555 L20.6818555,20.6818555 C20.6818555,19.7272852 21.3182812,19.0909961 22.2727148,19.0909961 L47.7272852,19.0909961 C48.6818555,19.0908594 49.3181445,19.7272852 49.3181445,20.6818555 Z" id="Shape" fill="#E3AA75"></path>
                <path d="M49.3181445,30.2272852 L20.6818555,30.2272852 C20.6818555,29.2727148 21.3182812,28.6364258 22.2727148,28.6364258 L47.7272852,28.6364258 C48.6818555,28.6364258 49.3181445,29.2727148 49.3181445,30.2272852 Z" id="Shape" fill="#E3AA75"></path>
                <path d="M49.3181445,39.7727148 L20.6818555,39.7727148 C20.6818555,38.8181445 21.3182812,38.1818555 22.2727148,38.1818555 L47.7272852,38.1818555 C48.6818555,38.1818555 49.3181445,38.8181445 49.3181445,39.7727148 Z" id="Shape" fill="#E3AA75"></path>
                <g id="Group" transform="translate(20.644531, 47.714844)" fill="#E3AA75">
                    <path d="M28.6736133,1.60330078 L0.0373242187,1.60330078 C0.0373242187,0.648730469 0.67375,0.0124414062 1.62818359,0.0124414062 L27.0827539,0.0124414062 C28.0373242,0.0124414063 28.6736133,0.648730469 28.6736133,1.60330078 Z" id="Shape"></path>
                    <path d="M28.6736133,11.1487305 L22.3100391,11.1487305 C22.3100391,10.1941602 22.9464648,9.55787109 23.9008984,9.55787109 L27.0827539,9.55787109 C28.0373242,9.55787109 28.6736133,10.1942969 28.6736133,11.1487305 Z" id="Shape"></path>
                    <path d="M6.40089844,11.1487305 L0.0373242188,11.1487305 C0.0373242188,10.1941602 0.67375,9.55787109 1.62818359,9.55787109 L4.81003906,9.55787109 C5.76460937,9.55787109 6.40089844,10.1942969 6.40089844,11.1487305 Z" id="Shape"></path>
                </g>
                <path d="M68.90625,68.1875 L1.09375,68.1875 C0.489179688,68.1875 0,67.6977734 0,67.09375 C0,66.4897266 0.489179687,66 1.09375,66 L68.90625,66 C69.5108203,66 70,66.4897266 70,67.09375 C70,67.6977734 69.5108203,68.1875 68.90625,68.1875 Z" id="Shape" fill="#D4F582"></path>
            </g>
        </g>
    </g>
</svg>