<svg xmlns="http://www.w3.org/2000/svg" width="48" height="32" viewBox="0 0 48 32">
  <g fill="none">
    <rect width="48" height="32" fill="#212B36" rx="4"/>
    <g fill="#FFF" transform="translate(0 7)">
      <polygon points="3.65 3.54 4.19 4.86 2.38 4.86 2.93 3.54 3.29 2.66"/>
      <path d="M23.37 2.7L21.79 2.7 21.79 3.94 23.37 3.94C23.548468 3.96669193 23.7295954 3.91299556 23.8646804 3.79334886 23.9997654 3.67370216 24.0749432 3.50038528 24.07 3.32 24.0682756 3.14179087 23.9911532 2.97264965 23.8577417 2.85448518 23.7243302 2.73632071 23.547113 2.68018972 23.37 2.7L23.37 2.7zM23.37 2.7L21.79 2.7 21.79 3.94 23.37 3.94C23.548468 3.96669193 23.7295954 3.91299556 23.8646804 3.79334886 23.9997654 3.67370216 24.0749432 3.50038528 24.07 3.32 24.0682756 3.14179087 23.9911532 2.97264965 23.8577417 2.85448518 23.7243302 2.73632071 23.547113 2.68018972 23.37 2.7L23.37 2.7zM23.37 2.7L21.79 2.7 21.79 3.94 23.37 3.94C23.548468 3.96669193 23.7295954 3.91299556 23.8646804 3.79334886 23.9997654 3.67370216 24.0749432 3.50038528 24.07 3.32 24.0682756 3.14179087 23.9911532 2.97264965 23.8577417 2.85448518 23.7243302 2.73632071 23.547113 2.68018972 23.37 2.7L23.37 2.7zM35.29 3.54L35 2.66 35 2.66 34.64 3.54 34.12 4.86 35.9 4.86 35.29 3.54zM35.29 3.54L35 2.66 35 2.66 34.64 3.54 34.12 4.86 35.9 4.86 35.29 3.54zM23.37 2.7L21.79 2.7 21.79 3.94 23.37 3.94C23.548468 3.96669193 23.7295954 3.91299556 23.8646804 3.79334886 23.9997654 3.67370216 24.0749432 3.50038528 24.07 3.32 24.0682756 3.14179087 23.9911532 2.97264965 23.8577417 2.85448518 23.7243302 2.73632071 23.547113 2.68018972 23.37 2.7L23.37 2.7zM23.37 2.7L21.79 2.7 21.79 3.94 23.37 3.94C23.548468 3.96669193 23.7295954 3.91299556 23.8646804 3.79334886 23.9997654 3.67370216 24.0749432 3.50038528 24.07 3.32 24.0682756 3.14179087 23.9911532 2.97264965 23.8577417 2.85448518 23.7243302 2.73632071 23.547113 2.68018972 23.37 2.7L23.37 2.7zM35.29 3.54L35 2.66 35 2.66 34.64 3.54 34.12 4.86 35.9 4.86 35.29 3.54zM35.29 3.54L35 2.66 35 2.66 34.64 3.54 34.12 4.86 35.9 4.86 35.29 3.54zM23.37 2.7L21.79 2.7 21.79 3.94 23.37 3.94C23.548468 3.96669193 23.7295954 3.91299556 23.8646804 3.79334886 23.9997654 3.67370216 24.0749432 3.50038528 24.07 3.32 24.0682756 3.14179087 23.9911532 2.97264965 23.8577417 2.85448518 23.7243302 2.73632071 23.547113 2.68018972 23.37 2.7L23.37 2.7zM23.37 2.7L21.79 2.7 21.79 3.94 23.37 3.94C23.548468 3.96669193 23.7295954 3.91299556 23.8646804 3.79334886 23.9997654 3.67370216 24.0749432 3.50038528 24.07 3.32 24.0682756 3.14179087 23.9911532 2.97264965 23.8577417 2.85448518 23.7243302 2.73632071 23.547113 2.68018972 23.37 2.7L23.37 2.7zM35.29 3.54L35 2.66 35 2.66 34.64 3.54 34.12 4.86 35.9 4.86 35.29 3.54zM35.29 3.54L35 2.66 35 2.66 34.64 3.54 34.12 4.86 35.9 4.86 35.29 3.54zM23.37 2.7L21.79 2.7 21.79 3.94 23.37 3.94C23.548468 3.96669193 23.7295954 3.91299556 23.8646804 3.79334886 23.9997654 3.67370216 24.0749432 3.50038528 24.07 3.32 24.0682756 3.14179087 23.9911532 2.97264965 23.8577417 2.85448518 23.7243302 2.73632071 23.547113 2.68018972 23.37 2.7L23.37 2.7zM23.37 2.7L21.79 2.7 21.79 3.94 23.37 3.94C23.548468 3.96669193 23.7295954 3.91299556 23.8646804 3.79334886 23.9997654 3.67370216 24.0749432 3.50038528 24.07 3.32 24.0682756 3.14179087 23.9911532 2.97264965 23.8577417 2.85448518 23.7243302 2.73632071 23.547113 2.68018972 23.37 2.7L23.37 2.7zM35.29 3.54L35 2.66 35 2.66 34.64 3.54 34.12 4.86 35.9 4.86 35.29 3.54zM35.29 3.54L35 2.66 35 2.66 34.64 3.54 34.12 4.86 35.9 4.86 35.29 3.54zM23.37 2.7L21.79 2.7 21.79 3.94 23.37 3.94C23.548468 3.96669193 23.7295954 3.91299556 23.8646804 3.79334886 23.9997654 3.67370216 24.0749432 3.50038528 24.07 3.32 24.0682756 3.14179087 23.9911532 2.97264965 23.8577417 2.85448518 23.7243302 2.73632071 23.547113 2.68018972 23.37 2.7L23.37 2.7zM23.37 2.7L21.79 2.7 21.79 3.94 23.37 3.94C23.548468 3.96669193 23.7295954 3.91299556 23.8646804 3.79334886 23.9997654 3.67370216 24.0749432 3.50038528 24.07 3.32 24.0682756 3.14179087 23.9911532 2.97264965 23.8577417 2.85448518 23.7243302 2.73632071 23.547113 2.68018972 23.37 2.7L23.37 2.7zM35.29 3.54L35 2.66 35 2.66 34.64 3.54 34.12 4.86 35.9 4.86 35.29 3.54zM35.29 3.54L35 2.66 35 2.66 34.64 3.54 34.12 4.86 35.9 4.86 35.29 3.54zM23.37 2.7L21.79 2.7 21.79 3.94 23.37 3.94C23.548468 3.96669193 23.7295954 3.91299556 23.8646804 3.79334886 23.9997654 3.67370216 24.0749432 3.50038528 24.07 3.32 24.0682756 3.14179087 23.9911532 2.97264965 23.8577417 2.85448518 23.7243302 2.73632071 23.547113 2.68018972 23.37 2.7L23.37 2.7zM41.69.24L41.69 1.9 40.62.24 37.48.24 37.48 2.34 36.48.24 31.14.24C30.2365974.213824368 29.3523972.503842033 28.64 1.06L28.64.24 11 .24 10.4 2 9.8.2 5.8.2 5.8 2.3 4.86.2 1.6.2 0 4 0 8.4 2.28 8.4 2.75 7.18 3.87 7.18 4.33 8.4 22.67 8.4 22.67 6.94 23.83 8.4 28.64 8.4 28.64 7.66C29.3453265 8.16206085 30.1945068 8.42172753 31.06 8.4L33.93 8.4 34.39 7.18 35.51 7.18 36 8.4 40.9 8.4 40.9 6.82 41.9 8.4 45.28 8.4 45.28.24 41.69.24zM5.11 7.14L4.63 6 2 6 1.52 7.18 0 7.18 2.45 1.5 4.23 1.5 6.65 7.14 5.11 7.14zM13.91 7.14L12.59 7.14 12.59 3.44 12.59 2.58 12.59 2.58 12.33 3.44 11 7.14 9.78 7.14 8.5 3.44 8.22 2.58 8.22 2.58 8.22 3.44 8.22 7.14 6.91 7.14 6.91 1.5 9.12 1.5 10.22 4.76 10.4 5.38 10.4 5.38 10.58 4.76 11.7 1.5 13.91 1.5 13.91 7.14zM19.5 2.7L16.33 2.7 16.33 3.7 19.42 3.7 19.42 4.9 16.33 4.9 16.33 5.9 19.5 5.9 19.5 7.1 15 7.1 15 1.5 19.5 1.5 19.5 2.7zM24.09 7.14L22.41 5.14 21.79 5.14 21.79 7.14 20.4 7.14 20.4 1.5 23.49 1.5C23.9995647 1.43316689 24.5130181 1.59111095 24.8969214 1.93278491 25.2808248 2.27445888 25.4972677 2.76612254 25.49 3.28 25.5119426 4.18148729 24.8452704 4.95205649 23.95 5.06L25.83 7.14 24.09 7.14zM27.48 7.14L26.11 7.14 26.11 1.5 27.48 1.5 27.48 7.14zM30.98 7.14L30.9 7.14C30.1648712 7.18009475 29.4494435 6.89412312 28.9445028 6.35834633 28.439562 5.82256953 28.1964506 5.09146524 28.28 4.36L28.28 4.28C28.2105528 3.53421086 28.4725064 2.79560349 28.9963314 2.26022352 29.5201564 1.72484355 30.2528733 1.44683918 31 1.5L32.59 1.5 32.59 2.72 31.1 2.72C30.6889244 2.69960561 30.2897 2.86113084 30.0084591 3.16163481 29.7272182 3.46213878 29.5924566 3.871174 29.64 4.28L29.64 4.36C29.5860227 4.77204213 29.7178859 5.18676939 29.9999142 5.49197805 30.2819424 5.79718671 30.6849852 5.96133028 31.1 5.94L31.53 5.94 30.98 7.14zM36.76 7.14L36.28 6 33.61 6 33.13 7.18 31.67 7.18 34.09 1.5 35.89 1.5 38.3 7.14 36.76 7.14zM43.95 7.14L42.35 7.14 40.26 4 39.9 3.38 39.9 3.38 39.9 4.04 39.9 7.18 38.56 7.18 38.56 1.5 40.22 1.5 42.22 4.5 42.6 5.14 42.6 5.14 42.6 4.46 42.6 1.46 44 1.46 43.95 7.14zM35 2.66L35 2.66 34.64 3.54 34.12 4.86 35.9 4.86 35.36 3.54 35 2.66zM23.42 2.66L21.79 2.66 21.79 3.9 23.37 3.9C23.548468 3.92669193 23.7295954 3.87299556 23.8646804 3.75334886 23.9997654 3.63370216 24.0749432 3.46038528 24.07 3.28 24.0574969 3.10888111 23.9757427 2.95026386 23.8436262 2.84079591 23.7115097 2.73132796 23.540461 2.68047994 23.37 2.7L23.42 2.66zM23.42 2.66L21.79 2.66 21.79 3.9 23.37 3.9C23.548468 3.92669193 23.7295954 3.87299556 23.8646804 3.75334886 23.9997654 3.63370216 24.0749432 3.46038528 24.07 3.28 24.0574969 3.10888111 23.9757427 2.95026386 23.8436262 2.84079591 23.7115097 2.73132796 23.540461 2.68047994 23.37 2.7L23.42 2.66zM35.34 3.5L35 2.66 35 2.66 34.64 3.54 34.12 4.86 35.9 4.86 35.34 3.5zM35.34 3.5L35 2.66 35 2.66 34.64 3.54 34.12 4.86 35.9 4.86 35.34 3.5zM23.37 2.7L21.79 2.7 21.79 3.94 23.37 3.94C23.548468 3.96669193 23.7295954 3.91299556 23.8646804 3.79334886 23.9997654 3.67370216 24.0749432 3.50038528 24.07 3.32 24.0682756 3.14179087 23.9911532 2.97264965 23.8577417 2.85448518 23.7243302 2.73632071 23.547113 2.68018972 23.37 2.7L23.37 2.7zM23.37 2.7L21.79 2.7 21.79 3.94 23.37 3.94C23.548468 3.96669193 23.7295954 3.91299556 23.8646804 3.79334886 23.9997654 3.67370216 24.0749432 3.50038528 24.07 3.32 24.0682756 3.14179087 23.9911532 2.97264965 23.8577417 2.85448518 23.7243302 2.73632071 23.547113 2.68018972 23.37 2.7L23.37 2.7zM35.29 3.54L35 2.66 35 2.66 34.64 3.54 34.12 4.86 35.9 4.86 35.29 3.54zM35.29 3.54L35 2.66 35 2.66 34.64 3.54 34.12 4.86 35.9 4.86 35.29 3.54zM23.37 2.7L21.79 2.7 21.79 3.94 23.37 3.94C23.548468 3.96669193 23.7295954 3.91299556 23.8646804 3.79334886 23.9997654 3.67370216 24.0749432 3.50038528 24.07 3.32 24.0682756 3.14179087 23.9911532 2.97264965 23.8577417 2.85448518 23.7243302 2.73632071 23.547113 2.68018972 23.37 2.7L23.37 2.7zM23.37 2.7L21.79 2.7 21.79 3.94 23.37 3.94C23.548468 3.96669193 23.7295954 3.91299556 23.8646804 3.79334886 23.9997654 3.67370216 24.0749432 3.50038528 24.07 3.32 24.0682756 3.14179087 23.9911532 2.97264965 23.8577417 2.85448518 23.7243302 2.73632071 23.547113 2.68018972 23.37 2.7L23.37 2.7zM35.29 3.54L35 2.66 35 2.66 34.64 3.54 34.12 4.86 35.9 4.86 35.29 3.54zM35.29 3.54L35 2.66 35 2.66 34.64 3.54 34.12 4.86 35.9 4.86 35.29 3.54zM23.37 2.7L21.79 2.7 21.79 3.94 23.37 3.94C23.548468 3.96669193 23.7295954 3.91299556 23.8646804 3.79334886 23.9997654 3.67370216 24.0749432 3.50038528 24.07 3.32 24.0682756 3.14179087 23.9911532 2.97264965 23.8577417 2.85448518 23.7243302 2.73632071 23.547113 2.68018972 23.37 2.7L23.37 2.7zM23.37 2.7L21.79 2.7 21.79 3.94 23.37 3.94C23.548468 3.96669193 23.7295954 3.91299556 23.8646804 3.79334886 23.9997654 3.67370216 24.0749432 3.50038528 24.07 3.32 24.0682756 3.14179087 23.9911532 2.97264965 23.8577417 2.85448518 23.7243302 2.73632071 23.547113 2.68018972 23.37 2.7L23.37 2.7zM35.29 3.54L35 2.66 35 2.66 34.64 3.54 34.12 4.86 35.9 4.86 35.29 3.54zM35.29 3.54L35 2.66 35 2.66 34.64 3.54 34.12 4.86 35.9 4.86 35.29 3.54zM23.37 2.7L21.79 2.7 21.79 3.94 23.37 3.94C23.548468 3.96669193 23.7295954 3.91299556 23.8646804 3.79334886 23.9997654 3.67370216 24.0749432 3.50038528 24.07 3.32 24.0682756 3.14179087 23.9911532 2.97264965 23.8577417 2.85448518 23.7243302 2.73632071 23.547113 2.68018972 23.37 2.7L23.37 2.7zM23.37 2.7L21.79 2.7 21.79 3.94 23.37 3.94C23.548468 3.96669193 23.7295954 3.91299556 23.8646804 3.79334886 23.9997654 3.67370216 24.0749432 3.50038528 24.07 3.32 24.0682756 3.14179087 23.9911532 2.97264965 23.8577417 2.85448518 23.7243302 2.73632071 23.547113 2.68018972 23.37 2.7L23.37 2.7zM23.37 2.7L21.79 2.7 21.79 3.94 23.37 3.94C23.548468 3.96669193 23.7295954 3.91299556 23.8646804 3.79334886 23.9997654 3.67370216 24.0749432 3.50038528 24.07 3.32 24.0682756 3.14179087 23.9911532 2.97264965 23.8577417 2.85448518 23.7243302 2.73632071 23.547113 2.68018972 23.37 2.7L23.37 2.7zM23.37 2.7L21.79 2.7 21.79 3.94 23.37 3.94C23.548468 3.96669193 23.7295954 3.91299556 23.8646804 3.79334886 23.9997654 3.67370216 24.0749432 3.50038528 24.07 3.32 24.0682756 3.14179087 23.9911532 2.97264965 23.8577417 2.85448518 23.7243302 2.73632071 23.547113 2.68018972 23.37 2.7L23.37 2.7zM23.37 2.7L21.79 2.7 21.79 3.94 23.37 3.94C23.548468 3.96669193 23.7295954 3.91299556 23.8646804 3.79334886 23.9997654 3.67370216 24.0749432 3.50038528 24.07 3.32 24.0682756 3.14179087 23.9911532 2.97264965 23.8577417 2.85448518 23.7243302 2.73632071 23.547113 2.68018972 23.37 2.7L23.37 2.7zM24.31 13.36L22.69 13.36 22.69 14.74 24.31 14.74C24.6910765 14.74 25 14.4310765 25 14.05 25 13.6689235 24.6910765 13.36 24.31 13.36L24.31 13.36zM24.31 13.36L22.69 13.36 22.69 14.74 24.31 14.74C24.6910765 14.74 25 14.4310765 25 14.05 25 13.6689235 24.6910765 13.36 24.31 13.36L24.31 13.36zM24.31 13.36L22.69 13.36 22.69 14.74 24.31 14.74C24.6910765 14.74 25 14.4310765 25 14.05 25 13.6689235 24.6910765 13.36 24.31 13.36L24.31 13.36zM30.06 13.36L28.48 13.36 28.48 14.6 30.06 14.6C30.238468 14.6266919 30.4195954 14.5729956 30.5546804 14.4533489 30.6897654 14.3337022 30.7649432 14.1603853 30.76 13.98 30.7614996 13.8007178 30.6853168 13.6295642 30.5511035 13.5106896 30.4168903 13.3918149 30.2377889 13.3368597 30.06 13.36L30.06 13.36zM30.06 13.36L28.48 13.36 28.48 14.6 30.06 14.6C30.238468 14.6266919 30.4195954 14.5729956 30.5546804 14.4533489 30.6897654 14.3337022 30.7649432 14.1603853 30.76 13.98 30.7614996 13.8007178 30.6853168 13.6295642 30.5511035 13.5106896 30.4168903 13.3918149 30.2377889 13.3368597 30.06 13.36L30.06 13.36zM24.31 13.36L22.69 13.36 22.69 14.74 24.31 14.74C24.6910765 14.74 25 14.4310765 25 14.05 25 13.6689235 24.6910765 13.36 24.31 13.36L24.31 13.36zM24.31 13.36L22.69 13.36 22.69 14.74 24.31 14.74C24.6910765 14.74 25 14.4310765 25 14.05 25 13.6689235 24.6910765 13.36 24.31 13.36L24.31 13.36zM30.06 13.36L28.48 13.36 28.48 14.6 30.06 14.6C30.238468 14.6266919 30.4195954 14.5729956 30.5546804 14.4533489 30.6897654 14.3337022 30.7649432 14.1603853 30.76 13.98 30.7614996 13.8007178 30.6853168 13.6295642 30.5511035 13.5106896 30.4168903 13.3918149 30.2377889 13.3368597 30.06 13.36L30.06 13.36zM47.46 13.36L45 13.36C44.7975256 13.3193031 44.5904945 13.4047342 44.4756412 13.5763758 44.3607879 13.7480175 44.3607879 13.9719825 44.4756412 14.1436242 44.5904945 14.3152658 44.7975256 14.4006969 45 14.36L46.31 14.36C47.0017583 14.2888603 47.6617492 14.6671478 47.95 15.3L47.95 12.2 47.46 13.36zM30.06 13.36L28.48 13.36 28.48 14.6 30.06 14.6C30.238468 14.6266919 30.4195954 14.5729956 30.5546804 14.4533489 30.6897654 14.3337022 30.7649432 14.1603853 30.76 13.98 30.7614996 13.8007178 30.6853168 13.6295642 30.5511035 13.5106896 30.4168903 13.3918149 30.2377889 13.3368597 30.06 13.36L30.06 13.36zM24.31 13.36L22.69 13.36 22.69 14.74 24.31 14.74C24.6910765 14.74 25 14.4310765 25 14.05 25 13.6689235 24.6910765 13.36 24.31 13.36L24.31 13.36zM45.07 12.16L48 12.16 48 10.9 18.86 10.9 18 12.1 17.16 10.9 8.88 10.9 8.88 19.06 17.14 19.06 18 17.84 18.84 19.06 23.89 19.06 23.89 17.22 24.45 17.22C24.9583524 17.2244438 25.4643336 17.1502332 25.95 17L25.95 19.06 29.38 19.06 29.38 17.6 30.54 19.06 46.16 19.06C46.8020494 19.0712121 47.4337935 18.897656 47.98 18.56L47.98 16.66C47.6994927 17.4066705 46.9542301 17.8734834 46.16 17.8L43.29 17.8 43.29 16.6 46.18 16.6C46.3824744 16.6406969 46.5895055 16.5552658 46.7043588 16.3836242 46.8192121 16.2119825 46.8192121 15.9880175 46.7043588 15.8163758 46.5895055 15.6447342 46.3824744 15.5593031 46.18 15.6L44.89 15.6C44.425665 15.6576118 43.9598307 15.5051178 43.6194501 15.184077 43.2790695 14.8630362 43.0996176 14.406908 43.13 13.94 43.1150047 13.4347743 43.320441 12.947997 43.6928748 12.6062793 44.0653087 12.2645617 44.5679276 12.10168 45.07 12.16zM14.71 13.36L11.54 13.36 11.54 14.36 14.65 14.36 14.65 15.54 11.54 15.54 11.54 16.54 14.71 16.54 14.71 17.74 10.18 17.74 10.18 12.16 14.71 12.16 14.71 13.36zM19.36 17.8L18 16 16.59 17.8 15 17.8 17.2 15 14.93 12.18 16.63 12.18 18 13.94 19.38 12.16 21.04 12.16 18.8 15 21.08 17.84 19.36 17.8zM24.36 15.94L22.66 15.94 22.66 17.8 21.32 17.8 21.32 12.16 24.43 12.16C24.9544439 12.1041184 25.4771768 12.2797652 25.8614643 12.6409954 26.2457518 13.0022257 26.453366 13.5131051 26.43 14.04 26.4472957 14.574046 26.2328429 15.0894881 25.8418388 15.4536586 25.4508348 15.817829 24.9214715 15.9951567 24.39 15.94L24.36 15.94zM30.75 17.8L29.07 15.8 28.45 15.8 28.45 17.8 27.12 17.8 27.12 12.16 30.18 12.16C30.8159328 12.0849742 31.4435846 12.3549136 31.8265252 12.8681347 32.2094658 13.3813557 32.2895174 14.0598879 32.0365252 14.6481347 31.7835331 15.2363815 31.2359328 15.6449742 30.6 15.72L32.49 17.8 30.75 17.8zM37.33 13.36L34.19 13.36 34.19 14.36 37.28 14.36 37.28 15.54 34.19 15.54 34.19 16.54 37.36 16.54 37.36 17.74 32.81 17.74 32.81 12.16 37.36 12.16 37.33 13.36zM41 17.8L38.08 17.8 38.08 16.6 41 16.6C41.2024744 16.6406969 41.4095055 16.5552658 41.5243588 16.3836242 41.6392121 16.2119825 41.6392121 15.9880175 41.5243588 15.8163758 41.4095055 15.6447342 41.2024744 15.5593031 41 15.6L39.68 15.6C39.215665 15.6576118 38.7498307 15.5051178 38.4094501 15.184077 38.0690695 14.8630362 37.8896176 14.406908 37.92 13.94 37.9108956 13.4382198 38.1188912 12.9569448 38.4905862 12.619737 38.8622811 12.2825292 39.361473 12.122232 39.86 12.18L42.79 12.18 42.25 13.38 39.82 13.38C39.6175256 13.3393031 39.4104945 13.4247342 39.2956412 13.5963758 39.1807879 13.7680175 39.1807879 13.9919825 39.2956412 14.1636242 39.4104945 14.3352658 39.6175256 14.4206969 39.82 14.38L41.13 14.38C41.5885478 14.3165928 42.0514359 14.461455 42.3920293 14.7749558 42.7326228 15.0884565 42.9152688 15.5377792 42.89 16 42.905855 16.4980597 42.7086292 16.9792582 42.3477826 17.3229217 41.9869359 17.6665852 41.4966945 17.8401173 41 17.8L41 17.8zM30.06 13.36L28.48 13.36 28.48 14.6 30.06 14.6C30.238468 14.6266919 30.4195954 14.5729956 30.5546804 14.4533489 30.6897654 14.3337022 30.7649432 14.1603853 30.76 13.98 30.7614996 13.8007178 30.6853168 13.6295642 30.5511035 13.5106896 30.4168903 13.3918149 30.2377889 13.3368597 30.06 13.36L30.06 13.36zM24.31 13.36L22.69 13.36 22.69 14.74 24.31 14.74C24.6910765 14.74 25 14.4310765 25 14.05 25 13.6689235 24.6910765 13.36 24.31 13.36L24.31 13.36zM24.31 13.36L22.69 13.36 22.69 14.74 24.31 14.74C24.6910765 14.74 25 14.4310765 25 14.05 25 13.6689235 24.6910765 13.36 24.31 13.36L24.31 13.36zM30.06 13.36L28.48 13.36 28.48 14.6 30.06 14.6C30.238468 14.6266919 30.4195954 14.5729956 30.5546804 14.4533489 30.6897654 14.3337022 30.7649432 14.1603853 30.76 13.98 30.7614996 13.8007178 30.6853168 13.6295642 30.5511035 13.5106896 30.4168903 13.3918149 30.2377889 13.3368597 30.06 13.36L30.06 13.36zM30.06 13.36L28.48 13.36 28.48 14.6 30.06 14.6C30.238468 14.6266919 30.4195954 14.5729956 30.5546804 14.4533489 30.6897654 14.3337022 30.7649432 14.1603853 30.76 13.98 30.7614996 13.8007178 30.6853168 13.6295642 30.5511035 13.5106896 30.4168903 13.3918149 30.2377889 13.3368597 30.06 13.36L30.06 13.36zM24.31 13.36L22.69 13.36 22.69 14.74 24.31 14.74C24.6910765 14.74 25 14.4310765 25 14.05 25 13.6689235 24.6910765 13.36 24.31 13.36L24.31 13.36zM24.31 13.36L22.69 13.36 22.69 14.74 24.31 14.74C24.6910765 14.74 25 14.4310765 25 14.05 25 13.6689235 24.6910765 13.36 24.31 13.36L24.31 13.36zM30.06 13.36L28.48 13.36 28.48 14.6 30.06 14.6C30.238468 14.6266919 30.4195954 14.5729956 30.5546804 14.4533489 30.6897654 14.3337022 30.7649432 14.1603853 30.76 13.98 30.7614996 13.8007178 30.6853168 13.6295642 30.5511035 13.5106896 30.4168903 13.3918149 30.2377889 13.3368597 30.06 13.36L30.06 13.36zM30.06 13.36L28.48 13.36 28.48 14.6 30.06 14.6C30.238468 14.6266919 30.4195954 14.5729956 30.5546804 14.4533489 30.6897654 14.3337022 30.7649432 14.1603853 30.76 13.98 30.7614996 13.8007178 30.6853168 13.6295642 30.5511035 13.5106896 30.4168903 13.3918149 30.2377889 13.3368597 30.06 13.36L30.06 13.36zM24.31 13.36L22.69 13.36 22.69 14.74 24.31 14.74C24.6910765 14.74 25 14.4310765 25 14.05 25 13.6689235 24.6910765 13.36 24.31 13.36L24.31 13.36z"/>
    </g>
  </g>
</svg>
