<svg xmlns="http://www.w3.org/2000/svg" width="48" height="32" viewBox="0 0 48 32">
  <g fill="none">
    <rect width="48" height="32" fill="#212B36" rx="4"/>
    <g transform="translate(13 5)">
      <path fill="#F7941F" d="M21.29,13.57 C19.8700895,19.2468018 14.1186661,22.6991283 8.44099654,21.2826915 C2.76332699,19.8662547 -0.692517943,14.1169448 0.720444536,8.43840963 C2.13340701,2.75987446 7.88060134,-0.699487673 13.56,0.71 C16.291796,1.38796487 18.6417865,3.12458928 20.0918509,5.53698621 C21.5419153,7.94938313 21.9729783,10.8394531 21.29,13.57 L21.29,13.57 Z"/>
      <path fill="#FFF" d="M15.68,9.49 C15.89,8.08 14.81,7.32 13.34,6.81 L13.82,4.9 L12.66,4.61 L12.19,6.47 L11.26,6.25 L11.73,4.38 L10.56,4.09 L10.09,6 L9.34,5.83 L9.34,5.83 L7.73,5.43 L7.42,6.67 C7.42,6.67 8.28,6.87 8.27,6.88 C8.60517599,6.92173542 8.84527529,7.22408268 8.81,7.56 L8.27,9.74 L8.39,9.74 L8.26,9.74 L7.5,12.74 C7.46565731,12.8461815 7.39046846,12.9343298 7.29103094,12.9849867 C7.19159342,13.0356435 7.07608375,13.0446435 6.97,13.01 C6.97,13.01 6.12,12.8 6.12,12.8 L5.55,14.13 L7.06,14.51 L7.89,14.73 L7.41,16.66 L8.57,16.95 L9.05,15.04 L9.97,15.28 L9.5,17.18 L10.66,17.47 L11.15,15.54 C13.15,15.92 14.62,15.76 15.25,13.97 C15.5229423,13.4601843 15.5618578,12.8571842 15.35671,12.3165143 C15.1515622,11.7758444 14.7224346,11.350435 14.18,11.15 C15.0032881,10.9775188 15.6118111,10.2791466 15.67,9.44 L15.68,9.49 Z M13,13.22 C12.64,14.66 10.2,13.88 9.42,13.69 L10.05,11.12 C10.84,11.32 13.37,11.71 13,13.22 Z M13.36,9.47 C13.03,10.78 11,10.11 10.36,9.95 L11,7.63 C11.6,7.79 13.72,8.1 13.38,9.47 L13.36,9.47 Z"/>
    </g>
  </g>
</svg>
