<svg xmlns="http://www.w3.org/2000/svg" width="48" height="32" viewBox="0 0 48 32">
  <g fill="none">
    <rect width="48" height="32" fill="#212B36" rx="4"/>
    <g transform="translate(4 3)">
      <rect width="38.71" height="25.6" x=".65" y=".2" fill="#FFF" opacity="0"/>
      <rect width="10.21" height="16.68" x="14.9" y="4.66" fill="#0379BF"/>
      <path fill="#0067B3" d="M16,13 C15.9831352,9.7535343 17.4577071,6.6790519 20,4.66 C15.6502514,1.23929485 9.401948,1.73602007 5.64729399,5.8010059 C1.89263998,9.86599173 1.89263998,16.1340083 5.64729399,20.1989941 C9.401948,24.2639799 15.6502514,24.7607051 20,21.34 C17.4577071,19.3209481 15.9831352,16.2464657 16,13 Z"/>
      <path fill="#00A1DE" d="M36.14 19.57L36.14 19.23 36.29 19.23 36.29 19.16 35.94 19.16 35.94 19.23 36.08 19.23 36.08 19.57 36.14 19.57zM36.82 19.57L36.82 19.16 36.72 19.16 36.6 19.45 36.47 19.16 36.37 19.16 36.37 19.57 36.44 19.57 36.44 19.26 36.56 19.53 36.64 19.53 36.75 19.26 36.75 19.57 36.82 19.57zM37.16 13C37.1573869 17.0593443 34.838851 20.7613981 31.1878671 22.5358273 27.5368832 24.3102566 23.193465 23.8460056 20 21.34 24.600057 17.7179566 25.3966531 11.0542961 21.78 6.45 21.2615505 5.78327007 20.663815 5.18217649 20 4.66 23.193465 2.15399441 27.5368832 1.68974344 31.1878671 3.46417268 34.838851 5.23860192 37.1573869 8.94065575 37.16 13L37.16 13z"/>
    </g>
  </g>
</svg>
