<svg xmlns="http://www.w3.org/2000/svg" width="48" height="32" viewBox="0 0 48 32">
  <g fill="none">
    <rect width="48" height="32" fill="#212B36" rx="4"/>
    <g transform="translate(8 4)">
      <path fill="#FFF" d="M2.44 19C4.75 19 5.13 17.38 5.13 16.73 5.10554874 16.0743744 4.81153852 15.4579216 4.3174353 15.0262912 3.82333208 14.5946608 3.17296621 14.3861414 2.52 14.45L.63 14.45.63 14.62C.92 14.62 1.22 14.62 1.22 15.18L1.22 18.33C1.22 18.78 1.02 18.79.63 18.83L.63 19 2.44 19 2.44 19zM1.86 14.69C2.02985766 14.6801618 2.20014234 14.6801618 2.37 14.69 2.91822251 14.6893143 3.44269272 14.9136991 3.8207775 15.3106881 4.19886229 15.7076771 4.39741158 16.2424628 4.37 16.79 4.42556664 17.3126386 4.25121191 17.8336211 3.89225441 18.2175329 3.53329692 18.6014446 3.02518935 18.8103683 2.5 18.79 2.18 18.79 1.82 18.73 1.82 18.23L1.86 14.69zM6.75 19L6.75 18.83 6.64 18.83C6.45 18.83 6.31 18.83 6.31 18.61L6.31 16.11C6.31 16.11 6.31 16.02 6.31 16.02 6.27050641 16.0109986 6.22949359 16.0109986 6.19 16.02 5.96119579 16.1126462 5.72751654 16.1927648 5.49 16.26L5.49 16.36C5.73 16.49 5.83 16.53 5.83 16.82L5.83 18.58C5.83 18.8 5.7 18.8 5.52 18.8L5.39 18.8 5.39 19 6.79 19 6.75 19zM6.05 15.06C6.13663064 15.0600423 6.21957685 15.0249589 6.27988442 14.9627667 6.34019198 14.9005745 6.37270722 14.8165883 6.37 14.73 6.36459694 14.557186 6.2228984 14.4199156 6.05 14.42 5.87326888 14.42 5.73 14.5632689 5.73 14.74 5.73 14.9167311 5.87326888 15.06 6.05 15.06L6.05 15.06zM10.2 18.87L10.09 18.87C9.9 18.87 9.76 18.87 9.76 18.65L9.76 17C9.76 16.5 9.57 16.09 9.01 16.09 8.59250388 16.1240001 8.19832039 16.2964554 7.89 16.58L7.89 16.16C7.89 16.11 7.89 16.09 7.89 16.09 7.60923854 16.2090348 7.32213757 16.3125247 7.03 16.4L7.03 16.53C7.33 16.65 7.41 16.72 7.41 16.96L7.41 16.96 7.41 18.68C7.41 18.9 7.28 18.9 7.09 18.9L6.98 18.9 6.98 19 8.37 19 8.37 18.83 8.25 18.83C8.07 18.83 7.93 18.83 7.93 18.61L7.93 16.73C8.14885136 16.5615144 8.40692644 16.4514023 8.68 16.41 8.83761817 16.3886492 8.99649222 16.4392161 9.11277217 16.5477441 9.22905213 16.6562721 9.29044277 16.8112855 9.28 16.97L9.28 18.65C9.28 18.87 9.15 18.87 8.97 18.87L8.85 18.87 8.85 19 10.2 19 10.2 18.87zM11.42 19.14C11.9202121 19.1064707 12.3722634 18.8300096 12.63 18.4L12.54 18.31C12.316658 18.5661421 11.9993187 18.7212056 11.66 18.74 11.0792268 18.6973235 10.636866 18.2018794 10.66 17.62 10.648888 17.493577 10.648888 17.366423 10.66 17.24L12.49 17.24 12.55 17.24 12.55 17.12C12.5514214 16.8365122 12.432452 16.565743 12.2226854 16.3750461 12.0129188 16.1843492 11.73207 16.0916473 11.45 16.12 11 16.12 10.14 16.5 10.14 17.78 10.126512 18.1308662 10.2544422 18.4724601 10.4950911 18.7281495 10.73574 18.983839 11.0689609 19.1322181 11.42 19.14zM11.42 16.27C11.5766898 16.2664978 11.7274314 16.3300101 11.8343704 16.4445876 11.9413094 16.5591652 11.9942872 16.7139236 11.98 16.87 11.98 16.95 11.98 17.03 11.8 17.03L10.72 17.03C10.8 16.56 11.07 16.27 11.47 16.27L11.42 16.27zM12.92 18.87L12.74 18.87 12.74 19 14.43 19 14.43 18.83 14.07 18.83C13.88 18.83 13.75 18.83 13.75 18.61L13.75 17.12C13.7527614 16.8454133 13.9576308 16.6149353 14.23 16.58 14.46 16.58 14.46 16.74 14.66 16.74 14.7440532 16.737465 14.8234704 16.7008921 14.8800364 16.6386695 14.9366024 16.5764468 14.9654635 16.4939138 14.96 16.41 14.9601575 16.3136028 14.92055 16.2214084 14.8505204 16.1551641 14.7804908 16.0889199 14.6862398 16.0544915 14.59 16.06 14.2 16.06 13.92 16.48 13.76 16.73L13.76 16.73 13.76 16.15C13.76 16.08 13.76 16.06 13.7 16.06 13.64 16.06 13.38 16.23 12.9 16.43L12.9 16.53C13 16.53 13.24 16.62 13.24 16.82L13.24 18.65C13.23 18.87 13.1 18.87 12.92 18.87zM16.07 18.93C15.6348912 18.906318 15.2844166 18.5643915 15.25 18.13L15.13 18.13 15.21 18.87C15.4501981 19.0109637 15.721673 19.0900007 16 19.1 16.77 19.1 17.12 18.64 17.12 18.21 17.12 17.21 15.61 17.42 15.61 16.66 15.6174532 16.5341082 15.6762656 16.4167973 15.7726812 16.3355056 15.8690969 16.254214 15.9946592 16.2160717 16.12 16.23 16.4919796 16.2129499 16.8084864 16.4982519 16.83 16.87L17 16.87 16.95 16.21C16.7210705 16.0910104 16.4679361 16.0260164 16.21 16.02 15.964043 15.9890713 15.7163311 16.0621249 15.5265175 16.2215684 15.3367038 16.3810119 15.2219896 16.6123961 15.21 16.86 15.21 17.86 16.63 17.66 16.63 18.43 16.6422501 18.5770556 16.584724 18.7213271 16.4746497 18.8196077 16.3645754 18.9178883 16.2147339 18.9587665 16.07 18.93L16.07 18.93zM22.86 18.79L23.01 17.84 22.86 17.84C22.7614387 18.4880091 22.2054574 18.9675961 21.55 18.97 20.3939272 18.8743078 19.5294409 17.8672258 19.61 16.71 19.5472334 16.1859662 19.7112747 15.6600733 20.0608438 15.264659 20.410413 14.8692448 20.9122243 14.6419601 21.44 14.64 22.1214549 14.5511852 22.7468039 15.0291305 22.84 15.71L23 15.71 22.93 14.78C22.4438161 14.5765462 21.9262845 14.4581566 21.4 14.43 20.0856007 14.3905287 18.9841988 15.4161256 18.93 16.73 18.8906084 17.3981766 19.1417185 18.0508078 19.6188277 18.5202526 20.095937 18.9896974 20.7525489 19.2302064 21.42 19.18 21.921593 19.1496804 22.411662 19.0169534 22.86 18.79L22.86 18.79zM24.63 19L24.63 18.83 24.52 18.83C24.33 18.83 24.19 18.83 24.19 18.61L24.19 14.11C24.19 14.11 24.19 14.02 24.19 14.02 24.19 14.02 24.12 14.02 24.05 14.09 23.8362234 14.204731 23.6118439 14.2985015 23.38 14.37L23.38 14.48C23.62 14.55 23.72 14.56 23.72 14.99L23.72 18.61C23.72 18.83 23.59 18.83 23.41 18.83L23.28 18.83 23.28 19 24.68 19 24.63 19zM25 16.69L25 18.36C24.9768523 18.5608275 25.0416574 18.7618562 25.1777384 18.9113535 25.3138193 19.0608509 25.5078869 19.1442176 25.71 19.14 26.1521236 19.1092574 26.5663736 18.9128458 26.87 18.59L26.87 19.12 26.87 19.12C27.1780094 19.0279986 27.4921213 18.9578247 27.81 18.91L27.81 18.8 27.6 18.8C27.49 18.8 27.41 18.8 27.41 18.68L27.41 16.28C27.41 16.21 27.41 16.16 27.41 16.16 27.41 16.16 26.98 16.21 26.41 16.25L26.41 16.37C26.64 16.43 26.95 16.5 26.95 16.63L26.95 18.39C26.7354338 18.5959042 26.4634631 18.7318896 26.17 18.78 25.6 18.78 25.6 18.22 25.6 18.03L25.6 16.35C25.6 16.21 25.6 16.16 25.53 16.16L24.69 16.21 24.69 16.33C25 16.36 25 16.52 25 16.69zM28.19 15L28.19 17.8C28.1919759 18.2017575 28.1618803 18.6030317 28.1 19L28.23 19.07 28.43 18.92C28.706652 19.0691771 29.0156965 19.1481552 29.33 19.15 30.229649 19.1015013 30.9240683 18.340311 30.89 17.44 30.9174759 17.096405 30.8041099 16.7564004 30.5759296 16.4980476 30.3477493 16.2396947 30.024357 16.0851878 29.68 16.07 29.302557 16.1070834 28.9494112 16.2730619 28.68 16.54L28.68 16.54 28.68 14.15C28.68 14.15 28.68 14.06 28.63 14.06L28.48 14.13C28.2679763 14.248375 28.0432052 14.3423092 27.81 14.41L27.81 14.52C28.09 14.59 28.19 14.6 28.19 15zM28.71 16.69C28.8730971 16.516052 29.0929833 16.4061088 29.33 16.38 29.9392418 16.4990714 30.3665577 17.0503089 30.33 17.67 30.33 18.25 30.04 18.94 29.33 18.94 28.9664831 18.9247276 28.6752724 18.6335169 28.66 18.27L28.71 16.69zM1.14 20.46L.62 20.46.62 20.46.62 20.6.69 20.6C.82 20.6.93 20.6.94 20.79L.94 22.64C.94 22.82.82 22.83.69 22.83L.6 22.83.6 23 .6 23 1.12 23 1.68 23 1.68 23 1.68 22.87 1.65 22.87C1.52 22.87 1.4 22.87 1.4 22.68L1.4 20.77C1.4 20.59 1.52 20.58 1.65 20.58L1.72 20.58 1.72 20.44 1.72 20.44 1.14 20.46zM4.25 20.46L3.75 20.46 3.75 20.46 3.75 20.6 3.84 20.6C3.95 20.6 4.13 20.6 4.14 20.92L4.14 22.22 2.58 20.47C2.46 20.47 2.36 20.47 2.25 20.47L1.84 20.47 1.84 20.47 1.84 20.61 1.9 20.61C1.98128307 20.607289 2.06018381 20.6376952 2.11862647 20.6942526 2.17706914 20.7508101 2.2100452 20.8286717 2.21 20.91L2.21 22.41C2.21 22.69 2.14 22.84 1.9 22.84L1.82 22.84 1.82 23 1.82 23 2.31 23 2.76 23 2.76 23 2.76 22.87 2.68 22.87C2.42 22.87 2.37 22.78 2.36 22.47L2.36 21 4.16 23 4.33 23 4.33 23C4.33 22.89 4.33 22.77 4.33 22.65L4.33 21C4.33 20.59 4.49 20.57 4.63 20.57L4.7 20.57 4.7 20.43 4.7 20.43 4.25 20.46zM7.15 20.33L7.15 20.33C7.15 20.42 7.07 20.42 6.97 20.42L5.12 20.42C5.03 20.42 4.97 20.42 4.94 20.33L4.83 20.33 4.83 20.33C4.83531335 20.4265937 4.83531335 20.5234063 4.83 20.62 4.83 20.73 4.83 20.83 4.83 20.92L4.83 20.92 4.97 20.92C5.03 20.66 5.03 20.61 5.29 20.61L5.29 20.61 5.29 20.61 5.29 20.61 5.85 20.61 5.85 22.49C5.85 22.76 5.77 22.76 5.57 22.77L5.49 22.77 5.49 23 5.49 23 6.09 23 6.66 23 6.66 23 6.66 22.87 6.58 22.87C6.41 22.87 6.3 22.87 6.3 22.58L6.3 20.65 6.86 20.65C7.09 20.65 7.1 20.84 7.11 20.98L7.11 20.98 7.24 20.93 7.24 20.93 7.24 20.64C7.24 20.55 7.24 20.45 7.24 20.35L7.24 20.35 7.14 20.35 7.15 20.33zM9.27 22.32L9.27 22.32C9.17 22.72 8.99 22.74 8.57 22.74 8.34 22.74 8.15 22.74 8.15 22.52L8.15 21.71 8.56 21.71C8.8 21.71 8.8 21.84 8.82 22.05L8.82 22.05 8.95 22.05 8.95 22.05C8.95 21.91 8.95 21.78 8.95 21.65 8.95 21.52 8.95 21.37 8.95 21.23L8.95 21.23 8.81 21.23 8.81 21.23C8.81 21.42 8.75 21.52 8.55 21.53L8.14 21.53 8.14 20.63 8.62 20.63C8.98 20.63 9.01 20.8 9.03 21.03L9.03 21.03 9.15 21.03 9.15 21.03C9.15 20.93 9.15 20.79 9.15 20.67L9.15 20.47 9.15 20.47 8.24 20.47 7.36 20.47 7.36 20.47 7.36 20.61 7.42 20.61C7.55 20.61 7.66 20.61 7.67 20.8L7.67 22.65C7.67 22.83 7.55 22.84 7.42 22.84L7.36 22.84 7.36 23 7.36 23 8.3 23 9.3 23 9.3 23 9.3 23C9.3 22.82 9.38 22.63 9.42 22.44L9.42 22.44 9.31 22.44 9.27 22.32zM11.63 22.6L11.03 21.71C11.3142389 21.630807 11.5132102 21.3749867 11.52 21.08 11.52 20.57 11.1 20.44 10.66 20.44L10.09 20.44 9.54 20.44 9.54 20.44 9.54 20.58 9.62 20.58C9.73 20.58 9.86 20.58 9.86 20.83L9.86 22.63C9.86 22.75 9.75 22.81 9.62 22.81L9.54 22.81 9.54 23 9.54 23 10.05 23 10.66 23 10.66 23 10.66 22.87 10.6 22.87C10.43 22.87 10.33 22.87 10.32 22.6L10.32 21.8 10.53 21.8C10.7496522 22.1968686 10.9969282 22.5778073 11.27 22.94 11.39 22.94 11.5 22.94 11.61 22.94L12 23 12 23 12 22.87 12 22.87C11.8290871 22.8763321 11.6761071 22.7646981 11.63 22.6L11.63 22.6zM11 21.1C11 21.52 10.82 21.64 10.47 21.64L10.31 21.64 10.31 20.64 10.5 20.64C10.6287683 20.6287592 10.7563243 20.672214 10.8514493 20.759729 10.9465743 20.847244 11.0004897 20.9707429 11 21.1L11 21.1zM14.93 20.58L14.93 20.44 14.93 20.44 14.49 20.44 13.99 20.44 13.99 20.44 13.99 20.58 14.08 20.58C14.19 20.58 14.37 20.58 14.38 20.9L14.38 22.2 12.8 20.45C12.68 20.45 12.58 20.45 12.47 20.45L12.06 20.45 12.06 20.45 12.06 20.59 12.12 20.59C12.2012831 20.587289 12.2801838 20.6176952 12.3386265 20.6742526 12.3970691 20.7308101 12.4300452 20.8086717 12.43 20.89L12.43 22.38C12.43 22.67 12.36 22.82 12.12 22.82L12.06 22.82 12.06 23 12.06 23 12.55 23 13 23 13 23 13 22.87 12.92 22.87C12.66 22.87 12.61 22.78 12.61 22.47L12.61 21 14.4 23 14.57 23 14.57 23C14.57 22.89 14.57 22.77 14.57 22.65L14.57 21C14.57 20.59 14.73 20.57 14.87 20.57L14.94 20.57 14.93 20.58zM17.13 22.68C17.13 22.57 17.05 22.44 17 22.32L16.35 20.46 16.35 20.37 16.35 20.37 16.35 20.37C16.2466582 20.4335144 16.135804 20.4839027 16.02 20.52 15.9839233 20.6730919 15.9371416 20.8234617 15.88 20.97L15.32 22.6C15.2800051 22.7318555 15.1577797 22.8214875 15.02 22.82L15.02 22.82 15.02 23 15.02 23 15.4 23 15.83 23 15.83 23 15.83 22.87 15.77 22.87C15.66 22.87 15.52 22.87 15.52 22.76 15.5408467 22.6683769 15.5675686 22.5781906 15.6 22.49L15.71 22.13 16.49 22.13 16.63 22.53C16.6632096 22.6102471 16.6867096 22.6941756 16.7 22.78 16.7 22.85 16.58 22.87 16.49 22.87L16.44 22.87 16.44 23 16.44 23 16.98 23 17.46 23 17.46 23 17.46 22.87 17.46 22.87C17.392013 22.9092526 17.3082612 22.9093028 17.2402272 22.8701317 17.1721932 22.8309606 17.1301874 22.7585045 17.13 22.68L17.13 22.68zM16.31 21.84L15.69 21.84 16 20.89 16.31 21.84zM19.46 20.33L19.46 20.33C19.46 20.42 19.38 20.42 19.28 20.42L17.44 20.42C17.35 20.42 17.28 20.42 17.26 20.33L17.14 20.33 17.14 20.33C17.15026 20.4263944 17.15026 20.5236056 17.14 20.62 17.14 20.73 17.14 20.83 17.14 20.93L17.28 20.93C17.33 20.67 17.33 20.62 17.59 20.62L17.59 20.62 17.59 20.62 17.59 20.62 18.16 20.62 18.16 22.5C18.16 22.77 18.07 22.77 17.88 22.78L17.79 22.78 17.79 23 17.79 23 18.39 23 18.97 23 18.97 23 18.97 22.87 18.89 22.87C18.72 22.87 18.61 22.87 18.61 22.58L18.61 20.65 19.18 20.65C19.4 20.65 19.41 20.84 19.42 20.98L19.42 20.98 19.55 20.93 19.55 20.93C19.5448241 20.8334026 19.5448241 20.7365974 19.55 20.64 19.55 20.55 19.55 20.45 19.55 20.35L19.55 20.35 19.45 20.35 19.46 20.33zM20.22 20.46L19.69 20.46 19.69 20.46 19.69 20.6 19.75 20.6C19.88 20.6 20 20.6 20 20.79L20 22.64C20 22.82 19.88 22.83 19.75 22.83L19.69 22.83 19.69 23 19.69 23 20.21 23 20.77 23 20.77 23 20.77 22.87 20.7 22.87C20.57 22.87 20.46 22.87 20.46 22.68L20.46 20.77C20.46 20.59 20.57 20.58 20.7 20.58L20.77 20.58 20.77 20.44 20.77 20.44 20.22 20.46zM22.18 20.39C21.8290968 20.387311 21.491785 20.5255183 21.2436517 20.7736517 20.9955183 21.021785 20.857311 21.3590968 20.86 21.71L20.86 21.71C20.8539045 22.0627706 20.9948359 22.4021776 21.2490167 22.6468741 21.5031976 22.8915706 21.847716 23.0194996 22.2 23 22.5658126 23.01136 22.9199217 22.8703312 23.1777652 22.6105917 23.4356088 22.3508523 23.5740396 21.9957195 23.56 21.63 23.5560083 21.2774453 23.4044831 20.9426909 23.1422256 20.7070392 22.8799681 20.4713876 22.5309725 20.3563986 22.18 20.39zM22.18 20.58C22.75 20.58 23.03 21.19 23.03 21.71 23.03 22.23 22.91 22.81 22.24 22.81 21.57 22.81 21.39 22.22 21.39 21.59 21.39 21.12 21.57 20.58 22.18 20.58L22.18 20.58zM26.5 20.58L26.5 20.44 26.5 20.44 26.07 20.44 25.57 20.44 25.57 20.44 25.57 20.58 25.66 20.58C25.76 20.58 25.95 20.58 25.95 20.9L25.95 22.2 24.39 20.45C24.27 20.45 24.17 20.45 24.07 20.45L23.66 20.45 23.66 20.45 23.66 20.59 23.72 20.59C23.8003973 20.5871764 23.8783551 20.6178758 23.9352397 20.6747603 23.9921242 20.7316449 24.0228236 20.8096027 24.02 20.89L24.02 22.39C24.02 22.67 23.95 22.82 23.72 22.82L23.66 22.82 23.66 23 23.66 23 24.14 23 24.6 23 24.6 23 24.6 22.87 24.53 22.87C24.26 22.87 24.22 22.78 24.21 22.47L24.21 21 26 23 26.16 23 26.16 23C26.1497721 22.8835575 26.1497721 22.7664425 26.16 22.65L26.16 21C26.16 20.59 26.31 20.57 26.46 20.57L26.53 20.57 26.5 20.58zM28.7 22.68C28.6506783 22.5622477 28.6072905 22.4420969 28.57 22.32L27.92 20.46 27.92 20.37 27.92 20.37 27.92 20.37C27.8191996 20.4316631 27.7118784 20.4819699 27.6 20.52 27.5639233 20.6730919 27.5171416 20.8234617 27.46 20.97L26.89 22.6C26.8510964 22.7283415 26.7340772 22.8171146 26.6 22.82L26.6 22.82 26.6 23 26.6 23 26.98 23 27.41 23 27.41 23 27.41 22.87 27.41 22.87C27.29 22.87 27.16 22.87 27.16 22.76 27.1759776 22.6671722 27.2028291 22.5765483 27.24 22.49L27.35 22.13 28 22.13 28.13 22.53C28.1620167 22.6106544 28.1854786 22.6944469 28.2 22.78 28.2 22.85 28.08 22.87 28 22.87L27.95 22.87 27.95 23 27.95 23 28.48 23 28.97 23 28.97 23 28.97 22.87 28.97 22.87C28.9083004 22.8884943 28.8415261 22.8776504 28.7888498 22.8405819 28.7361734 22.8035134 28.7034222 22.7443208 28.7 22.68zM27.87 21.84L27.25 21.84 27.57 20.89 27.87 21.84zM31 22.31L31 22.31C30.9785242 22.3992226 30.9412716 22.4838876 30.89 22.56 30.8069305 22.6598282 30.6889059 22.7242053 30.56 22.74L30.1 22.74C29.99 22.74 29.9 22.69 29.9 22.55L29.9 20.76C29.9 20.58 29.99 20.58 30.12 20.58L30.23 20.58 30.23 20.44 30.23 20.44 29.69 20.44 29.13 20.44 29.13 20.44 29.13 20.58 29.19 20.58C29.32 20.58 29.44 20.58 29.44 20.77L29.44 22.59C29.44 22.8 29.32 22.81 29.19 22.81L29.13 22.81 29.13 23 29.13 23 30.07 23 31 23 31 23 31 23C31 22.8 31.09 22.6 31.13 22.4L31.13 22.4 31 22.4 31 22.31zM31.07 20.74C31.1228405 20.7302375 31.1608943 20.6837273 31.16 20.63 31.16 20.56 31.1 20.53 31.03 20.53L30.84 20.53 30.84 20.53C30.84 20.53 30.84 20.53 30.84 20.58L30.84 20.86C30.84 20.86 30.84 20.86 30.84 20.86L30.84 20.86 31.0000077 20.86 31.0000077 20.86C30.95 20.86 30.94 20.86 30.94 20.86L30.94 20.74 30.94 20.74C31.01 20.83 31.04 20.91 31.08 20.91L31.15 20.91 31.07 20.82 31.07 20.74zM30.96 20.74L30.96 20.57 30.96 20.57C30.9820997 20.5665342 31.0045249 20.5738394 31.0203427 20.5896573 31.0361606 20.6054751 31.0434658 20.6279003 31.04 20.65 31.04 20.7 31.04 20.74 30.97 20.74L30.96 20.74z"/>
      <path fill="#FFF" d="M31,20.36 C30.7970471,20.3654872 30.6364256,20.5334923 30.6400593,20.7364869 C30.643693,20.9394815 30.8102243,21.1016305 31.0132436,21.0998506 C31.2162629,21.0980708 31.3799258,20.9330271 31.38,20.73 C31.3829585,20.6292293 31.3435274,20.5318353 31.2712971,20.4615057 C31.1990667,20.3911761 31.100656,20.3543558 31,20.36 L31,20.36 Z M31,21 C30.8343146,21 30.7,20.8656854 30.7,20.7 C30.7,20.5343146 30.8343146,20.4 31,20.4 C31.1656854,20.4 31.3,20.5343146 31.3,20.7 C31.3,20.7795649 31.2683929,20.8558711 31.212132,20.912132 C31.1558711,20.9683929 31.0795649,21 31,21 L31,21 Z"/>
      <g transform="translate(8)">
        <path fill="#0779BE" d="M9.36,13.5901085 C12.8713754,13.6100151 15.7738671,10.8575002 15.94,7.35 C15.9190974,5.63226374 15.211714,3.99431407 13.9755892,2.80139732 C12.7394645,1.60848057 11.077393,0.959798251 9.36,1 L6.36,1 C4.66518808,0.961213022 3.02841211,1.6181 1.83063031,2.81777105 C0.632848506,4.0174421 -0.0214580264,5.65525131 0.02,7.35 C0.0584485104,10.8192721 2.89055505,13.6067082 6.36,13.5901085 L9.36,13.5901085 Z"/>
        <path fill="#FFF" d="M6.42,1.52 C3.23883984,1.52 0.66,4.09883984 0.66,7.28 C0.66,10.4611602 3.23883984,13.04 6.42,13.04 C9.60116016,13.04 12.18,10.4611602 12.18,7.28 C12.18,4.09883984 9.60116016,1.52 6.42,1.52 L6.42,1.52 Z M2.7699986,7.28 L2.7699986,7.28 C2.77151853,5.7693426 3.70101033,4.41482677 5.11,3.87 L5.11,10.69 C3.69916909,10.1475035 2.76868195,8.79153717 2.7699986,7.28 L2.7699986,7.28 Z M7.72,10.69 L7.72,10.69 L7.72,3.87 C9.1341001,4.40980107 10.0683088,5.7663738 10.0683088,7.28 C10.0683088,8.7936262 9.1341001,10.1501989 7.72,10.69 Z"/>
        <path fill="#0779BE" d="M9.36,13.5901085 C12.8713754,13.6100151 15.7738671,10.8575002 15.94,7.35 C15.9190974,5.63226374 15.211714,3.99431407 13.9755892,2.80139732 C12.7394645,1.60848057 11.077393,0.959798251 9.36,1 L6.36,1 C4.66518808,0.961213022 3.02841211,1.6181 1.83063031,2.81777105 C0.632848506,4.0174421 -0.0214580264,5.65525131 0.02,7.35 C0.0584485104,10.8192721 2.89055505,13.6067082 6.36,13.5901085 L9.36,13.5901085 Z"/>
        <path fill="#FFF" d="M6.42,1.52 C3.23883984,1.52 0.66,4.09883984 0.66,7.28 C0.66,10.4611602 3.23883984,13.04 6.42,13.04 C9.60116016,13.04 12.18,10.4611602 12.18,7.28 C12.18,4.09883984 9.60116016,1.52 6.42,1.52 L6.42,1.52 Z M2.7699986,7.28 L2.7699986,7.28 C2.77151853,5.7693426 3.70101033,4.41482677 5.11,3.87 L5.11,10.69 C3.69916909,10.1475035 2.76868195,8.79153717 2.7699986,7.28 L2.7699986,7.28 Z M7.72,10.69 L7.72,10.69 L7.72,3.87 C9.1341001,4.40980107 10.0683088,5.7663738 10.0683088,7.28 C10.0683088,8.7936262 9.1341001,10.1501989 7.72,10.69 Z"/>
      </g>
    </g>
  </g>
</svg>
