<svg xmlns="http://www.w3.org/2000/svg" width="48" height="32" viewBox="0 0 48 32">
  <g fill="none">
    <path fill="#212B36" d="M48,4 L48,28 C48,30.209139 46.209139,32.0001092 44,32.0001092 L4,32.0001092 C3.53583178,32.003514 3.07492844,31.9221781 2.64,31.76 C1.05621023,31.1873992 0.000716539975,29.6841203 0,28 L0,4 C0,1.790861 1.790861,0 4,0 L44,0 C46.209139,0 48,1.790861 48,4 Z"/>
    <g transform="translate(2 10)">
      <path fill="#EE7623" d="M46,6 L46,17.9646087 C46,20.1932329 44.1838711,22 41.9435626,22 L1.37918871,22 C0.908471378,22.0034348 0.441064999,21.9213815 0,21.757773 C3.40740741,21.2735392 6.69312169,20.6682471 9.91798942,19.9822493 C10.7698413,19.820838 11.6014109,19.619074 12.4329806,19.4374863 C25.8395062,16.390849 37.4409171,11.9116869 43.9717813,7.51323044 C44.70194,7.00882029 45.3915344,6.50441015 46,6 Z"/>
      <path fill="#FFF" d="M3.82,0.64 L2,0.64 L2,7 L3.82,7 C4.64874806,7.04795798 5.46652961,6.7919568 6.12,6.28 C7.19083629,5.38298303 7.56117054,3.89783684 7.03687722,2.60306028 C6.51258389,1.30828372 5.21326073,0.499231206 3.82,0.6 L3.82,0.64 Z M5.3,5.44 C4.82662829,5.85271571 4.20562012,6.05490442 3.58,6 L3.26,6 L3.26,1.72 L3.58,1.72 C4.19968928,1.65752231 4.81871757,1.8446704 5.3,2.24 C5.75345847,2.64720851 6.00869245,3.23060047 6,3.84 C6.00480765,4.44860936 5.75024158,5.03047468 5.3,5.44 L5.3,5.44 Z"/>
      <rect width="1.25" height="6.42" x="7.85" y=".63" fill="#FFF"/>
      <path fill="#FFF" d="M12.17 3.09C11.42 2.82 11.17 2.63 11.17 2.28 11.17 1.93 11.56 1.57 12.1 1.57 12.4939325 1.58653936 12.8602219 1.77700988 13.1 2.09L13.75 1.24C13.2368637.77100396 12.5651454.513750159 11.87.52 11.3578261.487146003 10.8544855.665110388 10.4767862 1.01259374 10.0990869 1.3600771 9.87986707 1.84686835 9.87 2.36 9.87 3.25 10.27 3.7 11.44 4.12 11.7407508 4.21634469 12.0319823 4.3402018 12.31 4.49 12.5457091 4.62608566 12.6906516 4.87782791 12.69 5.15 12.6881821 5.40677253 12.5791357 5.65110104 12.3892206 5.82392377 12.1993055 5.99674649 11.9458057 6.08233504 11.69 6.06 11.1068167 6.06633843 10.5742865 5.72959137 10.33 5.2L9.52 5.98C9.99270914 6.78035639 10.871859 7.25077866 11.8 7.2 12.3771943 7.23945514 12.9443761 7.03437714 13.3628672 6.63490845 13.7813582 6.23543976 14.0125808 5.67840443 14 5.1 14 4.08 13.59 3.61 12.17 3.09zM14.41 3.84C14.401685 4.73797369 14.7574888 5.60101538 15.3962366 6.23222628 16.0349843 6.86343718 16.9021883 7.20897249 17.8 7.19 18.3453048 7.19322242 18.8835192 7.06638207 19.37 6.82L19.37 5.35C18.9922694 5.79163042 18.4411279 6.04712648 17.86 6.05 17.2721728 6.06474321 16.7048574 5.83352579 16.2948043 5.4120823 15.8847512 4.99063881 15.6691605 4.41720278 15.7 3.83 15.6811468 3.25822936 15.8930874 2.70290961 16.2880957 2.28909136 16.683104 1.87527312 17.2279711 1.63774674 17.8 1.63 18.402665 1.63241302 18.9749533 1.89486373 19.37 2.35L19.37.88C18.8986922.618732402 18.368879.481118572 17.83.48 16.9301144.469334336 16.0631309.817981809 15.4211647 1.44868548 14.7791984 2.07938916 14.4152619 2.94006662 14.41 3.84L14.41 3.84z"/>
      <polygon fill="#FFF" points="29.3 4.94 27.58 .63 26.22 .63 28.94 7.21 29.61 7.21 32.39 .63 31.03 .63"/>
      <polygon fill="#FFF" points="32.95 7.05 36.51 7.05 36.51 5.96 34.2 5.96 34.2 4.23 36.42 4.23 36.42 3.14 34.2 3.14 34.2 1.72 36.51 1.72 36.51 .63 32.95 .63"/>
      <path fill="#FFF" d="M40,4.36 C40.8922657,4.22165039 41.5280737,3.42035811 41.46,2.52 C41.46,1.32 40.64,0.64 39.18,0.64 L37.34,0.64 L37.34,7 L38.6,7 L38.6,4.46 L38.74,4.46 L40.48,7 L42,7 L40,4.36 Z M39,3.58 L38.6,3.58 L38.6,1.64 L39,1.64 C39.76,1.64 40.18,1.96 40.18,2.64 C40.18,3.32 39.74,3.58 39,3.58 Z"/>
      <path fill="#EE7623" d="M26.59,3.84 C26.59,5.723291 25.063291,7.25 23.18,7.25 C21.296709,7.25 19.77,5.723291 19.77,3.84 C19.77,1.956709 21.296709,0.43 23.18,0.43 C25.0610114,0.435492039 26.584508,1.95898858 26.59,3.84 L26.59,3.84 Z"/>
      <path fill="#FFF" d="M42,0.9 C42.0673469,0.886330905 42.1167918,0.828645181 42.12,0.76 C42.12,0.64 42.04,0.58 41.9,0.58 L41.7,0.58 L41.7,1.16 L41.84,1.16 L41.84,0.92 L42.02,1.16 L42.18,1.16 L42,0.9 Z M41.88,0.82 L41.88,0.82 L41.88,0.7 L41.88,0.7 C41.94,0.7 41.98,0.7 41.98,0.76 C41.98,0.82 42,0.82 41.9,0.82 L41.88,0.82 Z"/>
      <path fill="#FFF" d="M41.94,0.36 C41.671698,0.370740588 41.4597851,0.591483231 41.4599998,0.86 C41.4599998,1.13614237 41.6838576,1.36 41.9599998,1.36 C42.2361424,1.36 42.4599998,1.13614237 42.4599998,0.86 C42.460109,0.723852671 42.404694,0.593548232 42.3065545,0.499183301 C42.208415,0.40481837 42.0760384,0.354554061 41.94,0.36 Z M42.2,1.16 C42.1370641,1.23870923 42.0407274,1.28317234 41.94,1.28 C41.8328988,1.27757266 41.7315118,1.23119607 41.6596378,1.15175632 C41.5877637,1.07231657 41.5517318,0.966809141 41.56,0.86 C41.56,0.650131795 41.7301318,0.48 41.94,0.48 C42.1498682,0.48 42.32,0.650131795 42.32,0.86 C42.317592,0.971220544 42.2749601,1.07780031 42.2,1.16 L42.2,1.16 Z"/>
    </g>
  </g>
</svg>
