<svg xmlns="http://www.w3.org/2000/svg" width="48" height="32" viewBox="0 0 48 32">
  <g fill="none">
    <rect width="48" height="32" fill="#212B36" rx="4"/>
    <g transform="translate(8 4)">
      <rect width="9.85" height="13.54" x=".03" y="6.41" fill="#FFF"/>
      <rect width="9.87" height="11.9" x="11.09" y="6.41" fill="#FFF"/>
      <rect width="9.85" height="13.02" x="22.14" y="6.13" fill="#FFF"/>
      <path fill="#40A648" d="M24.1,14.57 L26.41,14.57 L26.69,14.57 C27.1671082,14.4777509 27.5088364,14.0558642 27.5,13.57 C27.4830187,13.0934051 27.1526797,12.6855792 26.69,12.57 C26.5969709,12.5593421 26.5030291,12.5593421 26.41,12.57 L24.1,12.57 L24.1,14.57 Z"/>
      <path fill="#40A648" d="M26.14,0 C23.930861,0 22.14,1.790861 22.14,4 L22.14,8.15 L27.79,8.15 C27.9228742,8.13435176 28.0571258,8.13435176 28.19,8.15 C29.46,8.21 30.41,8.87 30.41,10.01 C30.3837502,11.0096062 29.5796062,11.8137502 28.58,11.84 L28.58,11.84 C29.88,11.93 30.87,12.65 30.87,13.78 C30.87,14.91 29.77,15.78 28.32,15.78 L22.12,15.78 L22.12,24 L28,24 C30.209139,24 32,22.209139 32,20 L32,0 L26.14,0 Z"/>
      <path fill="#40A648" d="M27.22,10.31 C27.2562572,9.81512472 26.9016169,9.37729722 26.41,9.31 L26.19,9.31 L24.1,9.31 L24.1,11.24 L26.19,11.24 C26.2629003,11.2512699 26.3370997,11.2512699 26.41,11.24 C26.88012,11.1789158 27.2290494,10.7739854 27.22,10.3 L27.22,10.31 Z"/>
      <path fill="#0D67B0" d="M4,0 C1.790861,0 -1.77635684e-15,1.790861 -1.77635684e-15,4 L-1.77635684e-15,13.87 C1.06651931,14.4286513 2.24649243,14.7364704 3.45,14.77 C4.01035268,14.8353025 4.57106922,14.6508613 4.98323408,14.2656605 C5.39539895,13.8804597 5.61729832,13.3334841 5.59,12.77 L5.59,8.13 L9,8.13 L9,12.77 C9,14.57 7.88,16.04 4.08,16.04 C2.70478239,16.038973 1.33477002,15.8710793 -1.77635684e-15,15.54 L-1.77635684e-15,24 L5.87,24 C8.079139,24 9.87,22.209139 9.87,20 L9.87,0 L4,0 Z"/>
      <path fill="#BE2034" d="M15.09,0 C12.880861,0 11.09,1.790861 11.09,4 L11.09,9.23 C12.09,8.37 13.86,7.82 16.69,7.96 C17.7491899,8.02319902 18.8003015,8.1838785 19.83,8.44 L19.83,10.13 C18.9019037,9.631658 17.8802327,9.33196786 16.83,9.25 C14.68,9.1 13.38,10.15 13.38,12 C13.38,13.85 14.68,14.92 16.83,14.75 C17.8776583,14.6542691 18.8966355,14.3553691 19.83,13.87 L19.83,15.56 C18.8007245,15.8182276 17.7494153,15.9789372 16.69,16.04 C13.86,16.18 12.1,15.63 11.09,14.77 L11.09,24 L17,24 C19.209139,24 21,22.209139 21,20 L21,0 L15.09,0 Z"/>
    </g>
  </g>
</svg>
